G04 #@! TF.GenerationSoftware,KiCad,Pcbnew,5.1.10-6.fc34*
G04 #@! TF.CreationDate,2021-10-28T01:07:33+02:00*
G04 #@! TF.ProjectId,wled-controller,776c6564-2d63-46f6-9e74-726f6c6c6572,rev?*
G04 #@! TF.SameCoordinates,Original*
G04 #@! TF.FileFunction,Copper,L1,Top*
G04 #@! TF.FilePolarity,Positive*
%FSLAX46Y46*%
G04 Gerber Fmt 4.6, Leading zero omitted, Abs format (unit mm)*
G04 Created by KiCad (PCBNEW 5.1.10-6.fc34) date 2021-10-28 01:07:33*
%MOMM*%
%LPD*%
G01*
G04 APERTURE LIST*
G04 #@! TA.AperFunction,NonConductor*
%ADD10C,0.250000*%
G04 #@! TD*
G04 #@! TA.AperFunction,NonConductor*
%ADD11C,0.300000*%
G04 #@! TD*
G04 #@! TA.AperFunction,EtchedComponent*
%ADD12C,0.010000*%
G04 #@! TD*
G04 #@! TA.AperFunction,ComponentPad*
%ADD13C,2.000000*%
G04 #@! TD*
G04 #@! TA.AperFunction,ComponentPad*
%ADD14O,2.500000X1.100000*%
G04 #@! TD*
G04 #@! TA.AperFunction,ComponentPad*
%ADD15R,2.500000X1.100000*%
G04 #@! TD*
G04 #@! TA.AperFunction,SMDPad,CuDef*
%ADD16C,1.500000*%
G04 #@! TD*
G04 #@! TA.AperFunction,ComponentPad*
%ADD17C,1.600000*%
G04 #@! TD*
G04 #@! TA.AperFunction,ComponentPad*
%ADD18R,1.600000X1.600000*%
G04 #@! TD*
G04 #@! TA.AperFunction,ComponentPad*
%ADD19R,2.200000X2.200000*%
G04 #@! TD*
G04 #@! TA.AperFunction,ComponentPad*
%ADD20O,2.200000X2.200000*%
G04 #@! TD*
G04 #@! TA.AperFunction,SMDPad,CuDef*
%ADD21R,1.300000X1.700000*%
G04 #@! TD*
G04 #@! TA.AperFunction,SMDPad,CuDef*
%ADD22R,1.700000X1.300000*%
G04 #@! TD*
G04 #@! TA.AperFunction,ComponentPad*
%ADD23R,2.400000X2.400000*%
G04 #@! TD*
G04 #@! TA.AperFunction,ComponentPad*
%ADD24C,2.400000*%
G04 #@! TD*
G04 #@! TA.AperFunction,ComponentPad*
%ADD25C,1.800000*%
G04 #@! TD*
G04 #@! TA.AperFunction,ComponentPad*
%ADD26C,1.400000*%
G04 #@! TD*
G04 #@! TA.AperFunction,SMDPad,CuDef*
%ADD27R,2.000000X3.800000*%
G04 #@! TD*
G04 #@! TA.AperFunction,SMDPad,CuDef*
%ADD28R,2.000000X1.500000*%
G04 #@! TD*
G04 #@! TA.AperFunction,SMDPad,CuDef*
%ADD29R,0.900000X0.800000*%
G04 #@! TD*
G04 #@! TA.AperFunction,ComponentPad*
%ADD30R,1.700000X1.700000*%
G04 #@! TD*
G04 #@! TA.AperFunction,ComponentPad*
%ADD31O,1.700000X1.700000*%
G04 #@! TD*
G04 #@! TA.AperFunction,ViaPad*
%ADD32C,1.800000*%
G04 #@! TD*
G04 #@! TA.AperFunction,Conductor*
%ADD33C,0.500000*%
G04 #@! TD*
G04 #@! TA.AperFunction,Conductor*
%ADD34C,1.000000*%
G04 #@! TD*
G04 #@! TA.AperFunction,Conductor*
%ADD35C,2.000000*%
G04 #@! TD*
G04 #@! TA.AperFunction,Conductor*
%ADD36C,0.254000*%
G04 #@! TD*
G04 #@! TA.AperFunction,Conductor*
%ADD37C,0.350000*%
G04 #@! TD*
%ADD38C,0.350000*%
G04 APERTURE END LIST*
D10*
X74924404Y-99625000D02*
X74829166Y-99577380D01*
X74686309Y-99577380D01*
X74543452Y-99625000D01*
X74448214Y-99720238D01*
X74400595Y-99815476D01*
X74352976Y-100005952D01*
X74352976Y-100148809D01*
X74400595Y-100339285D01*
X74448214Y-100434523D01*
X74543452Y-100529761D01*
X74686309Y-100577380D01*
X74781547Y-100577380D01*
X74924404Y-100529761D01*
X74972023Y-100482142D01*
X74972023Y-100148809D01*
X74781547Y-100148809D01*
X75400595Y-100577380D02*
X75400595Y-99577380D01*
X75972023Y-100577380D01*
X75972023Y-99577380D01*
X76448214Y-100577380D02*
X76448214Y-99577380D01*
X76686309Y-99577380D01*
X76829166Y-99625000D01*
X76924404Y-99720238D01*
X76972023Y-99815476D01*
X77019642Y-100005952D01*
X77019642Y-100148809D01*
X76972023Y-100339285D01*
X76924404Y-100434523D01*
X76829166Y-100529761D01*
X76686309Y-100577380D01*
X76448214Y-100577380D01*
X74257738Y-101327380D02*
X74591071Y-102327380D01*
X74924404Y-101327380D01*
X75257738Y-102327380D02*
X75257738Y-101327380D01*
X75733928Y-102327380D02*
X75733928Y-101327380D01*
X76305357Y-102327380D01*
X76305357Y-101327380D01*
X74400595Y-79577380D02*
X74400595Y-78577380D01*
X74781547Y-78577380D01*
X74876785Y-78625000D01*
X74924404Y-78672619D01*
X74972023Y-78767857D01*
X74972023Y-78910714D01*
X74924404Y-79005952D01*
X74876785Y-79053571D01*
X74781547Y-79101190D01*
X74400595Y-79101190D01*
X75352976Y-79529761D02*
X75495833Y-79577380D01*
X75733928Y-79577380D01*
X75829166Y-79529761D01*
X75876785Y-79482142D01*
X75924404Y-79386904D01*
X75924404Y-79291666D01*
X75876785Y-79196428D01*
X75829166Y-79148809D01*
X75733928Y-79101190D01*
X75543452Y-79053571D01*
X75448214Y-79005952D01*
X75400595Y-78958333D01*
X75352976Y-78863095D01*
X75352976Y-78767857D01*
X75400595Y-78672619D01*
X75448214Y-78625000D01*
X75543452Y-78577380D01*
X75781547Y-78577380D01*
X75924404Y-78625000D01*
X76114880Y-79672619D02*
X76876785Y-79672619D01*
X77305357Y-78577380D02*
X77495833Y-78577380D01*
X77591071Y-78625000D01*
X77686309Y-78720238D01*
X77733928Y-78910714D01*
X77733928Y-79244047D01*
X77686309Y-79434523D01*
X77591071Y-79529761D01*
X77495833Y-79577380D01*
X77305357Y-79577380D01*
X77210119Y-79529761D01*
X77114880Y-79434523D01*
X77067261Y-79244047D01*
X77067261Y-78910714D01*
X77114880Y-78720238D01*
X77210119Y-78625000D01*
X77305357Y-78577380D01*
X78162500Y-79577380D02*
X78162500Y-78577380D01*
X78733928Y-79577380D01*
X78733928Y-78577380D01*
X74924404Y-80375000D02*
X74829166Y-80327380D01*
X74686309Y-80327380D01*
X74543452Y-80375000D01*
X74448214Y-80470238D01*
X74400595Y-80565476D01*
X74352976Y-80755952D01*
X74352976Y-80898809D01*
X74400595Y-81089285D01*
X74448214Y-81184523D01*
X74543452Y-81279761D01*
X74686309Y-81327380D01*
X74781547Y-81327380D01*
X74924404Y-81279761D01*
X74972023Y-81232142D01*
X74972023Y-80898809D01*
X74781547Y-80898809D01*
X75400595Y-81327380D02*
X75400595Y-80327380D01*
X75972023Y-81327380D01*
X75972023Y-80327380D01*
X76448214Y-81327380D02*
X76448214Y-80327380D01*
X76686309Y-80327380D01*
X76829166Y-80375000D01*
X76924404Y-80470238D01*
X76972023Y-80565476D01*
X77019642Y-80755952D01*
X77019642Y-80898809D01*
X76972023Y-81089285D01*
X76924404Y-81184523D01*
X76829166Y-81279761D01*
X76686309Y-81327380D01*
X76448214Y-81327380D01*
D11*
X139714285Y-105428571D02*
X139214285Y-104714285D01*
X138857142Y-105428571D02*
X138857142Y-103928571D01*
X139428571Y-103928571D01*
X139571428Y-104000000D01*
X139642857Y-104071428D01*
X139714285Y-104214285D01*
X139714285Y-104428571D01*
X139642857Y-104571428D01*
X139571428Y-104642857D01*
X139428571Y-104714285D01*
X138857142Y-104714285D01*
X140142857Y-103928571D02*
X141000000Y-103928571D01*
X140571428Y-105428571D02*
X140571428Y-103928571D01*
X141500000Y-104857142D02*
X142642857Y-104857142D01*
X144214285Y-105285714D02*
X144142857Y-105357142D01*
X143928571Y-105428571D01*
X143785714Y-105428571D01*
X143571428Y-105357142D01*
X143428571Y-105214285D01*
X143357142Y-105071428D01*
X143285714Y-104785714D01*
X143285714Y-104571428D01*
X143357142Y-104285714D01*
X143428571Y-104142857D01*
X143571428Y-104000000D01*
X143785714Y-103928571D01*
X143928571Y-103928571D01*
X144142857Y-104000000D01*
X144214285Y-104071428D01*
X145500000Y-104428571D02*
X145500000Y-105428571D01*
X144857142Y-104428571D02*
X144857142Y-105214285D01*
X144928571Y-105357142D01*
X145071428Y-105428571D01*
X145285714Y-105428571D01*
X145428571Y-105357142D01*
X145500000Y-105285714D01*
X146142857Y-105357142D02*
X146285714Y-105428571D01*
X146571428Y-105428571D01*
X146714285Y-105357142D01*
X146785714Y-105214285D01*
X146785714Y-105142857D01*
X146714285Y-105000000D01*
X146571428Y-104928571D01*
X146357142Y-104928571D01*
X146214285Y-104857142D01*
X146142857Y-104714285D01*
X146142857Y-104642857D01*
X146214285Y-104500000D01*
X146357142Y-104428571D01*
X146571428Y-104428571D01*
X146714285Y-104500000D01*
X147214285Y-104428571D02*
X147785714Y-104428571D01*
X147428571Y-103928571D02*
X147428571Y-105214285D01*
X147500000Y-105357142D01*
X147642857Y-105428571D01*
X147785714Y-105428571D01*
X148500000Y-105428571D02*
X148357142Y-105357142D01*
X148285714Y-105285714D01*
X148214285Y-105142857D01*
X148214285Y-104714285D01*
X148285714Y-104571428D01*
X148357142Y-104500000D01*
X148500000Y-104428571D01*
X148714285Y-104428571D01*
X148857142Y-104500000D01*
X148928571Y-104571428D01*
X149000000Y-104714285D01*
X149000000Y-105142857D01*
X148928571Y-105285714D01*
X148857142Y-105357142D01*
X148714285Y-105428571D01*
X148500000Y-105428571D01*
X149642857Y-105428571D02*
X149642857Y-104428571D01*
X149642857Y-104571428D02*
X149714285Y-104500000D01*
X149857142Y-104428571D01*
X150071428Y-104428571D01*
X150214285Y-104500000D01*
X150285714Y-104642857D01*
X150285714Y-105428571D01*
X150285714Y-104642857D02*
X150357142Y-104500000D01*
X150500000Y-104428571D01*
X150714285Y-104428571D01*
X150857142Y-104500000D01*
X150928571Y-104642857D01*
X150928571Y-105428571D01*
X151571428Y-105357142D02*
X151714285Y-105428571D01*
X152000000Y-105428571D01*
X152142857Y-105357142D01*
X152214285Y-105214285D01*
X152214285Y-105142857D01*
X152142857Y-105000000D01*
X152000000Y-104928571D01*
X151785714Y-104928571D01*
X151642857Y-104857142D01*
X151571428Y-104714285D01*
X151571428Y-104642857D01*
X151642857Y-104500000D01*
X151785714Y-104428571D01*
X152000000Y-104428571D01*
X152142857Y-104500000D01*
X107678571Y-104428571D02*
X108035714Y-105928571D01*
X108321428Y-104857142D01*
X108607142Y-105928571D01*
X108964285Y-104428571D01*
X110250000Y-105928571D02*
X109535714Y-105928571D01*
X109535714Y-104428571D01*
X110750000Y-105142857D02*
X111250000Y-105142857D01*
X111464285Y-105928571D02*
X110750000Y-105928571D01*
X110750000Y-104428571D01*
X111464285Y-104428571D01*
X112107142Y-105928571D02*
X112107142Y-104428571D01*
X112464285Y-104428571D01*
X112678571Y-104500000D01*
X112821428Y-104642857D01*
X112892857Y-104785714D01*
X112964285Y-105071428D01*
X112964285Y-105285714D01*
X112892857Y-105571428D01*
X112821428Y-105714285D01*
X112678571Y-105857142D01*
X112464285Y-105928571D01*
X112107142Y-105928571D01*
X115607142Y-105785714D02*
X115535714Y-105857142D01*
X115321428Y-105928571D01*
X115178571Y-105928571D01*
X114964285Y-105857142D01*
X114821428Y-105714285D01*
X114750000Y-105571428D01*
X114678571Y-105285714D01*
X114678571Y-105071428D01*
X114750000Y-104785714D01*
X114821428Y-104642857D01*
X114964285Y-104500000D01*
X115178571Y-104428571D01*
X115321428Y-104428571D01*
X115535714Y-104500000D01*
X115607142Y-104571428D01*
X116464285Y-105928571D02*
X116321428Y-105857142D01*
X116250000Y-105785714D01*
X116178571Y-105642857D01*
X116178571Y-105214285D01*
X116250000Y-105071428D01*
X116321428Y-105000000D01*
X116464285Y-104928571D01*
X116678571Y-104928571D01*
X116821428Y-105000000D01*
X116892857Y-105071428D01*
X116964285Y-105214285D01*
X116964285Y-105642857D01*
X116892857Y-105785714D01*
X116821428Y-105857142D01*
X116678571Y-105928571D01*
X116464285Y-105928571D01*
X117607142Y-104928571D02*
X117607142Y-105928571D01*
X117607142Y-105071428D02*
X117678571Y-105000000D01*
X117821428Y-104928571D01*
X118035714Y-104928571D01*
X118178571Y-105000000D01*
X118250000Y-105142857D01*
X118250000Y-105928571D01*
X118750000Y-104928571D02*
X119321428Y-104928571D01*
X118964285Y-104428571D02*
X118964285Y-105714285D01*
X119035714Y-105857142D01*
X119178571Y-105928571D01*
X119321428Y-105928571D01*
X119821428Y-105928571D02*
X119821428Y-104928571D01*
X119821428Y-105214285D02*
X119892857Y-105071428D01*
X119964285Y-105000000D01*
X120107142Y-104928571D01*
X120250000Y-104928571D01*
X120964285Y-105928571D02*
X120821428Y-105857142D01*
X120750000Y-105785714D01*
X120678571Y-105642857D01*
X120678571Y-105214285D01*
X120750000Y-105071428D01*
X120821428Y-105000000D01*
X120964285Y-104928571D01*
X121178571Y-104928571D01*
X121321428Y-105000000D01*
X121392857Y-105071428D01*
X121464285Y-105214285D01*
X121464285Y-105642857D01*
X121392857Y-105785714D01*
X121321428Y-105857142D01*
X121178571Y-105928571D01*
X120964285Y-105928571D01*
X122321428Y-105928571D02*
X122178571Y-105857142D01*
X122107142Y-105714285D01*
X122107142Y-104428571D01*
X123107142Y-105928571D02*
X122964285Y-105857142D01*
X122892857Y-105714285D01*
X122892857Y-104428571D01*
X124250000Y-105857142D02*
X124107142Y-105928571D01*
X123821428Y-105928571D01*
X123678571Y-105857142D01*
X123607142Y-105714285D01*
X123607142Y-105142857D01*
X123678571Y-105000000D01*
X123821428Y-104928571D01*
X124107142Y-104928571D01*
X124250000Y-105000000D01*
X124321428Y-105142857D01*
X124321428Y-105285714D01*
X123607142Y-105428571D01*
X124964285Y-105928571D02*
X124964285Y-104928571D01*
X124964285Y-105214285D02*
X125035714Y-105071428D01*
X125107142Y-105000000D01*
X125250000Y-104928571D01*
X125392857Y-104928571D01*
X126821428Y-104428571D02*
X127321428Y-105928571D01*
X127821428Y-104428571D01*
X129107142Y-105928571D02*
X128250000Y-105928571D01*
X128678571Y-105928571D02*
X128678571Y-104428571D01*
X128535714Y-104642857D01*
X128392857Y-104785714D01*
X128250000Y-104857142D01*
X129750000Y-105785714D02*
X129821428Y-105857142D01*
X129750000Y-105928571D01*
X129678571Y-105857142D01*
X129750000Y-105785714D01*
X129750000Y-105928571D01*
X130392857Y-104571428D02*
X130464285Y-104500000D01*
X130607142Y-104428571D01*
X130964285Y-104428571D01*
X131107142Y-104500000D01*
X131178571Y-104571428D01*
X131250000Y-104714285D01*
X131250000Y-104857142D01*
X131178571Y-105071428D01*
X130321428Y-105928571D01*
X131250000Y-105928571D01*
D10*
X140685714Y-76848214D02*
X140628571Y-77019642D01*
X140571428Y-77076785D01*
X140457142Y-77133928D01*
X140285714Y-77133928D01*
X140171428Y-77076785D01*
X140114285Y-77019642D01*
X140057142Y-76905357D01*
X140057142Y-76448214D01*
X141257142Y-76448214D01*
X141257142Y-76848214D01*
X141200000Y-76962500D01*
X141142857Y-77019642D01*
X141028571Y-77076785D01*
X140914285Y-77076785D01*
X140800000Y-77019642D01*
X140742857Y-76962500D01*
X140685714Y-76848214D01*
X140685714Y-76448214D01*
X141257142Y-77876785D02*
X141257142Y-78105357D01*
X141200000Y-78219642D01*
X141085714Y-78333928D01*
X140857142Y-78391071D01*
X140457142Y-78391071D01*
X140228571Y-78333928D01*
X140114285Y-78219642D01*
X140057142Y-78105357D01*
X140057142Y-77876785D01*
X140114285Y-77762500D01*
X140228571Y-77648214D01*
X140457142Y-77591071D01*
X140857142Y-77591071D01*
X141085714Y-77648214D01*
X141200000Y-77762500D01*
X141257142Y-77876785D01*
X141257142Y-79133928D02*
X141257142Y-79362500D01*
X141200000Y-79476785D01*
X141085714Y-79591071D01*
X140857142Y-79648214D01*
X140457142Y-79648214D01*
X140228571Y-79591071D01*
X140114285Y-79476785D01*
X140057142Y-79362500D01*
X140057142Y-79133928D01*
X140114285Y-79019642D01*
X140228571Y-78905357D01*
X140457142Y-78848214D01*
X140857142Y-78848214D01*
X141085714Y-78905357D01*
X141200000Y-79019642D01*
X141257142Y-79133928D01*
X141257142Y-79991071D02*
X141257142Y-80676785D01*
X140057142Y-80333928D02*
X141257142Y-80333928D01*
X140057142Y-81648214D02*
X140057142Y-81076785D01*
X141257142Y-81076785D01*
X138635714Y-76448214D02*
X138635714Y-76848214D01*
X138007142Y-77019642D02*
X138007142Y-76448214D01*
X139207142Y-76448214D01*
X139207142Y-77019642D01*
X138007142Y-77533928D02*
X139207142Y-77533928D01*
X138007142Y-78219642D01*
X139207142Y-78219642D01*
X135957142Y-77133928D02*
X136528571Y-76733928D01*
X135957142Y-76448214D02*
X137157142Y-76448214D01*
X137157142Y-76905357D01*
X137100000Y-77019642D01*
X137042857Y-77076785D01*
X136928571Y-77133928D01*
X136757142Y-77133928D01*
X136642857Y-77076785D01*
X136585714Y-77019642D01*
X136528571Y-76905357D01*
X136528571Y-76448214D01*
X137157142Y-77533928D02*
X135957142Y-78333928D01*
X137157142Y-78333928D02*
X135957142Y-77533928D01*
X135107142Y-76276785D02*
X135107142Y-76962500D01*
X133907142Y-76619642D02*
X135107142Y-76619642D01*
X135107142Y-77248214D02*
X133907142Y-78048214D01*
X135107142Y-78048214D02*
X133907142Y-77248214D01*
X133000000Y-77076785D02*
X133057142Y-76962500D01*
X133057142Y-76791071D01*
X133000000Y-76619642D01*
X132885714Y-76505357D01*
X132771428Y-76448214D01*
X132542857Y-76391071D01*
X132371428Y-76391071D01*
X132142857Y-76448214D01*
X132028571Y-76505357D01*
X131914285Y-76619642D01*
X131857142Y-76791071D01*
X131857142Y-76905357D01*
X131914285Y-77076785D01*
X131971428Y-77133928D01*
X132371428Y-77133928D01*
X132371428Y-76905357D01*
X131857142Y-77648214D02*
X133057142Y-77648214D01*
X131857142Y-78333928D01*
X133057142Y-78333928D01*
X131857142Y-78905357D02*
X133057142Y-78905357D01*
X133057142Y-79191071D01*
X133000000Y-79362500D01*
X132885714Y-79476785D01*
X132771428Y-79533928D01*
X132542857Y-79591071D01*
X132371428Y-79591071D01*
X132142857Y-79533928D01*
X132028571Y-79476785D01*
X131914285Y-79362500D01*
X131857142Y-79191071D01*
X131857142Y-78905357D01*
D12*
G04 #@! TO.C,G\u002A\u002A\u002A*
G36*
X145174572Y-96628567D02*
G01*
X145170805Y-96652262D01*
X145164660Y-96689942D01*
X145156363Y-96740253D01*
X145146139Y-96801840D01*
X145134212Y-96873346D01*
X145120810Y-96953419D01*
X145106156Y-97040702D01*
X145090476Y-97133841D01*
X145080485Y-97193067D01*
X145058791Y-97321569D01*
X145036417Y-97454125D01*
X145013228Y-97591534D01*
X144989089Y-97734593D01*
X144963866Y-97884100D01*
X144937424Y-98040854D01*
X144909629Y-98205651D01*
X144880347Y-98379291D01*
X144849442Y-98562570D01*
X144816779Y-98756287D01*
X144782226Y-98961239D01*
X144745647Y-99178226D01*
X144706907Y-99408043D01*
X144665871Y-99651490D01*
X144622407Y-99909364D01*
X144576378Y-100182464D01*
X144535334Y-100425991D01*
X144520897Y-100511991D01*
X144507431Y-100592856D01*
X144495181Y-100667072D01*
X144484393Y-100733119D01*
X144475311Y-100789483D01*
X144468181Y-100834645D01*
X144463248Y-100867089D01*
X144460757Y-100885298D01*
X144460547Y-100888774D01*
X144468088Y-100885012D01*
X144488894Y-100873246D01*
X144521722Y-100854208D01*
X144565333Y-100828632D01*
X144618484Y-100797250D01*
X144679936Y-100760795D01*
X144748447Y-100720001D01*
X144822775Y-100675600D01*
X144901681Y-100628326D01*
X144914553Y-100620602D01*
X145365806Y-100349739D01*
X145875519Y-100673743D01*
X145960035Y-100727466D01*
X146040687Y-100778733D01*
X146116287Y-100826787D01*
X146185646Y-100870875D01*
X146247576Y-100910239D01*
X146300889Y-100944126D01*
X146344395Y-100971779D01*
X146376908Y-100992443D01*
X146397237Y-101005363D01*
X146403852Y-101009565D01*
X146408788Y-101011796D01*
X146415286Y-101012245D01*
X146424586Y-101010245D01*
X146437923Y-101005127D01*
X146456534Y-100996225D01*
X146481658Y-100982869D01*
X146514530Y-100964392D01*
X146556389Y-100940126D01*
X146608471Y-100909402D01*
X146672013Y-100871553D01*
X146748253Y-100825911D01*
X146786969Y-100802690D01*
X146858218Y-100759859D01*
X146924861Y-100719637D01*
X146985525Y-100682865D01*
X147038834Y-100650384D01*
X147083416Y-100623032D01*
X147117896Y-100601652D01*
X147140901Y-100587083D01*
X147151055Y-100580167D01*
X147151429Y-100579748D01*
X147144460Y-100574627D01*
X147124312Y-100561153D01*
X147092101Y-100540045D01*
X147048944Y-100512023D01*
X146995959Y-100477808D01*
X146934263Y-100438119D01*
X146864974Y-100393677D01*
X146789207Y-100345202D01*
X146708081Y-100293413D01*
X146626700Y-100241568D01*
X146541576Y-100187359D01*
X146460788Y-100135848D01*
X146385449Y-100087746D01*
X146316668Y-100043767D01*
X146255557Y-100004623D01*
X146203228Y-99971026D01*
X146160791Y-99943689D01*
X146129357Y-99923324D01*
X146110038Y-99910644D01*
X146103921Y-99906362D01*
X146111320Y-99901904D01*
X146132007Y-99889479D01*
X146164747Y-99869828D01*
X146208306Y-99843694D01*
X146261447Y-99811815D01*
X146322936Y-99774934D01*
X146391539Y-99733791D01*
X146466019Y-99689127D01*
X146545141Y-99641683D01*
X146560846Y-99632267D01*
X146656534Y-99575095D01*
X146742761Y-99523986D01*
X146818860Y-99479321D01*
X146884166Y-99441483D01*
X146938014Y-99410850D01*
X146979737Y-99387805D01*
X147008671Y-99372728D01*
X147024150Y-99366000D01*
X147026512Y-99365774D01*
X147035116Y-99371181D01*
X147057146Y-99385136D01*
X147091809Y-99407132D01*
X147138313Y-99436668D01*
X147195866Y-99473237D01*
X147263676Y-99516337D01*
X147340951Y-99565463D01*
X147426898Y-99620112D01*
X147520725Y-99679778D01*
X147621640Y-99743958D01*
X147728852Y-99812149D01*
X147841567Y-99883845D01*
X147958994Y-99958544D01*
X148080340Y-100035740D01*
X148204813Y-100114929D01*
X148331622Y-100195609D01*
X148459973Y-100277274D01*
X148589075Y-100359420D01*
X148718135Y-100441544D01*
X148846362Y-100523141D01*
X148972963Y-100603708D01*
X149097146Y-100682740D01*
X149218119Y-100759733D01*
X149335089Y-100834183D01*
X149447265Y-100905586D01*
X149553854Y-100973438D01*
X149654065Y-101037235D01*
X149747104Y-101096473D01*
X149832180Y-101150648D01*
X149908500Y-101199255D01*
X149975273Y-101241791D01*
X150031706Y-101277752D01*
X150077007Y-101306633D01*
X150110385Y-101327930D01*
X150131045Y-101341140D01*
X150138194Y-101345755D01*
X150131529Y-101350309D01*
X150111549Y-101362820D01*
X150079469Y-101382550D01*
X150036506Y-101408762D01*
X149983875Y-101440718D01*
X149922792Y-101477681D01*
X149854471Y-101518912D01*
X149780130Y-101563673D01*
X149700982Y-101611228D01*
X149681243Y-101623073D01*
X149222066Y-101898547D01*
X149196416Y-101879486D01*
X149185400Y-101872056D01*
X149161210Y-101856271D01*
X149124969Y-101832852D01*
X149077801Y-101802516D01*
X149020829Y-101765984D01*
X148955176Y-101723975D01*
X148881967Y-101677207D01*
X148802323Y-101626399D01*
X148717369Y-101572272D01*
X148628227Y-101515544D01*
X148588226Y-101490110D01*
X148005685Y-101119794D01*
X147641815Y-101337931D01*
X147570678Y-101380739D01*
X147504232Y-101421038D01*
X147443843Y-101457979D01*
X147390878Y-101490708D01*
X147346702Y-101518378D01*
X147312681Y-101540135D01*
X147290182Y-101555131D01*
X147280571Y-101562514D01*
X147280322Y-101563034D01*
X147287529Y-101568240D01*
X147307780Y-101581742D01*
X147339834Y-101602745D01*
X147382452Y-101630455D01*
X147434392Y-101664075D01*
X147494413Y-101702811D01*
X147561275Y-101745866D01*
X147633736Y-101792447D01*
X147710555Y-101841757D01*
X147790492Y-101893001D01*
X147872306Y-101945384D01*
X147954757Y-101998111D01*
X148036602Y-102050386D01*
X148116601Y-102101415D01*
X148193514Y-102150401D01*
X148266100Y-102196550D01*
X148333117Y-102239065D01*
X148393325Y-102277153D01*
X148445483Y-102310018D01*
X148461967Y-102320365D01*
X148489767Y-102337794D01*
X148047773Y-102603880D01*
X147968568Y-102651545D01*
X147893343Y-102696782D01*
X147823408Y-102738805D01*
X147760074Y-102776828D01*
X147704650Y-102810065D01*
X147658448Y-102837730D01*
X147622779Y-102859038D01*
X147598952Y-102873202D01*
X147588278Y-102879436D01*
X147588172Y-102879494D01*
X147582723Y-102880898D01*
X147574565Y-102879759D01*
X147562464Y-102875363D01*
X147545187Y-102866999D01*
X147521501Y-102853951D01*
X147490173Y-102835509D01*
X147449970Y-102810957D01*
X147399658Y-102779584D01*
X147338005Y-102740675D01*
X147263777Y-102693519D01*
X147236133Y-102675911D01*
X147191368Y-102647392D01*
X147133353Y-102610444D01*
X147063125Y-102565725D01*
X146981720Y-102513895D01*
X146890177Y-102455616D01*
X146789532Y-102391547D01*
X146680821Y-102322348D01*
X146565081Y-102248678D01*
X146443350Y-102171198D01*
X146316664Y-102090568D01*
X146186060Y-102007448D01*
X146052575Y-101922498D01*
X145917245Y-101836378D01*
X145781109Y-101749747D01*
X145699433Y-101697775D01*
X145569148Y-101614864D01*
X145442547Y-101534283D01*
X145320384Y-101456512D01*
X145203415Y-101382033D01*
X145092394Y-101311327D01*
X144988077Y-101244876D01*
X144891220Y-101183161D01*
X144802576Y-101126662D01*
X144722903Y-101075862D01*
X144652953Y-101031242D01*
X144593484Y-100993283D01*
X144545249Y-100962466D01*
X144509005Y-100939274D01*
X144485506Y-100924186D01*
X144475507Y-100917684D01*
X144475393Y-100917605D01*
X144453619Y-100902463D01*
X144117352Y-101105013D01*
X144038059Y-101152514D01*
X143967667Y-101194156D01*
X143907032Y-101229453D01*
X143857012Y-101257919D01*
X143818466Y-101279068D01*
X143792251Y-101292415D01*
X143779226Y-101297475D01*
X143777915Y-101297131D01*
X143776578Y-101287760D01*
X143773381Y-101262832D01*
X143768476Y-101223604D01*
X143762015Y-101171333D01*
X143754149Y-101107276D01*
X143745030Y-101032688D01*
X143734811Y-100948828D01*
X143723641Y-100856951D01*
X143711675Y-100758315D01*
X143699062Y-100654176D01*
X143685955Y-100545791D01*
X143672505Y-100434416D01*
X143658865Y-100321309D01*
X143645186Y-100207726D01*
X143631619Y-100094924D01*
X143618317Y-99984159D01*
X143605431Y-99876689D01*
X143593112Y-99773769D01*
X143581514Y-99676658D01*
X143570786Y-99586611D01*
X143561082Y-99504885D01*
X143552552Y-99432737D01*
X143545349Y-99371424D01*
X143543089Y-99352067D01*
X143537074Y-99303517D01*
X143531094Y-99260715D01*
X143525607Y-99226544D01*
X143521068Y-99203890D01*
X143518313Y-99195857D01*
X143512502Y-99195899D01*
X143510800Y-99207062D01*
X143509959Y-99217687D01*
X143507514Y-99243984D01*
X143503585Y-99284780D01*
X143498290Y-99338903D01*
X143491748Y-99405179D01*
X143484078Y-99482436D01*
X143475398Y-99569499D01*
X143465827Y-99665197D01*
X143455484Y-99768356D01*
X143444488Y-99877802D01*
X143432957Y-99992364D01*
X143421010Y-100110868D01*
X143408765Y-100232140D01*
X143396343Y-100355008D01*
X143383860Y-100478299D01*
X143371437Y-100600839D01*
X143359191Y-100721456D01*
X143347242Y-100838977D01*
X143335708Y-100952227D01*
X143324708Y-101060036D01*
X143314361Y-101161228D01*
X143304785Y-101254632D01*
X143296099Y-101339074D01*
X143288422Y-101413381D01*
X143281873Y-101476381D01*
X143276570Y-101526899D01*
X143272632Y-101563763D01*
X143270178Y-101585800D01*
X143269446Y-101591554D01*
X143267627Y-101597788D01*
X143263416Y-101604629D01*
X143255639Y-101612856D01*
X143243121Y-101623242D01*
X143224686Y-101636565D01*
X143199160Y-101653600D01*
X143165368Y-101675123D01*
X143122135Y-101701911D01*
X143068286Y-101734739D01*
X143002647Y-101774384D01*
X142924043Y-101821621D01*
X142892602Y-101840481D01*
X142820494Y-101883621D01*
X142752864Y-101923891D01*
X142691079Y-101960489D01*
X142636510Y-101992613D01*
X142590526Y-102019461D01*
X142554495Y-102040231D01*
X142529788Y-102054120D01*
X142517773Y-102060328D01*
X142516831Y-102060560D01*
X142515002Y-102052030D01*
X142510225Y-102027630D01*
X142502647Y-101988139D01*
X142492413Y-101934335D01*
X142479669Y-101866997D01*
X142464563Y-101786904D01*
X142447238Y-101694834D01*
X142427843Y-101591566D01*
X142406522Y-101477878D01*
X142383422Y-101354549D01*
X142358689Y-101222358D01*
X142332469Y-101082082D01*
X142304908Y-100934502D01*
X142276152Y-100780394D01*
X142246346Y-100620539D01*
X142215638Y-100455714D01*
X142194590Y-100342667D01*
X142163339Y-100174801D01*
X142132892Y-100011301D01*
X142103396Y-99852952D01*
X142074997Y-99700537D01*
X142047842Y-99554842D01*
X142022077Y-99416649D01*
X141997848Y-99286743D01*
X141975302Y-99165909D01*
X141954584Y-99054930D01*
X141935843Y-98954591D01*
X141919223Y-98865676D01*
X141904871Y-98788969D01*
X141892934Y-98725254D01*
X141883558Y-98675315D01*
X141876889Y-98639937D01*
X141873074Y-98619904D01*
X141872190Y-98615467D01*
X141876576Y-98609293D01*
X141891812Y-98597221D01*
X141918446Y-98578903D01*
X141957024Y-98553995D01*
X142008094Y-98522150D01*
X142072203Y-98483023D01*
X142149898Y-98436268D01*
X142241727Y-98381538D01*
X142250850Y-98376123D01*
X142323990Y-98332835D01*
X142392681Y-98292404D01*
X142455562Y-98255615D01*
X142511270Y-98223256D01*
X142558446Y-98196111D01*
X142595727Y-98174966D01*
X142621753Y-98160607D01*
X142635162Y-98153820D01*
X142636698Y-98153409D01*
X142638402Y-98162208D01*
X142642279Y-98186811D01*
X142648193Y-98226250D01*
X142656005Y-98279555D01*
X142665581Y-98345756D01*
X142676783Y-98423883D01*
X142689475Y-98512966D01*
X142703519Y-98612035D01*
X142718781Y-98720121D01*
X142735121Y-98836254D01*
X142752406Y-98959464D01*
X142770496Y-99088782D01*
X142789257Y-99223237D01*
X142808551Y-99361859D01*
X142828241Y-99503679D01*
X142848192Y-99647728D01*
X142868266Y-99793034D01*
X142888327Y-99938629D01*
X142893825Y-99978600D01*
X142903759Y-100050031D01*
X142913174Y-100116163D01*
X142921786Y-100175125D01*
X142929313Y-100225043D01*
X142935472Y-100264044D01*
X142939978Y-100290256D01*
X142942550Y-100301805D01*
X142942730Y-100302135D01*
X142944087Y-100294573D01*
X142946853Y-100271081D01*
X142950940Y-100232597D01*
X142956259Y-100180056D01*
X142962720Y-100114397D01*
X142970236Y-100036555D01*
X142978718Y-99947469D01*
X142988076Y-99848075D01*
X142998223Y-99739310D01*
X143009069Y-99622111D01*
X143020525Y-99497416D01*
X143032504Y-99366160D01*
X143044915Y-99229282D01*
X143056580Y-99099868D01*
X143069355Y-98957835D01*
X143081767Y-98820046D01*
X143093727Y-98687484D01*
X143105146Y-98561129D01*
X143115934Y-98441962D01*
X143126002Y-98330966D01*
X143135261Y-98229121D01*
X143143620Y-98137408D01*
X143150992Y-98056809D01*
X143157287Y-97988306D01*
X143162415Y-97932878D01*
X143166287Y-97891509D01*
X143168814Y-97865178D01*
X143169845Y-97855303D01*
X143174512Y-97819040D01*
X143526551Y-97607822D01*
X143596630Y-97565962D01*
X143662281Y-97527110D01*
X143722087Y-97492078D01*
X143774627Y-97461680D01*
X143818484Y-97436730D01*
X143852239Y-97418042D01*
X143874473Y-97406430D01*
X143883768Y-97402708D01*
X143883919Y-97402785D01*
X143885487Y-97411816D01*
X143888765Y-97436670D01*
X143893638Y-97476338D01*
X143899992Y-97529808D01*
X143907711Y-97596069D01*
X143916681Y-97674111D01*
X143926786Y-97762923D01*
X143937912Y-97861494D01*
X143949943Y-97968813D01*
X143962765Y-98083870D01*
X143976262Y-98205654D01*
X143990320Y-98333153D01*
X144004823Y-98465357D01*
X144005499Y-98471533D01*
X144023177Y-98633114D01*
X144039107Y-98778686D01*
X144053383Y-98909076D01*
X144066100Y-99025108D01*
X144077350Y-99127608D01*
X144087229Y-99217400D01*
X144095830Y-99295311D01*
X144103248Y-99362164D01*
X144109576Y-99418786D01*
X144114909Y-99466001D01*
X144119340Y-99504634D01*
X144122965Y-99535511D01*
X144125875Y-99559456D01*
X144128167Y-99577295D01*
X144129933Y-99589852D01*
X144131269Y-99597954D01*
X144132267Y-99602425D01*
X144133023Y-99604090D01*
X144133629Y-99603774D01*
X144134181Y-99602302D01*
X144134347Y-99601770D01*
X144135559Y-99592523D01*
X144138511Y-99567384D01*
X144143099Y-99527292D01*
X144149218Y-99473186D01*
X144156764Y-99406008D01*
X144165631Y-99326696D01*
X144175716Y-99236190D01*
X144186914Y-99135431D01*
X144199119Y-99025358D01*
X144212229Y-98906911D01*
X144226137Y-98781029D01*
X144240740Y-98648654D01*
X144255933Y-98510723D01*
X144271611Y-98368179D01*
X144272349Y-98361467D01*
X144288103Y-98218323D01*
X144303427Y-98079498D01*
X144318212Y-97945955D01*
X144332350Y-97818655D01*
X144345733Y-97698557D01*
X144358252Y-97586624D01*
X144369800Y-97483817D01*
X144380267Y-97391096D01*
X144389547Y-97309422D01*
X144397530Y-97239758D01*
X144404109Y-97183063D01*
X144409174Y-97140300D01*
X144412619Y-97112428D01*
X144414335Y-97100409D01*
X144414351Y-97100338D01*
X144416379Y-97093509D01*
X144420064Y-97086583D01*
X144426591Y-97078771D01*
X144437142Y-97069285D01*
X144452902Y-97057337D01*
X144475055Y-97042138D01*
X144504784Y-97022899D01*
X144543274Y-96998832D01*
X144591708Y-96969149D01*
X144651270Y-96933060D01*
X144723145Y-96889778D01*
X144797733Y-96844984D01*
X144870194Y-96801534D01*
X144938121Y-96760878D01*
X145000161Y-96723822D01*
X145054960Y-96691169D01*
X145101164Y-96663726D01*
X145137419Y-96642298D01*
X145162371Y-96627688D01*
X145174666Y-96620703D01*
X145175737Y-96620213D01*
X145174572Y-96628567D01*
G37*
X145174572Y-96628567D02*
X145170805Y-96652262D01*
X145164660Y-96689942D01*
X145156363Y-96740253D01*
X145146139Y-96801840D01*
X145134212Y-96873346D01*
X145120810Y-96953419D01*
X145106156Y-97040702D01*
X145090476Y-97133841D01*
X145080485Y-97193067D01*
X145058791Y-97321569D01*
X145036417Y-97454125D01*
X145013228Y-97591534D01*
X144989089Y-97734593D01*
X144963866Y-97884100D01*
X144937424Y-98040854D01*
X144909629Y-98205651D01*
X144880347Y-98379291D01*
X144849442Y-98562570D01*
X144816779Y-98756287D01*
X144782226Y-98961239D01*
X144745647Y-99178226D01*
X144706907Y-99408043D01*
X144665871Y-99651490D01*
X144622407Y-99909364D01*
X144576378Y-100182464D01*
X144535334Y-100425991D01*
X144520897Y-100511991D01*
X144507431Y-100592856D01*
X144495181Y-100667072D01*
X144484393Y-100733119D01*
X144475311Y-100789483D01*
X144468181Y-100834645D01*
X144463248Y-100867089D01*
X144460757Y-100885298D01*
X144460547Y-100888774D01*
X144468088Y-100885012D01*
X144488894Y-100873246D01*
X144521722Y-100854208D01*
X144565333Y-100828632D01*
X144618484Y-100797250D01*
X144679936Y-100760795D01*
X144748447Y-100720001D01*
X144822775Y-100675600D01*
X144901681Y-100628326D01*
X144914553Y-100620602D01*
X145365806Y-100349739D01*
X145875519Y-100673743D01*
X145960035Y-100727466D01*
X146040687Y-100778733D01*
X146116287Y-100826787D01*
X146185646Y-100870875D01*
X146247576Y-100910239D01*
X146300889Y-100944126D01*
X146344395Y-100971779D01*
X146376908Y-100992443D01*
X146397237Y-101005363D01*
X146403852Y-101009565D01*
X146408788Y-101011796D01*
X146415286Y-101012245D01*
X146424586Y-101010245D01*
X146437923Y-101005127D01*
X146456534Y-100996225D01*
X146481658Y-100982869D01*
X146514530Y-100964392D01*
X146556389Y-100940126D01*
X146608471Y-100909402D01*
X146672013Y-100871553D01*
X146748253Y-100825911D01*
X146786969Y-100802690D01*
X146858218Y-100759859D01*
X146924861Y-100719637D01*
X146985525Y-100682865D01*
X147038834Y-100650384D01*
X147083416Y-100623032D01*
X147117896Y-100601652D01*
X147140901Y-100587083D01*
X147151055Y-100580167D01*
X147151429Y-100579748D01*
X147144460Y-100574627D01*
X147124312Y-100561153D01*
X147092101Y-100540045D01*
X147048944Y-100512023D01*
X146995959Y-100477808D01*
X146934263Y-100438119D01*
X146864974Y-100393677D01*
X146789207Y-100345202D01*
X146708081Y-100293413D01*
X146626700Y-100241568D01*
X146541576Y-100187359D01*
X146460788Y-100135848D01*
X146385449Y-100087746D01*
X146316668Y-100043767D01*
X146255557Y-100004623D01*
X146203228Y-99971026D01*
X146160791Y-99943689D01*
X146129357Y-99923324D01*
X146110038Y-99910644D01*
X146103921Y-99906362D01*
X146111320Y-99901904D01*
X146132007Y-99889479D01*
X146164747Y-99869828D01*
X146208306Y-99843694D01*
X146261447Y-99811815D01*
X146322936Y-99774934D01*
X146391539Y-99733791D01*
X146466019Y-99689127D01*
X146545141Y-99641683D01*
X146560846Y-99632267D01*
X146656534Y-99575095D01*
X146742761Y-99523986D01*
X146818860Y-99479321D01*
X146884166Y-99441483D01*
X146938014Y-99410850D01*
X146979737Y-99387805D01*
X147008671Y-99372728D01*
X147024150Y-99366000D01*
X147026512Y-99365774D01*
X147035116Y-99371181D01*
X147057146Y-99385136D01*
X147091809Y-99407132D01*
X147138313Y-99436668D01*
X147195866Y-99473237D01*
X147263676Y-99516337D01*
X147340951Y-99565463D01*
X147426898Y-99620112D01*
X147520725Y-99679778D01*
X147621640Y-99743958D01*
X147728852Y-99812149D01*
X147841567Y-99883845D01*
X147958994Y-99958544D01*
X148080340Y-100035740D01*
X148204813Y-100114929D01*
X148331622Y-100195609D01*
X148459973Y-100277274D01*
X148589075Y-100359420D01*
X148718135Y-100441544D01*
X148846362Y-100523141D01*
X148972963Y-100603708D01*
X149097146Y-100682740D01*
X149218119Y-100759733D01*
X149335089Y-100834183D01*
X149447265Y-100905586D01*
X149553854Y-100973438D01*
X149654065Y-101037235D01*
X149747104Y-101096473D01*
X149832180Y-101150648D01*
X149908500Y-101199255D01*
X149975273Y-101241791D01*
X150031706Y-101277752D01*
X150077007Y-101306633D01*
X150110385Y-101327930D01*
X150131045Y-101341140D01*
X150138194Y-101345755D01*
X150131529Y-101350309D01*
X150111549Y-101362820D01*
X150079469Y-101382550D01*
X150036506Y-101408762D01*
X149983875Y-101440718D01*
X149922792Y-101477681D01*
X149854471Y-101518912D01*
X149780130Y-101563673D01*
X149700982Y-101611228D01*
X149681243Y-101623073D01*
X149222066Y-101898547D01*
X149196416Y-101879486D01*
X149185400Y-101872056D01*
X149161210Y-101856271D01*
X149124969Y-101832852D01*
X149077801Y-101802516D01*
X149020829Y-101765984D01*
X148955176Y-101723975D01*
X148881967Y-101677207D01*
X148802323Y-101626399D01*
X148717369Y-101572272D01*
X148628227Y-101515544D01*
X148588226Y-101490110D01*
X148005685Y-101119794D01*
X147641815Y-101337931D01*
X147570678Y-101380739D01*
X147504232Y-101421038D01*
X147443843Y-101457979D01*
X147390878Y-101490708D01*
X147346702Y-101518378D01*
X147312681Y-101540135D01*
X147290182Y-101555131D01*
X147280571Y-101562514D01*
X147280322Y-101563034D01*
X147287529Y-101568240D01*
X147307780Y-101581742D01*
X147339834Y-101602745D01*
X147382452Y-101630455D01*
X147434392Y-101664075D01*
X147494413Y-101702811D01*
X147561275Y-101745866D01*
X147633736Y-101792447D01*
X147710555Y-101841757D01*
X147790492Y-101893001D01*
X147872306Y-101945384D01*
X147954757Y-101998111D01*
X148036602Y-102050386D01*
X148116601Y-102101415D01*
X148193514Y-102150401D01*
X148266100Y-102196550D01*
X148333117Y-102239065D01*
X148393325Y-102277153D01*
X148445483Y-102310018D01*
X148461967Y-102320365D01*
X148489767Y-102337794D01*
X148047773Y-102603880D01*
X147968568Y-102651545D01*
X147893343Y-102696782D01*
X147823408Y-102738805D01*
X147760074Y-102776828D01*
X147704650Y-102810065D01*
X147658448Y-102837730D01*
X147622779Y-102859038D01*
X147598952Y-102873202D01*
X147588278Y-102879436D01*
X147588172Y-102879494D01*
X147582723Y-102880898D01*
X147574565Y-102879759D01*
X147562464Y-102875363D01*
X147545187Y-102866999D01*
X147521501Y-102853951D01*
X147490173Y-102835509D01*
X147449970Y-102810957D01*
X147399658Y-102779584D01*
X147338005Y-102740675D01*
X147263777Y-102693519D01*
X147236133Y-102675911D01*
X147191368Y-102647392D01*
X147133353Y-102610444D01*
X147063125Y-102565725D01*
X146981720Y-102513895D01*
X146890177Y-102455616D01*
X146789532Y-102391547D01*
X146680821Y-102322348D01*
X146565081Y-102248678D01*
X146443350Y-102171198D01*
X146316664Y-102090568D01*
X146186060Y-102007448D01*
X146052575Y-101922498D01*
X145917245Y-101836378D01*
X145781109Y-101749747D01*
X145699433Y-101697775D01*
X145569148Y-101614864D01*
X145442547Y-101534283D01*
X145320384Y-101456512D01*
X145203415Y-101382033D01*
X145092394Y-101311327D01*
X144988077Y-101244876D01*
X144891220Y-101183161D01*
X144802576Y-101126662D01*
X144722903Y-101075862D01*
X144652953Y-101031242D01*
X144593484Y-100993283D01*
X144545249Y-100962466D01*
X144509005Y-100939274D01*
X144485506Y-100924186D01*
X144475507Y-100917684D01*
X144475393Y-100917605D01*
X144453619Y-100902463D01*
X144117352Y-101105013D01*
X144038059Y-101152514D01*
X143967667Y-101194156D01*
X143907032Y-101229453D01*
X143857012Y-101257919D01*
X143818466Y-101279068D01*
X143792251Y-101292415D01*
X143779226Y-101297475D01*
X143777915Y-101297131D01*
X143776578Y-101287760D01*
X143773381Y-101262832D01*
X143768476Y-101223604D01*
X143762015Y-101171333D01*
X143754149Y-101107276D01*
X143745030Y-101032688D01*
X143734811Y-100948828D01*
X143723641Y-100856951D01*
X143711675Y-100758315D01*
X143699062Y-100654176D01*
X143685955Y-100545791D01*
X143672505Y-100434416D01*
X143658865Y-100321309D01*
X143645186Y-100207726D01*
X143631619Y-100094924D01*
X143618317Y-99984159D01*
X143605431Y-99876689D01*
X143593112Y-99773769D01*
X143581514Y-99676658D01*
X143570786Y-99586611D01*
X143561082Y-99504885D01*
X143552552Y-99432737D01*
X143545349Y-99371424D01*
X143543089Y-99352067D01*
X143537074Y-99303517D01*
X143531094Y-99260715D01*
X143525607Y-99226544D01*
X143521068Y-99203890D01*
X143518313Y-99195857D01*
X143512502Y-99195899D01*
X143510800Y-99207062D01*
X143509959Y-99217687D01*
X143507514Y-99243984D01*
X143503585Y-99284780D01*
X143498290Y-99338903D01*
X143491748Y-99405179D01*
X143484078Y-99482436D01*
X143475398Y-99569499D01*
X143465827Y-99665197D01*
X143455484Y-99768356D01*
X143444488Y-99877802D01*
X143432957Y-99992364D01*
X143421010Y-100110868D01*
X143408765Y-100232140D01*
X143396343Y-100355008D01*
X143383860Y-100478299D01*
X143371437Y-100600839D01*
X143359191Y-100721456D01*
X143347242Y-100838977D01*
X143335708Y-100952227D01*
X143324708Y-101060036D01*
X143314361Y-101161228D01*
X143304785Y-101254632D01*
X143296099Y-101339074D01*
X143288422Y-101413381D01*
X143281873Y-101476381D01*
X143276570Y-101526899D01*
X143272632Y-101563763D01*
X143270178Y-101585800D01*
X143269446Y-101591554D01*
X143267627Y-101597788D01*
X143263416Y-101604629D01*
X143255639Y-101612856D01*
X143243121Y-101623242D01*
X143224686Y-101636565D01*
X143199160Y-101653600D01*
X143165368Y-101675123D01*
X143122135Y-101701911D01*
X143068286Y-101734739D01*
X143002647Y-101774384D01*
X142924043Y-101821621D01*
X142892602Y-101840481D01*
X142820494Y-101883621D01*
X142752864Y-101923891D01*
X142691079Y-101960489D01*
X142636510Y-101992613D01*
X142590526Y-102019461D01*
X142554495Y-102040231D01*
X142529788Y-102054120D01*
X142517773Y-102060328D01*
X142516831Y-102060560D01*
X142515002Y-102052030D01*
X142510225Y-102027630D01*
X142502647Y-101988139D01*
X142492413Y-101934335D01*
X142479669Y-101866997D01*
X142464563Y-101786904D01*
X142447238Y-101694834D01*
X142427843Y-101591566D01*
X142406522Y-101477878D01*
X142383422Y-101354549D01*
X142358689Y-101222358D01*
X142332469Y-101082082D01*
X142304908Y-100934502D01*
X142276152Y-100780394D01*
X142246346Y-100620539D01*
X142215638Y-100455714D01*
X142194590Y-100342667D01*
X142163339Y-100174801D01*
X142132892Y-100011301D01*
X142103396Y-99852952D01*
X142074997Y-99700537D01*
X142047842Y-99554842D01*
X142022077Y-99416649D01*
X141997848Y-99286743D01*
X141975302Y-99165909D01*
X141954584Y-99054930D01*
X141935843Y-98954591D01*
X141919223Y-98865676D01*
X141904871Y-98788969D01*
X141892934Y-98725254D01*
X141883558Y-98675315D01*
X141876889Y-98639937D01*
X141873074Y-98619904D01*
X141872190Y-98615467D01*
X141876576Y-98609293D01*
X141891812Y-98597221D01*
X141918446Y-98578903D01*
X141957024Y-98553995D01*
X142008094Y-98522150D01*
X142072203Y-98483023D01*
X142149898Y-98436268D01*
X142241727Y-98381538D01*
X142250850Y-98376123D01*
X142323990Y-98332835D01*
X142392681Y-98292404D01*
X142455562Y-98255615D01*
X142511270Y-98223256D01*
X142558446Y-98196111D01*
X142595727Y-98174966D01*
X142621753Y-98160607D01*
X142635162Y-98153820D01*
X142636698Y-98153409D01*
X142638402Y-98162208D01*
X142642279Y-98186811D01*
X142648193Y-98226250D01*
X142656005Y-98279555D01*
X142665581Y-98345756D01*
X142676783Y-98423883D01*
X142689475Y-98512966D01*
X142703519Y-98612035D01*
X142718781Y-98720121D01*
X142735121Y-98836254D01*
X142752406Y-98959464D01*
X142770496Y-99088782D01*
X142789257Y-99223237D01*
X142808551Y-99361859D01*
X142828241Y-99503679D01*
X142848192Y-99647728D01*
X142868266Y-99793034D01*
X142888327Y-99938629D01*
X142893825Y-99978600D01*
X142903759Y-100050031D01*
X142913174Y-100116163D01*
X142921786Y-100175125D01*
X142929313Y-100225043D01*
X142935472Y-100264044D01*
X142939978Y-100290256D01*
X142942550Y-100301805D01*
X142942730Y-100302135D01*
X142944087Y-100294573D01*
X142946853Y-100271081D01*
X142950940Y-100232597D01*
X142956259Y-100180056D01*
X142962720Y-100114397D01*
X142970236Y-100036555D01*
X142978718Y-99947469D01*
X142988076Y-99848075D01*
X142998223Y-99739310D01*
X143009069Y-99622111D01*
X143020525Y-99497416D01*
X143032504Y-99366160D01*
X143044915Y-99229282D01*
X143056580Y-99099868D01*
X143069355Y-98957835D01*
X143081767Y-98820046D01*
X143093727Y-98687484D01*
X143105146Y-98561129D01*
X143115934Y-98441962D01*
X143126002Y-98330966D01*
X143135261Y-98229121D01*
X143143620Y-98137408D01*
X143150992Y-98056809D01*
X143157287Y-97988306D01*
X143162415Y-97932878D01*
X143166287Y-97891509D01*
X143168814Y-97865178D01*
X143169845Y-97855303D01*
X143174512Y-97819040D01*
X143526551Y-97607822D01*
X143596630Y-97565962D01*
X143662281Y-97527110D01*
X143722087Y-97492078D01*
X143774627Y-97461680D01*
X143818484Y-97436730D01*
X143852239Y-97418042D01*
X143874473Y-97406430D01*
X143883768Y-97402708D01*
X143883919Y-97402785D01*
X143885487Y-97411816D01*
X143888765Y-97436670D01*
X143893638Y-97476338D01*
X143899992Y-97529808D01*
X143907711Y-97596069D01*
X143916681Y-97674111D01*
X143926786Y-97762923D01*
X143937912Y-97861494D01*
X143949943Y-97968813D01*
X143962765Y-98083870D01*
X143976262Y-98205654D01*
X143990320Y-98333153D01*
X144004823Y-98465357D01*
X144005499Y-98471533D01*
X144023177Y-98633114D01*
X144039107Y-98778686D01*
X144053383Y-98909076D01*
X144066100Y-99025108D01*
X144077350Y-99127608D01*
X144087229Y-99217400D01*
X144095830Y-99295311D01*
X144103248Y-99362164D01*
X144109576Y-99418786D01*
X144114909Y-99466001D01*
X144119340Y-99504634D01*
X144122965Y-99535511D01*
X144125875Y-99559456D01*
X144128167Y-99577295D01*
X144129933Y-99589852D01*
X144131269Y-99597954D01*
X144132267Y-99602425D01*
X144133023Y-99604090D01*
X144133629Y-99603774D01*
X144134181Y-99602302D01*
X144134347Y-99601770D01*
X144135559Y-99592523D01*
X144138511Y-99567384D01*
X144143099Y-99527292D01*
X144149218Y-99473186D01*
X144156764Y-99406008D01*
X144165631Y-99326696D01*
X144175716Y-99236190D01*
X144186914Y-99135431D01*
X144199119Y-99025358D01*
X144212229Y-98906911D01*
X144226137Y-98781029D01*
X144240740Y-98648654D01*
X144255933Y-98510723D01*
X144271611Y-98368179D01*
X144272349Y-98361467D01*
X144288103Y-98218323D01*
X144303427Y-98079498D01*
X144318212Y-97945955D01*
X144332350Y-97818655D01*
X144345733Y-97698557D01*
X144358252Y-97586624D01*
X144369800Y-97483817D01*
X144380267Y-97391096D01*
X144389547Y-97309422D01*
X144397530Y-97239758D01*
X144404109Y-97183063D01*
X144409174Y-97140300D01*
X144412619Y-97112428D01*
X144414335Y-97100409D01*
X144414351Y-97100338D01*
X144416379Y-97093509D01*
X144420064Y-97086583D01*
X144426591Y-97078771D01*
X144437142Y-97069285D01*
X144452902Y-97057337D01*
X144475055Y-97042138D01*
X144504784Y-97022899D01*
X144543274Y-96998832D01*
X144591708Y-96969149D01*
X144651270Y-96933060D01*
X144723145Y-96889778D01*
X144797733Y-96844984D01*
X144870194Y-96801534D01*
X144938121Y-96760878D01*
X145000161Y-96723822D01*
X145054960Y-96691169D01*
X145101164Y-96663726D01*
X145137419Y-96642298D01*
X145162371Y-96627688D01*
X145174666Y-96620703D01*
X145175737Y-96620213D01*
X145174572Y-96628567D01*
G04 #@! TD*
D13*
G04 #@! TO.P,SW1,2*
G04 #@! TO.N,GND*
X122000000Y-102000000D03*
G04 #@! TO.P,SW1,1*
G04 #@! TO.N,ESP_SW1*
X122000000Y-97500000D03*
G04 #@! TO.P,SW1,2*
G04 #@! TO.N,GND*
X128500000Y-102000000D03*
G04 #@! TO.P,SW1,1*
G04 #@! TO.N,ESP_SW1*
X128500000Y-97500000D03*
G04 #@! TD*
D14*
G04 #@! TO.P,U3,16*
G04 #@! TO.N,ESP_TX*
X125700000Y-76500000D03*
G04 #@! TO.P,U3,15*
G04 #@! TO.N,ESP_RX*
X125700000Y-78500000D03*
G04 #@! TO.P,U3,14*
G04 #@! TO.N,ESP_SW2*
X125700000Y-80500000D03*
G04 #@! TO.P,U3,13*
G04 #@! TO.N,ESP_SW1*
X125700000Y-82500000D03*
G04 #@! TO.P,U3,12*
G04 #@! TO.N,ESP_BOOTL*
X125700000Y-84500000D03*
G04 #@! TO.P,U3,11*
G04 #@! TO.N,ESP_LED_DATA*
X125700000Y-86500000D03*
G04 #@! TO.P,U3,10*
G04 #@! TO.N,Net-(R4-Pad1)*
X125700000Y-88500000D03*
G04 #@! TO.P,U3,9*
G04 #@! TO.N,GND*
X125700000Y-90500000D03*
G04 #@! TO.P,U3,8*
G04 #@! TO.N,+3V3*
X110300000Y-90500000D03*
G04 #@! TO.P,U3,7*
G04 #@! TO.N,ESP_IR*
X110300000Y-88500000D03*
G04 #@! TO.P,U3,6*
G04 #@! TO.N,ESP_PS_ON*
X110300000Y-86500000D03*
G04 #@! TO.P,U3,5*
G04 #@! TO.N,Net-(U3-Pad5)*
X110300000Y-84500000D03*
G04 #@! TO.P,U3,4*
G04 #@! TO.N,Net-(U3-Pad4)*
X110300000Y-82500000D03*
G04 #@! TO.P,U3,3*
G04 #@! TO.N,ESP_EN*
X110300000Y-80500000D03*
G04 #@! TO.P,U3,2*
G04 #@! TO.N,Net-(U3-Pad2)*
X110300000Y-78500000D03*
D15*
G04 #@! TO.P,U3,1*
G04 #@! TO.N,ESP_RST*
X110300000Y-76500000D03*
G04 #@! TD*
D16*
G04 #@! TO.P,REF\u002A\u002A,1*
G04 #@! TO.N,N/C*
X134750000Y-104500000D03*
G04 #@! TD*
G04 #@! TO.P,REF\u002A\u002A,1*
G04 #@! TO.N,N/C*
X72000000Y-79500000D03*
G04 #@! TD*
G04 #@! TO.P,REF\u002A\u002A,1*
G04 #@! TO.N,N/C*
X72000000Y-100500000D03*
G04 #@! TD*
D17*
G04 #@! TO.P,C1,2*
G04 #@! TO.N,GND*
X90500000Y-86500000D03*
D18*
G04 #@! TO.P,C1,1*
G04 #@! TO.N,+5V*
X87000000Y-86500000D03*
G04 #@! TD*
G04 #@! TO.P,C2,2*
G04 #@! TO.N,GND*
G04 #@! TA.AperFunction,SMDPad,CuDef*
G36*
G01*
X89475000Y-94087500D02*
X88525000Y-94087500D01*
G75*
G02*
X88275000Y-93837500I0J250000D01*
G01*
X88275000Y-93162500D01*
G75*
G02*
X88525000Y-92912500I250000J0D01*
G01*
X89475000Y-92912500D01*
G75*
G02*
X89725000Y-93162500I0J-250000D01*
G01*
X89725000Y-93837500D01*
G75*
G02*
X89475000Y-94087500I-250000J0D01*
G01*
G37*
G04 #@! TD.AperFunction*
G04 #@! TO.P,C2,1*
G04 #@! TO.N,+5V*
G04 #@! TA.AperFunction,SMDPad,CuDef*
G36*
G01*
X89475000Y-96162500D02*
X88525000Y-96162500D01*
G75*
G02*
X88275000Y-95912500I0J250000D01*
G01*
X88275000Y-95237500D01*
G75*
G02*
X88525000Y-94987500I250000J0D01*
G01*
X89475000Y-94987500D01*
G75*
G02*
X89725000Y-95237500I0J-250000D01*
G01*
X89725000Y-95912500D01*
G75*
G02*
X89475000Y-96162500I-250000J0D01*
G01*
G37*
G04 #@! TD.AperFunction*
G04 #@! TD*
G04 #@! TO.P,C3,1*
G04 #@! TO.N,+3V3*
G04 #@! TA.AperFunction,SMDPad,CuDef*
G36*
G01*
X96125000Y-90025000D02*
X96125000Y-90975000D01*
G75*
G02*
X95875000Y-91225000I-250000J0D01*
G01*
X95200000Y-91225000D01*
G75*
G02*
X94950000Y-90975000I0J250000D01*
G01*
X94950000Y-90025000D01*
G75*
G02*
X95200000Y-89775000I250000J0D01*
G01*
X95875000Y-89775000D01*
G75*
G02*
X96125000Y-90025000I0J-250000D01*
G01*
G37*
G04 #@! TD.AperFunction*
G04 #@! TO.P,C3,2*
G04 #@! TO.N,GND*
G04 #@! TA.AperFunction,SMDPad,CuDef*
G36*
G01*
X94050000Y-90025000D02*
X94050000Y-90975000D01*
G75*
G02*
X93800000Y-91225000I-250000J0D01*
G01*
X93125000Y-91225000D01*
G75*
G02*
X92875000Y-90975000I0J250000D01*
G01*
X92875000Y-90025000D01*
G75*
G02*
X93125000Y-89775000I250000J0D01*
G01*
X93800000Y-89775000D01*
G75*
G02*
X94050000Y-90025000I0J-250000D01*
G01*
G37*
G04 #@! TD.AperFunction*
G04 #@! TD*
G04 #@! TO.P,C4,1*
G04 #@! TO.N,+3V3*
X102000000Y-86500000D03*
D17*
G04 #@! TO.P,C4,2*
G04 #@! TO.N,GND*
X98500000Y-86500000D03*
G04 #@! TD*
G04 #@! TO.P,C5,1*
G04 #@! TO.N,+5V*
G04 #@! TA.AperFunction,SMDPad,CuDef*
G36*
G01*
X158025000Y-71837500D02*
X158975000Y-71837500D01*
G75*
G02*
X159225000Y-72087500I0J-250000D01*
G01*
X159225000Y-72762500D01*
G75*
G02*
X158975000Y-73012500I-250000J0D01*
G01*
X158025000Y-73012500D01*
G75*
G02*
X157775000Y-72762500I0J250000D01*
G01*
X157775000Y-72087500D01*
G75*
G02*
X158025000Y-71837500I250000J0D01*
G01*
G37*
G04 #@! TD.AperFunction*
G04 #@! TO.P,C5,2*
G04 #@! TO.N,GND*
G04 #@! TA.AperFunction,SMDPad,CuDef*
G36*
G01*
X158025000Y-73912500D02*
X158975000Y-73912500D01*
G75*
G02*
X159225000Y-74162500I0J-250000D01*
G01*
X159225000Y-74837500D01*
G75*
G02*
X158975000Y-75087500I-250000J0D01*
G01*
X158025000Y-75087500D01*
G75*
G02*
X157775000Y-74837500I0J250000D01*
G01*
X157775000Y-74162500D01*
G75*
G02*
X158025000Y-73912500I250000J0D01*
G01*
G37*
G04 #@! TD.AperFunction*
G04 #@! TD*
G04 #@! TO.P,C6,2*
G04 #@! TO.N,GND*
G04 #@! TA.AperFunction,SMDPad,CuDef*
G36*
G01*
X117412500Y-90975000D02*
X117412500Y-90025000D01*
G75*
G02*
X117662500Y-89775000I250000J0D01*
G01*
X118337500Y-89775000D01*
G75*
G02*
X118587500Y-90025000I0J-250000D01*
G01*
X118587500Y-90975000D01*
G75*
G02*
X118337500Y-91225000I-250000J0D01*
G01*
X117662500Y-91225000D01*
G75*
G02*
X117412500Y-90975000I0J250000D01*
G01*
G37*
G04 #@! TD.AperFunction*
G04 #@! TO.P,C6,1*
G04 #@! TO.N,+3V3*
G04 #@! TA.AperFunction,SMDPad,CuDef*
G36*
G01*
X115337500Y-90975000D02*
X115337500Y-90025000D01*
G75*
G02*
X115587500Y-89775000I250000J0D01*
G01*
X116262500Y-89775000D01*
G75*
G02*
X116512500Y-90025000I0J-250000D01*
G01*
X116512500Y-90975000D01*
G75*
G02*
X116262500Y-91225000I-250000J0D01*
G01*
X115587500Y-91225000D01*
G75*
G02*
X115337500Y-90975000I0J250000D01*
G01*
G37*
G04 #@! TD.AperFunction*
G04 #@! TD*
G04 #@! TO.P,C7,1*
G04 #@! TO.N,+3V3*
G04 #@! TA.AperFunction,SMDPad,CuDef*
G36*
G01*
X100587500Y-101025000D02*
X100587500Y-101975000D01*
G75*
G02*
X100337500Y-102225000I-250000J0D01*
G01*
X99662500Y-102225000D01*
G75*
G02*
X99412500Y-101975000I0J250000D01*
G01*
X99412500Y-101025000D01*
G75*
G02*
X99662500Y-100775000I250000J0D01*
G01*
X100337500Y-100775000D01*
G75*
G02*
X100587500Y-101025000I0J-250000D01*
G01*
G37*
G04 #@! TD.AperFunction*
G04 #@! TO.P,C7,2*
G04 #@! TO.N,GND*
G04 #@! TA.AperFunction,SMDPad,CuDef*
G36*
G01*
X98512500Y-101025000D02*
X98512500Y-101975000D01*
G75*
G02*
X98262500Y-102225000I-250000J0D01*
G01*
X97587500Y-102225000D01*
G75*
G02*
X97337500Y-101975000I0J250000D01*
G01*
X97337500Y-101025000D01*
G75*
G02*
X97587500Y-100775000I250000J0D01*
G01*
X98262500Y-100775000D01*
G75*
G02*
X98512500Y-101025000I0J-250000D01*
G01*
G37*
G04 #@! TD.AperFunction*
G04 #@! TD*
G04 #@! TO.P,C8,2*
G04 #@! TO.N,GND*
G04 #@! TA.AperFunction,SMDPad,CuDef*
G36*
G01*
X84587500Y-101525000D02*
X84587500Y-102475000D01*
G75*
G02*
X84337500Y-102725000I-250000J0D01*
G01*
X83662500Y-102725000D01*
G75*
G02*
X83412500Y-102475000I0J250000D01*
G01*
X83412500Y-101525000D01*
G75*
G02*
X83662500Y-101275000I250000J0D01*
G01*
X84337500Y-101275000D01*
G75*
G02*
X84587500Y-101525000I0J-250000D01*
G01*
G37*
G04 #@! TD.AperFunction*
G04 #@! TO.P,C8,1*
G04 #@! TO.N,+3V3*
G04 #@! TA.AperFunction,SMDPad,CuDef*
G36*
G01*
X86662500Y-101525000D02*
X86662500Y-102475000D01*
G75*
G02*
X86412500Y-102725000I-250000J0D01*
G01*
X85737500Y-102725000D01*
G75*
G02*
X85487500Y-102475000I0J250000D01*
G01*
X85487500Y-101525000D01*
G75*
G02*
X85737500Y-101275000I250000J0D01*
G01*
X86412500Y-101275000D01*
G75*
G02*
X86662500Y-101525000I0J-250000D01*
G01*
G37*
G04 #@! TD.AperFunction*
G04 #@! TD*
D19*
G04 #@! TO.P,D1,1*
G04 #@! TO.N,+5V*
X81500000Y-87000000D03*
D20*
G04 #@! TO.P,D1,2*
G04 #@! TO.N,Net-(D1-Pad2)*
X81500000Y-97160000D03*
G04 #@! TD*
D21*
G04 #@! TO.P,D2,2*
G04 #@! TO.N,5V_LED_DATA*
X149750000Y-83500000D03*
G04 #@! TO.P,D2,1*
G04 #@! TO.N,+5V*
X153250000Y-83500000D03*
G04 #@! TD*
D22*
G04 #@! TO.P,D3,1*
G04 #@! TO.N,+5V*
X85500000Y-79750000D03*
G04 #@! TO.P,D3,2*
G04 #@! TO.N,Net-(D3-Pad2)*
X85500000Y-76250000D03*
G04 #@! TD*
D21*
G04 #@! TO.P,D4,1*
G04 #@! TO.N,+5V*
X153250000Y-97000000D03*
G04 #@! TO.P,D4,2*
G04 #@! TO.N,ESP_SW2*
X149750000Y-97000000D03*
G04 #@! TD*
G04 #@! TO.P,D5,1*
G04 #@! TO.N,5V_LED_DATA*
X153250000Y-87500000D03*
G04 #@! TO.P,D5,2*
G04 #@! TO.N,GND*
X149750000Y-87500000D03*
G04 #@! TD*
D22*
G04 #@! TO.P,D6,2*
G04 #@! TO.N,GND*
X89500000Y-79750000D03*
G04 #@! TO.P,D6,1*
G04 #@! TO.N,Net-(D3-Pad2)*
X89500000Y-76250000D03*
G04 #@! TD*
D21*
G04 #@! TO.P,D7,2*
G04 #@! TO.N,GND*
X149750000Y-93000000D03*
G04 #@! TO.P,D7,1*
G04 #@! TO.N,ESP_SW2*
X153250000Y-93000000D03*
G04 #@! TD*
D23*
G04 #@! TO.P,J1,1*
G04 #@! TO.N,PS_ON*
X75120000Y-84820000D03*
D24*
G04 #@! TO.P,J1,2*
G04 #@! TO.N,GND*
X75120000Y-88320000D03*
G04 #@! TO.P,J1,3*
X75120000Y-91820000D03*
G04 #@! TO.P,J1,4*
G04 #@! TO.N,Net-(D1-Pad2)*
X75120000Y-95320000D03*
G04 #@! TD*
D23*
G04 #@! TO.P,J2,1*
G04 #@! TO.N,+5V*
X165000000Y-99000000D03*
D24*
G04 #@! TO.P,J2,2*
G04 #@! TO.N,SWITCH_IN*
X165000000Y-95500000D03*
G04 #@! TO.P,J2,3*
G04 #@! TO.N,GND*
X165000000Y-92000000D03*
G04 #@! TO.P,J2,4*
X165000000Y-88500000D03*
G04 #@! TO.P,J2,5*
G04 #@! TO.N,DATA_OUT*
X165000000Y-85000000D03*
G04 #@! TO.P,J2,6*
G04 #@! TO.N,+5V*
X165000000Y-81500000D03*
G04 #@! TD*
G04 #@! TO.P,R1,1*
G04 #@! TO.N,+3V3*
G04 #@! TA.AperFunction,SMDPad,CuDef*
G36*
G01*
X118600000Y-76049999D02*
X118600000Y-76950001D01*
G75*
G02*
X118350001Y-77200000I-249999J0D01*
G01*
X117649999Y-77200000D01*
G75*
G02*
X117400000Y-76950001I0J249999D01*
G01*
X117400000Y-76049999D01*
G75*
G02*
X117649999Y-75800000I249999J0D01*
G01*
X118350001Y-75800000D01*
G75*
G02*
X118600000Y-76049999I0J-249999D01*
G01*
G37*
G04 #@! TD.AperFunction*
G04 #@! TO.P,R1,2*
G04 #@! TO.N,ESP_RST*
G04 #@! TA.AperFunction,SMDPad,CuDef*
G36*
G01*
X116600000Y-76049999D02*
X116600000Y-76950001D01*
G75*
G02*
X116350001Y-77200000I-249999J0D01*
G01*
X115649999Y-77200000D01*
G75*
G02*
X115400000Y-76950001I0J249999D01*
G01*
X115400000Y-76049999D01*
G75*
G02*
X115649999Y-75800000I249999J0D01*
G01*
X116350001Y-75800000D01*
G75*
G02*
X116600000Y-76049999I0J-249999D01*
G01*
G37*
G04 #@! TD.AperFunction*
G04 #@! TD*
G04 #@! TO.P,R2,2*
G04 #@! TO.N,ESP_EN*
G04 #@! TA.AperFunction,SMDPad,CuDef*
G36*
G01*
X116600000Y-79049999D02*
X116600000Y-79950001D01*
G75*
G02*
X116350001Y-80200000I-249999J0D01*
G01*
X115649999Y-80200000D01*
G75*
G02*
X115400000Y-79950001I0J249999D01*
G01*
X115400000Y-79049999D01*
G75*
G02*
X115649999Y-78800000I249999J0D01*
G01*
X116350001Y-78800000D01*
G75*
G02*
X116600000Y-79049999I0J-249999D01*
G01*
G37*
G04 #@! TD.AperFunction*
G04 #@! TO.P,R2,1*
G04 #@! TO.N,+3V3*
G04 #@! TA.AperFunction,SMDPad,CuDef*
G36*
G01*
X118600000Y-79049999D02*
X118600000Y-79950001D01*
G75*
G02*
X118350001Y-80200000I-249999J0D01*
G01*
X117649999Y-80200000D01*
G75*
G02*
X117400000Y-79950001I0J249999D01*
G01*
X117400000Y-79049999D01*
G75*
G02*
X117649999Y-78800000I249999J0D01*
G01*
X118350001Y-78800000D01*
G75*
G02*
X118600000Y-79049999I0J-249999D01*
G01*
G37*
G04 #@! TD.AperFunction*
G04 #@! TD*
G04 #@! TO.P,R3,1*
G04 #@! TO.N,+3V3*
G04 #@! TA.AperFunction,SMDPad,CuDef*
G36*
G01*
X115400000Y-85950001D02*
X115400000Y-85049999D01*
G75*
G02*
X115649999Y-84800000I249999J0D01*
G01*
X116350001Y-84800000D01*
G75*
G02*
X116600000Y-85049999I0J-249999D01*
G01*
X116600000Y-85950001D01*
G75*
G02*
X116350001Y-86200000I-249999J0D01*
G01*
X115649999Y-86200000D01*
G75*
G02*
X115400000Y-85950001I0J249999D01*
G01*
G37*
G04 #@! TD.AperFunction*
G04 #@! TO.P,R3,2*
G04 #@! TO.N,ESP_BOOTL*
G04 #@! TA.AperFunction,SMDPad,CuDef*
G36*
G01*
X117400000Y-85950001D02*
X117400000Y-85049999D01*
G75*
G02*
X117649999Y-84800000I249999J0D01*
G01*
X118350001Y-84800000D01*
G75*
G02*
X118600000Y-85049999I0J-249999D01*
G01*
X118600000Y-85950001D01*
G75*
G02*
X118350001Y-86200000I-249999J0D01*
G01*
X117649999Y-86200000D01*
G75*
G02*
X117400000Y-85950001I0J249999D01*
G01*
G37*
G04 #@! TD.AperFunction*
G04 #@! TD*
G04 #@! TO.P,R4,2*
G04 #@! TO.N,GND*
G04 #@! TA.AperFunction,SMDPad,CuDef*
G36*
G01*
X131549999Y-89900000D02*
X132450001Y-89900000D01*
G75*
G02*
X132700000Y-90149999I0J-249999D01*
G01*
X132700000Y-90850001D01*
G75*
G02*
X132450001Y-91100000I-249999J0D01*
G01*
X131549999Y-91100000D01*
G75*
G02*
X131300000Y-90850001I0J249999D01*
G01*
X131300000Y-90149999D01*
G75*
G02*
X131549999Y-89900000I249999J0D01*
G01*
G37*
G04 #@! TD.AperFunction*
G04 #@! TO.P,R4,1*
G04 #@! TO.N,Net-(R4-Pad1)*
G04 #@! TA.AperFunction,SMDPad,CuDef*
G36*
G01*
X131549999Y-87900000D02*
X132450001Y-87900000D01*
G75*
G02*
X132700000Y-88149999I0J-249999D01*
G01*
X132700000Y-88850001D01*
G75*
G02*
X132450001Y-89100000I-249999J0D01*
G01*
X131549999Y-89100000D01*
G75*
G02*
X131300000Y-88850001I0J249999D01*
G01*
X131300000Y-88149999D01*
G75*
G02*
X131549999Y-87900000I249999J0D01*
G01*
G37*
G04 #@! TD.AperFunction*
G04 #@! TD*
G04 #@! TO.P,R5,1*
G04 #@! TO.N,+3V3*
G04 #@! TA.AperFunction,SMDPad,CuDef*
G36*
G01*
X115400000Y-83450001D02*
X115400000Y-82549999D01*
G75*
G02*
X115649999Y-82300000I249999J0D01*
G01*
X116350001Y-82300000D01*
G75*
G02*
X116600000Y-82549999I0J-249999D01*
G01*
X116600000Y-83450001D01*
G75*
G02*
X116350001Y-83700000I-249999J0D01*
G01*
X115649999Y-83700000D01*
G75*
G02*
X115400000Y-83450001I0J249999D01*
G01*
G37*
G04 #@! TD.AperFunction*
G04 #@! TO.P,R5,2*
G04 #@! TO.N,ESP_SW1*
G04 #@! TA.AperFunction,SMDPad,CuDef*
G36*
G01*
X117400000Y-83450001D02*
X117400000Y-82549999D01*
G75*
G02*
X117649999Y-82300000I249999J0D01*
G01*
X118350001Y-82300000D01*
G75*
G02*
X118600000Y-82549999I0J-249999D01*
G01*
X118600000Y-83450001D01*
G75*
G02*
X118350001Y-83700000I-249999J0D01*
G01*
X117649999Y-83700000D01*
G75*
G02*
X117400000Y-83450001I0J249999D01*
G01*
G37*
G04 #@! TD.AperFunction*
G04 #@! TD*
G04 #@! TO.P,R6,2*
G04 #@! TO.N,DATA_OUT*
G04 #@! TA.AperFunction,SMDPad,CuDef*
G36*
G01*
X157400000Y-85450001D02*
X157400000Y-84549999D01*
G75*
G02*
X157649999Y-84300000I249999J0D01*
G01*
X158350001Y-84300000D01*
G75*
G02*
X158600000Y-84549999I0J-249999D01*
G01*
X158600000Y-85450001D01*
G75*
G02*
X158350001Y-85700000I-249999J0D01*
G01*
X157649999Y-85700000D01*
G75*
G02*
X157400000Y-85450001I0J249999D01*
G01*
G37*
G04 #@! TD.AperFunction*
G04 #@! TO.P,R6,1*
G04 #@! TO.N,5V_LED_DATA*
G04 #@! TA.AperFunction,SMDPad,CuDef*
G36*
G01*
X155400000Y-85450001D02*
X155400000Y-84549999D01*
G75*
G02*
X155649999Y-84300000I249999J0D01*
G01*
X156350001Y-84300000D01*
G75*
G02*
X156600000Y-84549999I0J-249999D01*
G01*
X156600000Y-85450001D01*
G75*
G02*
X156350001Y-85700000I-249999J0D01*
G01*
X155649999Y-85700000D01*
G75*
G02*
X155400000Y-85450001I0J249999D01*
G01*
G37*
G04 #@! TD.AperFunction*
G04 #@! TD*
G04 #@! TO.P,R7,2*
G04 #@! TO.N,PS_ON*
G04 #@! TA.AperFunction,SMDPad,CuDef*
G36*
G01*
X81549999Y-77900000D02*
X82450001Y-77900000D01*
G75*
G02*
X82700000Y-78149999I0J-249999D01*
G01*
X82700000Y-78850001D01*
G75*
G02*
X82450001Y-79100000I-249999J0D01*
G01*
X81549999Y-79100000D01*
G75*
G02*
X81300000Y-78850001I0J249999D01*
G01*
X81300000Y-78149999D01*
G75*
G02*
X81549999Y-77900000I249999J0D01*
G01*
G37*
G04 #@! TD.AperFunction*
G04 #@! TO.P,R7,1*
G04 #@! TO.N,Net-(D3-Pad2)*
G04 #@! TA.AperFunction,SMDPad,CuDef*
G36*
G01*
X81549999Y-75900000D02*
X82450001Y-75900000D01*
G75*
G02*
X82700000Y-76149999I0J-249999D01*
G01*
X82700000Y-76850001D01*
G75*
G02*
X82450001Y-77100000I-249999J0D01*
G01*
X81549999Y-77100000D01*
G75*
G02*
X81300000Y-76850001I0J249999D01*
G01*
X81300000Y-76149999D01*
G75*
G02*
X81549999Y-75900000I249999J0D01*
G01*
G37*
G04 #@! TD.AperFunction*
G04 #@! TD*
G04 #@! TO.P,R8,1*
G04 #@! TO.N,ESP_SW2*
G04 #@! TA.AperFunction,SMDPad,CuDef*
G36*
G01*
X155400000Y-95950001D02*
X155400000Y-95049999D01*
G75*
G02*
X155649999Y-94800000I249999J0D01*
G01*
X156350001Y-94800000D01*
G75*
G02*
X156600000Y-95049999I0J-249999D01*
G01*
X156600000Y-95950001D01*
G75*
G02*
X156350001Y-96200000I-249999J0D01*
G01*
X155649999Y-96200000D01*
G75*
G02*
X155400000Y-95950001I0J249999D01*
G01*
G37*
G04 #@! TD.AperFunction*
G04 #@! TO.P,R8,2*
G04 #@! TO.N,SWITCH_IN*
G04 #@! TA.AperFunction,SMDPad,CuDef*
G36*
G01*
X157400000Y-95950001D02*
X157400000Y-95049999D01*
G75*
G02*
X157649999Y-94800000I249999J0D01*
G01*
X158350001Y-94800000D01*
G75*
G02*
X158600000Y-95049999I0J-249999D01*
G01*
X158600000Y-95950001D01*
G75*
G02*
X158350001Y-96200000I-249999J0D01*
G01*
X157649999Y-96200000D01*
G75*
G02*
X157400000Y-95950001I0J249999D01*
G01*
G37*
G04 #@! TD.AperFunction*
G04 #@! TD*
G04 #@! TO.P,U2,1*
G04 #@! TO.N,+5V*
G04 #@! TA.AperFunction,SMDPad,CuDef*
G36*
G01*
X149550000Y-72340000D02*
X149550000Y-72040000D01*
G75*
G02*
X149700000Y-71890000I150000J0D01*
G01*
X151350000Y-71890000D01*
G75*
G02*
X151500000Y-72040000I0J-150000D01*
G01*
X151500000Y-72340000D01*
G75*
G02*
X151350000Y-72490000I-150000J0D01*
G01*
X149700000Y-72490000D01*
G75*
G02*
X149550000Y-72340000I0J150000D01*
G01*
G37*
G04 #@! TD.AperFunction*
G04 #@! TO.P,U2,2*
G04 #@! TO.N,ESP_LED_DATA*
G04 #@! TA.AperFunction,SMDPad,CuDef*
G36*
G01*
X149550000Y-73610000D02*
X149550000Y-73310000D01*
G75*
G02*
X149700000Y-73160000I150000J0D01*
G01*
X151350000Y-73160000D01*
G75*
G02*
X151500000Y-73310000I0J-150000D01*
G01*
X151500000Y-73610000D01*
G75*
G02*
X151350000Y-73760000I-150000J0D01*
G01*
X149700000Y-73760000D01*
G75*
G02*
X149550000Y-73610000I0J150000D01*
G01*
G37*
G04 #@! TD.AperFunction*
G04 #@! TO.P,U2,3*
G04 #@! TO.N,Net-(U2-Pad3)*
G04 #@! TA.AperFunction,SMDPad,CuDef*
G36*
G01*
X149550000Y-74880000D02*
X149550000Y-74580000D01*
G75*
G02*
X149700000Y-74430000I150000J0D01*
G01*
X151350000Y-74430000D01*
G75*
G02*
X151500000Y-74580000I0J-150000D01*
G01*
X151500000Y-74880000D01*
G75*
G02*
X151350000Y-75030000I-150000J0D01*
G01*
X149700000Y-75030000D01*
G75*
G02*
X149550000Y-74880000I0J150000D01*
G01*
G37*
G04 #@! TD.AperFunction*
G04 #@! TO.P,U2,4*
G04 #@! TO.N,+5V*
G04 #@! TA.AperFunction,SMDPad,CuDef*
G36*
G01*
X149550000Y-76150000D02*
X149550000Y-75850000D01*
G75*
G02*
X149700000Y-75700000I150000J0D01*
G01*
X151350000Y-75700000D01*
G75*
G02*
X151500000Y-75850000I0J-150000D01*
G01*
X151500000Y-76150000D01*
G75*
G02*
X151350000Y-76300000I-150000J0D01*
G01*
X149700000Y-76300000D01*
G75*
G02*
X149550000Y-76150000I0J150000D01*
G01*
G37*
G04 #@! TD.AperFunction*
G04 #@! TO.P,U2,5*
G04 #@! TO.N,Net-(U2-Pad3)*
G04 #@! TA.AperFunction,SMDPad,CuDef*
G36*
G01*
X149550000Y-77420000D02*
X149550000Y-77120000D01*
G75*
G02*
X149700000Y-76970000I150000J0D01*
G01*
X151350000Y-76970000D01*
G75*
G02*
X151500000Y-77120000I0J-150000D01*
G01*
X151500000Y-77420000D01*
G75*
G02*
X151350000Y-77570000I-150000J0D01*
G01*
X149700000Y-77570000D01*
G75*
G02*
X149550000Y-77420000I0J150000D01*
G01*
G37*
G04 #@! TD.AperFunction*
G04 #@! TO.P,U2,6*
G04 #@! TO.N,5V_LED_DATA*
G04 #@! TA.AperFunction,SMDPad,CuDef*
G36*
G01*
X149550000Y-78690000D02*
X149550000Y-78390000D01*
G75*
G02*
X149700000Y-78240000I150000J0D01*
G01*
X151350000Y-78240000D01*
G75*
G02*
X151500000Y-78390000I0J-150000D01*
G01*
X151500000Y-78690000D01*
G75*
G02*
X151350000Y-78840000I-150000J0D01*
G01*
X149700000Y-78840000D01*
G75*
G02*
X149550000Y-78690000I0J150000D01*
G01*
G37*
G04 #@! TD.AperFunction*
G04 #@! TO.P,U2,7*
G04 #@! TO.N,GND*
G04 #@! TA.AperFunction,SMDPad,CuDef*
G36*
G01*
X149550000Y-79960000D02*
X149550000Y-79660000D01*
G75*
G02*
X149700000Y-79510000I150000J0D01*
G01*
X151350000Y-79510000D01*
G75*
G02*
X151500000Y-79660000I0J-150000D01*
G01*
X151500000Y-79960000D01*
G75*
G02*
X151350000Y-80110000I-150000J0D01*
G01*
X149700000Y-80110000D01*
G75*
G02*
X149550000Y-79960000I0J150000D01*
G01*
G37*
G04 #@! TD.AperFunction*
G04 #@! TO.P,U2,8*
G04 #@! TO.N,Net-(U2-Pad8)*
G04 #@! TA.AperFunction,SMDPad,CuDef*
G36*
G01*
X154500000Y-79960000D02*
X154500000Y-79660000D01*
G75*
G02*
X154650000Y-79510000I150000J0D01*
G01*
X156300000Y-79510000D01*
G75*
G02*
X156450000Y-79660000I0J-150000D01*
G01*
X156450000Y-79960000D01*
G75*
G02*
X156300000Y-80110000I-150000J0D01*
G01*
X154650000Y-80110000D01*
G75*
G02*
X154500000Y-79960000I0J150000D01*
G01*
G37*
G04 #@! TD.AperFunction*
G04 #@! TO.P,U2,9*
G04 #@! TO.N,GND*
G04 #@! TA.AperFunction,SMDPad,CuDef*
G36*
G01*
X154500000Y-78690000D02*
X154500000Y-78390000D01*
G75*
G02*
X154650000Y-78240000I150000J0D01*
G01*
X156300000Y-78240000D01*
G75*
G02*
X156450000Y-78390000I0J-150000D01*
G01*
X156450000Y-78690000D01*
G75*
G02*
X156300000Y-78840000I-150000J0D01*
G01*
X154650000Y-78840000D01*
G75*
G02*
X154500000Y-78690000I0J150000D01*
G01*
G37*
G04 #@! TD.AperFunction*
G04 #@! TO.P,U2,10*
G04 #@! TA.AperFunction,SMDPad,CuDef*
G36*
G01*
X154500000Y-77420000D02*
X154500000Y-77120000D01*
G75*
G02*
X154650000Y-76970000I150000J0D01*
G01*
X156300000Y-76970000D01*
G75*
G02*
X156450000Y-77120000I0J-150000D01*
G01*
X156450000Y-77420000D01*
G75*
G02*
X156300000Y-77570000I-150000J0D01*
G01*
X154650000Y-77570000D01*
G75*
G02*
X154500000Y-77420000I0J150000D01*
G01*
G37*
G04 #@! TD.AperFunction*
G04 #@! TO.P,U2,11*
G04 #@! TO.N,Net-(U2-Pad11)*
G04 #@! TA.AperFunction,SMDPad,CuDef*
G36*
G01*
X154500000Y-76150000D02*
X154500000Y-75850000D01*
G75*
G02*
X154650000Y-75700000I150000J0D01*
G01*
X156300000Y-75700000D01*
G75*
G02*
X156450000Y-75850000I0J-150000D01*
G01*
X156450000Y-76150000D01*
G75*
G02*
X156300000Y-76300000I-150000J0D01*
G01*
X154650000Y-76300000D01*
G75*
G02*
X154500000Y-76150000I0J150000D01*
G01*
G37*
G04 #@! TD.AperFunction*
G04 #@! TO.P,U2,12*
G04 #@! TO.N,GND*
G04 #@! TA.AperFunction,SMDPad,CuDef*
G36*
G01*
X154500000Y-74880000D02*
X154500000Y-74580000D01*
G75*
G02*
X154650000Y-74430000I150000J0D01*
G01*
X156300000Y-74430000D01*
G75*
G02*
X156450000Y-74580000I0J-150000D01*
G01*
X156450000Y-74880000D01*
G75*
G02*
X156300000Y-75030000I-150000J0D01*
G01*
X154650000Y-75030000D01*
G75*
G02*
X154500000Y-74880000I0J150000D01*
G01*
G37*
G04 #@! TD.AperFunction*
G04 #@! TO.P,U2,13*
G04 #@! TA.AperFunction,SMDPad,CuDef*
G36*
G01*
X154500000Y-73610000D02*
X154500000Y-73310000D01*
G75*
G02*
X154650000Y-73160000I150000J0D01*
G01*
X156300000Y-73160000D01*
G75*
G02*
X156450000Y-73310000I0J-150000D01*
G01*
X156450000Y-73610000D01*
G75*
G02*
X156300000Y-73760000I-150000J0D01*
G01*
X154650000Y-73760000D01*
G75*
G02*
X154500000Y-73610000I0J150000D01*
G01*
G37*
G04 #@! TD.AperFunction*
G04 #@! TO.P,U2,14*
G04 #@! TO.N,+5V*
G04 #@! TA.AperFunction,SMDPad,CuDef*
G36*
G01*
X154500000Y-72340000D02*
X154500000Y-72040000D01*
G75*
G02*
X154650000Y-71890000I150000J0D01*
G01*
X156300000Y-71890000D01*
G75*
G02*
X156450000Y-72040000I0J-150000D01*
G01*
X156450000Y-72340000D01*
G75*
G02*
X156300000Y-72490000I-150000J0D01*
G01*
X154650000Y-72490000D01*
G75*
G02*
X154500000Y-72340000I0J150000D01*
G01*
G37*
G04 #@! TD.AperFunction*
G04 #@! TD*
G04 #@! TO.P,U4,1*
G04 #@! TO.N,ESP_IR*
G04 #@! TA.AperFunction,ComponentPad*
G36*
G01*
X94100000Y-104791600D02*
X94100000Y-103488400D01*
G75*
G02*
X94348400Y-103240000I248400J0D01*
G01*
X95651600Y-103240000D01*
G75*
G02*
X95900000Y-103488400I0J-248400D01*
G01*
X95900000Y-104791600D01*
G75*
G02*
X95651600Y-105040000I-248400J0D01*
G01*
X94348400Y-105040000D01*
G75*
G02*
X94100000Y-104791600I0J248400D01*
G01*
G37*
G04 #@! TD.AperFunction*
D25*
G04 #@! TO.P,U4,2*
G04 #@! TO.N,GND*
X97540000Y-104140000D03*
G04 #@! TO.P,U4,3*
G04 #@! TO.N,+3V3*
X100080000Y-104140000D03*
G04 #@! TD*
G04 #@! TO.P,U5,1*
G04 #@! TO.N,GND*
G04 #@! TA.AperFunction,ComponentPad*
G36*
G01*
X83300000Y-105450800D02*
X83300000Y-104549200D01*
G75*
G02*
X83549200Y-104300000I249200J0D01*
G01*
X84450800Y-104300000D01*
G75*
G02*
X84700000Y-104549200I0J-249200D01*
G01*
X84700000Y-105450800D01*
G75*
G02*
X84450800Y-105700000I-249200J0D01*
G01*
X83549200Y-105700000D01*
G75*
G02*
X83300000Y-105450800I0J249200D01*
G01*
G37*
G04 #@! TD.AperFunction*
D26*
G04 #@! TO.P,U5,2*
G04 #@! TO.N,+3V3*
X86540000Y-105000000D03*
G04 #@! TO.P,U5,3*
G04 #@! TO.N,ESP_IR*
X91620000Y-105000000D03*
G04 #@! TD*
D27*
G04 #@! TO.P,U1,2*
G04 #@! TO.N,+3V3*
X97710000Y-95780000D03*
D28*
X91410000Y-95780000D03*
G04 #@! TO.P,U1,3*
G04 #@! TO.N,+5V*
X91410000Y-98080000D03*
G04 #@! TO.P,U1,1*
G04 #@! TO.N,GND*
X91410000Y-93480000D03*
G04 #@! TD*
D29*
G04 #@! TO.P,Q1,1*
G04 #@! TO.N,Net-(Q1-Pad1)*
X95000000Y-76950000D03*
G04 #@! TO.P,Q1,2*
G04 #@! TO.N,GND*
X95000000Y-75050000D03*
G04 #@! TO.P,Q1,3*
G04 #@! TO.N,Net-(D3-Pad2)*
X93000000Y-76000000D03*
G04 #@! TD*
G04 #@! TO.P,R9,2*
G04 #@! TO.N,GND*
G04 #@! TA.AperFunction,SMDPad,CuDef*
G36*
G01*
X98950001Y-75600000D02*
X98049999Y-75600000D01*
G75*
G02*
X97800000Y-75350001I0J249999D01*
G01*
X97800000Y-74649999D01*
G75*
G02*
X98049999Y-74400000I249999J0D01*
G01*
X98950001Y-74400000D01*
G75*
G02*
X99200000Y-74649999I0J-249999D01*
G01*
X99200000Y-75350001D01*
G75*
G02*
X98950001Y-75600000I-249999J0D01*
G01*
G37*
G04 #@! TD.AperFunction*
G04 #@! TO.P,R9,1*
G04 #@! TO.N,ESP_PS_ON*
G04 #@! TA.AperFunction,SMDPad,CuDef*
G36*
G01*
X98950001Y-77600000D02*
X98049999Y-77600000D01*
G75*
G02*
X97800000Y-77350001I0J249999D01*
G01*
X97800000Y-76649999D01*
G75*
G02*
X98049999Y-76400000I249999J0D01*
G01*
X98950001Y-76400000D01*
G75*
G02*
X99200000Y-76649999I0J-249999D01*
G01*
X99200000Y-77350001D01*
G75*
G02*
X98950001Y-77600000I-249999J0D01*
G01*
G37*
G04 #@! TD.AperFunction*
G04 #@! TD*
G04 #@! TO.P,R10,1*
G04 #@! TO.N,Net-(Q1-Pad1)*
G04 #@! TA.AperFunction,SMDPad,CuDef*
G36*
G01*
X95900000Y-80450001D02*
X95900000Y-79549999D01*
G75*
G02*
X96149999Y-79300000I249999J0D01*
G01*
X96850001Y-79300000D01*
G75*
G02*
X97100000Y-79549999I0J-249999D01*
G01*
X97100000Y-80450001D01*
G75*
G02*
X96850001Y-80700000I-249999J0D01*
G01*
X96149999Y-80700000D01*
G75*
G02*
X95900000Y-80450001I0J249999D01*
G01*
G37*
G04 #@! TD.AperFunction*
G04 #@! TO.P,R10,2*
G04 #@! TO.N,ESP_PS_ON*
G04 #@! TA.AperFunction,SMDPad,CuDef*
G36*
G01*
X97900000Y-80450001D02*
X97900000Y-79549999D01*
G75*
G02*
X98149999Y-79300000I249999J0D01*
G01*
X98850001Y-79300000D01*
G75*
G02*
X99100000Y-79549999I0J-249999D01*
G01*
X99100000Y-80450001D01*
G75*
G02*
X98850001Y-80700000I-249999J0D01*
G01*
X98149999Y-80700000D01*
G75*
G02*
X97900000Y-80450001I0J249999D01*
G01*
G37*
G04 #@! TD.AperFunction*
G04 #@! TD*
D30*
G04 #@! TO.P,J3,1*
G04 #@! TO.N,ESP_BOOTL*
X145580000Y-73500000D03*
D31*
G04 #@! TO.P,J3,2*
G04 #@! TO.N,ESP_EN*
X143040000Y-73500000D03*
G04 #@! TO.P,J3,3*
G04 #@! TO.N,ESP_RX*
X140500000Y-73500000D03*
G04 #@! TO.P,J3,4*
G04 #@! TO.N,ESP_TX*
X137960000Y-73500000D03*
G04 #@! TO.P,J3,5*
G04 #@! TO.N,GND*
X135420000Y-73500000D03*
G04 #@! TD*
D13*
G04 #@! TO.P,SW2,2*
G04 #@! TO.N,GND*
X110500000Y-102000000D03*
G04 #@! TO.P,SW2,1*
G04 #@! TO.N,ESP_RST*
X110500000Y-97500000D03*
G04 #@! TO.P,SW2,2*
G04 #@! TO.N,GND*
X117000000Y-102000000D03*
G04 #@! TO.P,SW2,1*
G04 #@! TO.N,ESP_RST*
X117000000Y-97500000D03*
G04 #@! TD*
D32*
G04 #@! TO.N,GND*
X101500000Y-76000000D03*
X93000000Y-79499994D03*
X86500000Y-99500000D03*
X93500000Y-101500000D03*
X158045398Y-77045398D03*
X118000000Y-93000000D03*
X94499990Y-87630000D03*
X150000002Y-90000000D03*
X132000000Y-93000000D03*
X148189992Y-79810000D03*
G04 #@! TO.N,+5V*
X85500000Y-92000000D03*
X159500012Y-104500000D03*
X160000000Y-81500000D03*
G04 #@! TO.N,+3V3*
X102000000Y-92000000D03*
X89000000Y-102000000D03*
X102149990Y-101500000D03*
X114000000Y-88500000D03*
G04 #@! TO.N,ESP_SW2*
X122500000Y-81000000D03*
G04 #@! TO.N,SWITCH_IN*
X160000000Y-95500000D03*
G04 #@! TO.N,DATA_OUT*
X160000000Y-85000000D03*
G04 #@! TO.N,ESP_BOOTL*
X120000006Y-85500000D03*
G04 #@! TO.N,ESP_EN*
X114000002Y-79500000D03*
G04 #@! TO.N,ESP_RST*
X114000016Y-76500000D03*
X110500000Y-94000000D03*
G04 #@! TO.N,Net-(R4-Pad1)*
X129000000Y-89000000D03*
G04 #@! TO.N,ESP_SW1*
X120000000Y-83000000D03*
X122000000Y-94500000D03*
G04 #@! TO.N,ESP_LED_DATA*
X128500002Y-86500000D03*
G04 #@! TO.N,ESP_IR*
X103500000Y-104499998D03*
X105500000Y-88500014D03*
G04 #@! TO.N,PS_ON*
X80500000Y-83500000D03*
G04 #@! TO.N,ESP_PS_ON*
X107500000Y-86500000D03*
G04 #@! TD*
D33*
G04 #@! TO.N,GND*
X98450000Y-75050000D02*
X98500000Y-75000000D01*
X95000000Y-75050000D02*
X98450000Y-75050000D01*
X98500000Y-75000000D02*
X100500000Y-75000000D01*
X100500000Y-75000000D02*
X101500000Y-76000000D01*
X92500006Y-79499994D02*
X93000000Y-79499994D01*
X92500000Y-79500000D02*
X92500006Y-79499994D01*
X91500000Y-79500000D02*
X92500000Y-79500000D01*
X91250000Y-79750000D02*
X91500000Y-79500000D01*
X89500000Y-79750000D02*
X91250000Y-79750000D01*
D34*
X91410000Y-92552500D02*
X93462500Y-90500000D01*
X91410000Y-93480000D02*
X91410000Y-92552500D01*
X93462500Y-90462500D02*
X93462500Y-90500000D01*
X91390000Y-93500000D02*
X91410000Y-93480000D01*
X89000000Y-93500000D02*
X91390000Y-93500000D01*
D33*
X155475000Y-73460000D02*
X155475000Y-74730000D01*
X158270000Y-74730000D02*
X158500000Y-74500000D01*
X155475000Y-74730000D02*
X158270000Y-74730000D01*
X155475000Y-77270000D02*
X155475000Y-78540000D01*
X84000000Y-102000000D02*
X86500000Y-99500000D01*
X97925000Y-101500000D02*
X93500000Y-101500000D01*
X158500000Y-76590796D02*
X158045398Y-77045398D01*
X158500000Y-74500000D02*
X158500000Y-76590796D01*
X155475000Y-77270000D02*
X157820796Y-77270000D01*
X157820796Y-77270000D02*
X158045398Y-77045398D01*
D34*
X118000000Y-90500000D02*
X118000000Y-93000000D01*
X93462500Y-90500000D02*
X93462500Y-88667490D01*
X93462500Y-88667490D02*
X94499990Y-87630000D01*
D33*
X149750000Y-93000000D02*
X149750000Y-90250002D01*
X149750000Y-90250002D02*
X150000002Y-90000000D01*
X149750000Y-87500000D02*
X149750000Y-89749998D01*
X149750000Y-89749998D02*
X150000002Y-90000000D01*
D34*
X132000000Y-90500000D02*
X132000000Y-93000000D01*
D33*
X150525000Y-79810000D02*
X148189992Y-79810000D01*
D34*
G04 #@! TO.N,+5V*
X89580000Y-98080000D02*
X91410000Y-98080000D01*
X89000000Y-97500000D02*
X89580000Y-98080000D01*
X89000000Y-95575000D02*
X89000000Y-97500000D01*
X85500000Y-94725000D02*
X85500000Y-92000000D01*
X86350000Y-95575000D02*
X85500000Y-94725000D01*
X89000000Y-95575000D02*
X86350000Y-95575000D01*
D33*
X158265000Y-72190000D02*
X158500000Y-72425000D01*
X155475000Y-72190000D02*
X158265000Y-72190000D01*
X85500000Y-79750000D02*
X85500000Y-92000000D01*
X152810000Y-72190000D02*
X150525000Y-72190000D01*
X155475000Y-72190000D02*
X152810000Y-72190000D01*
X152810000Y-74690000D02*
X152810000Y-72190000D01*
X151500000Y-76000000D02*
X152810000Y-74690000D01*
X150525000Y-76000000D02*
X151500000Y-76000000D01*
X159000000Y-82500000D02*
X160000000Y-81500000D01*
X154250000Y-82500000D02*
X159000000Y-82500000D01*
X153250000Y-83500000D02*
X154250000Y-82500000D01*
X158500000Y-103499988D02*
X159500012Y-104500000D01*
X158500000Y-101000000D02*
X158500000Y-103499988D01*
X154500000Y-97000000D02*
X158500000Y-101000000D01*
X153250000Y-97000000D02*
X154500000Y-97000000D01*
X160000000Y-73000000D02*
X160000000Y-81500000D01*
X159425000Y-72425000D02*
X160000000Y-73000000D01*
X158500000Y-72425000D02*
X159425000Y-72425000D01*
D35*
X156500012Y-107500000D02*
X159500012Y-104500000D01*
X82500000Y-107500000D02*
X156500012Y-107500000D01*
X81000000Y-106000000D02*
X82500000Y-107500000D01*
X81000000Y-101064002D02*
X81000000Y-106000000D01*
X85500000Y-96564002D02*
X81000000Y-101064002D01*
X85500000Y-92000000D02*
X85500000Y-96564002D01*
D34*
G04 #@! TO.N,+3V3*
X97710000Y-93710000D02*
X97710000Y-95780000D01*
X95537500Y-91537500D02*
X97710000Y-93710000D01*
X95537500Y-90500000D02*
X95537500Y-91537500D01*
D33*
X118000000Y-76500000D02*
X118000000Y-79500000D01*
X116000000Y-83000000D02*
X116000000Y-85500000D01*
X116000000Y-90425000D02*
X115925000Y-90500000D01*
X116000000Y-85500000D02*
X116000000Y-90425000D01*
D34*
X102000000Y-94000000D02*
X102000000Y-92000000D01*
X100000000Y-96000000D02*
X102000000Y-94000000D01*
X97930000Y-96000000D02*
X100000000Y-96000000D01*
X97710000Y-95780000D02*
X97930000Y-96000000D01*
D33*
X86075000Y-102000000D02*
X89000000Y-102000000D01*
X100000000Y-101500000D02*
X102149990Y-101500000D01*
X100000000Y-96000000D02*
X100000000Y-101500000D01*
D34*
X94220000Y-95780000D02*
X97710000Y-95780000D01*
X91410000Y-95780000D02*
X94220000Y-95780000D01*
D33*
X116000000Y-82500000D02*
X116000000Y-83000000D01*
X118000000Y-80500000D02*
X116000000Y-82500000D01*
X118000000Y-79500000D02*
X118000000Y-80500000D01*
D34*
X115000000Y-90500000D02*
X115925000Y-90500000D01*
X114000000Y-89500000D02*
X115000000Y-90500000D01*
X114000000Y-88500000D02*
X114000000Y-89500000D01*
D33*
X94220000Y-98280000D02*
X94220000Y-95780000D01*
X92350001Y-100149999D02*
X94220000Y-98280000D01*
X90850001Y-100149999D02*
X92350001Y-100149999D01*
X89000000Y-102000000D02*
X90850001Y-100149999D01*
G04 #@! TO.N,5V_LED_DATA*
X155000000Y-87500000D02*
X153250000Y-87500000D01*
X156000000Y-86500000D02*
X155000000Y-87500000D01*
X156000000Y-85000000D02*
X156000000Y-86500000D01*
X150000000Y-83750000D02*
X149750000Y-83500000D01*
X150000000Y-84500000D02*
X150000000Y-83750000D01*
X151000000Y-85500000D02*
X150000000Y-84500000D01*
X152125000Y-85500000D02*
X151000000Y-85500000D01*
X153250000Y-86625000D02*
X152125000Y-85500000D01*
X153250000Y-87500000D02*
X153250000Y-86625000D01*
X149750000Y-82250000D02*
X149750000Y-83500000D01*
X150500000Y-81500000D02*
X149750000Y-82250000D01*
X151500000Y-81500000D02*
X150500000Y-81500000D01*
X152500000Y-80500000D02*
X151500000Y-81500000D01*
X152500000Y-79000000D02*
X152500000Y-80500000D01*
X152040000Y-78540000D02*
X152500000Y-79000000D01*
X150525000Y-78540000D02*
X152040000Y-78540000D01*
G04 #@! TO.N,ESP_SW2*
X156000000Y-94000000D02*
X155000000Y-93000000D01*
X155000000Y-93000000D02*
X153250000Y-93000000D01*
X156000000Y-95500000D02*
X156000000Y-94000000D01*
X153250000Y-94000000D02*
X153250000Y-93000000D01*
X152250000Y-95000000D02*
X153250000Y-94000000D01*
X150750000Y-95000000D02*
X152250000Y-95000000D01*
X149750000Y-96000000D02*
X150750000Y-95000000D01*
X149750000Y-97000000D02*
X149750000Y-96000000D01*
X148500000Y-97000000D02*
X149750000Y-97000000D01*
X147000000Y-95500000D02*
X148500000Y-97000000D01*
X128000000Y-95500000D02*
X147000000Y-95500000D01*
X122500000Y-90000000D02*
X128000000Y-95500000D01*
X122500000Y-81000000D02*
X122500000Y-90000000D01*
G04 #@! TO.N,SWITCH_IN*
X158000000Y-95500000D02*
X160000000Y-95500000D01*
G04 #@! TO.N,DATA_OUT*
X158000000Y-85000000D02*
X160000000Y-85000000D01*
G04 #@! TO.N,ESP_BOOTL*
X118000000Y-85500000D02*
X120000006Y-85500000D01*
G04 #@! TO.N,ESP_EN*
X116000000Y-79500000D02*
X114000002Y-79500000D01*
G04 #@! TO.N,ESP_RST*
X116000000Y-76500000D02*
X114000016Y-76500000D01*
X112500000Y-92000000D02*
X110500000Y-94000000D01*
X112500000Y-78000016D02*
X112500000Y-92000000D01*
X114000016Y-76500000D02*
X112500000Y-78000016D01*
G04 #@! TO.N,Net-(R4-Pad1)*
X132000000Y-88500000D02*
X129500000Y-88500000D01*
X129500000Y-88500000D02*
X129000000Y-89000000D01*
G04 #@! TO.N,ESP_SW1*
X118000000Y-83000000D02*
X120000000Y-83000000D01*
X121350007Y-84350007D02*
X121350007Y-93850007D01*
X120000000Y-83000000D02*
X121350007Y-84350007D01*
X121350007Y-93850007D02*
X122000000Y-94500000D01*
G04 #@! TO.N,ESP_LED_DATA*
X150485000Y-73500000D02*
X150525000Y-73460000D01*
X130500000Y-84500000D02*
X128500002Y-86499998D01*
X128500002Y-86499998D02*
X128500002Y-86500000D01*
X141500000Y-84500000D02*
X130500000Y-84500000D01*
X147500000Y-78500000D02*
X141500000Y-84500000D01*
X147500000Y-74500000D02*
X147500000Y-78500000D01*
X148540000Y-73460000D02*
X147500000Y-74500000D01*
X150525000Y-73460000D02*
X148540000Y-73460000D01*
G04 #@! TO.N,Net-(U2-Pad3)*
X149520000Y-74730000D02*
X150525000Y-74730000D01*
X149000000Y-75250000D02*
X149520000Y-74730000D01*
X149000000Y-76720000D02*
X149000000Y-75250000D01*
X149550000Y-77270000D02*
X149000000Y-76720000D01*
X150525000Y-77270000D02*
X149550000Y-77270000D01*
G04 #@! TO.N,ESP_IR*
X103500000Y-104499998D02*
X103500000Y-90500014D01*
X103500000Y-90500014D02*
X105500000Y-88500014D01*
G04 #@! TO.N,Net-(D3-Pad2)*
X85250000Y-76000000D02*
X85500000Y-76250000D01*
X82500000Y-76000000D02*
X85250000Y-76000000D01*
X82000000Y-76500000D02*
X82500000Y-76000000D01*
X85500000Y-76250000D02*
X89500000Y-76250000D01*
X92750000Y-76250000D02*
X93000000Y-76000000D01*
X89500000Y-76250000D02*
X92750000Y-76250000D01*
G04 #@! TO.N,PS_ON*
X80500000Y-82500000D02*
X80500000Y-83500000D01*
X82000000Y-81000000D02*
X80500000Y-82500000D01*
X82000000Y-78500000D02*
X82000000Y-81000000D01*
G04 #@! TO.N,Net-(Q1-Pad1)*
X96500000Y-78450000D02*
X95000000Y-76950000D01*
X96500000Y-80000000D02*
X96500000Y-78450000D01*
G04 #@! TO.N,ESP_PS_ON*
X98500000Y-77000000D02*
X98500000Y-80000000D01*
X101000000Y-80000000D02*
X107500000Y-86500000D01*
X98500000Y-80000000D02*
X101000000Y-80000000D01*
G04 #@! TD*
D36*
G04 #@! TO.N,+3V3*
X105986939Y-86238518D02*
X105965000Y-86348816D01*
X105965000Y-86651184D01*
X106023989Y-86947743D01*
X106077911Y-87077920D01*
X105947743Y-87024003D01*
X105651184Y-86965014D01*
X105348816Y-86965014D01*
X105052257Y-87024003D01*
X104772905Y-87139715D01*
X104521495Y-87307702D01*
X104307688Y-87521509D01*
X104139701Y-87772919D01*
X104023989Y-88052271D01*
X103965000Y-88348830D01*
X103965000Y-88651198D01*
X103986940Y-88761496D01*
X102904951Y-89843485D01*
X102871184Y-89871197D01*
X102843471Y-89904965D01*
X102843468Y-89904968D01*
X102760590Y-90005955D01*
X102678412Y-90159701D01*
X102627805Y-90326524D01*
X102610719Y-90500014D01*
X102615001Y-90543493D01*
X102615000Y-101873000D01*
X101223110Y-101873000D01*
X101222500Y-101785750D01*
X101063750Y-101627000D01*
X100127000Y-101627000D01*
X100127000Y-101647000D01*
X99873000Y-101647000D01*
X99873000Y-101627000D01*
X99853000Y-101627000D01*
X99853000Y-101373000D01*
X99873000Y-101373000D01*
X99873000Y-100298750D01*
X100127000Y-100298750D01*
X100127000Y-101373000D01*
X101063750Y-101373000D01*
X101222500Y-101214250D01*
X101225572Y-100775000D01*
X101213312Y-100650518D01*
X101177002Y-100530820D01*
X101118037Y-100420506D01*
X101038685Y-100323815D01*
X100941994Y-100244463D01*
X100831680Y-100185498D01*
X100711982Y-100149188D01*
X100587500Y-100136928D01*
X100285750Y-100140000D01*
X100127000Y-100298750D01*
X99873000Y-100298750D01*
X99714250Y-100140000D01*
X99412500Y-100136928D01*
X99288018Y-100149188D01*
X99168320Y-100185498D01*
X99058006Y-100244463D01*
X98961315Y-100323815D01*
X98895842Y-100403594D01*
X98890462Y-100397038D01*
X98755886Y-100286595D01*
X98602350Y-100204528D01*
X98435754Y-100153992D01*
X98262500Y-100136928D01*
X97587500Y-100136928D01*
X97414246Y-100153992D01*
X97247650Y-100204528D01*
X97094114Y-100286595D01*
X96959538Y-100397038D01*
X96849095Y-100531614D01*
X96804524Y-100615000D01*
X94754790Y-100615000D01*
X94692312Y-100521495D01*
X94478505Y-100307688D01*
X94227095Y-100139701D01*
X93947743Y-100023989D01*
X93651184Y-99965000D01*
X93348816Y-99965000D01*
X93052257Y-100023989D01*
X92772905Y-100139701D01*
X92521495Y-100307688D01*
X92307688Y-100521495D01*
X92139701Y-100772905D01*
X92023989Y-101052257D01*
X91965000Y-101348816D01*
X91965000Y-101651184D01*
X92009122Y-101873000D01*
X91052606Y-101873000D01*
X90127000Y-100947394D01*
X90127000Y-99398752D01*
X90165820Y-99419502D01*
X90285518Y-99455812D01*
X90410000Y-99468072D01*
X92410000Y-99468072D01*
X92534482Y-99455812D01*
X92654180Y-99419502D01*
X92764494Y-99360537D01*
X92861185Y-99281185D01*
X92940537Y-99184494D01*
X92999502Y-99074180D01*
X93035812Y-98954482D01*
X93048072Y-98830000D01*
X93048072Y-97680000D01*
X96071928Y-97680000D01*
X96084188Y-97804482D01*
X96120498Y-97924180D01*
X96179463Y-98034494D01*
X96258815Y-98131185D01*
X96355506Y-98210537D01*
X96465820Y-98269502D01*
X96585518Y-98305812D01*
X96710000Y-98318072D01*
X97424250Y-98315000D01*
X97583000Y-98156250D01*
X97583000Y-95907000D01*
X97837000Y-95907000D01*
X97837000Y-98156250D01*
X97995750Y-98315000D01*
X98710000Y-98318072D01*
X98834482Y-98305812D01*
X98954180Y-98269502D01*
X99064494Y-98210537D01*
X99161185Y-98131185D01*
X99240537Y-98034494D01*
X99299502Y-97924180D01*
X99335812Y-97804482D01*
X99348072Y-97680000D01*
X99345000Y-96065750D01*
X99186250Y-95907000D01*
X97837000Y-95907000D01*
X97583000Y-95907000D01*
X96233750Y-95907000D01*
X96075000Y-96065750D01*
X96071928Y-97680000D01*
X93048072Y-97680000D01*
X93048072Y-97330000D01*
X93035812Y-97205518D01*
X92999502Y-97085820D01*
X92940537Y-96975506D01*
X92903191Y-96930000D01*
X92940537Y-96884494D01*
X92999502Y-96774180D01*
X93035812Y-96654482D01*
X93048072Y-96530000D01*
X93045000Y-96065750D01*
X92886250Y-95907000D01*
X91537000Y-95907000D01*
X91537000Y-95927000D01*
X91283000Y-95927000D01*
X91283000Y-95907000D01*
X91263000Y-95907000D01*
X91263000Y-95653000D01*
X91283000Y-95653000D01*
X91283000Y-95633000D01*
X91537000Y-95633000D01*
X91537000Y-95653000D01*
X92886250Y-95653000D01*
X93045000Y-95494250D01*
X93048072Y-95030000D01*
X93035812Y-94905518D01*
X92999502Y-94785820D01*
X92940537Y-94675506D01*
X92903191Y-94630000D01*
X92940537Y-94584494D01*
X92999502Y-94474180D01*
X93035812Y-94354482D01*
X93048072Y-94230000D01*
X93048072Y-93880000D01*
X96071928Y-93880000D01*
X96075000Y-95494250D01*
X96233750Y-95653000D01*
X97583000Y-95653000D01*
X97583000Y-93403750D01*
X97837000Y-93403750D01*
X97837000Y-95653000D01*
X99186250Y-95653000D01*
X99345000Y-95494250D01*
X99348072Y-93880000D01*
X99335812Y-93755518D01*
X99299502Y-93635820D01*
X99240537Y-93525506D01*
X99161185Y-93428815D01*
X99064494Y-93349463D01*
X98954180Y-93290498D01*
X98834482Y-93254188D01*
X98710000Y-93241928D01*
X97995750Y-93245000D01*
X97837000Y-93403750D01*
X97583000Y-93403750D01*
X97424250Y-93245000D01*
X96710000Y-93241928D01*
X96585518Y-93254188D01*
X96465820Y-93290498D01*
X96355506Y-93349463D01*
X96258815Y-93428815D01*
X96179463Y-93525506D01*
X96120498Y-93635820D01*
X96084188Y-93755518D01*
X96071928Y-93880000D01*
X93048072Y-93880000D01*
X93048072Y-92730000D01*
X93035812Y-92605518D01*
X93018659Y-92548972D01*
X93704560Y-91863072D01*
X93800000Y-91863072D01*
X93973254Y-91846008D01*
X94139850Y-91795472D01*
X94293386Y-91713405D01*
X94427962Y-91602962D01*
X94433342Y-91596406D01*
X94498815Y-91676185D01*
X94595506Y-91755537D01*
X94705820Y-91814502D01*
X94825518Y-91850812D01*
X94950000Y-91863072D01*
X95251750Y-91860000D01*
X95410500Y-91701250D01*
X95410500Y-90627000D01*
X95664500Y-90627000D01*
X95664500Y-91701250D01*
X95823250Y-91860000D01*
X96125000Y-91863072D01*
X96249482Y-91850812D01*
X96369180Y-91814502D01*
X96479494Y-91755537D01*
X96576185Y-91676185D01*
X96655537Y-91579494D01*
X96714502Y-91469180D01*
X96750812Y-91349482D01*
X96763072Y-91225000D01*
X96760000Y-90785750D01*
X96601250Y-90627000D01*
X95664500Y-90627000D01*
X95410500Y-90627000D01*
X95390500Y-90627000D01*
X95390500Y-90373000D01*
X95410500Y-90373000D01*
X95410500Y-89298750D01*
X95664500Y-89298750D01*
X95664500Y-90373000D01*
X96601250Y-90373000D01*
X96760000Y-90214250D01*
X96763072Y-89775000D01*
X96750812Y-89650518D01*
X96714502Y-89530820D01*
X96655537Y-89420506D01*
X96576185Y-89323815D01*
X96479494Y-89244463D01*
X96369180Y-89185498D01*
X96249482Y-89149188D01*
X96125000Y-89136928D01*
X95823250Y-89140000D01*
X95664500Y-89298750D01*
X95410500Y-89298750D01*
X95251750Y-89140000D01*
X94950000Y-89136928D01*
X94825518Y-89149188D01*
X94705820Y-89185498D01*
X94597500Y-89243397D01*
X94597500Y-89165000D01*
X94651174Y-89165000D01*
X94947733Y-89106011D01*
X95227085Y-88990299D01*
X95478495Y-88822312D01*
X95692302Y-88608505D01*
X95860289Y-88357095D01*
X95976001Y-88077743D01*
X96034990Y-87781184D01*
X96034990Y-87478816D01*
X95976001Y-87182257D01*
X95860289Y-86902905D01*
X95692302Y-86651495D01*
X95478495Y-86437688D01*
X95360229Y-86358665D01*
X97065000Y-86358665D01*
X97065000Y-86641335D01*
X97120147Y-86918574D01*
X97228320Y-87179727D01*
X97385363Y-87414759D01*
X97585241Y-87614637D01*
X97820273Y-87771680D01*
X98081426Y-87879853D01*
X98358665Y-87935000D01*
X98641335Y-87935000D01*
X98918574Y-87879853D01*
X99179727Y-87771680D01*
X99414759Y-87614637D01*
X99614637Y-87414759D01*
X99691316Y-87300000D01*
X100561928Y-87300000D01*
X100574188Y-87424482D01*
X100610498Y-87544180D01*
X100669463Y-87654494D01*
X100748815Y-87751185D01*
X100845506Y-87830537D01*
X100955820Y-87889502D01*
X101075518Y-87925812D01*
X101200000Y-87938072D01*
X101714250Y-87935000D01*
X101873000Y-87776250D01*
X101873000Y-86627000D01*
X102127000Y-86627000D01*
X102127000Y-87776250D01*
X102285750Y-87935000D01*
X102800000Y-87938072D01*
X102924482Y-87925812D01*
X103044180Y-87889502D01*
X103154494Y-87830537D01*
X103251185Y-87751185D01*
X103330537Y-87654494D01*
X103389502Y-87544180D01*
X103425812Y-87424482D01*
X103438072Y-87300000D01*
X103435000Y-86785750D01*
X103276250Y-86627000D01*
X102127000Y-86627000D01*
X101873000Y-86627000D01*
X100723750Y-86627000D01*
X100565000Y-86785750D01*
X100561928Y-87300000D01*
X99691316Y-87300000D01*
X99771680Y-87179727D01*
X99879853Y-86918574D01*
X99935000Y-86641335D01*
X99935000Y-86358665D01*
X99879853Y-86081426D01*
X99771680Y-85820273D01*
X99691317Y-85700000D01*
X100561928Y-85700000D01*
X100565000Y-86214250D01*
X100723750Y-86373000D01*
X101873000Y-86373000D01*
X101873000Y-85223750D01*
X102127000Y-85223750D01*
X102127000Y-86373000D01*
X103276250Y-86373000D01*
X103435000Y-86214250D01*
X103438072Y-85700000D01*
X103425812Y-85575518D01*
X103389502Y-85455820D01*
X103330537Y-85345506D01*
X103251185Y-85248815D01*
X103154494Y-85169463D01*
X103044180Y-85110498D01*
X102924482Y-85074188D01*
X102800000Y-85061928D01*
X102285750Y-85065000D01*
X102127000Y-85223750D01*
X101873000Y-85223750D01*
X101714250Y-85065000D01*
X101200000Y-85061928D01*
X101075518Y-85074188D01*
X100955820Y-85110498D01*
X100845506Y-85169463D01*
X100748815Y-85248815D01*
X100669463Y-85345506D01*
X100610498Y-85455820D01*
X100574188Y-85575518D01*
X100561928Y-85700000D01*
X99691317Y-85700000D01*
X99614637Y-85585241D01*
X99414759Y-85385363D01*
X99179727Y-85228320D01*
X98918574Y-85120147D01*
X98641335Y-85065000D01*
X98358665Y-85065000D01*
X98081426Y-85120147D01*
X97820273Y-85228320D01*
X97585241Y-85385363D01*
X97385363Y-85585241D01*
X97228320Y-85820273D01*
X97120147Y-86081426D01*
X97065000Y-86358665D01*
X95360229Y-86358665D01*
X95227085Y-86269701D01*
X94947733Y-86153989D01*
X94651174Y-86095000D01*
X94348806Y-86095000D01*
X94052247Y-86153989D01*
X93772895Y-86269701D01*
X93521485Y-86437688D01*
X93307678Y-86651495D01*
X93139691Y-86902905D01*
X93023979Y-87182257D01*
X92964990Y-87478816D01*
X92964990Y-87559869D01*
X92699360Y-87825499D01*
X92656052Y-87861041D01*
X92514217Y-88033867D01*
X92490765Y-88077743D01*
X92408824Y-88231044D01*
X92343923Y-88444992D01*
X92322009Y-88667490D01*
X92327500Y-88723241D01*
X92327500Y-89642173D01*
X92304528Y-89685150D01*
X92253992Y-89851746D01*
X92236928Y-90025000D01*
X92236928Y-90120440D01*
X90646860Y-91710509D01*
X90603552Y-91746051D01*
X90461717Y-91918877D01*
X90366953Y-92096168D01*
X90285518Y-92104188D01*
X90165820Y-92140498D01*
X90127000Y-92161248D01*
X90127000Y-87888918D01*
X90358665Y-87935000D01*
X90641335Y-87935000D01*
X90918574Y-87879853D01*
X91179727Y-87771680D01*
X91414759Y-87614637D01*
X91614637Y-87414759D01*
X91771680Y-87179727D01*
X91879853Y-86918574D01*
X91935000Y-86641335D01*
X91935000Y-86358665D01*
X91879853Y-86081426D01*
X91771680Y-85820273D01*
X91614637Y-85585241D01*
X91414759Y-85385363D01*
X91179727Y-85228320D01*
X90918574Y-85120147D01*
X90641335Y-85065000D01*
X90358665Y-85065000D01*
X90127000Y-85111082D01*
X90127000Y-85052606D01*
X91052606Y-84127000D01*
X103875421Y-84127000D01*
X105986939Y-86238518D01*
G04 #@! TA.AperFunction,Conductor*
D37*
G36*
X105986939Y-86238518D02*
G01*
X105965000Y-86348816D01*
X105965000Y-86651184D01*
X106023989Y-86947743D01*
X106077911Y-87077920D01*
X105947743Y-87024003D01*
X105651184Y-86965014D01*
X105348816Y-86965014D01*
X105052257Y-87024003D01*
X104772905Y-87139715D01*
X104521495Y-87307702D01*
X104307688Y-87521509D01*
X104139701Y-87772919D01*
X104023989Y-88052271D01*
X103965000Y-88348830D01*
X103965000Y-88651198D01*
X103986940Y-88761496D01*
X102904951Y-89843485D01*
X102871184Y-89871197D01*
X102843471Y-89904965D01*
X102843468Y-89904968D01*
X102760590Y-90005955D01*
X102678412Y-90159701D01*
X102627805Y-90326524D01*
X102610719Y-90500014D01*
X102615001Y-90543493D01*
X102615000Y-101873000D01*
X101223110Y-101873000D01*
X101222500Y-101785750D01*
X101063750Y-101627000D01*
X100127000Y-101627000D01*
X100127000Y-101647000D01*
X99873000Y-101647000D01*
X99873000Y-101627000D01*
X99853000Y-101627000D01*
X99853000Y-101373000D01*
X99873000Y-101373000D01*
X99873000Y-100298750D01*
X100127000Y-100298750D01*
X100127000Y-101373000D01*
X101063750Y-101373000D01*
X101222500Y-101214250D01*
X101225572Y-100775000D01*
X101213312Y-100650518D01*
X101177002Y-100530820D01*
X101118037Y-100420506D01*
X101038685Y-100323815D01*
X100941994Y-100244463D01*
X100831680Y-100185498D01*
X100711982Y-100149188D01*
X100587500Y-100136928D01*
X100285750Y-100140000D01*
X100127000Y-100298750D01*
X99873000Y-100298750D01*
X99714250Y-100140000D01*
X99412500Y-100136928D01*
X99288018Y-100149188D01*
X99168320Y-100185498D01*
X99058006Y-100244463D01*
X98961315Y-100323815D01*
X98895842Y-100403594D01*
X98890462Y-100397038D01*
X98755886Y-100286595D01*
X98602350Y-100204528D01*
X98435754Y-100153992D01*
X98262500Y-100136928D01*
X97587500Y-100136928D01*
X97414246Y-100153992D01*
X97247650Y-100204528D01*
X97094114Y-100286595D01*
X96959538Y-100397038D01*
X96849095Y-100531614D01*
X96804524Y-100615000D01*
X94754790Y-100615000D01*
X94692312Y-100521495D01*
X94478505Y-100307688D01*
X94227095Y-100139701D01*
X93947743Y-100023989D01*
X93651184Y-99965000D01*
X93348816Y-99965000D01*
X93052257Y-100023989D01*
X92772905Y-100139701D01*
X92521495Y-100307688D01*
X92307688Y-100521495D01*
X92139701Y-100772905D01*
X92023989Y-101052257D01*
X91965000Y-101348816D01*
X91965000Y-101651184D01*
X92009122Y-101873000D01*
X91052606Y-101873000D01*
X90127000Y-100947394D01*
X90127000Y-99398752D01*
X90165820Y-99419502D01*
X90285518Y-99455812D01*
X90410000Y-99468072D01*
X92410000Y-99468072D01*
X92534482Y-99455812D01*
X92654180Y-99419502D01*
X92764494Y-99360537D01*
X92861185Y-99281185D01*
X92940537Y-99184494D01*
X92999502Y-99074180D01*
X93035812Y-98954482D01*
X93048072Y-98830000D01*
X93048072Y-97680000D01*
X96071928Y-97680000D01*
X96084188Y-97804482D01*
X96120498Y-97924180D01*
X96179463Y-98034494D01*
X96258815Y-98131185D01*
X96355506Y-98210537D01*
X96465820Y-98269502D01*
X96585518Y-98305812D01*
X96710000Y-98318072D01*
X97424250Y-98315000D01*
X97583000Y-98156250D01*
X97583000Y-95907000D01*
X97837000Y-95907000D01*
X97837000Y-98156250D01*
X97995750Y-98315000D01*
X98710000Y-98318072D01*
X98834482Y-98305812D01*
X98954180Y-98269502D01*
X99064494Y-98210537D01*
X99161185Y-98131185D01*
X99240537Y-98034494D01*
X99299502Y-97924180D01*
X99335812Y-97804482D01*
X99348072Y-97680000D01*
X99345000Y-96065750D01*
X99186250Y-95907000D01*
X97837000Y-95907000D01*
X97583000Y-95907000D01*
X96233750Y-95907000D01*
X96075000Y-96065750D01*
X96071928Y-97680000D01*
X93048072Y-97680000D01*
X93048072Y-97330000D01*
X93035812Y-97205518D01*
X92999502Y-97085820D01*
X92940537Y-96975506D01*
X92903191Y-96930000D01*
X92940537Y-96884494D01*
X92999502Y-96774180D01*
X93035812Y-96654482D01*
X93048072Y-96530000D01*
X93045000Y-96065750D01*
X92886250Y-95907000D01*
X91537000Y-95907000D01*
X91537000Y-95927000D01*
X91283000Y-95927000D01*
X91283000Y-95907000D01*
X91263000Y-95907000D01*
X91263000Y-95653000D01*
X91283000Y-95653000D01*
X91283000Y-95633000D01*
X91537000Y-95633000D01*
X91537000Y-95653000D01*
X92886250Y-95653000D01*
X93045000Y-95494250D01*
X93048072Y-95030000D01*
X93035812Y-94905518D01*
X92999502Y-94785820D01*
X92940537Y-94675506D01*
X92903191Y-94630000D01*
X92940537Y-94584494D01*
X92999502Y-94474180D01*
X93035812Y-94354482D01*
X93048072Y-94230000D01*
X93048072Y-93880000D01*
X96071928Y-93880000D01*
X96075000Y-95494250D01*
X96233750Y-95653000D01*
X97583000Y-95653000D01*
X97583000Y-93403750D01*
X97837000Y-93403750D01*
X97837000Y-95653000D01*
X99186250Y-95653000D01*
X99345000Y-95494250D01*
X99348072Y-93880000D01*
X99335812Y-93755518D01*
X99299502Y-93635820D01*
X99240537Y-93525506D01*
X99161185Y-93428815D01*
X99064494Y-93349463D01*
X98954180Y-93290498D01*
X98834482Y-93254188D01*
X98710000Y-93241928D01*
X97995750Y-93245000D01*
X97837000Y-93403750D01*
X97583000Y-93403750D01*
X97424250Y-93245000D01*
X96710000Y-93241928D01*
X96585518Y-93254188D01*
X96465820Y-93290498D01*
X96355506Y-93349463D01*
X96258815Y-93428815D01*
X96179463Y-93525506D01*
X96120498Y-93635820D01*
X96084188Y-93755518D01*
X96071928Y-93880000D01*
X93048072Y-93880000D01*
X93048072Y-92730000D01*
X93035812Y-92605518D01*
X93018659Y-92548972D01*
X93704560Y-91863072D01*
X93800000Y-91863072D01*
X93973254Y-91846008D01*
X94139850Y-91795472D01*
X94293386Y-91713405D01*
X94427962Y-91602962D01*
X94433342Y-91596406D01*
X94498815Y-91676185D01*
X94595506Y-91755537D01*
X94705820Y-91814502D01*
X94825518Y-91850812D01*
X94950000Y-91863072D01*
X95251750Y-91860000D01*
X95410500Y-91701250D01*
X95410500Y-90627000D01*
X95664500Y-90627000D01*
X95664500Y-91701250D01*
X95823250Y-91860000D01*
X96125000Y-91863072D01*
X96249482Y-91850812D01*
X96369180Y-91814502D01*
X96479494Y-91755537D01*
X96576185Y-91676185D01*
X96655537Y-91579494D01*
X96714502Y-91469180D01*
X96750812Y-91349482D01*
X96763072Y-91225000D01*
X96760000Y-90785750D01*
X96601250Y-90627000D01*
X95664500Y-90627000D01*
X95410500Y-90627000D01*
X95390500Y-90627000D01*
X95390500Y-90373000D01*
X95410500Y-90373000D01*
X95410500Y-89298750D01*
X95664500Y-89298750D01*
X95664500Y-90373000D01*
X96601250Y-90373000D01*
X96760000Y-90214250D01*
X96763072Y-89775000D01*
X96750812Y-89650518D01*
X96714502Y-89530820D01*
X96655537Y-89420506D01*
X96576185Y-89323815D01*
X96479494Y-89244463D01*
X96369180Y-89185498D01*
X96249482Y-89149188D01*
X96125000Y-89136928D01*
X95823250Y-89140000D01*
X95664500Y-89298750D01*
X95410500Y-89298750D01*
X95251750Y-89140000D01*
X94950000Y-89136928D01*
X94825518Y-89149188D01*
X94705820Y-89185498D01*
X94597500Y-89243397D01*
X94597500Y-89165000D01*
X94651174Y-89165000D01*
X94947733Y-89106011D01*
X95227085Y-88990299D01*
X95478495Y-88822312D01*
X95692302Y-88608505D01*
X95860289Y-88357095D01*
X95976001Y-88077743D01*
X96034990Y-87781184D01*
X96034990Y-87478816D01*
X95976001Y-87182257D01*
X95860289Y-86902905D01*
X95692302Y-86651495D01*
X95478495Y-86437688D01*
X95360229Y-86358665D01*
X97065000Y-86358665D01*
X97065000Y-86641335D01*
X97120147Y-86918574D01*
X97228320Y-87179727D01*
X97385363Y-87414759D01*
X97585241Y-87614637D01*
X97820273Y-87771680D01*
X98081426Y-87879853D01*
X98358665Y-87935000D01*
X98641335Y-87935000D01*
X98918574Y-87879853D01*
X99179727Y-87771680D01*
X99414759Y-87614637D01*
X99614637Y-87414759D01*
X99691316Y-87300000D01*
X100561928Y-87300000D01*
X100574188Y-87424482D01*
X100610498Y-87544180D01*
X100669463Y-87654494D01*
X100748815Y-87751185D01*
X100845506Y-87830537D01*
X100955820Y-87889502D01*
X101075518Y-87925812D01*
X101200000Y-87938072D01*
X101714250Y-87935000D01*
X101873000Y-87776250D01*
X101873000Y-86627000D01*
X102127000Y-86627000D01*
X102127000Y-87776250D01*
X102285750Y-87935000D01*
X102800000Y-87938072D01*
X102924482Y-87925812D01*
X103044180Y-87889502D01*
X103154494Y-87830537D01*
X103251185Y-87751185D01*
X103330537Y-87654494D01*
X103389502Y-87544180D01*
X103425812Y-87424482D01*
X103438072Y-87300000D01*
X103435000Y-86785750D01*
X103276250Y-86627000D01*
X102127000Y-86627000D01*
X101873000Y-86627000D01*
X100723750Y-86627000D01*
X100565000Y-86785750D01*
X100561928Y-87300000D01*
X99691316Y-87300000D01*
X99771680Y-87179727D01*
X99879853Y-86918574D01*
X99935000Y-86641335D01*
X99935000Y-86358665D01*
X99879853Y-86081426D01*
X99771680Y-85820273D01*
X99691317Y-85700000D01*
X100561928Y-85700000D01*
X100565000Y-86214250D01*
X100723750Y-86373000D01*
X101873000Y-86373000D01*
X101873000Y-85223750D01*
X102127000Y-85223750D01*
X102127000Y-86373000D01*
X103276250Y-86373000D01*
X103435000Y-86214250D01*
X103438072Y-85700000D01*
X103425812Y-85575518D01*
X103389502Y-85455820D01*
X103330537Y-85345506D01*
X103251185Y-85248815D01*
X103154494Y-85169463D01*
X103044180Y-85110498D01*
X102924482Y-85074188D01*
X102800000Y-85061928D01*
X102285750Y-85065000D01*
X102127000Y-85223750D01*
X101873000Y-85223750D01*
X101714250Y-85065000D01*
X101200000Y-85061928D01*
X101075518Y-85074188D01*
X100955820Y-85110498D01*
X100845506Y-85169463D01*
X100748815Y-85248815D01*
X100669463Y-85345506D01*
X100610498Y-85455820D01*
X100574188Y-85575518D01*
X100561928Y-85700000D01*
X99691317Y-85700000D01*
X99614637Y-85585241D01*
X99414759Y-85385363D01*
X99179727Y-85228320D01*
X98918574Y-85120147D01*
X98641335Y-85065000D01*
X98358665Y-85065000D01*
X98081426Y-85120147D01*
X97820273Y-85228320D01*
X97585241Y-85385363D01*
X97385363Y-85585241D01*
X97228320Y-85820273D01*
X97120147Y-86081426D01*
X97065000Y-86358665D01*
X95360229Y-86358665D01*
X95227085Y-86269701D01*
X94947733Y-86153989D01*
X94651174Y-86095000D01*
X94348806Y-86095000D01*
X94052247Y-86153989D01*
X93772895Y-86269701D01*
X93521485Y-86437688D01*
X93307678Y-86651495D01*
X93139691Y-86902905D01*
X93023979Y-87182257D01*
X92964990Y-87478816D01*
X92964990Y-87559869D01*
X92699360Y-87825499D01*
X92656052Y-87861041D01*
X92514217Y-88033867D01*
X92490765Y-88077743D01*
X92408824Y-88231044D01*
X92343923Y-88444992D01*
X92322009Y-88667490D01*
X92327500Y-88723241D01*
X92327500Y-89642173D01*
X92304528Y-89685150D01*
X92253992Y-89851746D01*
X92236928Y-90025000D01*
X92236928Y-90120440D01*
X90646860Y-91710509D01*
X90603552Y-91746051D01*
X90461717Y-91918877D01*
X90366953Y-92096168D01*
X90285518Y-92104188D01*
X90165820Y-92140498D01*
X90127000Y-92161248D01*
X90127000Y-87888918D01*
X90358665Y-87935000D01*
X90641335Y-87935000D01*
X90918574Y-87879853D01*
X91179727Y-87771680D01*
X91414759Y-87614637D01*
X91614637Y-87414759D01*
X91771680Y-87179727D01*
X91879853Y-86918574D01*
X91935000Y-86641335D01*
X91935000Y-86358665D01*
X91879853Y-86081426D01*
X91771680Y-85820273D01*
X91614637Y-85585241D01*
X91414759Y-85385363D01*
X91179727Y-85228320D01*
X90918574Y-85120147D01*
X90641335Y-85065000D01*
X90358665Y-85065000D01*
X90127000Y-85111082D01*
X90127000Y-85052606D01*
X91052606Y-84127000D01*
X103875421Y-84127000D01*
X105986939Y-86238518D01*
G37*
G04 #@! TD.AperFunction*
G04 #@! TD*
D38*
X101500000Y-76000000D03*
X93000000Y-79499994D03*
X86500000Y-99500000D03*
X93500000Y-101500000D03*
X158045398Y-77045398D03*
X118000000Y-93000000D03*
X94499990Y-87630000D03*
X150000002Y-90000000D03*
X132000000Y-93000000D03*
X148189992Y-79810000D03*
X85500000Y-92000000D03*
X159500012Y-104500000D03*
X160000000Y-81500000D03*
X102000000Y-92000000D03*
X89000000Y-102000000D03*
X102149990Y-101500000D03*
X114000000Y-88500000D03*
X122500000Y-81000000D03*
X160000000Y-95500000D03*
X160000000Y-85000000D03*
X120000006Y-85500000D03*
X114000002Y-79500000D03*
X114000016Y-76500000D03*
X110500000Y-94000000D03*
X129000000Y-89000000D03*
X120000000Y-83000000D03*
X122000000Y-94500000D03*
X128500002Y-86500000D03*
X103500000Y-104499998D03*
X105500000Y-88500014D03*
X80500000Y-83500000D03*
X107500000Y-86500000D03*
X122000000Y-102000000D03*
X122000000Y-97500000D03*
X128500000Y-102000000D03*
X128500000Y-97500000D03*
X125000000Y-76500000D03*
X125000000Y-78500000D03*
X125000000Y-80500000D03*
X125000000Y-82500000D03*
X125000000Y-84500000D03*
X125000000Y-86500000D03*
X125000000Y-88500000D03*
X125000000Y-90500000D03*
X111000000Y-90500000D03*
X111000000Y-88500000D03*
X111000000Y-86500000D03*
X111000000Y-84500000D03*
X111000000Y-82500000D03*
X111000000Y-80500000D03*
X111000000Y-78500000D03*
X111000000Y-76500000D03*
X140000000Y-90000000D03*
X166000000Y-106000000D03*
X166000000Y-74000000D03*
X74000000Y-106000000D03*
X74000000Y-74000000D03*
X90500000Y-86500000D03*
X87000000Y-86500000D03*
X102000000Y-86500000D03*
X98500000Y-86500000D03*
X81500000Y-87000000D03*
X81500000Y-97160000D03*
X75120000Y-84820000D03*
X75120000Y-88320000D03*
X75120000Y-91820000D03*
X75120000Y-95320000D03*
X165000000Y-99000000D03*
X165000000Y-95500000D03*
X165000000Y-92000000D03*
X165000000Y-88500000D03*
X165000000Y-85000000D03*
X165000000Y-81500000D03*
X95000000Y-104140000D03*
X97540000Y-104140000D03*
X100080000Y-104140000D03*
X84000000Y-105000000D03*
X86540000Y-105000000D03*
X91620000Y-105000000D03*
X145580000Y-73500000D03*
X143040000Y-73500000D03*
X140500000Y-73500000D03*
X137960000Y-73500000D03*
X135420000Y-73500000D03*
X110500000Y-102000000D03*
X110500000Y-97500000D03*
X117000000Y-102000000D03*
X117000000Y-97500000D03*
M02*
