G04 #@! TF.GenerationSoftware,KiCad,Pcbnew,5.1.10-6.fc33*
G04 #@! TF.CreationDate,2021-10-12T09:38:09+02:00*
G04 #@! TF.ProjectId,wled-controller,776c6564-2d63-46f6-9e74-726f6c6c6572,rev?*
G04 #@! TF.SameCoordinates,Original*
G04 #@! TF.FileFunction,Copper,L1,Top*
G04 #@! TF.FilePolarity,Positive*
%FSLAX46Y46*%
G04 Gerber Fmt 4.6, Leading zero omitted, Abs format (unit mm)*
G04 Created by KiCad (PCBNEW 5.1.10-6.fc33) date 2021-10-12 09:38:09*
%MOMM*%
%LPD*%
G01*
G04 APERTURE LIST*
G04 #@! TA.AperFunction,NonConductor*
%ADD10C,0.300000*%
G04 #@! TD*
G04 #@! TA.AperFunction,NonConductor*
%ADD11C,0.250000*%
G04 #@! TD*
G04 #@! TA.AperFunction,EtchedComponent*
%ADD12C,0.010000*%
G04 #@! TD*
G04 #@! TA.AperFunction,ComponentPad*
%ADD13O,2.500000X1.100000*%
G04 #@! TD*
G04 #@! TA.AperFunction,ComponentPad*
%ADD14R,2.500000X1.100000*%
G04 #@! TD*
G04 #@! TA.AperFunction,SMDPad,CuDef*
%ADD15C,1.500000*%
G04 #@! TD*
G04 #@! TA.AperFunction,ComponentPad*
%ADD16C,1.600000*%
G04 #@! TD*
G04 #@! TA.AperFunction,ComponentPad*
%ADD17R,1.600000X1.600000*%
G04 #@! TD*
G04 #@! TA.AperFunction,ComponentPad*
%ADD18R,2.200000X2.200000*%
G04 #@! TD*
G04 #@! TA.AperFunction,ComponentPad*
%ADD19O,2.200000X2.200000*%
G04 #@! TD*
G04 #@! TA.AperFunction,SMDPad,CuDef*
%ADD20R,1.300000X1.700000*%
G04 #@! TD*
G04 #@! TA.AperFunction,SMDPad,CuDef*
%ADD21R,1.700000X1.300000*%
G04 #@! TD*
G04 #@! TA.AperFunction,ComponentPad*
%ADD22R,2.400000X2.400000*%
G04 #@! TD*
G04 #@! TA.AperFunction,ComponentPad*
%ADD23C,2.400000*%
G04 #@! TD*
G04 #@! TA.AperFunction,ComponentPad*
%ADD24R,1.350000X1.350000*%
G04 #@! TD*
G04 #@! TA.AperFunction,ComponentPad*
%ADD25O,1.350000X1.350000*%
G04 #@! TD*
G04 #@! TA.AperFunction,ComponentPad*
%ADD26C,2.000000*%
G04 #@! TD*
G04 #@! TA.AperFunction,ComponentPad*
%ADD27C,1.800000*%
G04 #@! TD*
G04 #@! TA.AperFunction,ComponentPad*
%ADD28C,1.400000*%
G04 #@! TD*
G04 #@! TA.AperFunction,SMDPad,CuDef*
%ADD29R,2.000000X3.800000*%
G04 #@! TD*
G04 #@! TA.AperFunction,SMDPad,CuDef*
%ADD30R,2.000000X1.500000*%
G04 #@! TD*
G04 #@! TA.AperFunction,SMDPad,CuDef*
%ADD31R,0.900000X0.800000*%
G04 #@! TD*
G04 #@! TA.AperFunction,ViaPad*
%ADD32C,1.800000*%
G04 #@! TD*
G04 #@! TA.AperFunction,Conductor*
%ADD33C,0.500000*%
G04 #@! TD*
G04 #@! TA.AperFunction,Conductor*
%ADD34C,1.000000*%
G04 #@! TD*
G04 #@! TA.AperFunction,Conductor*
%ADD35C,2.000000*%
G04 #@! TD*
%ADD36C,0.350000*%
G04 APERTURE END LIST*
D10*
X149714285Y-79678571D02*
X149214285Y-78964285D01*
X148857142Y-79678571D02*
X148857142Y-78178571D01*
X149428571Y-78178571D01*
X149571428Y-78250000D01*
X149642857Y-78321428D01*
X149714285Y-78464285D01*
X149714285Y-78678571D01*
X149642857Y-78821428D01*
X149571428Y-78892857D01*
X149428571Y-78964285D01*
X148857142Y-78964285D01*
X150142857Y-78178571D02*
X151000000Y-78178571D01*
X150571428Y-79678571D02*
X150571428Y-78178571D01*
X151500000Y-79107142D02*
X152642857Y-79107142D01*
X154214285Y-79535714D02*
X154142857Y-79607142D01*
X153928571Y-79678571D01*
X153785714Y-79678571D01*
X153571428Y-79607142D01*
X153428571Y-79464285D01*
X153357142Y-79321428D01*
X153285714Y-79035714D01*
X153285714Y-78821428D01*
X153357142Y-78535714D01*
X153428571Y-78392857D01*
X153571428Y-78250000D01*
X153785714Y-78178571D01*
X153928571Y-78178571D01*
X154142857Y-78250000D01*
X154214285Y-78321428D01*
X155500000Y-78678571D02*
X155500000Y-79678571D01*
X154857142Y-78678571D02*
X154857142Y-79464285D01*
X154928571Y-79607142D01*
X155071428Y-79678571D01*
X155285714Y-79678571D01*
X155428571Y-79607142D01*
X155500000Y-79535714D01*
X156142857Y-79607142D02*
X156285714Y-79678571D01*
X156571428Y-79678571D01*
X156714285Y-79607142D01*
X156785714Y-79464285D01*
X156785714Y-79392857D01*
X156714285Y-79250000D01*
X156571428Y-79178571D01*
X156357142Y-79178571D01*
X156214285Y-79107142D01*
X156142857Y-78964285D01*
X156142857Y-78892857D01*
X156214285Y-78750000D01*
X156357142Y-78678571D01*
X156571428Y-78678571D01*
X156714285Y-78750000D01*
X157214285Y-78678571D02*
X157785714Y-78678571D01*
X157428571Y-78178571D02*
X157428571Y-79464285D01*
X157500000Y-79607142D01*
X157642857Y-79678571D01*
X157785714Y-79678571D01*
X158500000Y-79678571D02*
X158357142Y-79607142D01*
X158285714Y-79535714D01*
X158214285Y-79392857D01*
X158214285Y-78964285D01*
X158285714Y-78821428D01*
X158357142Y-78750000D01*
X158500000Y-78678571D01*
X158714285Y-78678571D01*
X158857142Y-78750000D01*
X158928571Y-78821428D01*
X159000000Y-78964285D01*
X159000000Y-79392857D01*
X158928571Y-79535714D01*
X158857142Y-79607142D01*
X158714285Y-79678571D01*
X158500000Y-79678571D01*
X159642857Y-79678571D02*
X159642857Y-78678571D01*
X159642857Y-78821428D02*
X159714285Y-78750000D01*
X159857142Y-78678571D01*
X160071428Y-78678571D01*
X160214285Y-78750000D01*
X160285714Y-78892857D01*
X160285714Y-79678571D01*
X160285714Y-78892857D02*
X160357142Y-78750000D01*
X160500000Y-78678571D01*
X160714285Y-78678571D01*
X160857142Y-78750000D01*
X160928571Y-78892857D01*
X160928571Y-79678571D01*
X161571428Y-79607142D02*
X161714285Y-79678571D01*
X162000000Y-79678571D01*
X162142857Y-79607142D01*
X162214285Y-79464285D01*
X162214285Y-79392857D01*
X162142857Y-79250000D01*
X162000000Y-79178571D01*
X161785714Y-79178571D01*
X161642857Y-79107142D01*
X161571428Y-78964285D01*
X161571428Y-78892857D01*
X161642857Y-78750000D01*
X161785714Y-78678571D01*
X162000000Y-78678571D01*
X162142857Y-78750000D01*
X141678571Y-103678571D02*
X142035714Y-105178571D01*
X142321428Y-104107142D01*
X142607142Y-105178571D01*
X142964285Y-103678571D01*
X144250000Y-105178571D02*
X143535714Y-105178571D01*
X143535714Y-103678571D01*
X144750000Y-104392857D02*
X145250000Y-104392857D01*
X145464285Y-105178571D02*
X144750000Y-105178571D01*
X144750000Y-103678571D01*
X145464285Y-103678571D01*
X146107142Y-105178571D02*
X146107142Y-103678571D01*
X146464285Y-103678571D01*
X146678571Y-103750000D01*
X146821428Y-103892857D01*
X146892857Y-104035714D01*
X146964285Y-104321428D01*
X146964285Y-104535714D01*
X146892857Y-104821428D01*
X146821428Y-104964285D01*
X146678571Y-105107142D01*
X146464285Y-105178571D01*
X146107142Y-105178571D01*
X149607142Y-105035714D02*
X149535714Y-105107142D01*
X149321428Y-105178571D01*
X149178571Y-105178571D01*
X148964285Y-105107142D01*
X148821428Y-104964285D01*
X148750000Y-104821428D01*
X148678571Y-104535714D01*
X148678571Y-104321428D01*
X148750000Y-104035714D01*
X148821428Y-103892857D01*
X148964285Y-103750000D01*
X149178571Y-103678571D01*
X149321428Y-103678571D01*
X149535714Y-103750000D01*
X149607142Y-103821428D01*
X150464285Y-105178571D02*
X150321428Y-105107142D01*
X150250000Y-105035714D01*
X150178571Y-104892857D01*
X150178571Y-104464285D01*
X150250000Y-104321428D01*
X150321428Y-104250000D01*
X150464285Y-104178571D01*
X150678571Y-104178571D01*
X150821428Y-104250000D01*
X150892857Y-104321428D01*
X150964285Y-104464285D01*
X150964285Y-104892857D01*
X150892857Y-105035714D01*
X150821428Y-105107142D01*
X150678571Y-105178571D01*
X150464285Y-105178571D01*
X151607142Y-104178571D02*
X151607142Y-105178571D01*
X151607142Y-104321428D02*
X151678571Y-104250000D01*
X151821428Y-104178571D01*
X152035714Y-104178571D01*
X152178571Y-104250000D01*
X152250000Y-104392857D01*
X152250000Y-105178571D01*
X152750000Y-104178571D02*
X153321428Y-104178571D01*
X152964285Y-103678571D02*
X152964285Y-104964285D01*
X153035714Y-105107142D01*
X153178571Y-105178571D01*
X153321428Y-105178571D01*
X153821428Y-105178571D02*
X153821428Y-104178571D01*
X153821428Y-104464285D02*
X153892857Y-104321428D01*
X153964285Y-104250000D01*
X154107142Y-104178571D01*
X154250000Y-104178571D01*
X154964285Y-105178571D02*
X154821428Y-105107142D01*
X154750000Y-105035714D01*
X154678571Y-104892857D01*
X154678571Y-104464285D01*
X154750000Y-104321428D01*
X154821428Y-104250000D01*
X154964285Y-104178571D01*
X155178571Y-104178571D01*
X155321428Y-104250000D01*
X155392857Y-104321428D01*
X155464285Y-104464285D01*
X155464285Y-104892857D01*
X155392857Y-105035714D01*
X155321428Y-105107142D01*
X155178571Y-105178571D01*
X154964285Y-105178571D01*
X156321428Y-105178571D02*
X156178571Y-105107142D01*
X156107142Y-104964285D01*
X156107142Y-103678571D01*
X157107142Y-105178571D02*
X156964285Y-105107142D01*
X156892857Y-104964285D01*
X156892857Y-103678571D01*
X158250000Y-105107142D02*
X158107142Y-105178571D01*
X157821428Y-105178571D01*
X157678571Y-105107142D01*
X157607142Y-104964285D01*
X157607142Y-104392857D01*
X157678571Y-104250000D01*
X157821428Y-104178571D01*
X158107142Y-104178571D01*
X158250000Y-104250000D01*
X158321428Y-104392857D01*
X158321428Y-104535714D01*
X157607142Y-104678571D01*
X158964285Y-105178571D02*
X158964285Y-104178571D01*
X158964285Y-104464285D02*
X159035714Y-104321428D01*
X159107142Y-104250000D01*
X159250000Y-104178571D01*
X159392857Y-104178571D01*
X160821428Y-103678571D02*
X161321428Y-105178571D01*
X161821428Y-103678571D01*
X163107142Y-105178571D02*
X162250000Y-105178571D01*
X162678571Y-105178571D02*
X162678571Y-103678571D01*
X162535714Y-103892857D01*
X162392857Y-104035714D01*
X162250000Y-104107142D01*
X163750000Y-105035714D02*
X163821428Y-105107142D01*
X163750000Y-105178571D01*
X163678571Y-105107142D01*
X163750000Y-105035714D01*
X163750000Y-105178571D01*
X165250000Y-105178571D02*
X164392857Y-105178571D01*
X164821428Y-105178571D02*
X164821428Y-103678571D01*
X164678571Y-103892857D01*
X164535714Y-104035714D01*
X164392857Y-104107142D01*
D11*
X138076785Y-71300000D02*
X137962500Y-71242857D01*
X137791071Y-71242857D01*
X137619642Y-71300000D01*
X137505357Y-71414285D01*
X137448214Y-71528571D01*
X137391071Y-71757142D01*
X137391071Y-71928571D01*
X137448214Y-72157142D01*
X137505357Y-72271428D01*
X137619642Y-72385714D01*
X137791071Y-72442857D01*
X137905357Y-72442857D01*
X138076785Y-72385714D01*
X138133928Y-72328571D01*
X138133928Y-71928571D01*
X137905357Y-71928571D01*
X138648214Y-72442857D02*
X138648214Y-71242857D01*
X139333928Y-72442857D01*
X139333928Y-71242857D01*
X139905357Y-72442857D02*
X139905357Y-71242857D01*
X140191071Y-71242857D01*
X140362500Y-71300000D01*
X140476785Y-71414285D01*
X140533928Y-71528571D01*
X140591071Y-71757142D01*
X140591071Y-71928571D01*
X140533928Y-72157142D01*
X140476785Y-72271428D01*
X140362500Y-72385714D01*
X140191071Y-72442857D01*
X139905357Y-72442857D01*
X137276785Y-73292857D02*
X137962500Y-73292857D01*
X137619642Y-74492857D02*
X137619642Y-73292857D01*
X138248214Y-73292857D02*
X139048214Y-74492857D01*
X139048214Y-73292857D02*
X138248214Y-74492857D01*
X138133928Y-76542857D02*
X137733928Y-75971428D01*
X137448214Y-76542857D02*
X137448214Y-75342857D01*
X137905357Y-75342857D01*
X138019642Y-75400000D01*
X138076785Y-75457142D01*
X138133928Y-75571428D01*
X138133928Y-75742857D01*
X138076785Y-75857142D01*
X138019642Y-75914285D01*
X137905357Y-75971428D01*
X137448214Y-75971428D01*
X138533928Y-75342857D02*
X139333928Y-76542857D01*
X139333928Y-75342857D02*
X138533928Y-76542857D01*
X137448214Y-77964285D02*
X137848214Y-77964285D01*
X138019642Y-78592857D02*
X137448214Y-78592857D01*
X137448214Y-77392857D01*
X138019642Y-77392857D01*
X138533928Y-78592857D02*
X138533928Y-77392857D01*
X139219642Y-78592857D01*
X139219642Y-77392857D01*
X137848214Y-80014285D02*
X138019642Y-80071428D01*
X138076785Y-80128571D01*
X138133928Y-80242857D01*
X138133928Y-80414285D01*
X138076785Y-80528571D01*
X138019642Y-80585714D01*
X137905357Y-80642857D01*
X137448214Y-80642857D01*
X137448214Y-79442857D01*
X137848214Y-79442857D01*
X137962500Y-79500000D01*
X138019642Y-79557142D01*
X138076785Y-79671428D01*
X138076785Y-79785714D01*
X138019642Y-79900000D01*
X137962500Y-79957142D01*
X137848214Y-80014285D01*
X137448214Y-80014285D01*
X138876785Y-79442857D02*
X139105357Y-79442857D01*
X139219642Y-79500000D01*
X139333928Y-79614285D01*
X139391071Y-79842857D01*
X139391071Y-80242857D01*
X139333928Y-80471428D01*
X139219642Y-80585714D01*
X139105357Y-80642857D01*
X138876785Y-80642857D01*
X138762500Y-80585714D01*
X138648214Y-80471428D01*
X138591071Y-80242857D01*
X138591071Y-79842857D01*
X138648214Y-79614285D01*
X138762500Y-79500000D01*
X138876785Y-79442857D01*
X140133928Y-79442857D02*
X140362500Y-79442857D01*
X140476785Y-79500000D01*
X140591071Y-79614285D01*
X140648214Y-79842857D01*
X140648214Y-80242857D01*
X140591071Y-80471428D01*
X140476785Y-80585714D01*
X140362500Y-80642857D01*
X140133928Y-80642857D01*
X140019642Y-80585714D01*
X139905357Y-80471428D01*
X139848214Y-80242857D01*
X139848214Y-79842857D01*
X139905357Y-79614285D01*
X140019642Y-79500000D01*
X140133928Y-79442857D01*
X140991071Y-79442857D02*
X141676785Y-79442857D01*
X141333928Y-80642857D02*
X141333928Y-79442857D01*
X142648214Y-80642857D02*
X142076785Y-80642857D01*
X142076785Y-79442857D01*
D12*
G04 #@! TO.C,G\u002A\u002A\u002A*
G36*
X154674572Y-70878567D02*
G01*
X154670805Y-70902262D01*
X154664660Y-70939942D01*
X154656363Y-70990253D01*
X154646139Y-71051840D01*
X154634212Y-71123346D01*
X154620810Y-71203419D01*
X154606156Y-71290702D01*
X154590476Y-71383841D01*
X154580485Y-71443067D01*
X154558791Y-71571569D01*
X154536417Y-71704125D01*
X154513228Y-71841534D01*
X154489089Y-71984593D01*
X154463866Y-72134100D01*
X154437424Y-72290854D01*
X154409629Y-72455651D01*
X154380347Y-72629291D01*
X154349442Y-72812570D01*
X154316779Y-73006287D01*
X154282226Y-73211239D01*
X154245647Y-73428226D01*
X154206907Y-73658043D01*
X154165871Y-73901490D01*
X154122407Y-74159364D01*
X154076378Y-74432464D01*
X154035334Y-74675991D01*
X154020897Y-74761991D01*
X154007431Y-74842856D01*
X153995181Y-74917072D01*
X153984393Y-74983119D01*
X153975311Y-75039483D01*
X153968181Y-75084645D01*
X153963248Y-75117089D01*
X153960757Y-75135298D01*
X153960547Y-75138774D01*
X153968088Y-75135012D01*
X153988894Y-75123246D01*
X154021722Y-75104208D01*
X154065333Y-75078632D01*
X154118484Y-75047250D01*
X154179936Y-75010795D01*
X154248447Y-74970001D01*
X154322775Y-74925600D01*
X154401681Y-74878326D01*
X154414553Y-74870602D01*
X154865806Y-74599739D01*
X155375519Y-74923743D01*
X155460035Y-74977466D01*
X155540687Y-75028733D01*
X155616287Y-75076787D01*
X155685646Y-75120875D01*
X155747576Y-75160239D01*
X155800889Y-75194126D01*
X155844395Y-75221779D01*
X155876908Y-75242443D01*
X155897237Y-75255363D01*
X155903852Y-75259565D01*
X155908788Y-75261796D01*
X155915286Y-75262245D01*
X155924586Y-75260245D01*
X155937923Y-75255127D01*
X155956534Y-75246225D01*
X155981658Y-75232869D01*
X156014530Y-75214392D01*
X156056389Y-75190126D01*
X156108471Y-75159402D01*
X156172013Y-75121553D01*
X156248253Y-75075911D01*
X156286969Y-75052690D01*
X156358218Y-75009859D01*
X156424861Y-74969637D01*
X156485525Y-74932865D01*
X156538834Y-74900384D01*
X156583416Y-74873032D01*
X156617896Y-74851652D01*
X156640901Y-74837083D01*
X156651055Y-74830167D01*
X156651429Y-74829748D01*
X156644460Y-74824627D01*
X156624312Y-74811153D01*
X156592101Y-74790045D01*
X156548944Y-74762023D01*
X156495959Y-74727808D01*
X156434263Y-74688119D01*
X156364974Y-74643677D01*
X156289207Y-74595202D01*
X156208081Y-74543413D01*
X156126700Y-74491568D01*
X156041576Y-74437359D01*
X155960788Y-74385848D01*
X155885449Y-74337746D01*
X155816668Y-74293767D01*
X155755557Y-74254623D01*
X155703228Y-74221026D01*
X155660791Y-74193689D01*
X155629357Y-74173324D01*
X155610038Y-74160644D01*
X155603921Y-74156362D01*
X155611320Y-74151904D01*
X155632007Y-74139479D01*
X155664747Y-74119828D01*
X155708306Y-74093694D01*
X155761447Y-74061815D01*
X155822936Y-74024934D01*
X155891539Y-73983791D01*
X155966019Y-73939127D01*
X156045141Y-73891683D01*
X156060846Y-73882267D01*
X156156534Y-73825095D01*
X156242761Y-73773986D01*
X156318860Y-73729321D01*
X156384166Y-73691483D01*
X156438014Y-73660850D01*
X156479737Y-73637805D01*
X156508671Y-73622728D01*
X156524150Y-73616000D01*
X156526512Y-73615774D01*
X156535116Y-73621181D01*
X156557146Y-73635136D01*
X156591809Y-73657132D01*
X156638313Y-73686668D01*
X156695866Y-73723237D01*
X156763676Y-73766337D01*
X156840951Y-73815463D01*
X156926898Y-73870112D01*
X157020725Y-73929778D01*
X157121640Y-73993958D01*
X157228852Y-74062149D01*
X157341567Y-74133845D01*
X157458994Y-74208544D01*
X157580340Y-74285740D01*
X157704813Y-74364929D01*
X157831622Y-74445609D01*
X157959973Y-74527274D01*
X158089075Y-74609420D01*
X158218135Y-74691544D01*
X158346362Y-74773141D01*
X158472963Y-74853708D01*
X158597146Y-74932740D01*
X158718119Y-75009733D01*
X158835089Y-75084183D01*
X158947265Y-75155586D01*
X159053854Y-75223438D01*
X159154065Y-75287235D01*
X159247104Y-75346473D01*
X159332180Y-75400648D01*
X159408500Y-75449255D01*
X159475273Y-75491791D01*
X159531706Y-75527752D01*
X159577007Y-75556633D01*
X159610385Y-75577930D01*
X159631045Y-75591140D01*
X159638194Y-75595755D01*
X159631529Y-75600309D01*
X159611549Y-75612820D01*
X159579469Y-75632550D01*
X159536506Y-75658762D01*
X159483875Y-75690718D01*
X159422792Y-75727681D01*
X159354471Y-75768912D01*
X159280130Y-75813673D01*
X159200982Y-75861228D01*
X159181243Y-75873073D01*
X158722066Y-76148547D01*
X158696416Y-76129486D01*
X158685400Y-76122056D01*
X158661210Y-76106271D01*
X158624969Y-76082852D01*
X158577801Y-76052516D01*
X158520829Y-76015984D01*
X158455176Y-75973975D01*
X158381967Y-75927207D01*
X158302323Y-75876399D01*
X158217369Y-75822272D01*
X158128227Y-75765544D01*
X158088226Y-75740110D01*
X157505685Y-75369794D01*
X157141815Y-75587931D01*
X157070678Y-75630739D01*
X157004232Y-75671038D01*
X156943843Y-75707979D01*
X156890878Y-75740708D01*
X156846702Y-75768378D01*
X156812681Y-75790135D01*
X156790182Y-75805131D01*
X156780571Y-75812514D01*
X156780322Y-75813034D01*
X156787529Y-75818240D01*
X156807780Y-75831742D01*
X156839834Y-75852745D01*
X156882452Y-75880455D01*
X156934392Y-75914075D01*
X156994413Y-75952811D01*
X157061275Y-75995866D01*
X157133736Y-76042447D01*
X157210555Y-76091757D01*
X157290492Y-76143001D01*
X157372306Y-76195384D01*
X157454757Y-76248111D01*
X157536602Y-76300386D01*
X157616601Y-76351415D01*
X157693514Y-76400401D01*
X157766100Y-76446550D01*
X157833117Y-76489065D01*
X157893325Y-76527153D01*
X157945483Y-76560018D01*
X157961967Y-76570365D01*
X157989767Y-76587794D01*
X157547773Y-76853880D01*
X157468568Y-76901545D01*
X157393343Y-76946782D01*
X157323408Y-76988805D01*
X157260074Y-77026828D01*
X157204650Y-77060065D01*
X157158448Y-77087730D01*
X157122779Y-77109038D01*
X157098952Y-77123202D01*
X157088278Y-77129436D01*
X157088172Y-77129494D01*
X157082723Y-77130898D01*
X157074565Y-77129759D01*
X157062464Y-77125363D01*
X157045187Y-77116999D01*
X157021501Y-77103951D01*
X156990173Y-77085509D01*
X156949970Y-77060957D01*
X156899658Y-77029584D01*
X156838005Y-76990675D01*
X156763777Y-76943519D01*
X156736133Y-76925911D01*
X156691368Y-76897392D01*
X156633353Y-76860444D01*
X156563125Y-76815725D01*
X156481720Y-76763895D01*
X156390177Y-76705616D01*
X156289532Y-76641547D01*
X156180821Y-76572348D01*
X156065081Y-76498678D01*
X155943350Y-76421198D01*
X155816664Y-76340568D01*
X155686060Y-76257448D01*
X155552575Y-76172498D01*
X155417245Y-76086378D01*
X155281109Y-75999747D01*
X155199433Y-75947775D01*
X155069148Y-75864864D01*
X154942547Y-75784283D01*
X154820384Y-75706512D01*
X154703415Y-75632033D01*
X154592394Y-75561327D01*
X154488077Y-75494876D01*
X154391220Y-75433161D01*
X154302576Y-75376662D01*
X154222903Y-75325862D01*
X154152953Y-75281242D01*
X154093484Y-75243283D01*
X154045249Y-75212466D01*
X154009005Y-75189274D01*
X153985506Y-75174186D01*
X153975507Y-75167684D01*
X153975393Y-75167605D01*
X153953619Y-75152463D01*
X153617352Y-75355013D01*
X153538059Y-75402514D01*
X153467667Y-75444156D01*
X153407032Y-75479453D01*
X153357012Y-75507919D01*
X153318466Y-75529068D01*
X153292251Y-75542415D01*
X153279226Y-75547475D01*
X153277915Y-75547131D01*
X153276578Y-75537760D01*
X153273381Y-75512832D01*
X153268476Y-75473604D01*
X153262015Y-75421333D01*
X153254149Y-75357276D01*
X153245030Y-75282688D01*
X153234811Y-75198828D01*
X153223641Y-75106951D01*
X153211675Y-75008315D01*
X153199062Y-74904176D01*
X153185955Y-74795791D01*
X153172505Y-74684416D01*
X153158865Y-74571309D01*
X153145186Y-74457726D01*
X153131619Y-74344924D01*
X153118317Y-74234159D01*
X153105431Y-74126689D01*
X153093112Y-74023769D01*
X153081514Y-73926658D01*
X153070786Y-73836611D01*
X153061082Y-73754885D01*
X153052552Y-73682737D01*
X153045349Y-73621424D01*
X153043089Y-73602067D01*
X153037074Y-73553517D01*
X153031094Y-73510715D01*
X153025607Y-73476544D01*
X153021068Y-73453890D01*
X153018313Y-73445857D01*
X153012502Y-73445899D01*
X153010800Y-73457062D01*
X153009959Y-73467687D01*
X153007514Y-73493984D01*
X153003585Y-73534780D01*
X152998290Y-73588903D01*
X152991748Y-73655179D01*
X152984078Y-73732436D01*
X152975398Y-73819499D01*
X152965827Y-73915197D01*
X152955484Y-74018356D01*
X152944488Y-74127802D01*
X152932957Y-74242364D01*
X152921010Y-74360868D01*
X152908765Y-74482140D01*
X152896343Y-74605008D01*
X152883860Y-74728299D01*
X152871437Y-74850839D01*
X152859191Y-74971456D01*
X152847242Y-75088977D01*
X152835708Y-75202227D01*
X152824708Y-75310036D01*
X152814361Y-75411228D01*
X152804785Y-75504632D01*
X152796099Y-75589074D01*
X152788422Y-75663381D01*
X152781873Y-75726381D01*
X152776570Y-75776899D01*
X152772632Y-75813763D01*
X152770178Y-75835800D01*
X152769446Y-75841554D01*
X152767627Y-75847788D01*
X152763416Y-75854629D01*
X152755639Y-75862856D01*
X152743121Y-75873242D01*
X152724686Y-75886565D01*
X152699160Y-75903600D01*
X152665368Y-75925123D01*
X152622135Y-75951911D01*
X152568286Y-75984739D01*
X152502647Y-76024384D01*
X152424043Y-76071621D01*
X152392602Y-76090481D01*
X152320494Y-76133621D01*
X152252864Y-76173891D01*
X152191079Y-76210489D01*
X152136510Y-76242613D01*
X152090526Y-76269461D01*
X152054495Y-76290231D01*
X152029788Y-76304120D01*
X152017773Y-76310328D01*
X152016831Y-76310560D01*
X152015002Y-76302030D01*
X152010225Y-76277630D01*
X152002647Y-76238139D01*
X151992413Y-76184335D01*
X151979669Y-76116997D01*
X151964563Y-76036904D01*
X151947238Y-75944834D01*
X151927843Y-75841566D01*
X151906522Y-75727878D01*
X151883422Y-75604549D01*
X151858689Y-75472358D01*
X151832469Y-75332082D01*
X151804908Y-75184502D01*
X151776152Y-75030394D01*
X151746346Y-74870539D01*
X151715638Y-74705714D01*
X151694590Y-74592667D01*
X151663339Y-74424801D01*
X151632892Y-74261301D01*
X151603396Y-74102952D01*
X151574997Y-73950537D01*
X151547842Y-73804842D01*
X151522077Y-73666649D01*
X151497848Y-73536743D01*
X151475302Y-73415909D01*
X151454584Y-73304930D01*
X151435843Y-73204591D01*
X151419223Y-73115676D01*
X151404871Y-73038969D01*
X151392934Y-72975254D01*
X151383558Y-72925315D01*
X151376889Y-72889937D01*
X151373074Y-72869904D01*
X151372190Y-72865467D01*
X151376576Y-72859293D01*
X151391812Y-72847221D01*
X151418446Y-72828903D01*
X151457024Y-72803995D01*
X151508094Y-72772150D01*
X151572203Y-72733023D01*
X151649898Y-72686268D01*
X151741727Y-72631538D01*
X151750850Y-72626123D01*
X151823990Y-72582835D01*
X151892681Y-72542404D01*
X151955562Y-72505615D01*
X152011270Y-72473256D01*
X152058446Y-72446111D01*
X152095727Y-72424966D01*
X152121753Y-72410607D01*
X152135162Y-72403820D01*
X152136698Y-72403409D01*
X152138402Y-72412208D01*
X152142279Y-72436811D01*
X152148193Y-72476250D01*
X152156005Y-72529555D01*
X152165581Y-72595756D01*
X152176783Y-72673883D01*
X152189475Y-72762966D01*
X152203519Y-72862035D01*
X152218781Y-72970121D01*
X152235121Y-73086254D01*
X152252406Y-73209464D01*
X152270496Y-73338782D01*
X152289257Y-73473237D01*
X152308551Y-73611859D01*
X152328241Y-73753679D01*
X152348192Y-73897728D01*
X152368266Y-74043034D01*
X152388327Y-74188629D01*
X152393825Y-74228600D01*
X152403759Y-74300031D01*
X152413174Y-74366163D01*
X152421786Y-74425125D01*
X152429313Y-74475043D01*
X152435472Y-74514044D01*
X152439978Y-74540256D01*
X152442550Y-74551805D01*
X152442730Y-74552135D01*
X152444087Y-74544573D01*
X152446853Y-74521081D01*
X152450940Y-74482597D01*
X152456259Y-74430056D01*
X152462720Y-74364397D01*
X152470236Y-74286555D01*
X152478718Y-74197469D01*
X152488076Y-74098075D01*
X152498223Y-73989310D01*
X152509069Y-73872111D01*
X152520525Y-73747416D01*
X152532504Y-73616160D01*
X152544915Y-73479282D01*
X152556580Y-73349868D01*
X152569355Y-73207835D01*
X152581767Y-73070046D01*
X152593727Y-72937484D01*
X152605146Y-72811129D01*
X152615934Y-72691962D01*
X152626002Y-72580966D01*
X152635261Y-72479121D01*
X152643620Y-72387408D01*
X152650992Y-72306809D01*
X152657287Y-72238306D01*
X152662415Y-72182878D01*
X152666287Y-72141509D01*
X152668814Y-72115178D01*
X152669845Y-72105303D01*
X152674512Y-72069040D01*
X153026551Y-71857822D01*
X153096630Y-71815962D01*
X153162281Y-71777110D01*
X153222087Y-71742078D01*
X153274627Y-71711680D01*
X153318484Y-71686730D01*
X153352239Y-71668042D01*
X153374473Y-71656430D01*
X153383768Y-71652708D01*
X153383919Y-71652785D01*
X153385487Y-71661816D01*
X153388765Y-71686670D01*
X153393638Y-71726338D01*
X153399992Y-71779808D01*
X153407711Y-71846069D01*
X153416681Y-71924111D01*
X153426786Y-72012923D01*
X153437912Y-72111494D01*
X153449943Y-72218813D01*
X153462765Y-72333870D01*
X153476262Y-72455654D01*
X153490320Y-72583153D01*
X153504823Y-72715357D01*
X153505499Y-72721533D01*
X153523177Y-72883114D01*
X153539107Y-73028686D01*
X153553383Y-73159076D01*
X153566100Y-73275108D01*
X153577350Y-73377608D01*
X153587229Y-73467400D01*
X153595830Y-73545311D01*
X153603248Y-73612164D01*
X153609576Y-73668786D01*
X153614909Y-73716001D01*
X153619340Y-73754634D01*
X153622965Y-73785511D01*
X153625875Y-73809456D01*
X153628167Y-73827295D01*
X153629933Y-73839852D01*
X153631269Y-73847954D01*
X153632267Y-73852425D01*
X153633023Y-73854090D01*
X153633629Y-73853774D01*
X153634181Y-73852302D01*
X153634347Y-73851770D01*
X153635559Y-73842523D01*
X153638511Y-73817384D01*
X153643099Y-73777292D01*
X153649218Y-73723186D01*
X153656764Y-73656008D01*
X153665631Y-73576696D01*
X153675716Y-73486190D01*
X153686914Y-73385431D01*
X153699119Y-73275358D01*
X153712229Y-73156911D01*
X153726137Y-73031029D01*
X153740740Y-72898654D01*
X153755933Y-72760723D01*
X153771611Y-72618179D01*
X153772349Y-72611467D01*
X153788103Y-72468323D01*
X153803427Y-72329498D01*
X153818212Y-72195955D01*
X153832350Y-72068655D01*
X153845733Y-71948557D01*
X153858252Y-71836624D01*
X153869800Y-71733817D01*
X153880267Y-71641096D01*
X153889547Y-71559422D01*
X153897530Y-71489758D01*
X153904109Y-71433063D01*
X153909174Y-71390300D01*
X153912619Y-71362428D01*
X153914335Y-71350409D01*
X153914351Y-71350338D01*
X153916379Y-71343509D01*
X153920064Y-71336583D01*
X153926591Y-71328771D01*
X153937142Y-71319285D01*
X153952902Y-71307337D01*
X153975055Y-71292138D01*
X154004784Y-71272899D01*
X154043274Y-71248832D01*
X154091708Y-71219149D01*
X154151270Y-71183060D01*
X154223145Y-71139778D01*
X154297733Y-71094984D01*
X154370194Y-71051534D01*
X154438121Y-71010878D01*
X154500161Y-70973822D01*
X154554960Y-70941169D01*
X154601164Y-70913726D01*
X154637419Y-70892298D01*
X154662371Y-70877688D01*
X154674666Y-70870703D01*
X154675737Y-70870213D01*
X154674572Y-70878567D01*
G37*
X154674572Y-70878567D02*
X154670805Y-70902262D01*
X154664660Y-70939942D01*
X154656363Y-70990253D01*
X154646139Y-71051840D01*
X154634212Y-71123346D01*
X154620810Y-71203419D01*
X154606156Y-71290702D01*
X154590476Y-71383841D01*
X154580485Y-71443067D01*
X154558791Y-71571569D01*
X154536417Y-71704125D01*
X154513228Y-71841534D01*
X154489089Y-71984593D01*
X154463866Y-72134100D01*
X154437424Y-72290854D01*
X154409629Y-72455651D01*
X154380347Y-72629291D01*
X154349442Y-72812570D01*
X154316779Y-73006287D01*
X154282226Y-73211239D01*
X154245647Y-73428226D01*
X154206907Y-73658043D01*
X154165871Y-73901490D01*
X154122407Y-74159364D01*
X154076378Y-74432464D01*
X154035334Y-74675991D01*
X154020897Y-74761991D01*
X154007431Y-74842856D01*
X153995181Y-74917072D01*
X153984393Y-74983119D01*
X153975311Y-75039483D01*
X153968181Y-75084645D01*
X153963248Y-75117089D01*
X153960757Y-75135298D01*
X153960547Y-75138774D01*
X153968088Y-75135012D01*
X153988894Y-75123246D01*
X154021722Y-75104208D01*
X154065333Y-75078632D01*
X154118484Y-75047250D01*
X154179936Y-75010795D01*
X154248447Y-74970001D01*
X154322775Y-74925600D01*
X154401681Y-74878326D01*
X154414553Y-74870602D01*
X154865806Y-74599739D01*
X155375519Y-74923743D01*
X155460035Y-74977466D01*
X155540687Y-75028733D01*
X155616287Y-75076787D01*
X155685646Y-75120875D01*
X155747576Y-75160239D01*
X155800889Y-75194126D01*
X155844395Y-75221779D01*
X155876908Y-75242443D01*
X155897237Y-75255363D01*
X155903852Y-75259565D01*
X155908788Y-75261796D01*
X155915286Y-75262245D01*
X155924586Y-75260245D01*
X155937923Y-75255127D01*
X155956534Y-75246225D01*
X155981658Y-75232869D01*
X156014530Y-75214392D01*
X156056389Y-75190126D01*
X156108471Y-75159402D01*
X156172013Y-75121553D01*
X156248253Y-75075911D01*
X156286969Y-75052690D01*
X156358218Y-75009859D01*
X156424861Y-74969637D01*
X156485525Y-74932865D01*
X156538834Y-74900384D01*
X156583416Y-74873032D01*
X156617896Y-74851652D01*
X156640901Y-74837083D01*
X156651055Y-74830167D01*
X156651429Y-74829748D01*
X156644460Y-74824627D01*
X156624312Y-74811153D01*
X156592101Y-74790045D01*
X156548944Y-74762023D01*
X156495959Y-74727808D01*
X156434263Y-74688119D01*
X156364974Y-74643677D01*
X156289207Y-74595202D01*
X156208081Y-74543413D01*
X156126700Y-74491568D01*
X156041576Y-74437359D01*
X155960788Y-74385848D01*
X155885449Y-74337746D01*
X155816668Y-74293767D01*
X155755557Y-74254623D01*
X155703228Y-74221026D01*
X155660791Y-74193689D01*
X155629357Y-74173324D01*
X155610038Y-74160644D01*
X155603921Y-74156362D01*
X155611320Y-74151904D01*
X155632007Y-74139479D01*
X155664747Y-74119828D01*
X155708306Y-74093694D01*
X155761447Y-74061815D01*
X155822936Y-74024934D01*
X155891539Y-73983791D01*
X155966019Y-73939127D01*
X156045141Y-73891683D01*
X156060846Y-73882267D01*
X156156534Y-73825095D01*
X156242761Y-73773986D01*
X156318860Y-73729321D01*
X156384166Y-73691483D01*
X156438014Y-73660850D01*
X156479737Y-73637805D01*
X156508671Y-73622728D01*
X156524150Y-73616000D01*
X156526512Y-73615774D01*
X156535116Y-73621181D01*
X156557146Y-73635136D01*
X156591809Y-73657132D01*
X156638313Y-73686668D01*
X156695866Y-73723237D01*
X156763676Y-73766337D01*
X156840951Y-73815463D01*
X156926898Y-73870112D01*
X157020725Y-73929778D01*
X157121640Y-73993958D01*
X157228852Y-74062149D01*
X157341567Y-74133845D01*
X157458994Y-74208544D01*
X157580340Y-74285740D01*
X157704813Y-74364929D01*
X157831622Y-74445609D01*
X157959973Y-74527274D01*
X158089075Y-74609420D01*
X158218135Y-74691544D01*
X158346362Y-74773141D01*
X158472963Y-74853708D01*
X158597146Y-74932740D01*
X158718119Y-75009733D01*
X158835089Y-75084183D01*
X158947265Y-75155586D01*
X159053854Y-75223438D01*
X159154065Y-75287235D01*
X159247104Y-75346473D01*
X159332180Y-75400648D01*
X159408500Y-75449255D01*
X159475273Y-75491791D01*
X159531706Y-75527752D01*
X159577007Y-75556633D01*
X159610385Y-75577930D01*
X159631045Y-75591140D01*
X159638194Y-75595755D01*
X159631529Y-75600309D01*
X159611549Y-75612820D01*
X159579469Y-75632550D01*
X159536506Y-75658762D01*
X159483875Y-75690718D01*
X159422792Y-75727681D01*
X159354471Y-75768912D01*
X159280130Y-75813673D01*
X159200982Y-75861228D01*
X159181243Y-75873073D01*
X158722066Y-76148547D01*
X158696416Y-76129486D01*
X158685400Y-76122056D01*
X158661210Y-76106271D01*
X158624969Y-76082852D01*
X158577801Y-76052516D01*
X158520829Y-76015984D01*
X158455176Y-75973975D01*
X158381967Y-75927207D01*
X158302323Y-75876399D01*
X158217369Y-75822272D01*
X158128227Y-75765544D01*
X158088226Y-75740110D01*
X157505685Y-75369794D01*
X157141815Y-75587931D01*
X157070678Y-75630739D01*
X157004232Y-75671038D01*
X156943843Y-75707979D01*
X156890878Y-75740708D01*
X156846702Y-75768378D01*
X156812681Y-75790135D01*
X156790182Y-75805131D01*
X156780571Y-75812514D01*
X156780322Y-75813034D01*
X156787529Y-75818240D01*
X156807780Y-75831742D01*
X156839834Y-75852745D01*
X156882452Y-75880455D01*
X156934392Y-75914075D01*
X156994413Y-75952811D01*
X157061275Y-75995866D01*
X157133736Y-76042447D01*
X157210555Y-76091757D01*
X157290492Y-76143001D01*
X157372306Y-76195384D01*
X157454757Y-76248111D01*
X157536602Y-76300386D01*
X157616601Y-76351415D01*
X157693514Y-76400401D01*
X157766100Y-76446550D01*
X157833117Y-76489065D01*
X157893325Y-76527153D01*
X157945483Y-76560018D01*
X157961967Y-76570365D01*
X157989767Y-76587794D01*
X157547773Y-76853880D01*
X157468568Y-76901545D01*
X157393343Y-76946782D01*
X157323408Y-76988805D01*
X157260074Y-77026828D01*
X157204650Y-77060065D01*
X157158448Y-77087730D01*
X157122779Y-77109038D01*
X157098952Y-77123202D01*
X157088278Y-77129436D01*
X157088172Y-77129494D01*
X157082723Y-77130898D01*
X157074565Y-77129759D01*
X157062464Y-77125363D01*
X157045187Y-77116999D01*
X157021501Y-77103951D01*
X156990173Y-77085509D01*
X156949970Y-77060957D01*
X156899658Y-77029584D01*
X156838005Y-76990675D01*
X156763777Y-76943519D01*
X156736133Y-76925911D01*
X156691368Y-76897392D01*
X156633353Y-76860444D01*
X156563125Y-76815725D01*
X156481720Y-76763895D01*
X156390177Y-76705616D01*
X156289532Y-76641547D01*
X156180821Y-76572348D01*
X156065081Y-76498678D01*
X155943350Y-76421198D01*
X155816664Y-76340568D01*
X155686060Y-76257448D01*
X155552575Y-76172498D01*
X155417245Y-76086378D01*
X155281109Y-75999747D01*
X155199433Y-75947775D01*
X155069148Y-75864864D01*
X154942547Y-75784283D01*
X154820384Y-75706512D01*
X154703415Y-75632033D01*
X154592394Y-75561327D01*
X154488077Y-75494876D01*
X154391220Y-75433161D01*
X154302576Y-75376662D01*
X154222903Y-75325862D01*
X154152953Y-75281242D01*
X154093484Y-75243283D01*
X154045249Y-75212466D01*
X154009005Y-75189274D01*
X153985506Y-75174186D01*
X153975507Y-75167684D01*
X153975393Y-75167605D01*
X153953619Y-75152463D01*
X153617352Y-75355013D01*
X153538059Y-75402514D01*
X153467667Y-75444156D01*
X153407032Y-75479453D01*
X153357012Y-75507919D01*
X153318466Y-75529068D01*
X153292251Y-75542415D01*
X153279226Y-75547475D01*
X153277915Y-75547131D01*
X153276578Y-75537760D01*
X153273381Y-75512832D01*
X153268476Y-75473604D01*
X153262015Y-75421333D01*
X153254149Y-75357276D01*
X153245030Y-75282688D01*
X153234811Y-75198828D01*
X153223641Y-75106951D01*
X153211675Y-75008315D01*
X153199062Y-74904176D01*
X153185955Y-74795791D01*
X153172505Y-74684416D01*
X153158865Y-74571309D01*
X153145186Y-74457726D01*
X153131619Y-74344924D01*
X153118317Y-74234159D01*
X153105431Y-74126689D01*
X153093112Y-74023769D01*
X153081514Y-73926658D01*
X153070786Y-73836611D01*
X153061082Y-73754885D01*
X153052552Y-73682737D01*
X153045349Y-73621424D01*
X153043089Y-73602067D01*
X153037074Y-73553517D01*
X153031094Y-73510715D01*
X153025607Y-73476544D01*
X153021068Y-73453890D01*
X153018313Y-73445857D01*
X153012502Y-73445899D01*
X153010800Y-73457062D01*
X153009959Y-73467687D01*
X153007514Y-73493984D01*
X153003585Y-73534780D01*
X152998290Y-73588903D01*
X152991748Y-73655179D01*
X152984078Y-73732436D01*
X152975398Y-73819499D01*
X152965827Y-73915197D01*
X152955484Y-74018356D01*
X152944488Y-74127802D01*
X152932957Y-74242364D01*
X152921010Y-74360868D01*
X152908765Y-74482140D01*
X152896343Y-74605008D01*
X152883860Y-74728299D01*
X152871437Y-74850839D01*
X152859191Y-74971456D01*
X152847242Y-75088977D01*
X152835708Y-75202227D01*
X152824708Y-75310036D01*
X152814361Y-75411228D01*
X152804785Y-75504632D01*
X152796099Y-75589074D01*
X152788422Y-75663381D01*
X152781873Y-75726381D01*
X152776570Y-75776899D01*
X152772632Y-75813763D01*
X152770178Y-75835800D01*
X152769446Y-75841554D01*
X152767627Y-75847788D01*
X152763416Y-75854629D01*
X152755639Y-75862856D01*
X152743121Y-75873242D01*
X152724686Y-75886565D01*
X152699160Y-75903600D01*
X152665368Y-75925123D01*
X152622135Y-75951911D01*
X152568286Y-75984739D01*
X152502647Y-76024384D01*
X152424043Y-76071621D01*
X152392602Y-76090481D01*
X152320494Y-76133621D01*
X152252864Y-76173891D01*
X152191079Y-76210489D01*
X152136510Y-76242613D01*
X152090526Y-76269461D01*
X152054495Y-76290231D01*
X152029788Y-76304120D01*
X152017773Y-76310328D01*
X152016831Y-76310560D01*
X152015002Y-76302030D01*
X152010225Y-76277630D01*
X152002647Y-76238139D01*
X151992413Y-76184335D01*
X151979669Y-76116997D01*
X151964563Y-76036904D01*
X151947238Y-75944834D01*
X151927843Y-75841566D01*
X151906522Y-75727878D01*
X151883422Y-75604549D01*
X151858689Y-75472358D01*
X151832469Y-75332082D01*
X151804908Y-75184502D01*
X151776152Y-75030394D01*
X151746346Y-74870539D01*
X151715638Y-74705714D01*
X151694590Y-74592667D01*
X151663339Y-74424801D01*
X151632892Y-74261301D01*
X151603396Y-74102952D01*
X151574997Y-73950537D01*
X151547842Y-73804842D01*
X151522077Y-73666649D01*
X151497848Y-73536743D01*
X151475302Y-73415909D01*
X151454584Y-73304930D01*
X151435843Y-73204591D01*
X151419223Y-73115676D01*
X151404871Y-73038969D01*
X151392934Y-72975254D01*
X151383558Y-72925315D01*
X151376889Y-72889937D01*
X151373074Y-72869904D01*
X151372190Y-72865467D01*
X151376576Y-72859293D01*
X151391812Y-72847221D01*
X151418446Y-72828903D01*
X151457024Y-72803995D01*
X151508094Y-72772150D01*
X151572203Y-72733023D01*
X151649898Y-72686268D01*
X151741727Y-72631538D01*
X151750850Y-72626123D01*
X151823990Y-72582835D01*
X151892681Y-72542404D01*
X151955562Y-72505615D01*
X152011270Y-72473256D01*
X152058446Y-72446111D01*
X152095727Y-72424966D01*
X152121753Y-72410607D01*
X152135162Y-72403820D01*
X152136698Y-72403409D01*
X152138402Y-72412208D01*
X152142279Y-72436811D01*
X152148193Y-72476250D01*
X152156005Y-72529555D01*
X152165581Y-72595756D01*
X152176783Y-72673883D01*
X152189475Y-72762966D01*
X152203519Y-72862035D01*
X152218781Y-72970121D01*
X152235121Y-73086254D01*
X152252406Y-73209464D01*
X152270496Y-73338782D01*
X152289257Y-73473237D01*
X152308551Y-73611859D01*
X152328241Y-73753679D01*
X152348192Y-73897728D01*
X152368266Y-74043034D01*
X152388327Y-74188629D01*
X152393825Y-74228600D01*
X152403759Y-74300031D01*
X152413174Y-74366163D01*
X152421786Y-74425125D01*
X152429313Y-74475043D01*
X152435472Y-74514044D01*
X152439978Y-74540256D01*
X152442550Y-74551805D01*
X152442730Y-74552135D01*
X152444087Y-74544573D01*
X152446853Y-74521081D01*
X152450940Y-74482597D01*
X152456259Y-74430056D01*
X152462720Y-74364397D01*
X152470236Y-74286555D01*
X152478718Y-74197469D01*
X152488076Y-74098075D01*
X152498223Y-73989310D01*
X152509069Y-73872111D01*
X152520525Y-73747416D01*
X152532504Y-73616160D01*
X152544915Y-73479282D01*
X152556580Y-73349868D01*
X152569355Y-73207835D01*
X152581767Y-73070046D01*
X152593727Y-72937484D01*
X152605146Y-72811129D01*
X152615934Y-72691962D01*
X152626002Y-72580966D01*
X152635261Y-72479121D01*
X152643620Y-72387408D01*
X152650992Y-72306809D01*
X152657287Y-72238306D01*
X152662415Y-72182878D01*
X152666287Y-72141509D01*
X152668814Y-72115178D01*
X152669845Y-72105303D01*
X152674512Y-72069040D01*
X153026551Y-71857822D01*
X153096630Y-71815962D01*
X153162281Y-71777110D01*
X153222087Y-71742078D01*
X153274627Y-71711680D01*
X153318484Y-71686730D01*
X153352239Y-71668042D01*
X153374473Y-71656430D01*
X153383768Y-71652708D01*
X153383919Y-71652785D01*
X153385487Y-71661816D01*
X153388765Y-71686670D01*
X153393638Y-71726338D01*
X153399992Y-71779808D01*
X153407711Y-71846069D01*
X153416681Y-71924111D01*
X153426786Y-72012923D01*
X153437912Y-72111494D01*
X153449943Y-72218813D01*
X153462765Y-72333870D01*
X153476262Y-72455654D01*
X153490320Y-72583153D01*
X153504823Y-72715357D01*
X153505499Y-72721533D01*
X153523177Y-72883114D01*
X153539107Y-73028686D01*
X153553383Y-73159076D01*
X153566100Y-73275108D01*
X153577350Y-73377608D01*
X153587229Y-73467400D01*
X153595830Y-73545311D01*
X153603248Y-73612164D01*
X153609576Y-73668786D01*
X153614909Y-73716001D01*
X153619340Y-73754634D01*
X153622965Y-73785511D01*
X153625875Y-73809456D01*
X153628167Y-73827295D01*
X153629933Y-73839852D01*
X153631269Y-73847954D01*
X153632267Y-73852425D01*
X153633023Y-73854090D01*
X153633629Y-73853774D01*
X153634181Y-73852302D01*
X153634347Y-73851770D01*
X153635559Y-73842523D01*
X153638511Y-73817384D01*
X153643099Y-73777292D01*
X153649218Y-73723186D01*
X153656764Y-73656008D01*
X153665631Y-73576696D01*
X153675716Y-73486190D01*
X153686914Y-73385431D01*
X153699119Y-73275358D01*
X153712229Y-73156911D01*
X153726137Y-73031029D01*
X153740740Y-72898654D01*
X153755933Y-72760723D01*
X153771611Y-72618179D01*
X153772349Y-72611467D01*
X153788103Y-72468323D01*
X153803427Y-72329498D01*
X153818212Y-72195955D01*
X153832350Y-72068655D01*
X153845733Y-71948557D01*
X153858252Y-71836624D01*
X153869800Y-71733817D01*
X153880267Y-71641096D01*
X153889547Y-71559422D01*
X153897530Y-71489758D01*
X153904109Y-71433063D01*
X153909174Y-71390300D01*
X153912619Y-71362428D01*
X153914335Y-71350409D01*
X153914351Y-71350338D01*
X153916379Y-71343509D01*
X153920064Y-71336583D01*
X153926591Y-71328771D01*
X153937142Y-71319285D01*
X153952902Y-71307337D01*
X153975055Y-71292138D01*
X154004784Y-71272899D01*
X154043274Y-71248832D01*
X154091708Y-71219149D01*
X154151270Y-71183060D01*
X154223145Y-71139778D01*
X154297733Y-71094984D01*
X154370194Y-71051534D01*
X154438121Y-71010878D01*
X154500161Y-70973822D01*
X154554960Y-70941169D01*
X154601164Y-70913726D01*
X154637419Y-70892298D01*
X154662371Y-70877688D01*
X154674666Y-70870703D01*
X154675737Y-70870213D01*
X154674572Y-70878567D01*
G04 #@! TD*
D13*
G04 #@! TO.P,U3,16*
G04 #@! TO.N,ESP_TX*
X125700000Y-76500000D03*
G04 #@! TO.P,U3,15*
G04 #@! TO.N,ESP_RX*
X125700000Y-78500000D03*
G04 #@! TO.P,U3,14*
G04 #@! TO.N,ESP_SW2*
X125700000Y-80500000D03*
G04 #@! TO.P,U3,13*
G04 #@! TO.N,ESP_SW1*
X125700000Y-82500000D03*
G04 #@! TO.P,U3,12*
G04 #@! TO.N,ESP_BOOTL*
X125700000Y-84500000D03*
G04 #@! TO.P,U3,11*
G04 #@! TO.N,ESP_LED_DATA*
X125700000Y-86500000D03*
G04 #@! TO.P,U3,10*
G04 #@! TO.N,Net-(R4-Pad1)*
X125700000Y-88500000D03*
G04 #@! TO.P,U3,9*
G04 #@! TO.N,GND*
X125700000Y-90500000D03*
G04 #@! TO.P,U3,8*
G04 #@! TO.N,+3V3*
X110300000Y-90500000D03*
G04 #@! TO.P,U3,7*
G04 #@! TO.N,ESP_IR*
X110300000Y-88500000D03*
G04 #@! TO.P,U3,6*
G04 #@! TO.N,ESP_PS_ON*
X110300000Y-86500000D03*
G04 #@! TO.P,U3,5*
G04 #@! TO.N,Net-(U3-Pad5)*
X110300000Y-84500000D03*
G04 #@! TO.P,U3,4*
G04 #@! TO.N,Net-(U3-Pad4)*
X110300000Y-82500000D03*
G04 #@! TO.P,U3,3*
G04 #@! TO.N,ESP_EN*
X110300000Y-80500000D03*
G04 #@! TO.P,U3,2*
G04 #@! TO.N,Net-(U3-Pad2)*
X110300000Y-78500000D03*
D14*
G04 #@! TO.P,U3,1*
G04 #@! TO.N,ESP_RST*
X110300000Y-76500000D03*
G04 #@! TD*
D15*
G04 #@! TO.P,REF\u002A\u002A,1*
G04 #@! TO.N,N/C*
X170000000Y-72000000D03*
G04 #@! TD*
G04 #@! TO.P,REF\u002A\u002A,1*
G04 #@! TO.N,N/C*
X72000000Y-79500000D03*
G04 #@! TD*
G04 #@! TO.P,REF\u002A\u002A,1*
G04 #@! TO.N,N/C*
X72000000Y-100500000D03*
G04 #@! TD*
D16*
G04 #@! TO.P,C1,2*
G04 #@! TO.N,GND*
X90500000Y-86500000D03*
D17*
G04 #@! TO.P,C1,1*
G04 #@! TO.N,+5V*
X87000000Y-86500000D03*
G04 #@! TD*
G04 #@! TO.P,C2,2*
G04 #@! TO.N,GND*
G04 #@! TA.AperFunction,SMDPad,CuDef*
G36*
G01*
X89475000Y-94087500D02*
X88525000Y-94087500D01*
G75*
G02*
X88275000Y-93837500I0J250000D01*
G01*
X88275000Y-93162500D01*
G75*
G02*
X88525000Y-92912500I250000J0D01*
G01*
X89475000Y-92912500D01*
G75*
G02*
X89725000Y-93162500I0J-250000D01*
G01*
X89725000Y-93837500D01*
G75*
G02*
X89475000Y-94087500I-250000J0D01*
G01*
G37*
G04 #@! TD.AperFunction*
G04 #@! TO.P,C2,1*
G04 #@! TO.N,+5V*
G04 #@! TA.AperFunction,SMDPad,CuDef*
G36*
G01*
X89475000Y-96162500D02*
X88525000Y-96162500D01*
G75*
G02*
X88275000Y-95912500I0J250000D01*
G01*
X88275000Y-95237500D01*
G75*
G02*
X88525000Y-94987500I250000J0D01*
G01*
X89475000Y-94987500D01*
G75*
G02*
X89725000Y-95237500I0J-250000D01*
G01*
X89725000Y-95912500D01*
G75*
G02*
X89475000Y-96162500I-250000J0D01*
G01*
G37*
G04 #@! TD.AperFunction*
G04 #@! TD*
G04 #@! TO.P,C3,1*
G04 #@! TO.N,+3V3*
G04 #@! TA.AperFunction,SMDPad,CuDef*
G36*
G01*
X96125000Y-90025000D02*
X96125000Y-90975000D01*
G75*
G02*
X95875000Y-91225000I-250000J0D01*
G01*
X95200000Y-91225000D01*
G75*
G02*
X94950000Y-90975000I0J250000D01*
G01*
X94950000Y-90025000D01*
G75*
G02*
X95200000Y-89775000I250000J0D01*
G01*
X95875000Y-89775000D01*
G75*
G02*
X96125000Y-90025000I0J-250000D01*
G01*
G37*
G04 #@! TD.AperFunction*
G04 #@! TO.P,C3,2*
G04 #@! TO.N,GND*
G04 #@! TA.AperFunction,SMDPad,CuDef*
G36*
G01*
X94050000Y-90025000D02*
X94050000Y-90975000D01*
G75*
G02*
X93800000Y-91225000I-250000J0D01*
G01*
X93125000Y-91225000D01*
G75*
G02*
X92875000Y-90975000I0J250000D01*
G01*
X92875000Y-90025000D01*
G75*
G02*
X93125000Y-89775000I250000J0D01*
G01*
X93800000Y-89775000D01*
G75*
G02*
X94050000Y-90025000I0J-250000D01*
G01*
G37*
G04 #@! TD.AperFunction*
G04 #@! TD*
G04 #@! TO.P,C4,1*
G04 #@! TO.N,+3V3*
X102000000Y-86500000D03*
D16*
G04 #@! TO.P,C4,2*
G04 #@! TO.N,GND*
X98500000Y-86500000D03*
G04 #@! TD*
G04 #@! TO.P,C5,1*
G04 #@! TO.N,+5V*
G04 #@! TA.AperFunction,SMDPad,CuDef*
G36*
G01*
X142025000Y-83337500D02*
X142975000Y-83337500D01*
G75*
G02*
X143225000Y-83587500I0J-250000D01*
G01*
X143225000Y-84262500D01*
G75*
G02*
X142975000Y-84512500I-250000J0D01*
G01*
X142025000Y-84512500D01*
G75*
G02*
X141775000Y-84262500I0J250000D01*
G01*
X141775000Y-83587500D01*
G75*
G02*
X142025000Y-83337500I250000J0D01*
G01*
G37*
G04 #@! TD.AperFunction*
G04 #@! TO.P,C5,2*
G04 #@! TO.N,GND*
G04 #@! TA.AperFunction,SMDPad,CuDef*
G36*
G01*
X142025000Y-85412500D02*
X142975000Y-85412500D01*
G75*
G02*
X143225000Y-85662500I0J-250000D01*
G01*
X143225000Y-86337500D01*
G75*
G02*
X142975000Y-86587500I-250000J0D01*
G01*
X142025000Y-86587500D01*
G75*
G02*
X141775000Y-86337500I0J250000D01*
G01*
X141775000Y-85662500D01*
G75*
G02*
X142025000Y-85412500I250000J0D01*
G01*
G37*
G04 #@! TD.AperFunction*
G04 #@! TD*
G04 #@! TO.P,C6,2*
G04 #@! TO.N,GND*
G04 #@! TA.AperFunction,SMDPad,CuDef*
G36*
G01*
X117412500Y-90975000D02*
X117412500Y-90025000D01*
G75*
G02*
X117662500Y-89775000I250000J0D01*
G01*
X118337500Y-89775000D01*
G75*
G02*
X118587500Y-90025000I0J-250000D01*
G01*
X118587500Y-90975000D01*
G75*
G02*
X118337500Y-91225000I-250000J0D01*
G01*
X117662500Y-91225000D01*
G75*
G02*
X117412500Y-90975000I0J250000D01*
G01*
G37*
G04 #@! TD.AperFunction*
G04 #@! TO.P,C6,1*
G04 #@! TO.N,+3V3*
G04 #@! TA.AperFunction,SMDPad,CuDef*
G36*
G01*
X115337500Y-90975000D02*
X115337500Y-90025000D01*
G75*
G02*
X115587500Y-89775000I250000J0D01*
G01*
X116262500Y-89775000D01*
G75*
G02*
X116512500Y-90025000I0J-250000D01*
G01*
X116512500Y-90975000D01*
G75*
G02*
X116262500Y-91225000I-250000J0D01*
G01*
X115587500Y-91225000D01*
G75*
G02*
X115337500Y-90975000I0J250000D01*
G01*
G37*
G04 #@! TD.AperFunction*
G04 #@! TD*
G04 #@! TO.P,C7,1*
G04 #@! TO.N,+3V3*
G04 #@! TA.AperFunction,SMDPad,CuDef*
G36*
G01*
X100587500Y-101025000D02*
X100587500Y-101975000D01*
G75*
G02*
X100337500Y-102225000I-250000J0D01*
G01*
X99662500Y-102225000D01*
G75*
G02*
X99412500Y-101975000I0J250000D01*
G01*
X99412500Y-101025000D01*
G75*
G02*
X99662500Y-100775000I250000J0D01*
G01*
X100337500Y-100775000D01*
G75*
G02*
X100587500Y-101025000I0J-250000D01*
G01*
G37*
G04 #@! TD.AperFunction*
G04 #@! TO.P,C7,2*
G04 #@! TO.N,GND*
G04 #@! TA.AperFunction,SMDPad,CuDef*
G36*
G01*
X98512500Y-101025000D02*
X98512500Y-101975000D01*
G75*
G02*
X98262500Y-102225000I-250000J0D01*
G01*
X97587500Y-102225000D01*
G75*
G02*
X97337500Y-101975000I0J250000D01*
G01*
X97337500Y-101025000D01*
G75*
G02*
X97587500Y-100775000I250000J0D01*
G01*
X98262500Y-100775000D01*
G75*
G02*
X98512500Y-101025000I0J-250000D01*
G01*
G37*
G04 #@! TD.AperFunction*
G04 #@! TD*
G04 #@! TO.P,C8,2*
G04 #@! TO.N,GND*
G04 #@! TA.AperFunction,SMDPad,CuDef*
G36*
G01*
X84587500Y-101525000D02*
X84587500Y-102475000D01*
G75*
G02*
X84337500Y-102725000I-250000J0D01*
G01*
X83662500Y-102725000D01*
G75*
G02*
X83412500Y-102475000I0J250000D01*
G01*
X83412500Y-101525000D01*
G75*
G02*
X83662500Y-101275000I250000J0D01*
G01*
X84337500Y-101275000D01*
G75*
G02*
X84587500Y-101525000I0J-250000D01*
G01*
G37*
G04 #@! TD.AperFunction*
G04 #@! TO.P,C8,1*
G04 #@! TO.N,+3V3*
G04 #@! TA.AperFunction,SMDPad,CuDef*
G36*
G01*
X86662500Y-101525000D02*
X86662500Y-102475000D01*
G75*
G02*
X86412500Y-102725000I-250000J0D01*
G01*
X85737500Y-102725000D01*
G75*
G02*
X85487500Y-102475000I0J250000D01*
G01*
X85487500Y-101525000D01*
G75*
G02*
X85737500Y-101275000I250000J0D01*
G01*
X86412500Y-101275000D01*
G75*
G02*
X86662500Y-101525000I0J-250000D01*
G01*
G37*
G04 #@! TD.AperFunction*
G04 #@! TD*
D18*
G04 #@! TO.P,D1,1*
G04 #@! TO.N,+5V*
X81500000Y-87000000D03*
D19*
G04 #@! TO.P,D1,2*
G04 #@! TO.N,Net-(D1-Pad2)*
X81500000Y-97160000D03*
G04 #@! TD*
D20*
G04 #@! TO.P,D2,2*
G04 #@! TO.N,5V_LED_DATA*
X159750000Y-82500000D03*
G04 #@! TO.P,D2,1*
G04 #@! TO.N,+5V*
X163250000Y-82500000D03*
G04 #@! TD*
D21*
G04 #@! TO.P,D3,1*
G04 #@! TO.N,+5V*
X85500000Y-79750000D03*
G04 #@! TO.P,D3,2*
G04 #@! TO.N,Net-(D3-Pad2)*
X85500000Y-76250000D03*
G04 #@! TD*
D20*
G04 #@! TO.P,D4,1*
G04 #@! TO.N,+5V*
X163250000Y-98000000D03*
G04 #@! TO.P,D4,2*
G04 #@! TO.N,ESP_SW2*
X159750000Y-98000000D03*
G04 #@! TD*
G04 #@! TO.P,D5,1*
G04 #@! TO.N,5V_LED_DATA*
X163250000Y-87500000D03*
G04 #@! TO.P,D5,2*
G04 #@! TO.N,GND*
X159750000Y-87500000D03*
G04 #@! TD*
D21*
G04 #@! TO.P,D6,2*
G04 #@! TO.N,GND*
X89500000Y-79750000D03*
G04 #@! TO.P,D6,1*
G04 #@! TO.N,Net-(D3-Pad2)*
X89500000Y-76250000D03*
G04 #@! TD*
D20*
G04 #@! TO.P,D7,2*
G04 #@! TO.N,GND*
X159750000Y-93000000D03*
G04 #@! TO.P,D7,1*
G04 #@! TO.N,ESP_SW2*
X163250000Y-93000000D03*
G04 #@! TD*
D22*
G04 #@! TO.P,J1,1*
G04 #@! TO.N,PS_ON*
X75120000Y-84820000D03*
D23*
G04 #@! TO.P,J1,2*
G04 #@! TO.N,GND*
X75120000Y-88320000D03*
G04 #@! TO.P,J1,3*
X75120000Y-91820000D03*
G04 #@! TO.P,J1,4*
G04 #@! TO.N,Net-(D1-Pad2)*
X75120000Y-95320000D03*
G04 #@! TD*
D22*
G04 #@! TO.P,J2,1*
G04 #@! TO.N,+5V*
X175000000Y-99000000D03*
D23*
G04 #@! TO.P,J2,2*
G04 #@! TO.N,SWITCH_IN*
X175000000Y-95500000D03*
G04 #@! TO.P,J2,3*
G04 #@! TO.N,GND*
X175000000Y-92000000D03*
G04 #@! TO.P,J2,4*
X175000000Y-88500000D03*
G04 #@! TO.P,J2,5*
G04 #@! TO.N,DATA_OUT*
X175000000Y-85000000D03*
G04 #@! TO.P,J2,6*
G04 #@! TO.N,+5V*
X175000000Y-81500000D03*
G04 #@! TD*
D24*
G04 #@! TO.P,J3,1*
G04 #@! TO.N,ESP_BOOTL*
X135000000Y-80000000D03*
D25*
G04 #@! TO.P,J3,2*
G04 #@! TO.N,ESP_EN*
X135000000Y-78000000D03*
G04 #@! TO.P,J3,3*
G04 #@! TO.N,ESP_RX*
X135000000Y-76000000D03*
G04 #@! TO.P,J3,4*
G04 #@! TO.N,ESP_TX*
X135000000Y-74000000D03*
G04 #@! TO.P,J3,5*
G04 #@! TO.N,GND*
X135000000Y-72000000D03*
G04 #@! TD*
G04 #@! TO.P,R1,1*
G04 #@! TO.N,+3V3*
G04 #@! TA.AperFunction,SMDPad,CuDef*
G36*
G01*
X118600000Y-76049999D02*
X118600000Y-76950001D01*
G75*
G02*
X118350001Y-77200000I-249999J0D01*
G01*
X117649999Y-77200000D01*
G75*
G02*
X117400000Y-76950001I0J249999D01*
G01*
X117400000Y-76049999D01*
G75*
G02*
X117649999Y-75800000I249999J0D01*
G01*
X118350001Y-75800000D01*
G75*
G02*
X118600000Y-76049999I0J-249999D01*
G01*
G37*
G04 #@! TD.AperFunction*
G04 #@! TO.P,R1,2*
G04 #@! TO.N,ESP_RST*
G04 #@! TA.AperFunction,SMDPad,CuDef*
G36*
G01*
X116600000Y-76049999D02*
X116600000Y-76950001D01*
G75*
G02*
X116350001Y-77200000I-249999J0D01*
G01*
X115649999Y-77200000D01*
G75*
G02*
X115400000Y-76950001I0J249999D01*
G01*
X115400000Y-76049999D01*
G75*
G02*
X115649999Y-75800000I249999J0D01*
G01*
X116350001Y-75800000D01*
G75*
G02*
X116600000Y-76049999I0J-249999D01*
G01*
G37*
G04 #@! TD.AperFunction*
G04 #@! TD*
G04 #@! TO.P,R2,2*
G04 #@! TO.N,ESP_EN*
G04 #@! TA.AperFunction,SMDPad,CuDef*
G36*
G01*
X116600000Y-79049999D02*
X116600000Y-79950001D01*
G75*
G02*
X116350001Y-80200000I-249999J0D01*
G01*
X115649999Y-80200000D01*
G75*
G02*
X115400000Y-79950001I0J249999D01*
G01*
X115400000Y-79049999D01*
G75*
G02*
X115649999Y-78800000I249999J0D01*
G01*
X116350001Y-78800000D01*
G75*
G02*
X116600000Y-79049999I0J-249999D01*
G01*
G37*
G04 #@! TD.AperFunction*
G04 #@! TO.P,R2,1*
G04 #@! TO.N,+3V3*
G04 #@! TA.AperFunction,SMDPad,CuDef*
G36*
G01*
X118600000Y-79049999D02*
X118600000Y-79950001D01*
G75*
G02*
X118350001Y-80200000I-249999J0D01*
G01*
X117649999Y-80200000D01*
G75*
G02*
X117400000Y-79950001I0J249999D01*
G01*
X117400000Y-79049999D01*
G75*
G02*
X117649999Y-78800000I249999J0D01*
G01*
X118350001Y-78800000D01*
G75*
G02*
X118600000Y-79049999I0J-249999D01*
G01*
G37*
G04 #@! TD.AperFunction*
G04 #@! TD*
G04 #@! TO.P,R3,1*
G04 #@! TO.N,+3V3*
G04 #@! TA.AperFunction,SMDPad,CuDef*
G36*
G01*
X115400000Y-85950001D02*
X115400000Y-85049999D01*
G75*
G02*
X115649999Y-84800000I249999J0D01*
G01*
X116350001Y-84800000D01*
G75*
G02*
X116600000Y-85049999I0J-249999D01*
G01*
X116600000Y-85950001D01*
G75*
G02*
X116350001Y-86200000I-249999J0D01*
G01*
X115649999Y-86200000D01*
G75*
G02*
X115400000Y-85950001I0J249999D01*
G01*
G37*
G04 #@! TD.AperFunction*
G04 #@! TO.P,R3,2*
G04 #@! TO.N,ESP_BOOTL*
G04 #@! TA.AperFunction,SMDPad,CuDef*
G36*
G01*
X117400000Y-85950001D02*
X117400000Y-85049999D01*
G75*
G02*
X117649999Y-84800000I249999J0D01*
G01*
X118350001Y-84800000D01*
G75*
G02*
X118600000Y-85049999I0J-249999D01*
G01*
X118600000Y-85950001D01*
G75*
G02*
X118350001Y-86200000I-249999J0D01*
G01*
X117649999Y-86200000D01*
G75*
G02*
X117400000Y-85950001I0J249999D01*
G01*
G37*
G04 #@! TD.AperFunction*
G04 #@! TD*
G04 #@! TO.P,R4,2*
G04 #@! TO.N,GND*
G04 #@! TA.AperFunction,SMDPad,CuDef*
G36*
G01*
X130049999Y-90900000D02*
X130950001Y-90900000D01*
G75*
G02*
X131200000Y-91149999I0J-249999D01*
G01*
X131200000Y-91850001D01*
G75*
G02*
X130950001Y-92100000I-249999J0D01*
G01*
X130049999Y-92100000D01*
G75*
G02*
X129800000Y-91850001I0J249999D01*
G01*
X129800000Y-91149999D01*
G75*
G02*
X130049999Y-90900000I249999J0D01*
G01*
G37*
G04 #@! TD.AperFunction*
G04 #@! TO.P,R4,1*
G04 #@! TO.N,Net-(R4-Pad1)*
G04 #@! TA.AperFunction,SMDPad,CuDef*
G36*
G01*
X130049999Y-88900000D02*
X130950001Y-88900000D01*
G75*
G02*
X131200000Y-89149999I0J-249999D01*
G01*
X131200000Y-89850001D01*
G75*
G02*
X130950001Y-90100000I-249999J0D01*
G01*
X130049999Y-90100000D01*
G75*
G02*
X129800000Y-89850001I0J249999D01*
G01*
X129800000Y-89149999D01*
G75*
G02*
X130049999Y-88900000I249999J0D01*
G01*
G37*
G04 #@! TD.AperFunction*
G04 #@! TD*
G04 #@! TO.P,R5,1*
G04 #@! TO.N,+3V3*
G04 #@! TA.AperFunction,SMDPad,CuDef*
G36*
G01*
X115400000Y-83450001D02*
X115400000Y-82549999D01*
G75*
G02*
X115649999Y-82300000I249999J0D01*
G01*
X116350001Y-82300000D01*
G75*
G02*
X116600000Y-82549999I0J-249999D01*
G01*
X116600000Y-83450001D01*
G75*
G02*
X116350001Y-83700000I-249999J0D01*
G01*
X115649999Y-83700000D01*
G75*
G02*
X115400000Y-83450001I0J249999D01*
G01*
G37*
G04 #@! TD.AperFunction*
G04 #@! TO.P,R5,2*
G04 #@! TO.N,ESP_SW1*
G04 #@! TA.AperFunction,SMDPad,CuDef*
G36*
G01*
X117400000Y-83450001D02*
X117400000Y-82549999D01*
G75*
G02*
X117649999Y-82300000I249999J0D01*
G01*
X118350001Y-82300000D01*
G75*
G02*
X118600000Y-82549999I0J-249999D01*
G01*
X118600000Y-83450001D01*
G75*
G02*
X118350001Y-83700000I-249999J0D01*
G01*
X117649999Y-83700000D01*
G75*
G02*
X117400000Y-83450001I0J249999D01*
G01*
G37*
G04 #@! TD.AperFunction*
G04 #@! TD*
G04 #@! TO.P,R6,2*
G04 #@! TO.N,DATA_OUT*
G04 #@! TA.AperFunction,SMDPad,CuDef*
G36*
G01*
X167400000Y-85450001D02*
X167400000Y-84549999D01*
G75*
G02*
X167649999Y-84300000I249999J0D01*
G01*
X168350001Y-84300000D01*
G75*
G02*
X168600000Y-84549999I0J-249999D01*
G01*
X168600000Y-85450001D01*
G75*
G02*
X168350001Y-85700000I-249999J0D01*
G01*
X167649999Y-85700000D01*
G75*
G02*
X167400000Y-85450001I0J249999D01*
G01*
G37*
G04 #@! TD.AperFunction*
G04 #@! TO.P,R6,1*
G04 #@! TO.N,5V_LED_DATA*
G04 #@! TA.AperFunction,SMDPad,CuDef*
G36*
G01*
X165400000Y-85450001D02*
X165400000Y-84549999D01*
G75*
G02*
X165649999Y-84300000I249999J0D01*
G01*
X166350001Y-84300000D01*
G75*
G02*
X166600000Y-84549999I0J-249999D01*
G01*
X166600000Y-85450001D01*
G75*
G02*
X166350001Y-85700000I-249999J0D01*
G01*
X165649999Y-85700000D01*
G75*
G02*
X165400000Y-85450001I0J249999D01*
G01*
G37*
G04 #@! TD.AperFunction*
G04 #@! TD*
G04 #@! TO.P,R7,2*
G04 #@! TO.N,PS_ON*
G04 #@! TA.AperFunction,SMDPad,CuDef*
G36*
G01*
X81549999Y-77900000D02*
X82450001Y-77900000D01*
G75*
G02*
X82700000Y-78149999I0J-249999D01*
G01*
X82700000Y-78850001D01*
G75*
G02*
X82450001Y-79100000I-249999J0D01*
G01*
X81549999Y-79100000D01*
G75*
G02*
X81300000Y-78850001I0J249999D01*
G01*
X81300000Y-78149999D01*
G75*
G02*
X81549999Y-77900000I249999J0D01*
G01*
G37*
G04 #@! TD.AperFunction*
G04 #@! TO.P,R7,1*
G04 #@! TO.N,Net-(D3-Pad2)*
G04 #@! TA.AperFunction,SMDPad,CuDef*
G36*
G01*
X81549999Y-75900000D02*
X82450001Y-75900000D01*
G75*
G02*
X82700000Y-76149999I0J-249999D01*
G01*
X82700000Y-76850001D01*
G75*
G02*
X82450001Y-77100000I-249999J0D01*
G01*
X81549999Y-77100000D01*
G75*
G02*
X81300000Y-76850001I0J249999D01*
G01*
X81300000Y-76149999D01*
G75*
G02*
X81549999Y-75900000I249999J0D01*
G01*
G37*
G04 #@! TD.AperFunction*
G04 #@! TD*
G04 #@! TO.P,R8,1*
G04 #@! TO.N,ESP_SW2*
G04 #@! TA.AperFunction,SMDPad,CuDef*
G36*
G01*
X165400000Y-95950001D02*
X165400000Y-95049999D01*
G75*
G02*
X165649999Y-94800000I249999J0D01*
G01*
X166350001Y-94800000D01*
G75*
G02*
X166600000Y-95049999I0J-249999D01*
G01*
X166600000Y-95950001D01*
G75*
G02*
X166350001Y-96200000I-249999J0D01*
G01*
X165649999Y-96200000D01*
G75*
G02*
X165400000Y-95950001I0J249999D01*
G01*
G37*
G04 #@! TD.AperFunction*
G04 #@! TO.P,R8,2*
G04 #@! TO.N,SWITCH_IN*
G04 #@! TA.AperFunction,SMDPad,CuDef*
G36*
G01*
X167400000Y-95950001D02*
X167400000Y-95049999D01*
G75*
G02*
X167649999Y-94800000I249999J0D01*
G01*
X168350001Y-94800000D01*
G75*
G02*
X168600000Y-95049999I0J-249999D01*
G01*
X168600000Y-95950001D01*
G75*
G02*
X168350001Y-96200000I-249999J0D01*
G01*
X167649999Y-96200000D01*
G75*
G02*
X167400000Y-95950001I0J249999D01*
G01*
G37*
G04 #@! TD.AperFunction*
G04 #@! TD*
D26*
G04 #@! TO.P,SW1,2*
G04 #@! TO.N,GND*
X128180000Y-102020000D03*
G04 #@! TO.P,SW1,1*
G04 #@! TO.N,ESP_SW1*
X128180000Y-97520000D03*
G04 #@! TO.P,SW1,2*
G04 #@! TO.N,GND*
X134680000Y-102020000D03*
G04 #@! TO.P,SW1,1*
G04 #@! TO.N,ESP_SW1*
X134680000Y-97520000D03*
G04 #@! TD*
G04 #@! TO.P,SW2,2*
G04 #@! TO.N,GND*
X112940000Y-102020000D03*
G04 #@! TO.P,SW2,1*
G04 #@! TO.N,ESP_RST*
X112940000Y-97520000D03*
G04 #@! TO.P,SW2,2*
G04 #@! TO.N,GND*
X119440000Y-102020000D03*
G04 #@! TO.P,SW2,1*
G04 #@! TO.N,ESP_RST*
X119440000Y-97520000D03*
G04 #@! TD*
G04 #@! TO.P,U2,1*
G04 #@! TO.N,+5V*
G04 #@! TA.AperFunction,SMDPad,CuDef*
G36*
G01*
X133550000Y-83840000D02*
X133550000Y-83540000D01*
G75*
G02*
X133700000Y-83390000I150000J0D01*
G01*
X135350000Y-83390000D01*
G75*
G02*
X135500000Y-83540000I0J-150000D01*
G01*
X135500000Y-83840000D01*
G75*
G02*
X135350000Y-83990000I-150000J0D01*
G01*
X133700000Y-83990000D01*
G75*
G02*
X133550000Y-83840000I0J150000D01*
G01*
G37*
G04 #@! TD.AperFunction*
G04 #@! TO.P,U2,2*
G04 #@! TO.N,ESP_LED_DATA*
G04 #@! TA.AperFunction,SMDPad,CuDef*
G36*
G01*
X133550000Y-85110000D02*
X133550000Y-84810000D01*
G75*
G02*
X133700000Y-84660000I150000J0D01*
G01*
X135350000Y-84660000D01*
G75*
G02*
X135500000Y-84810000I0J-150000D01*
G01*
X135500000Y-85110000D01*
G75*
G02*
X135350000Y-85260000I-150000J0D01*
G01*
X133700000Y-85260000D01*
G75*
G02*
X133550000Y-85110000I0J150000D01*
G01*
G37*
G04 #@! TD.AperFunction*
G04 #@! TO.P,U2,3*
G04 #@! TO.N,Net-(U2-Pad3)*
G04 #@! TA.AperFunction,SMDPad,CuDef*
G36*
G01*
X133550000Y-86380000D02*
X133550000Y-86080000D01*
G75*
G02*
X133700000Y-85930000I150000J0D01*
G01*
X135350000Y-85930000D01*
G75*
G02*
X135500000Y-86080000I0J-150000D01*
G01*
X135500000Y-86380000D01*
G75*
G02*
X135350000Y-86530000I-150000J0D01*
G01*
X133700000Y-86530000D01*
G75*
G02*
X133550000Y-86380000I0J150000D01*
G01*
G37*
G04 #@! TD.AperFunction*
G04 #@! TO.P,U2,4*
G04 #@! TO.N,+5V*
G04 #@! TA.AperFunction,SMDPad,CuDef*
G36*
G01*
X133550000Y-87650000D02*
X133550000Y-87350000D01*
G75*
G02*
X133700000Y-87200000I150000J0D01*
G01*
X135350000Y-87200000D01*
G75*
G02*
X135500000Y-87350000I0J-150000D01*
G01*
X135500000Y-87650000D01*
G75*
G02*
X135350000Y-87800000I-150000J0D01*
G01*
X133700000Y-87800000D01*
G75*
G02*
X133550000Y-87650000I0J150000D01*
G01*
G37*
G04 #@! TD.AperFunction*
G04 #@! TO.P,U2,5*
G04 #@! TO.N,Net-(U2-Pad3)*
G04 #@! TA.AperFunction,SMDPad,CuDef*
G36*
G01*
X133550000Y-88920000D02*
X133550000Y-88620000D01*
G75*
G02*
X133700000Y-88470000I150000J0D01*
G01*
X135350000Y-88470000D01*
G75*
G02*
X135500000Y-88620000I0J-150000D01*
G01*
X135500000Y-88920000D01*
G75*
G02*
X135350000Y-89070000I-150000J0D01*
G01*
X133700000Y-89070000D01*
G75*
G02*
X133550000Y-88920000I0J150000D01*
G01*
G37*
G04 #@! TD.AperFunction*
G04 #@! TO.P,U2,6*
G04 #@! TO.N,5V_LED_DATA*
G04 #@! TA.AperFunction,SMDPad,CuDef*
G36*
G01*
X133550000Y-90190000D02*
X133550000Y-89890000D01*
G75*
G02*
X133700000Y-89740000I150000J0D01*
G01*
X135350000Y-89740000D01*
G75*
G02*
X135500000Y-89890000I0J-150000D01*
G01*
X135500000Y-90190000D01*
G75*
G02*
X135350000Y-90340000I-150000J0D01*
G01*
X133700000Y-90340000D01*
G75*
G02*
X133550000Y-90190000I0J150000D01*
G01*
G37*
G04 #@! TD.AperFunction*
G04 #@! TO.P,U2,7*
G04 #@! TO.N,GND*
G04 #@! TA.AperFunction,SMDPad,CuDef*
G36*
G01*
X133550000Y-91460000D02*
X133550000Y-91160000D01*
G75*
G02*
X133700000Y-91010000I150000J0D01*
G01*
X135350000Y-91010000D01*
G75*
G02*
X135500000Y-91160000I0J-150000D01*
G01*
X135500000Y-91460000D01*
G75*
G02*
X135350000Y-91610000I-150000J0D01*
G01*
X133700000Y-91610000D01*
G75*
G02*
X133550000Y-91460000I0J150000D01*
G01*
G37*
G04 #@! TD.AperFunction*
G04 #@! TO.P,U2,8*
G04 #@! TO.N,Net-(U2-Pad8)*
G04 #@! TA.AperFunction,SMDPad,CuDef*
G36*
G01*
X138500000Y-91460000D02*
X138500000Y-91160000D01*
G75*
G02*
X138650000Y-91010000I150000J0D01*
G01*
X140300000Y-91010000D01*
G75*
G02*
X140450000Y-91160000I0J-150000D01*
G01*
X140450000Y-91460000D01*
G75*
G02*
X140300000Y-91610000I-150000J0D01*
G01*
X138650000Y-91610000D01*
G75*
G02*
X138500000Y-91460000I0J150000D01*
G01*
G37*
G04 #@! TD.AperFunction*
G04 #@! TO.P,U2,9*
G04 #@! TO.N,GND*
G04 #@! TA.AperFunction,SMDPad,CuDef*
G36*
G01*
X138500000Y-90190000D02*
X138500000Y-89890000D01*
G75*
G02*
X138650000Y-89740000I150000J0D01*
G01*
X140300000Y-89740000D01*
G75*
G02*
X140450000Y-89890000I0J-150000D01*
G01*
X140450000Y-90190000D01*
G75*
G02*
X140300000Y-90340000I-150000J0D01*
G01*
X138650000Y-90340000D01*
G75*
G02*
X138500000Y-90190000I0J150000D01*
G01*
G37*
G04 #@! TD.AperFunction*
G04 #@! TO.P,U2,10*
G04 #@! TA.AperFunction,SMDPad,CuDef*
G36*
G01*
X138500000Y-88920000D02*
X138500000Y-88620000D01*
G75*
G02*
X138650000Y-88470000I150000J0D01*
G01*
X140300000Y-88470000D01*
G75*
G02*
X140450000Y-88620000I0J-150000D01*
G01*
X140450000Y-88920000D01*
G75*
G02*
X140300000Y-89070000I-150000J0D01*
G01*
X138650000Y-89070000D01*
G75*
G02*
X138500000Y-88920000I0J150000D01*
G01*
G37*
G04 #@! TD.AperFunction*
G04 #@! TO.P,U2,11*
G04 #@! TO.N,Net-(U2-Pad11)*
G04 #@! TA.AperFunction,SMDPad,CuDef*
G36*
G01*
X138500000Y-87650000D02*
X138500000Y-87350000D01*
G75*
G02*
X138650000Y-87200000I150000J0D01*
G01*
X140300000Y-87200000D01*
G75*
G02*
X140450000Y-87350000I0J-150000D01*
G01*
X140450000Y-87650000D01*
G75*
G02*
X140300000Y-87800000I-150000J0D01*
G01*
X138650000Y-87800000D01*
G75*
G02*
X138500000Y-87650000I0J150000D01*
G01*
G37*
G04 #@! TD.AperFunction*
G04 #@! TO.P,U2,12*
G04 #@! TO.N,GND*
G04 #@! TA.AperFunction,SMDPad,CuDef*
G36*
G01*
X138500000Y-86380000D02*
X138500000Y-86080000D01*
G75*
G02*
X138650000Y-85930000I150000J0D01*
G01*
X140300000Y-85930000D01*
G75*
G02*
X140450000Y-86080000I0J-150000D01*
G01*
X140450000Y-86380000D01*
G75*
G02*
X140300000Y-86530000I-150000J0D01*
G01*
X138650000Y-86530000D01*
G75*
G02*
X138500000Y-86380000I0J150000D01*
G01*
G37*
G04 #@! TD.AperFunction*
G04 #@! TO.P,U2,13*
G04 #@! TA.AperFunction,SMDPad,CuDef*
G36*
G01*
X138500000Y-85110000D02*
X138500000Y-84810000D01*
G75*
G02*
X138650000Y-84660000I150000J0D01*
G01*
X140300000Y-84660000D01*
G75*
G02*
X140450000Y-84810000I0J-150000D01*
G01*
X140450000Y-85110000D01*
G75*
G02*
X140300000Y-85260000I-150000J0D01*
G01*
X138650000Y-85260000D01*
G75*
G02*
X138500000Y-85110000I0J150000D01*
G01*
G37*
G04 #@! TD.AperFunction*
G04 #@! TO.P,U2,14*
G04 #@! TO.N,+5V*
G04 #@! TA.AperFunction,SMDPad,CuDef*
G36*
G01*
X138500000Y-83840000D02*
X138500000Y-83540000D01*
G75*
G02*
X138650000Y-83390000I150000J0D01*
G01*
X140300000Y-83390000D01*
G75*
G02*
X140450000Y-83540000I0J-150000D01*
G01*
X140450000Y-83840000D01*
G75*
G02*
X140300000Y-83990000I-150000J0D01*
G01*
X138650000Y-83990000D01*
G75*
G02*
X138500000Y-83840000I0J150000D01*
G01*
G37*
G04 #@! TD.AperFunction*
G04 #@! TD*
G04 #@! TO.P,U4,1*
G04 #@! TO.N,ESP_IR*
G04 #@! TA.AperFunction,ComponentPad*
G36*
G01*
X94100000Y-104791600D02*
X94100000Y-103488400D01*
G75*
G02*
X94348400Y-103240000I248400J0D01*
G01*
X95651600Y-103240000D01*
G75*
G02*
X95900000Y-103488400I0J-248400D01*
G01*
X95900000Y-104791600D01*
G75*
G02*
X95651600Y-105040000I-248400J0D01*
G01*
X94348400Y-105040000D01*
G75*
G02*
X94100000Y-104791600I0J248400D01*
G01*
G37*
G04 #@! TD.AperFunction*
D27*
G04 #@! TO.P,U4,2*
G04 #@! TO.N,GND*
X97540000Y-104140000D03*
G04 #@! TO.P,U4,3*
G04 #@! TO.N,+3V3*
X100080000Y-104140000D03*
G04 #@! TD*
G04 #@! TO.P,U5,1*
G04 #@! TO.N,GND*
G04 #@! TA.AperFunction,ComponentPad*
G36*
G01*
X83300000Y-105450800D02*
X83300000Y-104549200D01*
G75*
G02*
X83549200Y-104300000I249200J0D01*
G01*
X84450800Y-104300000D01*
G75*
G02*
X84700000Y-104549200I0J-249200D01*
G01*
X84700000Y-105450800D01*
G75*
G02*
X84450800Y-105700000I-249200J0D01*
G01*
X83549200Y-105700000D01*
G75*
G02*
X83300000Y-105450800I0J249200D01*
G01*
G37*
G04 #@! TD.AperFunction*
D28*
G04 #@! TO.P,U5,2*
G04 #@! TO.N,+3V3*
X86540000Y-105000000D03*
G04 #@! TO.P,U5,3*
G04 #@! TO.N,ESP_IR*
X91620000Y-105000000D03*
G04 #@! TD*
D29*
G04 #@! TO.P,U1,2*
G04 #@! TO.N,+3V3*
X97710000Y-95780000D03*
D30*
X91410000Y-95780000D03*
G04 #@! TO.P,U1,3*
G04 #@! TO.N,+5V*
X91410000Y-98080000D03*
G04 #@! TO.P,U1,1*
G04 #@! TO.N,GND*
X91410000Y-93480000D03*
G04 #@! TD*
D31*
G04 #@! TO.P,Q1,1*
G04 #@! TO.N,Net-(Q1-Pad1)*
X95000000Y-76950000D03*
G04 #@! TO.P,Q1,2*
G04 #@! TO.N,GND*
X95000000Y-75050000D03*
G04 #@! TO.P,Q1,3*
G04 #@! TO.N,Net-(D3-Pad2)*
X93000000Y-76000000D03*
G04 #@! TD*
G04 #@! TO.P,R9,2*
G04 #@! TO.N,GND*
G04 #@! TA.AperFunction,SMDPad,CuDef*
G36*
G01*
X98950001Y-75600000D02*
X98049999Y-75600000D01*
G75*
G02*
X97800000Y-75350001I0J249999D01*
G01*
X97800000Y-74649999D01*
G75*
G02*
X98049999Y-74400000I249999J0D01*
G01*
X98950001Y-74400000D01*
G75*
G02*
X99200000Y-74649999I0J-249999D01*
G01*
X99200000Y-75350001D01*
G75*
G02*
X98950001Y-75600000I-249999J0D01*
G01*
G37*
G04 #@! TD.AperFunction*
G04 #@! TO.P,R9,1*
G04 #@! TO.N,ESP_PS_ON*
G04 #@! TA.AperFunction,SMDPad,CuDef*
G36*
G01*
X98950001Y-77600000D02*
X98049999Y-77600000D01*
G75*
G02*
X97800000Y-77350001I0J249999D01*
G01*
X97800000Y-76649999D01*
G75*
G02*
X98049999Y-76400000I249999J0D01*
G01*
X98950001Y-76400000D01*
G75*
G02*
X99200000Y-76649999I0J-249999D01*
G01*
X99200000Y-77350001D01*
G75*
G02*
X98950001Y-77600000I-249999J0D01*
G01*
G37*
G04 #@! TD.AperFunction*
G04 #@! TD*
G04 #@! TO.P,R10,1*
G04 #@! TO.N,Net-(Q1-Pad1)*
G04 #@! TA.AperFunction,SMDPad,CuDef*
G36*
G01*
X95900000Y-80450001D02*
X95900000Y-79549999D01*
G75*
G02*
X96149999Y-79300000I249999J0D01*
G01*
X96850001Y-79300000D01*
G75*
G02*
X97100000Y-79549999I0J-249999D01*
G01*
X97100000Y-80450001D01*
G75*
G02*
X96850001Y-80700000I-249999J0D01*
G01*
X96149999Y-80700000D01*
G75*
G02*
X95900000Y-80450001I0J249999D01*
G01*
G37*
G04 #@! TD.AperFunction*
G04 #@! TO.P,R10,2*
G04 #@! TO.N,ESP_PS_ON*
G04 #@! TA.AperFunction,SMDPad,CuDef*
G36*
G01*
X97900000Y-80450001D02*
X97900000Y-79549999D01*
G75*
G02*
X98149999Y-79300000I249999J0D01*
G01*
X98850001Y-79300000D01*
G75*
G02*
X99100000Y-79549999I0J-249999D01*
G01*
X99100000Y-80450001D01*
G75*
G02*
X98850001Y-80700000I-249999J0D01*
G01*
X98149999Y-80700000D01*
G75*
G02*
X97900000Y-80450001I0J249999D01*
G01*
G37*
G04 #@! TD.AperFunction*
G04 #@! TD*
D32*
G04 #@! TO.N,GND*
X101500000Y-76000000D03*
X93000000Y-79499994D03*
X94500000Y-86500000D03*
X86500000Y-99500000D03*
X93500000Y-101500000D03*
X142045398Y-88545398D03*
X157500000Y-90500012D03*
X134525000Y-93475000D03*
X118000000Y-93000000D03*
G04 #@! TO.N,+5V*
X85500000Y-92000000D03*
X169500012Y-104500000D03*
X170000000Y-81500000D03*
G04 #@! TO.N,+3V3*
X102000000Y-92000000D03*
X89000000Y-102000000D03*
X102149990Y-101500000D03*
X114000000Y-88500000D03*
G04 #@! TO.N,ESP_SW2*
X122500000Y-81000000D03*
G04 #@! TO.N,SWITCH_IN*
X170000000Y-95500000D03*
G04 #@! TO.N,DATA_OUT*
X170000000Y-85000000D03*
G04 #@! TO.N,ESP_BOOTL*
X120000006Y-85500000D03*
X128500000Y-84500000D03*
G04 #@! TO.N,ESP_EN*
X114000002Y-79500000D03*
X132117949Y-78281217D03*
G04 #@! TO.N,ESP_RX*
X129499996Y-77499996D03*
G04 #@! TO.N,ESP_TX*
X130500002Y-73999998D03*
G04 #@! TO.N,ESP_RST*
X114000016Y-76500000D03*
X113000000Y-95000000D03*
G04 #@! TO.N,Net-(R4-Pad1)*
X128499990Y-88000000D03*
G04 #@! TO.N,ESP_SW1*
X120000000Y-83000000D03*
X125499996Y-97500000D03*
G04 #@! TO.N,ESP_LED_DATA*
X131000000Y-85000000D03*
G04 #@! TO.N,ESP_IR*
X103500000Y-104499998D03*
X105500000Y-88500014D03*
G04 #@! TO.N,PS_ON*
X80500000Y-83500000D03*
G04 #@! TO.N,ESP_PS_ON*
X107500000Y-86500000D03*
G04 #@! TD*
D33*
G04 #@! TO.N,GND*
X98450000Y-75050000D02*
X98500000Y-75000000D01*
X95000000Y-75050000D02*
X98450000Y-75050000D01*
X98500000Y-75000000D02*
X100500000Y-75000000D01*
X100500000Y-75000000D02*
X101500000Y-76000000D01*
X92500006Y-79499994D02*
X93000000Y-79499994D01*
X92500000Y-79500000D02*
X92500006Y-79499994D01*
X91500000Y-79500000D02*
X92500000Y-79500000D01*
X91250000Y-79750000D02*
X91500000Y-79500000D01*
X89500000Y-79750000D02*
X91250000Y-79750000D01*
D34*
X91410000Y-92552500D02*
X93462500Y-90500000D01*
X91410000Y-93480000D02*
X91410000Y-92552500D01*
X93462500Y-90462500D02*
X93462500Y-90500000D01*
X93500000Y-90462500D02*
X93500000Y-87500000D01*
X93500000Y-87500000D02*
X94500000Y-86500000D01*
X93462500Y-90500000D02*
X93500000Y-90462500D01*
X91390000Y-93500000D02*
X91410000Y-93480000D01*
X89000000Y-93500000D02*
X91390000Y-93500000D01*
D33*
X139475000Y-84960000D02*
X139475000Y-86230000D01*
X142270000Y-86230000D02*
X142500000Y-86000000D01*
X139475000Y-86230000D02*
X142270000Y-86230000D01*
X139475000Y-88770000D02*
X139475000Y-90040000D01*
X130690000Y-91310000D02*
X130500000Y-91500000D01*
X134525000Y-91310000D02*
X130690000Y-91310000D01*
X84000000Y-102000000D02*
X86500000Y-99500000D01*
X97925000Y-101500000D02*
X93500000Y-101500000D01*
X142500000Y-88090796D02*
X142045398Y-88545398D01*
X142500000Y-86000000D02*
X142500000Y-88090796D01*
X139475000Y-88770000D02*
X141820796Y-88770000D01*
X141820796Y-88770000D02*
X142045398Y-88545398D01*
X159750000Y-87500000D02*
X158600000Y-87500000D01*
X157500000Y-91900000D02*
X157500000Y-90500012D01*
X158600000Y-87500000D02*
X157500000Y-88600000D01*
X157500000Y-88600000D02*
X157500000Y-90500012D01*
X159750000Y-93000000D02*
X158600000Y-93000000D01*
X158600000Y-93000000D02*
X157500000Y-91900000D01*
X134525000Y-91310000D02*
X134525000Y-93475000D01*
D34*
X118000000Y-90500000D02*
X118000000Y-93000000D01*
G04 #@! TO.N,+5V*
X89580000Y-98080000D02*
X91410000Y-98080000D01*
X89000000Y-97500000D02*
X89580000Y-98080000D01*
X89000000Y-95575000D02*
X89000000Y-97500000D01*
X85500000Y-94725000D02*
X85500000Y-92000000D01*
X86350000Y-95575000D02*
X85500000Y-94725000D01*
X89000000Y-95575000D02*
X86350000Y-95575000D01*
D33*
X142265000Y-83690000D02*
X142500000Y-83925000D01*
X139475000Y-83690000D02*
X142265000Y-83690000D01*
X162000000Y-80500000D02*
X145925000Y-80500000D01*
X145925000Y-80500000D02*
X142500000Y-83925000D01*
X163250000Y-81750000D02*
X162000000Y-80500000D01*
X163250000Y-82500000D02*
X163250000Y-81750000D01*
X85500000Y-79750000D02*
X85500000Y-92000000D01*
D35*
X82500000Y-107500000D02*
X166500012Y-107500000D01*
X85500000Y-92000000D02*
X85500000Y-96564002D01*
X85500000Y-96564002D02*
X81000000Y-101064002D01*
X81000000Y-101064002D02*
X81000000Y-106000000D01*
X81000000Y-106000000D02*
X82500000Y-107500000D01*
X166500012Y-107500000D02*
X169500012Y-104500000D01*
D33*
X168500000Y-103499988D02*
X169500012Y-104500000D01*
X168500000Y-101000000D02*
X168500000Y-103499988D01*
X165500000Y-98000000D02*
X168500000Y-101000000D01*
X163250000Y-98000000D02*
X165500000Y-98000000D01*
X169000000Y-82500000D02*
X170000000Y-81500000D01*
X163250000Y-82500000D02*
X169000000Y-82500000D01*
X136810000Y-83690000D02*
X134525000Y-83690000D01*
X139475000Y-83690000D02*
X136810000Y-83690000D01*
X136810000Y-86190000D02*
X136810000Y-83690000D01*
X135500000Y-87500000D02*
X136810000Y-86190000D01*
X134525000Y-87500000D02*
X135500000Y-87500000D01*
D34*
G04 #@! TO.N,+3V3*
X97710000Y-93710000D02*
X97710000Y-95780000D01*
X95537500Y-91537500D02*
X97710000Y-93710000D01*
X95537500Y-90500000D02*
X95537500Y-91537500D01*
D33*
X118000000Y-76500000D02*
X118000000Y-79500000D01*
X116000000Y-83000000D02*
X116000000Y-85500000D01*
X116000000Y-90425000D02*
X115925000Y-90500000D01*
X116000000Y-85500000D02*
X116000000Y-90425000D01*
D34*
X102000000Y-94000000D02*
X102000000Y-92000000D01*
X100000000Y-96000000D02*
X102000000Y-94000000D01*
X97930000Y-96000000D02*
X100000000Y-96000000D01*
X97710000Y-95780000D02*
X97930000Y-96000000D01*
D33*
X86075000Y-102000000D02*
X89000000Y-102000000D01*
X100000000Y-101500000D02*
X102149990Y-101500000D01*
X100000000Y-96000000D02*
X100000000Y-101500000D01*
D34*
X94220000Y-95780000D02*
X97710000Y-95780000D01*
X91410000Y-95780000D02*
X94220000Y-95780000D01*
D33*
X94220000Y-99280000D02*
X94220000Y-95780000D01*
X93350001Y-100149999D02*
X94220000Y-99280000D01*
X90850001Y-100149999D02*
X93350001Y-100149999D01*
X89000000Y-102000000D02*
X90850001Y-100149999D01*
X116000000Y-82500000D02*
X116000000Y-83000000D01*
X118000000Y-80500000D02*
X116000000Y-82500000D01*
X118000000Y-79500000D02*
X118000000Y-80500000D01*
D34*
X115000000Y-90500000D02*
X115925000Y-90500000D01*
X114000000Y-89500000D02*
X115000000Y-90500000D01*
X114000000Y-88500000D02*
X114000000Y-89500000D01*
D33*
G04 #@! TO.N,5V_LED_DATA*
X145500000Y-82500000D02*
X159750000Y-82500000D01*
X144500000Y-83500000D02*
X145500000Y-82500000D01*
X144500000Y-89000000D02*
X144500000Y-83500000D01*
X141000000Y-92500000D02*
X144500000Y-89000000D01*
X137960000Y-92500000D02*
X141000000Y-92500000D01*
X135500000Y-90040000D02*
X137960000Y-92500000D01*
X134525000Y-90040000D02*
X135500000Y-90040000D01*
X165000000Y-87500000D02*
X163250000Y-87500000D01*
X166000000Y-86500000D02*
X165000000Y-87500000D01*
X166000000Y-85000000D02*
X166000000Y-86500000D01*
X159750000Y-83250000D02*
X159750000Y-82500000D01*
X163250000Y-86750000D02*
X159750000Y-83250000D01*
X163250000Y-87500000D02*
X163250000Y-86750000D01*
G04 #@! TO.N,ESP_SW2*
X166000000Y-94000000D02*
X165000000Y-93000000D01*
X165000000Y-93000000D02*
X163250000Y-93000000D01*
X166000000Y-95500000D02*
X166000000Y-94000000D01*
X159750000Y-97250000D02*
X159750000Y-98000000D01*
X163250000Y-93750000D02*
X159750000Y-97250000D01*
X163250000Y-93000000D02*
X163250000Y-93750000D01*
X158000000Y-98000000D02*
X159750000Y-98000000D01*
X155500000Y-95500000D02*
X158000000Y-98000000D01*
X127500000Y-95500000D02*
X155500000Y-95500000D01*
X122500000Y-90500000D02*
X127500000Y-95500000D01*
X122500000Y-81000000D02*
X122500000Y-90500000D01*
G04 #@! TO.N,SWITCH_IN*
X168000000Y-95500000D02*
X170000000Y-95500000D01*
G04 #@! TO.N,DATA_OUT*
X168000000Y-85000000D02*
X170000000Y-85000000D01*
G04 #@! TO.N,ESP_BOOTL*
X118000000Y-85500000D02*
X120000006Y-85500000D01*
X130000000Y-80000000D02*
X135000000Y-80000000D01*
X128500000Y-81500000D02*
X130000000Y-80000000D01*
X128500000Y-84500000D02*
X128500000Y-81500000D01*
G04 #@! TO.N,ESP_EN*
X116000000Y-79500000D02*
X114000002Y-79500000D01*
X132399166Y-78000000D02*
X132117949Y-78281217D01*
X135000000Y-78000000D02*
X132399166Y-78000000D01*
G04 #@! TO.N,ESP_RX*
X130999992Y-76000000D02*
X129499996Y-77499996D01*
X135000000Y-76000000D02*
X130999992Y-76000000D01*
G04 #@! TO.N,ESP_TX*
X135000000Y-74000000D02*
X130500005Y-74000001D01*
X130500005Y-74000001D02*
X130500002Y-73999998D01*
G04 #@! TO.N,ESP_RST*
X116000000Y-76500000D02*
X114000016Y-76500000D01*
X112940000Y-97520000D02*
X113000000Y-97460000D01*
X112500000Y-94500000D02*
X113000000Y-95000000D01*
X112500000Y-78000016D02*
X112500000Y-95000000D01*
X114000016Y-76500000D02*
X112500000Y-78000016D01*
G04 #@! TO.N,Net-(R4-Pad1)*
X130500000Y-89000000D02*
X130500000Y-89500000D01*
X129500000Y-88000000D02*
X130500000Y-89000000D01*
X128500000Y-88000000D02*
X129500000Y-88000000D01*
G04 #@! TO.N,ESP_SW1*
X118000000Y-83000000D02*
X120000000Y-83000000D01*
X121500000Y-91000000D02*
X125499996Y-94999996D01*
X125499996Y-94999996D02*
X125499996Y-97500000D01*
X121500000Y-84500000D02*
X121500000Y-91000000D01*
X120000000Y-83000000D02*
X121500000Y-84500000D01*
G04 #@! TO.N,ESP_LED_DATA*
X134485000Y-85000000D02*
X134525000Y-84960000D01*
X131000000Y-85000000D02*
X134485000Y-85000000D01*
G04 #@! TO.N,Net-(U2-Pad3)*
X133520000Y-86230000D02*
X134525000Y-86230000D01*
X133000000Y-86750000D02*
X133520000Y-86230000D01*
X133000000Y-88220000D02*
X133000000Y-86750000D01*
X133550000Y-88770000D02*
X133000000Y-88220000D01*
X134525000Y-88770000D02*
X133550000Y-88770000D01*
G04 #@! TO.N,ESP_IR*
X103500000Y-104499998D02*
X103500000Y-90500014D01*
X103500000Y-90500014D02*
X105500000Y-88500014D01*
G04 #@! TO.N,Net-(D3-Pad2)*
X85250000Y-76000000D02*
X85500000Y-76250000D01*
X82500000Y-76000000D02*
X85250000Y-76000000D01*
X82000000Y-76500000D02*
X82500000Y-76000000D01*
X85500000Y-76250000D02*
X89500000Y-76250000D01*
X92750000Y-76250000D02*
X93000000Y-76000000D01*
X89500000Y-76250000D02*
X92750000Y-76250000D01*
G04 #@! TO.N,PS_ON*
X80500000Y-82500000D02*
X80500000Y-83500000D01*
X82000000Y-81000000D02*
X80500000Y-82500000D01*
X82000000Y-78500000D02*
X82000000Y-81000000D01*
G04 #@! TO.N,Net-(Q1-Pad1)*
X96500000Y-78450000D02*
X95000000Y-76950000D01*
X96500000Y-80000000D02*
X96500000Y-78450000D01*
G04 #@! TO.N,ESP_PS_ON*
X98500000Y-77000000D02*
X98500000Y-80000000D01*
X101000000Y-80000000D02*
X107500000Y-86500000D01*
X98500000Y-80000000D02*
X101000000Y-80000000D01*
G04 #@! TD*
D36*
X101500000Y-76000000D03*
X93000000Y-79499994D03*
X94500000Y-86500000D03*
X86500000Y-99500000D03*
X93500000Y-101500000D03*
X142045398Y-88545398D03*
X157500000Y-90500012D03*
X134525000Y-93475000D03*
X118000000Y-93000000D03*
X85500000Y-92000000D03*
X169500012Y-104500000D03*
X170000000Y-81500000D03*
X102000000Y-92000000D03*
X89000000Y-102000000D03*
X102149990Y-101500000D03*
X114000000Y-88500000D03*
X122500000Y-81000000D03*
X170000000Y-95500000D03*
X170000000Y-85000000D03*
X120000006Y-85500000D03*
X128500000Y-84500000D03*
X114000002Y-79500000D03*
X132117949Y-78281217D03*
X129499996Y-77499996D03*
X130500002Y-73999998D03*
X114000016Y-76500000D03*
X113000000Y-95000000D03*
X128499990Y-88000000D03*
X120000000Y-83000000D03*
X125499996Y-97500000D03*
X131000000Y-85000000D03*
X103500000Y-104499998D03*
X105500000Y-88500014D03*
X80500000Y-83500000D03*
X107500000Y-86500000D03*
X125000000Y-76500000D03*
X125000000Y-78500000D03*
X125000000Y-80500000D03*
X125000000Y-82500000D03*
X125000000Y-84500000D03*
X125000000Y-86500000D03*
X125000000Y-88500000D03*
X125000000Y-90500000D03*
X111000000Y-90500000D03*
X111000000Y-88500000D03*
X111000000Y-86500000D03*
X111000000Y-84500000D03*
X111000000Y-82500000D03*
X111000000Y-80500000D03*
X111000000Y-78500000D03*
X111000000Y-76500000D03*
X150000000Y-90000000D03*
X176000000Y-106000000D03*
X176000000Y-74000000D03*
X74000000Y-106000000D03*
X74000000Y-74000000D03*
X90500000Y-86500000D03*
X87000000Y-86500000D03*
X102000000Y-86500000D03*
X98500000Y-86500000D03*
X81500000Y-87000000D03*
X81500000Y-97160000D03*
X75120000Y-84820000D03*
X75120000Y-88320000D03*
X75120000Y-91820000D03*
X75120000Y-95320000D03*
X175000000Y-99000000D03*
X175000000Y-95500000D03*
X175000000Y-92000000D03*
X175000000Y-88500000D03*
X175000000Y-85000000D03*
X175000000Y-81500000D03*
X135000000Y-80000000D03*
X135000000Y-78000000D03*
X135000000Y-76000000D03*
X135000000Y-74000000D03*
X135000000Y-72000000D03*
X128180000Y-102020000D03*
X128180000Y-97520000D03*
X134680000Y-102020000D03*
X134680000Y-97520000D03*
X112940000Y-102020000D03*
X112940000Y-97520000D03*
X119440000Y-102020000D03*
X119440000Y-97520000D03*
X95000000Y-104140000D03*
X97540000Y-104140000D03*
X100080000Y-104140000D03*
X84000000Y-105000000D03*
X86540000Y-105000000D03*
X91620000Y-105000000D03*
M02*
