G04 #@! TF.GenerationSoftware,KiCad,Pcbnew,5.1.10-6.fc34*
G04 #@! TF.CreationDate,2021-10-28T01:07:33+02:00*
G04 #@! TF.ProjectId,wled-controller,776c6564-2d63-46f6-9e74-726f6c6c6572,rev?*
G04 #@! TF.SameCoordinates,Original*
G04 #@! TF.FileFunction,Copper,L2,Bot*
G04 #@! TF.FilePolarity,Positive*
%FSLAX46Y46*%
G04 Gerber Fmt 4.6, Leading zero omitted, Abs format (unit mm)*
G04 Created by KiCad (PCBNEW 5.1.10-6.fc34) date 2021-10-28 01:07:33*
%MOMM*%
%LPD*%
G01*
G04 APERTURE LIST*
G04 #@! TA.AperFunction,ComponentPad*
%ADD10C,2.000000*%
G04 #@! TD*
G04 #@! TA.AperFunction,ComponentPad*
%ADD11O,2.500000X1.100000*%
G04 #@! TD*
G04 #@! TA.AperFunction,ComponentPad*
%ADD12R,2.500000X1.100000*%
G04 #@! TD*
G04 #@! TA.AperFunction,ComponentPad*
%ADD13C,1.600000*%
G04 #@! TD*
G04 #@! TA.AperFunction,ComponentPad*
%ADD14R,1.600000X1.600000*%
G04 #@! TD*
G04 #@! TA.AperFunction,ComponentPad*
%ADD15R,2.200000X2.200000*%
G04 #@! TD*
G04 #@! TA.AperFunction,ComponentPad*
%ADD16O,2.200000X2.200000*%
G04 #@! TD*
G04 #@! TA.AperFunction,ComponentPad*
%ADD17R,2.400000X2.400000*%
G04 #@! TD*
G04 #@! TA.AperFunction,ComponentPad*
%ADD18C,2.400000*%
G04 #@! TD*
G04 #@! TA.AperFunction,ComponentPad*
%ADD19C,1.800000*%
G04 #@! TD*
G04 #@! TA.AperFunction,ComponentPad*
%ADD20C,1.400000*%
G04 #@! TD*
G04 #@! TA.AperFunction,ComponentPad*
%ADD21R,1.700000X1.700000*%
G04 #@! TD*
G04 #@! TA.AperFunction,ComponentPad*
%ADD22O,1.700000X1.700000*%
G04 #@! TD*
G04 #@! TA.AperFunction,ViaPad*
%ADD23C,1.800000*%
G04 #@! TD*
G04 #@! TA.AperFunction,Conductor*
%ADD24C,2.000000*%
G04 #@! TD*
G04 #@! TA.AperFunction,Conductor*
%ADD25C,1.000000*%
G04 #@! TD*
G04 #@! TA.AperFunction,Conductor*
%ADD26C,0.500000*%
G04 #@! TD*
G04 #@! TA.AperFunction,Conductor*
%ADD27C,0.254000*%
G04 #@! TD*
G04 #@! TA.AperFunction,Conductor*
%ADD28C,0.350000*%
G04 #@! TD*
%ADD29C,0.350000*%
G04 APERTURE END LIST*
D10*
G04 #@! TO.P,SW1,2*
G04 #@! TO.N,GND*
X122000000Y-102000000D03*
G04 #@! TO.P,SW1,1*
G04 #@! TO.N,ESP_SW1*
X122000000Y-97500000D03*
G04 #@! TO.P,SW1,2*
G04 #@! TO.N,GND*
X128500000Y-102000000D03*
G04 #@! TO.P,SW1,1*
G04 #@! TO.N,ESP_SW1*
X128500000Y-97500000D03*
G04 #@! TD*
D11*
G04 #@! TO.P,U3,16*
G04 #@! TO.N,ESP_TX*
X125700000Y-76500000D03*
G04 #@! TO.P,U3,15*
G04 #@! TO.N,ESP_RX*
X125700000Y-78500000D03*
G04 #@! TO.P,U3,14*
G04 #@! TO.N,ESP_SW2*
X125700000Y-80500000D03*
G04 #@! TO.P,U3,13*
G04 #@! TO.N,ESP_SW1*
X125700000Y-82500000D03*
G04 #@! TO.P,U3,12*
G04 #@! TO.N,ESP_BOOTL*
X125700000Y-84500000D03*
G04 #@! TO.P,U3,11*
G04 #@! TO.N,ESP_LED_DATA*
X125700000Y-86500000D03*
G04 #@! TO.P,U3,10*
G04 #@! TO.N,Net-(R4-Pad1)*
X125700000Y-88500000D03*
G04 #@! TO.P,U3,9*
G04 #@! TO.N,GND*
X125700000Y-90500000D03*
G04 #@! TO.P,U3,8*
G04 #@! TO.N,+3V3*
X110300000Y-90500000D03*
G04 #@! TO.P,U3,7*
G04 #@! TO.N,ESP_IR*
X110300000Y-88500000D03*
G04 #@! TO.P,U3,6*
G04 #@! TO.N,ESP_PS_ON*
X110300000Y-86500000D03*
G04 #@! TO.P,U3,5*
G04 #@! TO.N,Net-(U3-Pad5)*
X110300000Y-84500000D03*
G04 #@! TO.P,U3,4*
G04 #@! TO.N,Net-(U3-Pad4)*
X110300000Y-82500000D03*
G04 #@! TO.P,U3,3*
G04 #@! TO.N,ESP_EN*
X110300000Y-80500000D03*
G04 #@! TO.P,U3,2*
G04 #@! TO.N,Net-(U3-Pad2)*
X110300000Y-78500000D03*
D12*
G04 #@! TO.P,U3,1*
G04 #@! TO.N,ESP_RST*
X110300000Y-76500000D03*
G04 #@! TD*
D13*
G04 #@! TO.P,C1,2*
G04 #@! TO.N,GND*
X90500000Y-86500000D03*
D14*
G04 #@! TO.P,C1,1*
G04 #@! TO.N,+5V*
X87000000Y-86500000D03*
G04 #@! TD*
G04 #@! TO.P,C4,1*
G04 #@! TO.N,+3V3*
X102000000Y-86500000D03*
D13*
G04 #@! TO.P,C4,2*
G04 #@! TO.N,GND*
X98500000Y-86500000D03*
G04 #@! TD*
D15*
G04 #@! TO.P,D1,1*
G04 #@! TO.N,+5V*
X81500000Y-87000000D03*
D16*
G04 #@! TO.P,D1,2*
G04 #@! TO.N,Net-(D1-Pad2)*
X81500000Y-97160000D03*
G04 #@! TD*
D17*
G04 #@! TO.P,J1,1*
G04 #@! TO.N,PS_ON*
X75120000Y-84820000D03*
D18*
G04 #@! TO.P,J1,2*
G04 #@! TO.N,GND*
X75120000Y-88320000D03*
G04 #@! TO.P,J1,3*
X75120000Y-91820000D03*
G04 #@! TO.P,J1,4*
G04 #@! TO.N,Net-(D1-Pad2)*
X75120000Y-95320000D03*
G04 #@! TD*
D17*
G04 #@! TO.P,J2,1*
G04 #@! TO.N,+5V*
X165000000Y-99000000D03*
D18*
G04 #@! TO.P,J2,2*
G04 #@! TO.N,SWITCH_IN*
X165000000Y-95500000D03*
G04 #@! TO.P,J2,3*
G04 #@! TO.N,GND*
X165000000Y-92000000D03*
G04 #@! TO.P,J2,4*
X165000000Y-88500000D03*
G04 #@! TO.P,J2,5*
G04 #@! TO.N,DATA_OUT*
X165000000Y-85000000D03*
G04 #@! TO.P,J2,6*
G04 #@! TO.N,+5V*
X165000000Y-81500000D03*
G04 #@! TD*
G04 #@! TO.P,U4,1*
G04 #@! TO.N,ESP_IR*
G04 #@! TA.AperFunction,ComponentPad*
G36*
G01*
X94100000Y-104791600D02*
X94100000Y-103488400D01*
G75*
G02*
X94348400Y-103240000I248400J0D01*
G01*
X95651600Y-103240000D01*
G75*
G02*
X95900000Y-103488400I0J-248400D01*
G01*
X95900000Y-104791600D01*
G75*
G02*
X95651600Y-105040000I-248400J0D01*
G01*
X94348400Y-105040000D01*
G75*
G02*
X94100000Y-104791600I0J248400D01*
G01*
G37*
G04 #@! TD.AperFunction*
D19*
G04 #@! TO.P,U4,2*
G04 #@! TO.N,GND*
X97540000Y-104140000D03*
G04 #@! TO.P,U4,3*
G04 #@! TO.N,+3V3*
X100080000Y-104140000D03*
G04 #@! TD*
G04 #@! TO.P,U5,1*
G04 #@! TO.N,GND*
G04 #@! TA.AperFunction,ComponentPad*
G36*
G01*
X83300000Y-105450800D02*
X83300000Y-104549200D01*
G75*
G02*
X83549200Y-104300000I249200J0D01*
G01*
X84450800Y-104300000D01*
G75*
G02*
X84700000Y-104549200I0J-249200D01*
G01*
X84700000Y-105450800D01*
G75*
G02*
X84450800Y-105700000I-249200J0D01*
G01*
X83549200Y-105700000D01*
G75*
G02*
X83300000Y-105450800I0J249200D01*
G01*
G37*
G04 #@! TD.AperFunction*
D20*
G04 #@! TO.P,U5,2*
G04 #@! TO.N,+3V3*
X86540000Y-105000000D03*
G04 #@! TO.P,U5,3*
G04 #@! TO.N,ESP_IR*
X91620000Y-105000000D03*
G04 #@! TD*
D21*
G04 #@! TO.P,J3,1*
G04 #@! TO.N,ESP_BOOTL*
X145580000Y-73500000D03*
D22*
G04 #@! TO.P,J3,2*
G04 #@! TO.N,ESP_EN*
X143040000Y-73500000D03*
G04 #@! TO.P,J3,3*
G04 #@! TO.N,ESP_RX*
X140500000Y-73500000D03*
G04 #@! TO.P,J3,4*
G04 #@! TO.N,ESP_TX*
X137960000Y-73500000D03*
G04 #@! TO.P,J3,5*
G04 #@! TO.N,GND*
X135420000Y-73500000D03*
G04 #@! TD*
D10*
G04 #@! TO.P,SW2,2*
G04 #@! TO.N,GND*
X110500000Y-102000000D03*
G04 #@! TO.P,SW2,1*
G04 #@! TO.N,ESP_RST*
X110500000Y-97500000D03*
G04 #@! TO.P,SW2,2*
G04 #@! TO.N,GND*
X117000000Y-102000000D03*
G04 #@! TO.P,SW2,1*
G04 #@! TO.N,ESP_RST*
X117000000Y-97500000D03*
G04 #@! TD*
D23*
G04 #@! TO.N,GND*
X101500000Y-76000000D03*
X93000000Y-79499994D03*
X86500000Y-99500000D03*
X93500000Y-101500000D03*
X158045398Y-77045398D03*
X118000000Y-93000000D03*
X94499990Y-87630000D03*
X150000002Y-90000000D03*
X132000000Y-93000000D03*
X148189992Y-79810000D03*
G04 #@! TO.N,+5V*
X85500000Y-92000000D03*
X159500012Y-104500000D03*
X160000000Y-81500000D03*
G04 #@! TO.N,+3V3*
X102000000Y-92000000D03*
X89000000Y-102000000D03*
X102149990Y-101500000D03*
X114000000Y-88500000D03*
G04 #@! TO.N,ESP_SW2*
X122500000Y-81000000D03*
G04 #@! TO.N,SWITCH_IN*
X160000000Y-95500000D03*
G04 #@! TO.N,DATA_OUT*
X160000000Y-85000000D03*
G04 #@! TO.N,ESP_BOOTL*
X120000006Y-85500000D03*
G04 #@! TO.N,ESP_EN*
X114000002Y-79500000D03*
G04 #@! TO.N,ESP_RST*
X114000016Y-76500000D03*
X110500000Y-94000000D03*
G04 #@! TO.N,Net-(R4-Pad1)*
X129000000Y-89000000D03*
G04 #@! TO.N,ESP_SW1*
X120000000Y-83000000D03*
X122000000Y-94500000D03*
G04 #@! TO.N,ESP_LED_DATA*
X128500002Y-86500000D03*
G04 #@! TO.N,ESP_IR*
X103500000Y-104499998D03*
X105500000Y-88500014D03*
G04 #@! TO.N,PS_ON*
X80500000Y-83500000D03*
G04 #@! TO.N,ESP_PS_ON*
X107500000Y-86500000D03*
G04 #@! TD*
D24*
G04 #@! TO.N,+5V*
X82000000Y-86500000D02*
X87000000Y-86500000D01*
D25*
X81500000Y-87000000D02*
X82000000Y-86500000D01*
D24*
X87000000Y-90500000D02*
X87000000Y-86500000D01*
X85500000Y-92000000D02*
X87000000Y-90500000D01*
X159500012Y-104499988D02*
X159500012Y-104500000D01*
X160500000Y-103500000D02*
X159500012Y-104499988D01*
X160500000Y-101000000D02*
X160500000Y-103500000D01*
X162500000Y-99000000D02*
X160500000Y-101000000D01*
X165000000Y-99000000D02*
X162500000Y-99000000D01*
X166500000Y-81500000D02*
X165000000Y-81500000D01*
X168000000Y-83000000D02*
X166500000Y-81500000D01*
X168000000Y-97500000D02*
X168000000Y-83000000D01*
X166500000Y-99000000D02*
X168000000Y-97500000D01*
X165000000Y-99000000D02*
X166500000Y-99000000D01*
D26*
X160000000Y-81500000D02*
X165000000Y-81500000D01*
D25*
G04 #@! TO.N,+3V3*
X102000000Y-86500000D02*
X102000000Y-92000000D01*
D26*
X87520000Y-105000000D02*
X86540000Y-105000000D01*
X89000000Y-103520000D02*
X87520000Y-105000000D01*
X89000000Y-102000000D02*
X89000000Y-103520000D01*
X102149990Y-102070010D02*
X102149990Y-101500000D01*
X100080000Y-104140000D02*
X102149990Y-102070010D01*
D25*
X107000000Y-90500000D02*
X111000000Y-90500000D01*
X111000000Y-90500000D02*
X112000000Y-90500000D01*
X112000000Y-90500000D02*
X114000000Y-88500000D01*
X105500000Y-92000000D02*
X107000000Y-90500000D01*
X102000000Y-92000000D02*
X105500000Y-92000000D01*
D24*
G04 #@! TO.N,Net-(D1-Pad2)*
X79660000Y-95320000D02*
X81500000Y-97160000D01*
X75120000Y-95320000D02*
X79660000Y-95320000D01*
D26*
G04 #@! TO.N,ESP_SW2*
X123000000Y-80500000D02*
X125000000Y-80500000D01*
X122500000Y-81000000D02*
X123000000Y-80500000D01*
G04 #@! TO.N,SWITCH_IN*
X160000000Y-95500000D02*
X165000000Y-95500000D01*
G04 #@! TO.N,DATA_OUT*
X160000000Y-85000000D02*
X165000000Y-85000000D01*
G04 #@! TO.N,ESP_BOOTL*
X121000006Y-84500000D02*
X120000006Y-85500000D01*
X125000000Y-84500000D02*
X121000006Y-84500000D01*
X139580000Y-79500000D02*
X145580000Y-73500000D01*
X130000000Y-79500000D02*
X139580000Y-79500000D01*
X128000000Y-81500000D02*
X130000000Y-79500000D01*
X128000000Y-83500000D02*
X128000000Y-81500000D01*
X127000000Y-84500000D02*
X128000000Y-83500000D01*
X125000000Y-84500000D02*
X127000000Y-84500000D01*
G04 #@! TO.N,ESP_EN*
X111000000Y-80500000D02*
X113000002Y-80500000D01*
X113000002Y-80500000D02*
X114000002Y-79500000D01*
X143000000Y-73500000D02*
X143040000Y-73500000D01*
X138000000Y-78500000D02*
X143000000Y-73500000D01*
X129500000Y-78500000D02*
X138000000Y-78500000D01*
X128500000Y-79500000D02*
X129500000Y-78500000D01*
X114000002Y-79500000D02*
X128500000Y-79500000D01*
G04 #@! TO.N,ESP_RX*
X136500000Y-77500000D02*
X140500000Y-73500000D01*
X129000000Y-77500000D02*
X136500000Y-77500000D01*
X128000000Y-78500000D02*
X129000000Y-77500000D01*
X125000000Y-78500000D02*
X128000000Y-78500000D01*
G04 #@! TO.N,ESP_TX*
X125000000Y-76500000D02*
X134960000Y-76500000D01*
X134960000Y-76500000D02*
X137960000Y-73500000D01*
G04 #@! TO.N,ESP_RST*
X111000000Y-76500000D02*
X114000016Y-76500000D01*
X110500000Y-94000000D02*
X110500000Y-97500000D01*
X110500000Y-97500000D02*
X117000000Y-97500000D01*
G04 #@! TO.N,Net-(R4-Pad1)*
X128500000Y-88500000D02*
X125000000Y-88500000D01*
X129000000Y-89000000D02*
X128500000Y-88500000D01*
G04 #@! TO.N,ESP_SW1*
X120500000Y-82500000D02*
X120000000Y-83000000D01*
X125000000Y-82500000D02*
X120500000Y-82500000D01*
X122000000Y-94500000D02*
X122000000Y-97500000D01*
X122000000Y-97500000D02*
X128500000Y-97500000D01*
G04 #@! TO.N,ESP_LED_DATA*
X125000000Y-86500000D02*
X128500002Y-86500000D01*
G04 #@! TO.N,ESP_IR*
X92480000Y-104140000D02*
X91620000Y-105000000D01*
X95000000Y-104140000D02*
X92480000Y-104140000D01*
X101499998Y-106500000D02*
X103500000Y-104499998D01*
X96000000Y-106500000D02*
X101499998Y-106500000D01*
X95000000Y-105500000D02*
X96000000Y-106500000D01*
X95000000Y-104140000D02*
X95000000Y-105500000D01*
X111000000Y-88500000D02*
X105500014Y-88500000D01*
X105500014Y-88500000D02*
X105500000Y-88500014D01*
G04 #@! TO.N,PS_ON*
X76440000Y-83500000D02*
X75120000Y-84820000D01*
X80500000Y-83500000D02*
X76440000Y-83500000D01*
G04 #@! TO.N,ESP_PS_ON*
X111000000Y-86500000D02*
X107500000Y-86500000D01*
G04 #@! TD*
D27*
G04 #@! TO.N,GND*
X102670189Y-71144376D02*
X102833850Y-71194022D01*
X102984672Y-71274638D01*
X103116870Y-71383130D01*
X103225362Y-71515328D01*
X103305978Y-71666150D01*
X103355624Y-71829811D01*
X103373000Y-72006234D01*
X103373000Y-75000000D01*
X103373612Y-75012448D01*
X103392827Y-75207538D01*
X103397683Y-75231956D01*
X103454588Y-75419549D01*
X103464116Y-75442550D01*
X103556526Y-75615437D01*
X103570358Y-75636138D01*
X103694721Y-75787675D01*
X103712325Y-75805279D01*
X103863862Y-75929642D01*
X103884563Y-75943474D01*
X104057450Y-76035884D01*
X104080451Y-76045412D01*
X104268044Y-76102317D01*
X104292462Y-76107173D01*
X104487552Y-76126388D01*
X104500000Y-76127000D01*
X108411928Y-76127000D01*
X108411928Y-77050000D01*
X108424188Y-77174482D01*
X108460498Y-77294180D01*
X108519463Y-77404494D01*
X108598815Y-77501185D01*
X108695506Y-77580537D01*
X108790544Y-77631337D01*
X108758025Y-77658025D01*
X108609942Y-77838464D01*
X108499906Y-78044326D01*
X108432147Y-78267700D01*
X108409267Y-78500000D01*
X108432147Y-78732300D01*
X108499906Y-78955674D01*
X108609942Y-79161536D01*
X108758025Y-79341975D01*
X108938464Y-79490058D01*
X108957064Y-79500000D01*
X108938464Y-79509942D01*
X108758025Y-79658025D01*
X108609942Y-79838464D01*
X108499906Y-80044326D01*
X108432147Y-80267700D01*
X108409267Y-80500000D01*
X108432147Y-80732300D01*
X108499906Y-80955674D01*
X108609942Y-81161536D01*
X108758025Y-81341975D01*
X108938464Y-81490058D01*
X108957064Y-81500000D01*
X108938464Y-81509942D01*
X108758025Y-81658025D01*
X108609942Y-81838464D01*
X108499906Y-82044326D01*
X108432147Y-82267700D01*
X108409267Y-82500000D01*
X108432147Y-82732300D01*
X108499906Y-82955674D01*
X108609942Y-83161536D01*
X108758025Y-83341975D01*
X108938464Y-83490058D01*
X108957064Y-83500000D01*
X108938464Y-83509942D01*
X108758025Y-83658025D01*
X108609942Y-83838464D01*
X108499906Y-84044326D01*
X108432147Y-84267700D01*
X108409267Y-84500000D01*
X108432147Y-84732300D01*
X108499906Y-84955674D01*
X108609942Y-85161536D01*
X108758025Y-85341975D01*
X108938464Y-85490058D01*
X108957064Y-85500000D01*
X108938464Y-85509942D01*
X108810451Y-85615000D01*
X108754790Y-85615000D01*
X108692312Y-85521495D01*
X108478505Y-85307688D01*
X108227095Y-85139701D01*
X107947743Y-85023989D01*
X107651184Y-84965000D01*
X107348816Y-84965000D01*
X107052257Y-85023989D01*
X106772905Y-85139701D01*
X106521495Y-85307688D01*
X106307688Y-85521495D01*
X106139701Y-85772905D01*
X106023989Y-86052257D01*
X105965000Y-86348816D01*
X105965000Y-86651184D01*
X106023989Y-86947743D01*
X106077911Y-87077920D01*
X105947743Y-87024003D01*
X105651184Y-86965014D01*
X105348816Y-86965014D01*
X105052257Y-87024003D01*
X104772905Y-87139715D01*
X104521495Y-87307702D01*
X104307688Y-87521509D01*
X104139701Y-87772919D01*
X104023989Y-88052271D01*
X103965000Y-88348830D01*
X103965000Y-88651198D01*
X104023989Y-88947757D01*
X104139701Y-89227109D01*
X104307688Y-89478519D01*
X104521495Y-89692326D01*
X104772905Y-89860313D01*
X105052257Y-89976025D01*
X105348816Y-90035014D01*
X105651184Y-90035014D01*
X105911667Y-89983201D01*
X105029869Y-90865000D01*
X103135000Y-90865000D01*
X103135000Y-87840957D01*
X103154494Y-87830537D01*
X103251185Y-87751185D01*
X103330537Y-87654494D01*
X103389502Y-87544180D01*
X103425812Y-87424482D01*
X103438072Y-87300000D01*
X103438072Y-85700000D01*
X103425812Y-85575518D01*
X103389502Y-85455820D01*
X103330537Y-85345506D01*
X103251185Y-85248815D01*
X103154494Y-85169463D01*
X103044180Y-85110498D01*
X102924482Y-85074188D01*
X102800000Y-85061928D01*
X101200000Y-85061928D01*
X101075518Y-85074188D01*
X100955820Y-85110498D01*
X100845506Y-85169463D01*
X100748815Y-85248815D01*
X100669463Y-85345506D01*
X100610498Y-85455820D01*
X100574188Y-85575518D01*
X100561928Y-85700000D01*
X100561928Y-87300000D01*
X100574188Y-87424482D01*
X100610498Y-87544180D01*
X100669463Y-87654494D01*
X100748815Y-87751185D01*
X100845506Y-87830537D01*
X100865000Y-87840957D01*
X100865001Y-90964182D01*
X100807688Y-91021495D01*
X100639701Y-91272905D01*
X100523989Y-91552257D01*
X100465000Y-91848816D01*
X100465000Y-92151184D01*
X100523989Y-92447743D01*
X100639701Y-92727095D01*
X100807688Y-92978505D01*
X101021495Y-93192312D01*
X101272905Y-93360299D01*
X101552257Y-93476011D01*
X101848816Y-93535000D01*
X102151184Y-93535000D01*
X102447743Y-93476011D01*
X102727095Y-93360299D01*
X102978505Y-93192312D01*
X103035817Y-93135000D01*
X105444249Y-93135000D01*
X105500000Y-93140491D01*
X105555751Y-93135000D01*
X105555752Y-93135000D01*
X105722499Y-93118577D01*
X105936447Y-93053676D01*
X106133623Y-92948284D01*
X106306449Y-92806449D01*
X106341996Y-92763135D01*
X107470132Y-91635000D01*
X109259397Y-91635000D01*
X109367700Y-91667853D01*
X109541793Y-91685000D01*
X111058207Y-91685000D01*
X111232300Y-91667853D01*
X111340603Y-91635000D01*
X111944249Y-91635000D01*
X112000000Y-91640491D01*
X112055751Y-91635000D01*
X112055752Y-91635000D01*
X112222499Y-91618577D01*
X112436447Y-91553676D01*
X112633623Y-91448284D01*
X112806449Y-91306449D01*
X112841996Y-91263135D01*
X113295387Y-90809744D01*
X123856197Y-90809744D01*
X123856601Y-90836147D01*
X123944150Y-91052754D01*
X124072275Y-91248119D01*
X124236052Y-91414734D01*
X124429187Y-91546196D01*
X124644258Y-91637454D01*
X124873000Y-91685000D01*
X125573000Y-91685000D01*
X125573000Y-90627000D01*
X125827000Y-90627000D01*
X125827000Y-91685000D01*
X126527000Y-91685000D01*
X126755742Y-91637454D01*
X126970813Y-91546196D01*
X127163948Y-91414734D01*
X127327725Y-91248119D01*
X127455850Y-91052754D01*
X127543399Y-90836147D01*
X127543803Y-90809744D01*
X127418361Y-90627000D01*
X125827000Y-90627000D01*
X125573000Y-90627000D01*
X123981639Y-90627000D01*
X123856197Y-90809744D01*
X113295387Y-90809744D01*
X114070132Y-90035000D01*
X114151184Y-90035000D01*
X114447743Y-89976011D01*
X114727095Y-89860299D01*
X114978505Y-89692312D01*
X115192312Y-89478505D01*
X115360299Y-89227095D01*
X115476011Y-88947743D01*
X115535000Y-88651184D01*
X115535000Y-88348816D01*
X115476011Y-88052257D01*
X115360299Y-87772905D01*
X115192312Y-87521495D01*
X114978505Y-87307688D01*
X114727095Y-87139701D01*
X114447743Y-87023989D01*
X114151184Y-86965000D01*
X113848816Y-86965000D01*
X113552257Y-87023989D01*
X113272905Y-87139701D01*
X113021495Y-87307688D01*
X112807688Y-87521495D01*
X112639701Y-87772905D01*
X112523989Y-88052257D01*
X112465000Y-88348816D01*
X112465000Y-88429868D01*
X112168430Y-88726438D01*
X112190733Y-88500000D01*
X112167853Y-88267700D01*
X112100094Y-88044326D01*
X111990058Y-87838464D01*
X111841975Y-87658025D01*
X111661536Y-87509942D01*
X111642936Y-87500000D01*
X111661536Y-87490058D01*
X111841975Y-87341975D01*
X111990058Y-87161536D01*
X112100094Y-86955674D01*
X112167853Y-86732300D01*
X112190733Y-86500000D01*
X112167853Y-86267700D01*
X112100094Y-86044326D01*
X111990058Y-85838464D01*
X111841975Y-85658025D01*
X111661536Y-85509942D01*
X111642936Y-85500000D01*
X111661536Y-85490058D01*
X111841975Y-85341975D01*
X111990058Y-85161536D01*
X112100094Y-84955674D01*
X112167853Y-84732300D01*
X112190733Y-84500000D01*
X112167853Y-84267700D01*
X112100094Y-84044326D01*
X111990058Y-83838464D01*
X111841975Y-83658025D01*
X111661536Y-83509942D01*
X111642936Y-83500000D01*
X111661536Y-83490058D01*
X111841975Y-83341975D01*
X111990058Y-83161536D01*
X112100094Y-82955674D01*
X112167853Y-82732300D01*
X112190733Y-82500000D01*
X112167853Y-82267700D01*
X112100094Y-82044326D01*
X111990058Y-81838464D01*
X111841975Y-81658025D01*
X111661536Y-81509942D01*
X111642936Y-81500000D01*
X111661536Y-81490058D01*
X111789549Y-81385000D01*
X112956533Y-81385000D01*
X113000002Y-81389281D01*
X113043471Y-81385000D01*
X113043479Y-81385000D01*
X113173492Y-81372195D01*
X113340315Y-81321589D01*
X113494061Y-81239411D01*
X113628819Y-81128817D01*
X113656536Y-81095044D01*
X113738520Y-81013060D01*
X113848818Y-81035000D01*
X114151186Y-81035000D01*
X114447745Y-80976011D01*
X114727097Y-80860299D01*
X114978507Y-80692312D01*
X115192314Y-80478505D01*
X115254792Y-80385000D01*
X121093269Y-80385000D01*
X121023989Y-80552257D01*
X120965000Y-80848816D01*
X120965000Y-81151184D01*
X121023989Y-81447743D01*
X121093269Y-81615000D01*
X120667462Y-81615000D01*
X120447743Y-81523989D01*
X120151184Y-81465000D01*
X119848816Y-81465000D01*
X119552257Y-81523989D01*
X119272905Y-81639701D01*
X119021495Y-81807688D01*
X118807688Y-82021495D01*
X118639701Y-82272905D01*
X118523989Y-82552257D01*
X118465000Y-82848816D01*
X118465000Y-83151184D01*
X118523989Y-83447743D01*
X118639701Y-83727095D01*
X118807688Y-83978505D01*
X119021495Y-84192312D01*
X119107834Y-84250002D01*
X119021501Y-84307688D01*
X118807694Y-84521495D01*
X118639707Y-84772905D01*
X118523995Y-85052257D01*
X118465006Y-85348816D01*
X118465006Y-85651184D01*
X118523995Y-85947743D01*
X118639707Y-86227095D01*
X118807694Y-86478505D01*
X119021501Y-86692312D01*
X119272911Y-86860299D01*
X119552263Y-86976011D01*
X119848822Y-87035000D01*
X120151190Y-87035000D01*
X120447749Y-86976011D01*
X120727101Y-86860299D01*
X120978511Y-86692312D01*
X121192318Y-86478505D01*
X121360305Y-86227095D01*
X121476017Y-85947743D01*
X121535006Y-85651184D01*
X121535006Y-85385000D01*
X124210451Y-85385000D01*
X124338464Y-85490058D01*
X124357064Y-85500000D01*
X124338464Y-85509942D01*
X124158025Y-85658025D01*
X124009942Y-85838464D01*
X123899906Y-86044326D01*
X123832147Y-86267700D01*
X123809267Y-86500000D01*
X123832147Y-86732300D01*
X123899906Y-86955674D01*
X124009942Y-87161536D01*
X124158025Y-87341975D01*
X124338464Y-87490058D01*
X124357064Y-87500000D01*
X124338464Y-87509942D01*
X124158025Y-87658025D01*
X124009942Y-87838464D01*
X123899906Y-88044326D01*
X123832147Y-88267700D01*
X123809267Y-88500000D01*
X123832147Y-88732300D01*
X123899906Y-88955674D01*
X124009942Y-89161536D01*
X124158025Y-89341975D01*
X124338464Y-89490058D01*
X124359447Y-89501274D01*
X124236052Y-89585266D01*
X124072275Y-89751881D01*
X123944150Y-89947246D01*
X123856601Y-90163853D01*
X123856197Y-90190256D01*
X123981639Y-90373000D01*
X125573000Y-90373000D01*
X125573000Y-90353000D01*
X125827000Y-90353000D01*
X125827000Y-90373000D01*
X127418361Y-90373000D01*
X127543803Y-90190256D01*
X127543399Y-90163853D01*
X127455850Y-89947246D01*
X127327725Y-89751881D01*
X127163948Y-89585266D01*
X127040553Y-89501274D01*
X127061536Y-89490058D01*
X127189549Y-89385000D01*
X127511509Y-89385000D01*
X127523989Y-89447743D01*
X127639701Y-89727095D01*
X127807688Y-89978505D01*
X128021495Y-90192312D01*
X128272905Y-90360299D01*
X128552257Y-90476011D01*
X128848816Y-90535000D01*
X129151184Y-90535000D01*
X129447743Y-90476011D01*
X129727095Y-90360299D01*
X129978505Y-90192312D01*
X130192312Y-89978505D01*
X130360299Y-89727095D01*
X130444509Y-89523794D01*
X135165000Y-89523794D01*
X135165000Y-90476206D01*
X135350807Y-91410317D01*
X135715279Y-92290231D01*
X136244411Y-93082133D01*
X136917867Y-93755589D01*
X137709769Y-94284721D01*
X138589683Y-94649193D01*
X139523794Y-94835000D01*
X140476206Y-94835000D01*
X141410317Y-94649193D01*
X142290231Y-94284721D01*
X143082133Y-93755589D01*
X143755589Y-93082133D01*
X144284721Y-92290231D01*
X144382287Y-92054684D01*
X163156933Y-92054684D01*
X163203015Y-92413198D01*
X163318154Y-92755833D01*
X163437164Y-92978486D01*
X163722020Y-93098374D01*
X164820395Y-92000000D01*
X163722020Y-90901626D01*
X163437164Y-91021514D01*
X163276301Y-91345210D01*
X163181678Y-91694069D01*
X163156933Y-92054684D01*
X144382287Y-92054684D01*
X144649193Y-91410317D01*
X144835000Y-90476206D01*
X144835000Y-89777980D01*
X163901626Y-89777980D01*
X164021514Y-90062836D01*
X164345210Y-90223699D01*
X164444836Y-90250721D01*
X164244167Y-90318154D01*
X164021514Y-90437164D01*
X163901626Y-90722020D01*
X165000000Y-91820395D01*
X166098374Y-90722020D01*
X165978486Y-90437164D01*
X165654790Y-90276301D01*
X165555164Y-90249279D01*
X165755833Y-90181846D01*
X165978486Y-90062836D01*
X166098374Y-89777980D01*
X165000000Y-88679605D01*
X163901626Y-89777980D01*
X144835000Y-89777980D01*
X144835000Y-89523794D01*
X144649193Y-88589683D01*
X144634696Y-88554684D01*
X163156933Y-88554684D01*
X163203015Y-88913198D01*
X163318154Y-89255833D01*
X163437164Y-89478486D01*
X163722020Y-89598374D01*
X164820395Y-88500000D01*
X163722020Y-87401626D01*
X163437164Y-87521514D01*
X163276301Y-87845210D01*
X163181678Y-88194069D01*
X163156933Y-88554684D01*
X144634696Y-88554684D01*
X144284721Y-87709769D01*
X143755589Y-86917867D01*
X143082133Y-86244411D01*
X142290231Y-85715279D01*
X141410317Y-85350807D01*
X140476206Y-85165000D01*
X139523794Y-85165000D01*
X138589683Y-85350807D01*
X137709769Y-85715279D01*
X136917867Y-86244411D01*
X136244411Y-86917867D01*
X135715279Y-87709769D01*
X135350807Y-88589683D01*
X135165000Y-89523794D01*
X130444509Y-89523794D01*
X130476011Y-89447743D01*
X130535000Y-89151184D01*
X130535000Y-88848816D01*
X130476011Y-88552257D01*
X130360299Y-88272905D01*
X130192312Y-88021495D01*
X129978505Y-87807688D01*
X129727095Y-87639701D01*
X129588519Y-87582300D01*
X129692314Y-87478505D01*
X129860301Y-87227095D01*
X129976013Y-86947743D01*
X130035002Y-86651184D01*
X130035002Y-86348816D01*
X129976013Y-86052257D01*
X129860301Y-85772905D01*
X129692314Y-85521495D01*
X129478507Y-85307688D01*
X129227097Y-85139701D01*
X128947745Y-85023989D01*
X128651186Y-84965000D01*
X128348818Y-84965000D01*
X128052259Y-85023989D01*
X127772907Y-85139701D01*
X127521497Y-85307688D01*
X127307690Y-85521495D01*
X127245212Y-85615000D01*
X127189549Y-85615000D01*
X127061536Y-85509942D01*
X127042936Y-85500000D01*
X127061536Y-85490058D01*
X127223718Y-85356958D01*
X127340313Y-85321589D01*
X127494059Y-85239411D01*
X127628817Y-85128817D01*
X127656534Y-85095044D01*
X128595050Y-84156529D01*
X128628817Y-84128817D01*
X128739411Y-83994059D01*
X128787038Y-83904954D01*
X128821589Y-83840314D01*
X128872195Y-83673490D01*
X128876605Y-83628714D01*
X128885000Y-83543477D01*
X128885000Y-83543469D01*
X128889281Y-83500000D01*
X128885000Y-83456531D01*
X128885000Y-81866578D01*
X130366579Y-80385000D01*
X139536531Y-80385000D01*
X139580000Y-80389281D01*
X139623469Y-80385000D01*
X139623477Y-80385000D01*
X139753490Y-80372195D01*
X139920313Y-80321589D01*
X140074059Y-80239411D01*
X140208817Y-80128817D01*
X140236534Y-80095044D01*
X145343507Y-74988072D01*
X146430000Y-74988072D01*
X146554482Y-74975812D01*
X146674180Y-74939502D01*
X146784494Y-74880537D01*
X146881185Y-74801185D01*
X146960537Y-74704494D01*
X147019502Y-74594180D01*
X147055812Y-74474482D01*
X147068072Y-74350000D01*
X147068072Y-73779872D01*
X163765000Y-73779872D01*
X163765000Y-74220128D01*
X163850890Y-74651925D01*
X164019369Y-75058669D01*
X164263962Y-75424729D01*
X164575271Y-75736038D01*
X164941331Y-75980631D01*
X165348075Y-76149110D01*
X165779872Y-76235000D01*
X166220128Y-76235000D01*
X166651925Y-76149110D01*
X167058669Y-75980631D01*
X167424729Y-75736038D01*
X167736038Y-75424729D01*
X167980631Y-75058669D01*
X168149110Y-74651925D01*
X168235000Y-74220128D01*
X168235000Y-73779872D01*
X168149110Y-73348075D01*
X167980631Y-72941331D01*
X167736038Y-72575271D01*
X167424729Y-72263962D01*
X167058669Y-72019369D01*
X166651925Y-71850890D01*
X166220128Y-71765000D01*
X165779872Y-71765000D01*
X165348075Y-71850890D01*
X164941331Y-72019369D01*
X164575271Y-72263962D01*
X164263962Y-72575271D01*
X164019369Y-72941331D01*
X163850890Y-73348075D01*
X163765000Y-73779872D01*
X147068072Y-73779872D01*
X147068072Y-72650000D01*
X147055812Y-72525518D01*
X147019502Y-72405820D01*
X146960537Y-72295506D01*
X146881185Y-72198815D01*
X146784494Y-72119463D01*
X146674180Y-72060498D01*
X146554482Y-72024188D01*
X146430000Y-72011928D01*
X144730000Y-72011928D01*
X144605518Y-72024188D01*
X144485820Y-72060498D01*
X144375506Y-72119463D01*
X144278815Y-72198815D01*
X144199463Y-72295506D01*
X144140498Y-72405820D01*
X144118487Y-72478380D01*
X143986632Y-72346525D01*
X143743411Y-72184010D01*
X143473158Y-72072068D01*
X143186260Y-72015000D01*
X142893740Y-72015000D01*
X142606842Y-72072068D01*
X142336589Y-72184010D01*
X142093368Y-72346525D01*
X141886525Y-72553368D01*
X141770000Y-72727760D01*
X141653475Y-72553368D01*
X141446632Y-72346525D01*
X141203411Y-72184010D01*
X140933158Y-72072068D01*
X140646260Y-72015000D01*
X140353740Y-72015000D01*
X140066842Y-72072068D01*
X139796589Y-72184010D01*
X139553368Y-72346525D01*
X139346525Y-72553368D01*
X139230000Y-72727760D01*
X139113475Y-72553368D01*
X138906632Y-72346525D01*
X138663411Y-72184010D01*
X138393158Y-72072068D01*
X138106260Y-72015000D01*
X137813740Y-72015000D01*
X137526842Y-72072068D01*
X137256589Y-72184010D01*
X137013368Y-72346525D01*
X136806525Y-72553368D01*
X136684805Y-72735534D01*
X136615178Y-72618645D01*
X136420269Y-72402412D01*
X136186920Y-72228359D01*
X135924099Y-72103175D01*
X135776890Y-72058524D01*
X135547000Y-72179845D01*
X135547000Y-73373000D01*
X135567000Y-73373000D01*
X135567000Y-73627000D01*
X135547000Y-73627000D01*
X135547000Y-73647000D01*
X135293000Y-73647000D01*
X135293000Y-73627000D01*
X134099186Y-73627000D01*
X133978519Y-73856891D01*
X134075843Y-74131252D01*
X134224822Y-74381355D01*
X134419731Y-74597588D01*
X134653080Y-74771641D01*
X134915901Y-74896825D01*
X135063110Y-74941476D01*
X135292998Y-74820156D01*
X135292998Y-74915424D01*
X134593422Y-75615000D01*
X132443708Y-75615000D01*
X132535884Y-75442550D01*
X132545412Y-75419549D01*
X132602317Y-75231956D01*
X132607173Y-75207538D01*
X132626388Y-75012448D01*
X132627000Y-75000000D01*
X132627000Y-73143109D01*
X133978519Y-73143109D01*
X134099186Y-73373000D01*
X135293000Y-73373000D01*
X135293000Y-72179845D01*
X135063110Y-72058524D01*
X134915901Y-72103175D01*
X134653080Y-72228359D01*
X134419731Y-72402412D01*
X134224822Y-72618645D01*
X134075843Y-72868748D01*
X133978519Y-73143109D01*
X132627000Y-73143109D01*
X132627000Y-72006234D01*
X132644376Y-71829811D01*
X132694022Y-71666150D01*
X132774638Y-71515328D01*
X132883130Y-71383130D01*
X133015328Y-71274638D01*
X133166150Y-71194022D01*
X133329811Y-71144376D01*
X133506234Y-71127000D01*
X167993766Y-71127000D01*
X168170189Y-71144376D01*
X168333850Y-71194022D01*
X168484672Y-71274638D01*
X168616870Y-71383130D01*
X168725362Y-71515328D01*
X168805978Y-71666150D01*
X168855624Y-71829811D01*
X168873000Y-72006234D01*
X168873000Y-81560761D01*
X167712925Y-80400686D01*
X167661714Y-80338286D01*
X167412752Y-80133969D01*
X167128715Y-79982148D01*
X166820516Y-79888657D01*
X166580322Y-79865000D01*
X166580319Y-79865000D01*
X166500000Y-79857089D01*
X166419681Y-79865000D01*
X165847848Y-79865000D01*
X165535250Y-79735518D01*
X165180732Y-79665000D01*
X164819268Y-79665000D01*
X164464750Y-79735518D01*
X164130801Y-79873844D01*
X163830256Y-80074662D01*
X163574662Y-80330256D01*
X163384402Y-80615000D01*
X161254790Y-80615000D01*
X161192312Y-80521495D01*
X160978505Y-80307688D01*
X160727095Y-80139701D01*
X160447743Y-80023989D01*
X160151184Y-79965000D01*
X159848816Y-79965000D01*
X159552257Y-80023989D01*
X159272905Y-80139701D01*
X159021495Y-80307688D01*
X158807688Y-80521495D01*
X158639701Y-80772905D01*
X158523989Y-81052257D01*
X158465000Y-81348816D01*
X158465000Y-81651184D01*
X158523989Y-81947743D01*
X158639701Y-82227095D01*
X158807688Y-82478505D01*
X159021495Y-82692312D01*
X159272905Y-82860299D01*
X159552257Y-82976011D01*
X159848816Y-83035000D01*
X160151184Y-83035000D01*
X160447743Y-82976011D01*
X160727095Y-82860299D01*
X160978505Y-82692312D01*
X161192312Y-82478505D01*
X161254790Y-82385000D01*
X163384402Y-82385000D01*
X163574662Y-82669744D01*
X163830256Y-82925338D01*
X164130801Y-83126156D01*
X164429787Y-83250000D01*
X164130801Y-83373844D01*
X163830256Y-83574662D01*
X163574662Y-83830256D01*
X163384402Y-84115000D01*
X161254790Y-84115000D01*
X161192312Y-84021495D01*
X160978505Y-83807688D01*
X160727095Y-83639701D01*
X160447743Y-83523989D01*
X160151184Y-83465000D01*
X159848816Y-83465000D01*
X159552257Y-83523989D01*
X159272905Y-83639701D01*
X159021495Y-83807688D01*
X158807688Y-84021495D01*
X158639701Y-84272905D01*
X158523989Y-84552257D01*
X158465000Y-84848816D01*
X158465000Y-85151184D01*
X158523989Y-85447743D01*
X158639701Y-85727095D01*
X158807688Y-85978505D01*
X159021495Y-86192312D01*
X159272905Y-86360299D01*
X159552257Y-86476011D01*
X159848816Y-86535000D01*
X160151184Y-86535000D01*
X160447743Y-86476011D01*
X160727095Y-86360299D01*
X160978505Y-86192312D01*
X161192312Y-85978505D01*
X161254790Y-85885000D01*
X163384402Y-85885000D01*
X163574662Y-86169744D01*
X163830256Y-86425338D01*
X164130801Y-86626156D01*
X164437489Y-86753190D01*
X164244167Y-86818154D01*
X164021514Y-86937164D01*
X163901626Y-87222020D01*
X165000000Y-88320395D01*
X166098374Y-87222020D01*
X165978486Y-86937164D01*
X165654790Y-86776301D01*
X165565310Y-86752031D01*
X165869199Y-86626156D01*
X166169744Y-86425338D01*
X166365001Y-86230081D01*
X166365001Y-87438251D01*
X166277980Y-87401626D01*
X165179605Y-88500000D01*
X166277980Y-89598374D01*
X166365001Y-89561749D01*
X166365000Y-90938250D01*
X166277980Y-90901626D01*
X165179605Y-92000000D01*
X166277980Y-93098374D01*
X166365000Y-93061750D01*
X166365000Y-94269918D01*
X166169744Y-94074662D01*
X165869199Y-93873844D01*
X165562511Y-93746810D01*
X165755833Y-93681846D01*
X165978486Y-93562836D01*
X166098374Y-93277980D01*
X165000000Y-92179605D01*
X163901626Y-93277980D01*
X164021514Y-93562836D01*
X164345210Y-93723699D01*
X164434690Y-93747969D01*
X164130801Y-93873844D01*
X163830256Y-94074662D01*
X163574662Y-94330256D01*
X163384402Y-94615000D01*
X161254790Y-94615000D01*
X161192312Y-94521495D01*
X160978505Y-94307688D01*
X160727095Y-94139701D01*
X160447743Y-94023989D01*
X160151184Y-93965000D01*
X159848816Y-93965000D01*
X159552257Y-94023989D01*
X159272905Y-94139701D01*
X159021495Y-94307688D01*
X158807688Y-94521495D01*
X158639701Y-94772905D01*
X158523989Y-95052257D01*
X158465000Y-95348816D01*
X158465000Y-95651184D01*
X158523989Y-95947743D01*
X158639701Y-96227095D01*
X158807688Y-96478505D01*
X159021495Y-96692312D01*
X159272905Y-96860299D01*
X159552257Y-96976011D01*
X159848816Y-97035000D01*
X160151184Y-97035000D01*
X160447743Y-96976011D01*
X160727095Y-96860299D01*
X160978505Y-96692312D01*
X161192312Y-96478505D01*
X161254790Y-96385000D01*
X163384402Y-96385000D01*
X163574662Y-96669744D01*
X163830256Y-96925338D01*
X164130801Y-97126156D01*
X164217162Y-97161928D01*
X163800000Y-97161928D01*
X163675518Y-97174188D01*
X163555820Y-97210498D01*
X163445506Y-97269463D01*
X163348815Y-97348815D01*
X163335532Y-97365000D01*
X162580319Y-97365000D01*
X162499999Y-97357089D01*
X162419680Y-97365000D01*
X162419678Y-97365000D01*
X162179484Y-97388657D01*
X161871285Y-97482148D01*
X161587248Y-97633969D01*
X161338286Y-97838286D01*
X161287080Y-97900682D01*
X159400687Y-99787075D01*
X159338286Y-99838286D01*
X159133969Y-100087249D01*
X158982148Y-100371286D01*
X158888657Y-100679485D01*
X158865000Y-100919678D01*
X158857089Y-101000000D01*
X158865000Y-101080320D01*
X158865001Y-102822761D01*
X158400698Y-103287064D01*
X158338298Y-103338274D01*
X158133981Y-103587237D01*
X157982160Y-103871274D01*
X157888669Y-104179473D01*
X157869376Y-104375358D01*
X157857101Y-104499988D01*
X157865012Y-104580307D01*
X157865012Y-104580322D01*
X157888669Y-104820516D01*
X157982160Y-105128715D01*
X158133981Y-105412752D01*
X158338298Y-105661714D01*
X158587261Y-105866031D01*
X158871298Y-106017852D01*
X159179497Y-106111343D01*
X159500012Y-106142911D01*
X159820528Y-106111343D01*
X160128727Y-106017852D01*
X160412764Y-105866031D01*
X160517749Y-105779872D01*
X163765000Y-105779872D01*
X163765000Y-106220128D01*
X163850890Y-106651925D01*
X164019369Y-107058669D01*
X164263962Y-107424729D01*
X164575271Y-107736038D01*
X164941331Y-107980631D01*
X165348075Y-108149110D01*
X165779872Y-108235000D01*
X166220128Y-108235000D01*
X166651925Y-108149110D01*
X167058669Y-107980631D01*
X167424729Y-107736038D01*
X167736038Y-107424729D01*
X167980631Y-107058669D01*
X168149110Y-106651925D01*
X168235000Y-106220128D01*
X168235000Y-105779872D01*
X168149110Y-105348075D01*
X167980631Y-104941331D01*
X167736038Y-104575271D01*
X167424729Y-104263962D01*
X167058669Y-104019369D01*
X166651925Y-103850890D01*
X166220128Y-103765000D01*
X165779872Y-103765000D01*
X165348075Y-103850890D01*
X164941331Y-104019369D01*
X164575271Y-104263962D01*
X164263962Y-104575271D01*
X164019369Y-104941331D01*
X163850890Y-105348075D01*
X163765000Y-105779872D01*
X160517749Y-105779872D01*
X160661726Y-105661714D01*
X160712990Y-105599248D01*
X161599318Y-104712921D01*
X161661714Y-104661714D01*
X161866031Y-104412752D01*
X162017852Y-104128715D01*
X162052632Y-104014060D01*
X162111343Y-103820517D01*
X162142911Y-103500000D01*
X162135000Y-103419678D01*
X162135000Y-101677238D01*
X163177239Y-100635000D01*
X163335532Y-100635000D01*
X163348815Y-100651185D01*
X163445506Y-100730537D01*
X163555820Y-100789502D01*
X163675518Y-100825812D01*
X163800000Y-100838072D01*
X166200000Y-100838072D01*
X166324482Y-100825812D01*
X166444180Y-100789502D01*
X166554494Y-100730537D01*
X166651185Y-100651185D01*
X166671867Y-100625984D01*
X166820516Y-100611343D01*
X167128715Y-100517852D01*
X167412752Y-100366031D01*
X167661714Y-100161714D01*
X167712925Y-100099314D01*
X168873000Y-98939239D01*
X168873000Y-107993766D01*
X168855624Y-108170189D01*
X168805978Y-108333850D01*
X168725362Y-108484672D01*
X168616870Y-108616870D01*
X168484672Y-108725362D01*
X168333850Y-108805978D01*
X168170189Y-108855624D01*
X167993766Y-108873000D01*
X72006234Y-108873000D01*
X71829811Y-108855624D01*
X71666150Y-108805978D01*
X71515328Y-108725362D01*
X71383130Y-108616870D01*
X71274638Y-108484672D01*
X71194022Y-108333850D01*
X71144376Y-108170189D01*
X71127000Y-107993766D01*
X71127000Y-105779872D01*
X71765000Y-105779872D01*
X71765000Y-106220128D01*
X71850890Y-106651925D01*
X72019369Y-107058669D01*
X72263962Y-107424729D01*
X72575271Y-107736038D01*
X72941331Y-107980631D01*
X73348075Y-108149110D01*
X73779872Y-108235000D01*
X74220128Y-108235000D01*
X74651925Y-108149110D01*
X75058669Y-107980631D01*
X75424729Y-107736038D01*
X75736038Y-107424729D01*
X75980631Y-107058669D01*
X76149110Y-106651925D01*
X76235000Y-106220128D01*
X76235000Y-105779872D01*
X76219113Y-105700000D01*
X82661928Y-105700000D01*
X82674188Y-105824482D01*
X82710498Y-105944180D01*
X82769463Y-106054494D01*
X82848815Y-106151185D01*
X82945506Y-106230537D01*
X83055820Y-106289502D01*
X83175518Y-106325812D01*
X83300000Y-106338072D01*
X83714250Y-106335000D01*
X83873000Y-106176250D01*
X83873000Y-105127000D01*
X82823750Y-105127000D01*
X82665000Y-105285750D01*
X82661928Y-105700000D01*
X76219113Y-105700000D01*
X76149110Y-105348075D01*
X75980631Y-104941331D01*
X75736038Y-104575271D01*
X75460767Y-104300000D01*
X82661928Y-104300000D01*
X82665000Y-104714250D01*
X82823750Y-104873000D01*
X83873000Y-104873000D01*
X83873000Y-103823750D01*
X84127000Y-103823750D01*
X84127000Y-104873000D01*
X84147000Y-104873000D01*
X84147000Y-105127000D01*
X84127000Y-105127000D01*
X84127000Y-106176250D01*
X84285750Y-106335000D01*
X84700000Y-106338072D01*
X84824482Y-106325812D01*
X84944180Y-106289502D01*
X85054494Y-106230537D01*
X85151185Y-106151185D01*
X85230537Y-106054494D01*
X85289502Y-105944180D01*
X85325812Y-105824482D01*
X85338072Y-105700000D01*
X85337217Y-105584747D01*
X85356939Y-105632359D01*
X85503038Y-105851013D01*
X85688987Y-106036962D01*
X85907641Y-106183061D01*
X86150595Y-106283696D01*
X86408514Y-106335000D01*
X86671486Y-106335000D01*
X86929405Y-106283696D01*
X87172359Y-106183061D01*
X87391013Y-106036962D01*
X87540736Y-105887239D01*
X87563469Y-105885000D01*
X87563477Y-105885000D01*
X87693490Y-105872195D01*
X87860313Y-105821589D01*
X88014059Y-105739411D01*
X88148817Y-105628817D01*
X88176534Y-105595044D01*
X88903064Y-104868514D01*
X90285000Y-104868514D01*
X90285000Y-105131486D01*
X90336304Y-105389405D01*
X90436939Y-105632359D01*
X90583038Y-105851013D01*
X90768987Y-106036962D01*
X90987641Y-106183061D01*
X91230595Y-106283696D01*
X91488514Y-106335000D01*
X91751486Y-106335000D01*
X92009405Y-106283696D01*
X92252359Y-106183061D01*
X92471013Y-106036962D01*
X92656962Y-105851013D01*
X92803061Y-105632359D01*
X92903696Y-105389405D01*
X92955000Y-105131486D01*
X92955000Y-105025000D01*
X93497301Y-105025000D01*
X93529407Y-105130838D01*
X93611325Y-105284097D01*
X93721570Y-105418430D01*
X93855903Y-105528675D01*
X94009162Y-105610593D01*
X94125074Y-105645755D01*
X94127805Y-105673490D01*
X94178412Y-105840313D01*
X94260590Y-105994059D01*
X94343468Y-106095046D01*
X94343471Y-106095049D01*
X94371184Y-106128817D01*
X94404951Y-106156529D01*
X95343470Y-107095049D01*
X95371183Y-107128817D01*
X95404951Y-107156530D01*
X95404953Y-107156532D01*
X95505941Y-107239411D01*
X95659686Y-107321589D01*
X95826510Y-107372195D01*
X95956523Y-107385000D01*
X95956531Y-107385000D01*
X96000000Y-107389281D01*
X96043469Y-107385000D01*
X101456529Y-107385000D01*
X101499998Y-107389281D01*
X101543467Y-107385000D01*
X101543475Y-107385000D01*
X101673488Y-107372195D01*
X101840311Y-107321589D01*
X101994057Y-107239411D01*
X102128815Y-107128817D01*
X102156532Y-107095044D01*
X103238518Y-106013058D01*
X103348816Y-106034998D01*
X103651184Y-106034998D01*
X103947743Y-105976009D01*
X104227095Y-105860297D01*
X104478505Y-105692310D01*
X104692312Y-105478503D01*
X104860299Y-105227093D01*
X104976011Y-104947741D01*
X105035000Y-104651182D01*
X105035000Y-104348814D01*
X104976011Y-104052255D01*
X104860299Y-103772903D01*
X104692312Y-103521493D01*
X104478505Y-103307686D01*
X104227095Y-103139699D01*
X104216748Y-103135413D01*
X109544192Y-103135413D01*
X109639956Y-103399814D01*
X109929571Y-103540704D01*
X110241108Y-103622384D01*
X110562595Y-103641718D01*
X110881675Y-103597961D01*
X111186088Y-103492795D01*
X111360044Y-103399814D01*
X111455808Y-103135413D01*
X116044192Y-103135413D01*
X116139956Y-103399814D01*
X116429571Y-103540704D01*
X116741108Y-103622384D01*
X117062595Y-103641718D01*
X117381675Y-103597961D01*
X117686088Y-103492795D01*
X117860044Y-103399814D01*
X117955808Y-103135413D01*
X121044192Y-103135413D01*
X121139956Y-103399814D01*
X121429571Y-103540704D01*
X121741108Y-103622384D01*
X122062595Y-103641718D01*
X122381675Y-103597961D01*
X122686088Y-103492795D01*
X122860044Y-103399814D01*
X122955808Y-103135413D01*
X127544192Y-103135413D01*
X127639956Y-103399814D01*
X127929571Y-103540704D01*
X128241108Y-103622384D01*
X128562595Y-103641718D01*
X128881675Y-103597961D01*
X129186088Y-103492795D01*
X129360044Y-103399814D01*
X129455808Y-103135413D01*
X128500000Y-102179605D01*
X127544192Y-103135413D01*
X122955808Y-103135413D01*
X122000000Y-102179605D01*
X121044192Y-103135413D01*
X117955808Y-103135413D01*
X117000000Y-102179605D01*
X116044192Y-103135413D01*
X111455808Y-103135413D01*
X110500000Y-102179605D01*
X109544192Y-103135413D01*
X104216748Y-103135413D01*
X103947743Y-103023987D01*
X103651184Y-102964998D01*
X103348816Y-102964998D01*
X103052257Y-103023987D01*
X102772905Y-103139699D01*
X102521495Y-103307686D01*
X102307688Y-103521493D01*
X102139701Y-103772903D01*
X102023989Y-104052255D01*
X101965000Y-104348814D01*
X101965000Y-104651182D01*
X101986940Y-104761480D01*
X101133420Y-105615000D01*
X100530184Y-105615000D01*
X100807095Y-105500299D01*
X101058505Y-105332312D01*
X101272312Y-105118505D01*
X101440299Y-104867095D01*
X101556011Y-104587743D01*
X101615000Y-104291184D01*
X101615000Y-103988816D01*
X101593060Y-103878518D01*
X102470200Y-103001379D01*
X102597733Y-102976011D01*
X102877085Y-102860299D01*
X103128495Y-102692312D01*
X103342302Y-102478505D01*
X103510289Y-102227095D01*
X103578427Y-102062595D01*
X108858282Y-102062595D01*
X108902039Y-102381675D01*
X109007205Y-102686088D01*
X109100186Y-102860044D01*
X109364587Y-102955808D01*
X110320395Y-102000000D01*
X110679605Y-102000000D01*
X111635413Y-102955808D01*
X111899814Y-102860044D01*
X112040704Y-102570429D01*
X112122384Y-102258892D01*
X112134189Y-102062595D01*
X115358282Y-102062595D01*
X115402039Y-102381675D01*
X115507205Y-102686088D01*
X115600186Y-102860044D01*
X115864587Y-102955808D01*
X116820395Y-102000000D01*
X117179605Y-102000000D01*
X118135413Y-102955808D01*
X118399814Y-102860044D01*
X118540704Y-102570429D01*
X118622384Y-102258892D01*
X118634189Y-102062595D01*
X120358282Y-102062595D01*
X120402039Y-102381675D01*
X120507205Y-102686088D01*
X120600186Y-102860044D01*
X120864587Y-102955808D01*
X121820395Y-102000000D01*
X122179605Y-102000000D01*
X123135413Y-102955808D01*
X123399814Y-102860044D01*
X123540704Y-102570429D01*
X123622384Y-102258892D01*
X123634189Y-102062595D01*
X126858282Y-102062595D01*
X126902039Y-102381675D01*
X127007205Y-102686088D01*
X127100186Y-102860044D01*
X127364587Y-102955808D01*
X128320395Y-102000000D01*
X128679605Y-102000000D01*
X129635413Y-102955808D01*
X129899814Y-102860044D01*
X130040704Y-102570429D01*
X130122384Y-102258892D01*
X130141718Y-101937405D01*
X130097961Y-101618325D01*
X129992795Y-101313912D01*
X129899814Y-101139956D01*
X129635413Y-101044192D01*
X128679605Y-102000000D01*
X128320395Y-102000000D01*
X127364587Y-101044192D01*
X127100186Y-101139956D01*
X126959296Y-101429571D01*
X126877616Y-101741108D01*
X126858282Y-102062595D01*
X123634189Y-102062595D01*
X123641718Y-101937405D01*
X123597961Y-101618325D01*
X123492795Y-101313912D01*
X123399814Y-101139956D01*
X123135413Y-101044192D01*
X122179605Y-102000000D01*
X121820395Y-102000000D01*
X120864587Y-101044192D01*
X120600186Y-101139956D01*
X120459296Y-101429571D01*
X120377616Y-101741108D01*
X120358282Y-102062595D01*
X118634189Y-102062595D01*
X118641718Y-101937405D01*
X118597961Y-101618325D01*
X118492795Y-101313912D01*
X118399814Y-101139956D01*
X118135413Y-101044192D01*
X117179605Y-102000000D01*
X116820395Y-102000000D01*
X115864587Y-101044192D01*
X115600186Y-101139956D01*
X115459296Y-101429571D01*
X115377616Y-101741108D01*
X115358282Y-102062595D01*
X112134189Y-102062595D01*
X112141718Y-101937405D01*
X112097961Y-101618325D01*
X111992795Y-101313912D01*
X111899814Y-101139956D01*
X111635413Y-101044192D01*
X110679605Y-102000000D01*
X110320395Y-102000000D01*
X109364587Y-101044192D01*
X109100186Y-101139956D01*
X108959296Y-101429571D01*
X108877616Y-101741108D01*
X108858282Y-102062595D01*
X103578427Y-102062595D01*
X103626001Y-101947743D01*
X103684990Y-101651184D01*
X103684990Y-101348816D01*
X103626001Y-101052257D01*
X103548266Y-100864587D01*
X109544192Y-100864587D01*
X110500000Y-101820395D01*
X111455808Y-100864587D01*
X116044192Y-100864587D01*
X117000000Y-101820395D01*
X117955808Y-100864587D01*
X121044192Y-100864587D01*
X122000000Y-101820395D01*
X122955808Y-100864587D01*
X127544192Y-100864587D01*
X128500000Y-101820395D01*
X129455808Y-100864587D01*
X129360044Y-100600186D01*
X129070429Y-100459296D01*
X128758892Y-100377616D01*
X128437405Y-100358282D01*
X128118325Y-100402039D01*
X127813912Y-100507205D01*
X127639956Y-100600186D01*
X127544192Y-100864587D01*
X122955808Y-100864587D01*
X122860044Y-100600186D01*
X122570429Y-100459296D01*
X122258892Y-100377616D01*
X121937405Y-100358282D01*
X121618325Y-100402039D01*
X121313912Y-100507205D01*
X121139956Y-100600186D01*
X121044192Y-100864587D01*
X117955808Y-100864587D01*
X117860044Y-100600186D01*
X117570429Y-100459296D01*
X117258892Y-100377616D01*
X116937405Y-100358282D01*
X116618325Y-100402039D01*
X116313912Y-100507205D01*
X116139956Y-100600186D01*
X116044192Y-100864587D01*
X111455808Y-100864587D01*
X111360044Y-100600186D01*
X111070429Y-100459296D01*
X110758892Y-100377616D01*
X110437405Y-100358282D01*
X110118325Y-100402039D01*
X109813912Y-100507205D01*
X109639956Y-100600186D01*
X109544192Y-100864587D01*
X103548266Y-100864587D01*
X103510289Y-100772905D01*
X103342302Y-100521495D01*
X103128495Y-100307688D01*
X102877085Y-100139701D01*
X102597733Y-100023989D01*
X102301174Y-99965000D01*
X101998806Y-99965000D01*
X101702247Y-100023989D01*
X101422895Y-100139701D01*
X101171485Y-100307688D01*
X100957678Y-100521495D01*
X100789691Y-100772905D01*
X100673979Y-101052257D01*
X100614990Y-101348816D01*
X100614990Y-101651184D01*
X100673979Y-101947743D01*
X100775525Y-102192896D01*
X100341482Y-102626940D01*
X100231184Y-102605000D01*
X99928816Y-102605000D01*
X99632257Y-102663989D01*
X99352905Y-102779701D01*
X99101495Y-102947688D01*
X98887688Y-103161495D01*
X98785049Y-103315105D01*
X98604080Y-103255525D01*
X97719605Y-104140000D01*
X98604080Y-105024475D01*
X98785049Y-104964895D01*
X98887688Y-105118505D01*
X99101495Y-105332312D01*
X99352905Y-105500299D01*
X99629816Y-105615000D01*
X97972540Y-105615000D01*
X98191199Y-105538222D01*
X98340792Y-105458261D01*
X98424475Y-105204080D01*
X97540000Y-104319605D01*
X96655525Y-105204080D01*
X96739208Y-105458261D01*
X97011775Y-105589158D01*
X97112408Y-105615000D01*
X96366579Y-105615000D01*
X96218880Y-105467302D01*
X96278430Y-105418430D01*
X96388675Y-105284097D01*
X96470593Y-105130838D01*
X96514588Y-104985807D01*
X97360395Y-104140000D01*
X96514588Y-103294193D01*
X96470593Y-103149162D01*
X96431445Y-103075920D01*
X96655525Y-103075920D01*
X97540000Y-103960395D01*
X98424475Y-103075920D01*
X98340792Y-102821739D01*
X98068225Y-102690842D01*
X97775358Y-102615635D01*
X97473447Y-102599009D01*
X97174093Y-102641603D01*
X96888801Y-102741778D01*
X96739208Y-102821739D01*
X96655525Y-103075920D01*
X96431445Y-103075920D01*
X96388675Y-102995903D01*
X96278430Y-102861570D01*
X96144097Y-102751325D01*
X95990838Y-102669407D01*
X95824542Y-102618961D01*
X95651600Y-102601928D01*
X94348400Y-102601928D01*
X94175458Y-102618961D01*
X94009162Y-102669407D01*
X93855903Y-102751325D01*
X93721570Y-102861570D01*
X93611325Y-102995903D01*
X93529407Y-103149162D01*
X93497301Y-103255000D01*
X92523469Y-103255000D01*
X92480000Y-103250719D01*
X92436531Y-103255000D01*
X92436523Y-103255000D01*
X92306510Y-103267805D01*
X92139686Y-103318411D01*
X91985941Y-103400589D01*
X91884953Y-103483468D01*
X91884951Y-103483470D01*
X91851183Y-103511183D01*
X91823470Y-103544951D01*
X91703421Y-103665000D01*
X91488514Y-103665000D01*
X91230595Y-103716304D01*
X90987641Y-103816939D01*
X90768987Y-103963038D01*
X90583038Y-104148987D01*
X90436939Y-104367641D01*
X90336304Y-104610595D01*
X90285000Y-104868514D01*
X88903064Y-104868514D01*
X89595049Y-104176530D01*
X89628817Y-104148817D01*
X89656571Y-104115000D01*
X89739410Y-104014060D01*
X89743751Y-104005939D01*
X89821589Y-103860313D01*
X89872195Y-103693490D01*
X89885000Y-103563477D01*
X89885000Y-103563467D01*
X89889281Y-103520001D01*
X89885000Y-103476534D01*
X89885000Y-103254790D01*
X89978505Y-103192312D01*
X90192312Y-102978505D01*
X90360299Y-102727095D01*
X90476011Y-102447743D01*
X90535000Y-102151184D01*
X90535000Y-101848816D01*
X90476011Y-101552257D01*
X90360299Y-101272905D01*
X90192312Y-101021495D01*
X89978505Y-100807688D01*
X89727095Y-100639701D01*
X89447743Y-100523989D01*
X89151184Y-100465000D01*
X88848816Y-100465000D01*
X88552257Y-100523989D01*
X88272905Y-100639701D01*
X88021495Y-100807688D01*
X87807688Y-101021495D01*
X87639701Y-101272905D01*
X87523989Y-101552257D01*
X87465000Y-101848816D01*
X87465000Y-102151184D01*
X87523989Y-102447743D01*
X87639701Y-102727095D01*
X87807688Y-102978505D01*
X88021495Y-103192312D01*
X88054234Y-103214187D01*
X87339682Y-103928740D01*
X87172359Y-103816939D01*
X86929405Y-103716304D01*
X86671486Y-103665000D01*
X86408514Y-103665000D01*
X86150595Y-103716304D01*
X85907641Y-103816939D01*
X85688987Y-103963038D01*
X85503038Y-104148987D01*
X85356939Y-104367641D01*
X85337217Y-104415253D01*
X85338072Y-104300000D01*
X85325812Y-104175518D01*
X85289502Y-104055820D01*
X85230537Y-103945506D01*
X85151185Y-103848815D01*
X85054494Y-103769463D01*
X84944180Y-103710498D01*
X84824482Y-103674188D01*
X84700000Y-103661928D01*
X84285750Y-103665000D01*
X84127000Y-103823750D01*
X83873000Y-103823750D01*
X83714250Y-103665000D01*
X83300000Y-103661928D01*
X83175518Y-103674188D01*
X83055820Y-103710498D01*
X82945506Y-103769463D01*
X82848815Y-103848815D01*
X82769463Y-103945506D01*
X82710498Y-104055820D01*
X82674188Y-104175518D01*
X82661928Y-104300000D01*
X75460767Y-104300000D01*
X75424729Y-104263962D01*
X75058669Y-104019369D01*
X74651925Y-103850890D01*
X74220128Y-103765000D01*
X73779872Y-103765000D01*
X73348075Y-103850890D01*
X72941331Y-104019369D01*
X72575271Y-104263962D01*
X72263962Y-104575271D01*
X72019369Y-104941331D01*
X71850890Y-105348075D01*
X71765000Y-105779872D01*
X71127000Y-105779872D01*
X71127000Y-95139268D01*
X73285000Y-95139268D01*
X73285000Y-95500732D01*
X73355518Y-95855250D01*
X73493844Y-96189199D01*
X73694662Y-96489744D01*
X73950256Y-96745338D01*
X74250801Y-96946156D01*
X74584750Y-97084482D01*
X74939268Y-97155000D01*
X75300732Y-97155000D01*
X75655250Y-97084482D01*
X75967848Y-96955000D01*
X78982762Y-96955000D01*
X79929138Y-97901376D01*
X79962463Y-97981831D01*
X80152337Y-98265998D01*
X80394002Y-98507663D01*
X80678169Y-98697537D01*
X80993919Y-98828325D01*
X81329117Y-98895000D01*
X81670883Y-98895000D01*
X82006081Y-98828325D01*
X82321831Y-98697537D01*
X82605998Y-98507663D01*
X82847663Y-98265998D01*
X83037537Y-97981831D01*
X83168325Y-97666081D01*
X83233391Y-97338967D01*
X108865000Y-97338967D01*
X108865000Y-97661033D01*
X108927832Y-97976912D01*
X109051082Y-98274463D01*
X109230013Y-98542252D01*
X109457748Y-98769987D01*
X109725537Y-98948918D01*
X110023088Y-99072168D01*
X110338967Y-99135000D01*
X110661033Y-99135000D01*
X110976912Y-99072168D01*
X111274463Y-98948918D01*
X111542252Y-98769987D01*
X111769987Y-98542252D01*
X111875059Y-98385000D01*
X115624941Y-98385000D01*
X115730013Y-98542252D01*
X115957748Y-98769987D01*
X116225537Y-98948918D01*
X116523088Y-99072168D01*
X116838967Y-99135000D01*
X117161033Y-99135000D01*
X117476912Y-99072168D01*
X117774463Y-98948918D01*
X118042252Y-98769987D01*
X118269987Y-98542252D01*
X118448918Y-98274463D01*
X118572168Y-97976912D01*
X118635000Y-97661033D01*
X118635000Y-97338967D01*
X120365000Y-97338967D01*
X120365000Y-97661033D01*
X120427832Y-97976912D01*
X120551082Y-98274463D01*
X120730013Y-98542252D01*
X120957748Y-98769987D01*
X121225537Y-98948918D01*
X121523088Y-99072168D01*
X121838967Y-99135000D01*
X122161033Y-99135000D01*
X122476912Y-99072168D01*
X122774463Y-98948918D01*
X123042252Y-98769987D01*
X123269987Y-98542252D01*
X123375059Y-98385000D01*
X127124941Y-98385000D01*
X127230013Y-98542252D01*
X127457748Y-98769987D01*
X127725537Y-98948918D01*
X128023088Y-99072168D01*
X128338967Y-99135000D01*
X128661033Y-99135000D01*
X128976912Y-99072168D01*
X129274463Y-98948918D01*
X129542252Y-98769987D01*
X129769987Y-98542252D01*
X129948918Y-98274463D01*
X130072168Y-97976912D01*
X130135000Y-97661033D01*
X130135000Y-97338967D01*
X130072168Y-97023088D01*
X129948918Y-96725537D01*
X129769987Y-96457748D01*
X129542252Y-96230013D01*
X129274463Y-96051082D01*
X128976912Y-95927832D01*
X128661033Y-95865000D01*
X128338967Y-95865000D01*
X128023088Y-95927832D01*
X127725537Y-96051082D01*
X127457748Y-96230013D01*
X127230013Y-96457748D01*
X127124941Y-96615000D01*
X123375059Y-96615000D01*
X123269987Y-96457748D01*
X123042252Y-96230013D01*
X122885000Y-96124941D01*
X122885000Y-95754790D01*
X122978505Y-95692312D01*
X123192312Y-95478505D01*
X123360299Y-95227095D01*
X123476011Y-94947743D01*
X123535000Y-94651184D01*
X123535000Y-94348816D01*
X123476011Y-94052257D01*
X123360299Y-93772905D01*
X123192312Y-93521495D01*
X122978505Y-93307688D01*
X122727095Y-93139701D01*
X122447743Y-93023989D01*
X122151184Y-92965000D01*
X121848816Y-92965000D01*
X121552257Y-93023989D01*
X121272905Y-93139701D01*
X121021495Y-93307688D01*
X120807688Y-93521495D01*
X120639701Y-93772905D01*
X120523989Y-94052257D01*
X120465000Y-94348816D01*
X120465000Y-94651184D01*
X120523989Y-94947743D01*
X120639701Y-95227095D01*
X120807688Y-95478505D01*
X121021495Y-95692312D01*
X121115000Y-95754790D01*
X121115001Y-96124940D01*
X120957748Y-96230013D01*
X120730013Y-96457748D01*
X120551082Y-96725537D01*
X120427832Y-97023088D01*
X120365000Y-97338967D01*
X118635000Y-97338967D01*
X118572168Y-97023088D01*
X118448918Y-96725537D01*
X118269987Y-96457748D01*
X118042252Y-96230013D01*
X117774463Y-96051082D01*
X117476912Y-95927832D01*
X117161033Y-95865000D01*
X116838967Y-95865000D01*
X116523088Y-95927832D01*
X116225537Y-96051082D01*
X115957748Y-96230013D01*
X115730013Y-96457748D01*
X115624941Y-96615000D01*
X111875059Y-96615000D01*
X111769987Y-96457748D01*
X111542252Y-96230013D01*
X111385000Y-96124941D01*
X111385000Y-95254790D01*
X111478505Y-95192312D01*
X111692312Y-94978505D01*
X111860299Y-94727095D01*
X111976011Y-94447743D01*
X112035000Y-94151184D01*
X112035000Y-93848816D01*
X111976011Y-93552257D01*
X111860299Y-93272905D01*
X111692312Y-93021495D01*
X111478505Y-92807688D01*
X111227095Y-92639701D01*
X110947743Y-92523989D01*
X110651184Y-92465000D01*
X110348816Y-92465000D01*
X110052257Y-92523989D01*
X109772905Y-92639701D01*
X109521495Y-92807688D01*
X109307688Y-93021495D01*
X109139701Y-93272905D01*
X109023989Y-93552257D01*
X108965000Y-93848816D01*
X108965000Y-94151184D01*
X109023989Y-94447743D01*
X109139701Y-94727095D01*
X109307688Y-94978505D01*
X109521495Y-95192312D01*
X109615000Y-95254790D01*
X109615001Y-96124940D01*
X109457748Y-96230013D01*
X109230013Y-96457748D01*
X109051082Y-96725537D01*
X108927832Y-97023088D01*
X108865000Y-97338967D01*
X83233391Y-97338967D01*
X83235000Y-97330883D01*
X83235000Y-96989117D01*
X83168325Y-96653919D01*
X83037537Y-96338169D01*
X82847663Y-96054002D01*
X82605998Y-95812337D01*
X82321831Y-95622463D01*
X82241376Y-95589138D01*
X80872925Y-94220686D01*
X80821714Y-94158286D01*
X80572752Y-93953969D01*
X80288715Y-93802148D01*
X79980516Y-93708657D01*
X79740322Y-93685000D01*
X79740319Y-93685000D01*
X79660000Y-93677089D01*
X79579681Y-93685000D01*
X75967848Y-93685000D01*
X75682511Y-93566810D01*
X75875833Y-93501846D01*
X76098486Y-93382836D01*
X76218374Y-93097980D01*
X75120000Y-91999605D01*
X74021626Y-93097980D01*
X74141514Y-93382836D01*
X74465210Y-93543699D01*
X74554690Y-93567969D01*
X74250801Y-93693844D01*
X73950256Y-93894662D01*
X73694662Y-94150256D01*
X73493844Y-94450801D01*
X73355518Y-94784750D01*
X73285000Y-95139268D01*
X71127000Y-95139268D01*
X71127000Y-91874684D01*
X73276933Y-91874684D01*
X73323015Y-92233198D01*
X73438154Y-92575833D01*
X73557164Y-92798486D01*
X73842020Y-92918374D01*
X74940395Y-91820000D01*
X75299605Y-91820000D01*
X76397980Y-92918374D01*
X76682836Y-92798486D01*
X76843699Y-92474790D01*
X76938322Y-92125931D01*
X76963067Y-91765316D01*
X76916985Y-91406802D01*
X76801846Y-91064167D01*
X76682836Y-90841514D01*
X76397980Y-90721626D01*
X75299605Y-91820000D01*
X74940395Y-91820000D01*
X73842020Y-90721626D01*
X73557164Y-90841514D01*
X73396301Y-91165210D01*
X73301678Y-91514069D01*
X73276933Y-91874684D01*
X71127000Y-91874684D01*
X71127000Y-89597980D01*
X74021626Y-89597980D01*
X74141514Y-89882836D01*
X74465210Y-90043699D01*
X74564836Y-90070721D01*
X74364167Y-90138154D01*
X74141514Y-90257164D01*
X74021626Y-90542020D01*
X75120000Y-91640395D01*
X76218374Y-90542020D01*
X76098486Y-90257164D01*
X75774790Y-90096301D01*
X75675164Y-90069279D01*
X75875833Y-90001846D01*
X76098486Y-89882836D01*
X76218374Y-89597980D01*
X75120000Y-88499605D01*
X74021626Y-89597980D01*
X71127000Y-89597980D01*
X71127000Y-88374684D01*
X73276933Y-88374684D01*
X73323015Y-88733198D01*
X73438154Y-89075833D01*
X73557164Y-89298486D01*
X73842020Y-89418374D01*
X74940395Y-88320000D01*
X75299605Y-88320000D01*
X76397980Y-89418374D01*
X76682836Y-89298486D01*
X76843699Y-88974790D01*
X76938322Y-88625931D01*
X76963067Y-88265316D01*
X76916985Y-87906802D01*
X76801846Y-87564167D01*
X76682836Y-87341514D01*
X76397980Y-87221626D01*
X75299605Y-88320000D01*
X74940395Y-88320000D01*
X73842020Y-87221626D01*
X73557164Y-87341514D01*
X73396301Y-87665210D01*
X73301678Y-88014069D01*
X73276933Y-88374684D01*
X71127000Y-88374684D01*
X71127000Y-83620000D01*
X73281928Y-83620000D01*
X73281928Y-86020000D01*
X73294188Y-86144482D01*
X73330498Y-86264180D01*
X73389463Y-86374494D01*
X73468815Y-86471185D01*
X73565506Y-86550537D01*
X73675820Y-86609502D01*
X73795518Y-86645812D01*
X73920000Y-86658072D01*
X74326903Y-86658072D01*
X74141514Y-86757164D01*
X74021626Y-87042020D01*
X75120000Y-88140395D01*
X76218374Y-87042020D01*
X76098486Y-86757164D01*
X75899088Y-86658072D01*
X76320000Y-86658072D01*
X76444482Y-86645812D01*
X76564180Y-86609502D01*
X76674494Y-86550537D01*
X76771185Y-86471185D01*
X76850537Y-86374494D01*
X76909502Y-86264180D01*
X76945812Y-86144482D01*
X76958072Y-86020000D01*
X76958072Y-85900000D01*
X79761928Y-85900000D01*
X79761928Y-88100000D01*
X79774188Y-88224482D01*
X79810498Y-88344180D01*
X79869463Y-88454494D01*
X79948815Y-88551185D01*
X80045506Y-88630537D01*
X80155820Y-88689502D01*
X80275518Y-88725812D01*
X80400000Y-88738072D01*
X82600000Y-88738072D01*
X82724482Y-88725812D01*
X82844180Y-88689502D01*
X82954494Y-88630537D01*
X83051185Y-88551185D01*
X83130537Y-88454494D01*
X83189502Y-88344180D01*
X83225812Y-88224482D01*
X83234625Y-88135000D01*
X85365001Y-88135000D01*
X85365000Y-89822761D01*
X84287085Y-90900677D01*
X84133970Y-91087248D01*
X83982148Y-91371286D01*
X83888658Y-91679484D01*
X83857089Y-92000000D01*
X83888658Y-92320516D01*
X83982148Y-92628714D01*
X84133970Y-92912752D01*
X84338287Y-93161713D01*
X84587248Y-93366030D01*
X84871286Y-93517852D01*
X85179484Y-93611342D01*
X85500000Y-93642911D01*
X85820516Y-93611342D01*
X86128714Y-93517852D01*
X86412752Y-93366030D01*
X86599323Y-93212915D01*
X88099320Y-91712919D01*
X88161714Y-91661714D01*
X88366031Y-91412752D01*
X88517852Y-91128715D01*
X88611343Y-90820516D01*
X88635000Y-90580322D01*
X88635000Y-90580320D01*
X88642911Y-90500001D01*
X88635000Y-90419681D01*
X88635000Y-87492702D01*
X89686903Y-87492702D01*
X89758486Y-87736671D01*
X90013996Y-87857571D01*
X90288184Y-87926300D01*
X90570512Y-87940217D01*
X90850130Y-87898787D01*
X91116292Y-87803603D01*
X91241514Y-87736671D01*
X91313097Y-87492702D01*
X97686903Y-87492702D01*
X97758486Y-87736671D01*
X98013996Y-87857571D01*
X98288184Y-87926300D01*
X98570512Y-87940217D01*
X98850130Y-87898787D01*
X99116292Y-87803603D01*
X99241514Y-87736671D01*
X99313097Y-87492702D01*
X98500000Y-86679605D01*
X97686903Y-87492702D01*
X91313097Y-87492702D01*
X90500000Y-86679605D01*
X89686903Y-87492702D01*
X88635000Y-87492702D01*
X88635000Y-86580322D01*
X88635966Y-86570512D01*
X89059783Y-86570512D01*
X89101213Y-86850130D01*
X89196397Y-87116292D01*
X89263329Y-87241514D01*
X89507298Y-87313097D01*
X90320395Y-86500000D01*
X90679605Y-86500000D01*
X91492702Y-87313097D01*
X91736671Y-87241514D01*
X91857571Y-86986004D01*
X91926300Y-86711816D01*
X91933265Y-86570512D01*
X97059783Y-86570512D01*
X97101213Y-86850130D01*
X97196397Y-87116292D01*
X97263329Y-87241514D01*
X97507298Y-87313097D01*
X98320395Y-86500000D01*
X98679605Y-86500000D01*
X99492702Y-87313097D01*
X99736671Y-87241514D01*
X99857571Y-86986004D01*
X99926300Y-86711816D01*
X99940217Y-86429488D01*
X99898787Y-86149870D01*
X99803603Y-85883708D01*
X99736671Y-85758486D01*
X99492702Y-85686903D01*
X98679605Y-86500000D01*
X98320395Y-86500000D01*
X97507298Y-85686903D01*
X97263329Y-85758486D01*
X97142429Y-86013996D01*
X97073700Y-86288184D01*
X97059783Y-86570512D01*
X91933265Y-86570512D01*
X91940217Y-86429488D01*
X91898787Y-86149870D01*
X91803603Y-85883708D01*
X91736671Y-85758486D01*
X91492702Y-85686903D01*
X90679605Y-86500000D01*
X90320395Y-86500000D01*
X89507298Y-85686903D01*
X89263329Y-85758486D01*
X89142429Y-86013996D01*
X89073700Y-86288184D01*
X89059783Y-86570512D01*
X88635966Y-86570512D01*
X88642911Y-86500000D01*
X88620032Y-86267700D01*
X88611343Y-86179484D01*
X88517852Y-85871285D01*
X88438072Y-85722027D01*
X88438072Y-85700000D01*
X88425812Y-85575518D01*
X88405118Y-85507298D01*
X89686903Y-85507298D01*
X90500000Y-86320395D01*
X91313097Y-85507298D01*
X97686903Y-85507298D01*
X98500000Y-86320395D01*
X99313097Y-85507298D01*
X99241514Y-85263329D01*
X98986004Y-85142429D01*
X98711816Y-85073700D01*
X98429488Y-85059783D01*
X98149870Y-85101213D01*
X97883708Y-85196397D01*
X97758486Y-85263329D01*
X97686903Y-85507298D01*
X91313097Y-85507298D01*
X91241514Y-85263329D01*
X90986004Y-85142429D01*
X90711816Y-85073700D01*
X90429488Y-85059783D01*
X90149870Y-85101213D01*
X89883708Y-85196397D01*
X89758486Y-85263329D01*
X89686903Y-85507298D01*
X88405118Y-85507298D01*
X88389502Y-85455820D01*
X88330537Y-85345506D01*
X88251185Y-85248815D01*
X88154494Y-85169463D01*
X88044180Y-85110498D01*
X87924482Y-85074188D01*
X87800000Y-85061928D01*
X87777973Y-85061928D01*
X87628715Y-84982148D01*
X87320516Y-84888657D01*
X87000000Y-84857089D01*
X86919678Y-84865000D01*
X81919678Y-84865000D01*
X81679484Y-84888657D01*
X81371285Y-84982148D01*
X81087248Y-85133969D01*
X80931329Y-85261928D01*
X80400000Y-85261928D01*
X80275518Y-85274188D01*
X80155820Y-85310498D01*
X80045506Y-85369463D01*
X79948815Y-85448815D01*
X79869463Y-85545506D01*
X79810498Y-85655820D01*
X79774188Y-85775518D01*
X79761928Y-85900000D01*
X76958072Y-85900000D01*
X76958072Y-84385000D01*
X79245210Y-84385000D01*
X79307688Y-84478505D01*
X79521495Y-84692312D01*
X79772905Y-84860299D01*
X80052257Y-84976011D01*
X80348816Y-85035000D01*
X80651184Y-85035000D01*
X80947743Y-84976011D01*
X81227095Y-84860299D01*
X81478505Y-84692312D01*
X81692312Y-84478505D01*
X81860299Y-84227095D01*
X81976011Y-83947743D01*
X82035000Y-83651184D01*
X82035000Y-83348816D01*
X81976011Y-83052257D01*
X81860299Y-82772905D01*
X81692312Y-82521495D01*
X81478505Y-82307688D01*
X81227095Y-82139701D01*
X80947743Y-82023989D01*
X80651184Y-81965000D01*
X80348816Y-81965000D01*
X80052257Y-82023989D01*
X79772905Y-82139701D01*
X79521495Y-82307688D01*
X79307688Y-82521495D01*
X79245210Y-82615000D01*
X76483469Y-82615000D01*
X76440000Y-82610719D01*
X76396531Y-82615000D01*
X76396523Y-82615000D01*
X76266510Y-82627805D01*
X76099687Y-82678411D01*
X76097680Y-82679484D01*
X75945941Y-82760589D01*
X75844953Y-82843468D01*
X75844951Y-82843470D01*
X75811183Y-82871183D01*
X75783470Y-82904951D01*
X75706493Y-82981928D01*
X73920000Y-82981928D01*
X73795518Y-82994188D01*
X73675820Y-83030498D01*
X73565506Y-83089463D01*
X73468815Y-83168815D01*
X73389463Y-83265506D01*
X73330498Y-83375820D01*
X73294188Y-83495518D01*
X73281928Y-83620000D01*
X71127000Y-83620000D01*
X71127000Y-73779872D01*
X71765000Y-73779872D01*
X71765000Y-74220128D01*
X71850890Y-74651925D01*
X72019369Y-75058669D01*
X72263962Y-75424729D01*
X72575271Y-75736038D01*
X72941331Y-75980631D01*
X73348075Y-76149110D01*
X73779872Y-76235000D01*
X74220128Y-76235000D01*
X74651925Y-76149110D01*
X75058669Y-75980631D01*
X75424729Y-75736038D01*
X75736038Y-75424729D01*
X75980631Y-75058669D01*
X76149110Y-74651925D01*
X76235000Y-74220128D01*
X76235000Y-73779872D01*
X76149110Y-73348075D01*
X75980631Y-72941331D01*
X75736038Y-72575271D01*
X75424729Y-72263962D01*
X75058669Y-72019369D01*
X74651925Y-71850890D01*
X74220128Y-71765000D01*
X73779872Y-71765000D01*
X73348075Y-71850890D01*
X72941331Y-72019369D01*
X72575271Y-72263962D01*
X72263962Y-72575271D01*
X72019369Y-72941331D01*
X71850890Y-73348075D01*
X71765000Y-73779872D01*
X71127000Y-73779872D01*
X71127000Y-72006234D01*
X71144376Y-71829811D01*
X71194022Y-71666150D01*
X71274638Y-71515328D01*
X71383130Y-71383130D01*
X71515328Y-71274638D01*
X71666150Y-71194022D01*
X71829811Y-71144376D01*
X72006234Y-71127000D01*
X102493766Y-71127000D01*
X102670189Y-71144376D01*
G04 #@! TA.AperFunction,Conductor*
D28*
G36*
X102670189Y-71144376D02*
G01*
X102833850Y-71194022D01*
X102984672Y-71274638D01*
X103116870Y-71383130D01*
X103225362Y-71515328D01*
X103305978Y-71666150D01*
X103355624Y-71829811D01*
X103373000Y-72006234D01*
X103373000Y-75000000D01*
X103373612Y-75012448D01*
X103392827Y-75207538D01*
X103397683Y-75231956D01*
X103454588Y-75419549D01*
X103464116Y-75442550D01*
X103556526Y-75615437D01*
X103570358Y-75636138D01*
X103694721Y-75787675D01*
X103712325Y-75805279D01*
X103863862Y-75929642D01*
X103884563Y-75943474D01*
X104057450Y-76035884D01*
X104080451Y-76045412D01*
X104268044Y-76102317D01*
X104292462Y-76107173D01*
X104487552Y-76126388D01*
X104500000Y-76127000D01*
X108411928Y-76127000D01*
X108411928Y-77050000D01*
X108424188Y-77174482D01*
X108460498Y-77294180D01*
X108519463Y-77404494D01*
X108598815Y-77501185D01*
X108695506Y-77580537D01*
X108790544Y-77631337D01*
X108758025Y-77658025D01*
X108609942Y-77838464D01*
X108499906Y-78044326D01*
X108432147Y-78267700D01*
X108409267Y-78500000D01*
X108432147Y-78732300D01*
X108499906Y-78955674D01*
X108609942Y-79161536D01*
X108758025Y-79341975D01*
X108938464Y-79490058D01*
X108957064Y-79500000D01*
X108938464Y-79509942D01*
X108758025Y-79658025D01*
X108609942Y-79838464D01*
X108499906Y-80044326D01*
X108432147Y-80267700D01*
X108409267Y-80500000D01*
X108432147Y-80732300D01*
X108499906Y-80955674D01*
X108609942Y-81161536D01*
X108758025Y-81341975D01*
X108938464Y-81490058D01*
X108957064Y-81500000D01*
X108938464Y-81509942D01*
X108758025Y-81658025D01*
X108609942Y-81838464D01*
X108499906Y-82044326D01*
X108432147Y-82267700D01*
X108409267Y-82500000D01*
X108432147Y-82732300D01*
X108499906Y-82955674D01*
X108609942Y-83161536D01*
X108758025Y-83341975D01*
X108938464Y-83490058D01*
X108957064Y-83500000D01*
X108938464Y-83509942D01*
X108758025Y-83658025D01*
X108609942Y-83838464D01*
X108499906Y-84044326D01*
X108432147Y-84267700D01*
X108409267Y-84500000D01*
X108432147Y-84732300D01*
X108499906Y-84955674D01*
X108609942Y-85161536D01*
X108758025Y-85341975D01*
X108938464Y-85490058D01*
X108957064Y-85500000D01*
X108938464Y-85509942D01*
X108810451Y-85615000D01*
X108754790Y-85615000D01*
X108692312Y-85521495D01*
X108478505Y-85307688D01*
X108227095Y-85139701D01*
X107947743Y-85023989D01*
X107651184Y-84965000D01*
X107348816Y-84965000D01*
X107052257Y-85023989D01*
X106772905Y-85139701D01*
X106521495Y-85307688D01*
X106307688Y-85521495D01*
X106139701Y-85772905D01*
X106023989Y-86052257D01*
X105965000Y-86348816D01*
X105965000Y-86651184D01*
X106023989Y-86947743D01*
X106077911Y-87077920D01*
X105947743Y-87024003D01*
X105651184Y-86965014D01*
X105348816Y-86965014D01*
X105052257Y-87024003D01*
X104772905Y-87139715D01*
X104521495Y-87307702D01*
X104307688Y-87521509D01*
X104139701Y-87772919D01*
X104023989Y-88052271D01*
X103965000Y-88348830D01*
X103965000Y-88651198D01*
X104023989Y-88947757D01*
X104139701Y-89227109D01*
X104307688Y-89478519D01*
X104521495Y-89692326D01*
X104772905Y-89860313D01*
X105052257Y-89976025D01*
X105348816Y-90035014D01*
X105651184Y-90035014D01*
X105911667Y-89983201D01*
X105029869Y-90865000D01*
X103135000Y-90865000D01*
X103135000Y-87840957D01*
X103154494Y-87830537D01*
X103251185Y-87751185D01*
X103330537Y-87654494D01*
X103389502Y-87544180D01*
X103425812Y-87424482D01*
X103438072Y-87300000D01*
X103438072Y-85700000D01*
X103425812Y-85575518D01*
X103389502Y-85455820D01*
X103330537Y-85345506D01*
X103251185Y-85248815D01*
X103154494Y-85169463D01*
X103044180Y-85110498D01*
X102924482Y-85074188D01*
X102800000Y-85061928D01*
X101200000Y-85061928D01*
X101075518Y-85074188D01*
X100955820Y-85110498D01*
X100845506Y-85169463D01*
X100748815Y-85248815D01*
X100669463Y-85345506D01*
X100610498Y-85455820D01*
X100574188Y-85575518D01*
X100561928Y-85700000D01*
X100561928Y-87300000D01*
X100574188Y-87424482D01*
X100610498Y-87544180D01*
X100669463Y-87654494D01*
X100748815Y-87751185D01*
X100845506Y-87830537D01*
X100865000Y-87840957D01*
X100865001Y-90964182D01*
X100807688Y-91021495D01*
X100639701Y-91272905D01*
X100523989Y-91552257D01*
X100465000Y-91848816D01*
X100465000Y-92151184D01*
X100523989Y-92447743D01*
X100639701Y-92727095D01*
X100807688Y-92978505D01*
X101021495Y-93192312D01*
X101272905Y-93360299D01*
X101552257Y-93476011D01*
X101848816Y-93535000D01*
X102151184Y-93535000D01*
X102447743Y-93476011D01*
X102727095Y-93360299D01*
X102978505Y-93192312D01*
X103035817Y-93135000D01*
X105444249Y-93135000D01*
X105500000Y-93140491D01*
X105555751Y-93135000D01*
X105555752Y-93135000D01*
X105722499Y-93118577D01*
X105936447Y-93053676D01*
X106133623Y-92948284D01*
X106306449Y-92806449D01*
X106341996Y-92763135D01*
X107470132Y-91635000D01*
X109259397Y-91635000D01*
X109367700Y-91667853D01*
X109541793Y-91685000D01*
X111058207Y-91685000D01*
X111232300Y-91667853D01*
X111340603Y-91635000D01*
X111944249Y-91635000D01*
X112000000Y-91640491D01*
X112055751Y-91635000D01*
X112055752Y-91635000D01*
X112222499Y-91618577D01*
X112436447Y-91553676D01*
X112633623Y-91448284D01*
X112806449Y-91306449D01*
X112841996Y-91263135D01*
X113295387Y-90809744D01*
X123856197Y-90809744D01*
X123856601Y-90836147D01*
X123944150Y-91052754D01*
X124072275Y-91248119D01*
X124236052Y-91414734D01*
X124429187Y-91546196D01*
X124644258Y-91637454D01*
X124873000Y-91685000D01*
X125573000Y-91685000D01*
X125573000Y-90627000D01*
X125827000Y-90627000D01*
X125827000Y-91685000D01*
X126527000Y-91685000D01*
X126755742Y-91637454D01*
X126970813Y-91546196D01*
X127163948Y-91414734D01*
X127327725Y-91248119D01*
X127455850Y-91052754D01*
X127543399Y-90836147D01*
X127543803Y-90809744D01*
X127418361Y-90627000D01*
X125827000Y-90627000D01*
X125573000Y-90627000D01*
X123981639Y-90627000D01*
X123856197Y-90809744D01*
X113295387Y-90809744D01*
X114070132Y-90035000D01*
X114151184Y-90035000D01*
X114447743Y-89976011D01*
X114727095Y-89860299D01*
X114978505Y-89692312D01*
X115192312Y-89478505D01*
X115360299Y-89227095D01*
X115476011Y-88947743D01*
X115535000Y-88651184D01*
X115535000Y-88348816D01*
X115476011Y-88052257D01*
X115360299Y-87772905D01*
X115192312Y-87521495D01*
X114978505Y-87307688D01*
X114727095Y-87139701D01*
X114447743Y-87023989D01*
X114151184Y-86965000D01*
X113848816Y-86965000D01*
X113552257Y-87023989D01*
X113272905Y-87139701D01*
X113021495Y-87307688D01*
X112807688Y-87521495D01*
X112639701Y-87772905D01*
X112523989Y-88052257D01*
X112465000Y-88348816D01*
X112465000Y-88429868D01*
X112168430Y-88726438D01*
X112190733Y-88500000D01*
X112167853Y-88267700D01*
X112100094Y-88044326D01*
X111990058Y-87838464D01*
X111841975Y-87658025D01*
X111661536Y-87509942D01*
X111642936Y-87500000D01*
X111661536Y-87490058D01*
X111841975Y-87341975D01*
X111990058Y-87161536D01*
X112100094Y-86955674D01*
X112167853Y-86732300D01*
X112190733Y-86500000D01*
X112167853Y-86267700D01*
X112100094Y-86044326D01*
X111990058Y-85838464D01*
X111841975Y-85658025D01*
X111661536Y-85509942D01*
X111642936Y-85500000D01*
X111661536Y-85490058D01*
X111841975Y-85341975D01*
X111990058Y-85161536D01*
X112100094Y-84955674D01*
X112167853Y-84732300D01*
X112190733Y-84500000D01*
X112167853Y-84267700D01*
X112100094Y-84044326D01*
X111990058Y-83838464D01*
X111841975Y-83658025D01*
X111661536Y-83509942D01*
X111642936Y-83500000D01*
X111661536Y-83490058D01*
X111841975Y-83341975D01*
X111990058Y-83161536D01*
X112100094Y-82955674D01*
X112167853Y-82732300D01*
X112190733Y-82500000D01*
X112167853Y-82267700D01*
X112100094Y-82044326D01*
X111990058Y-81838464D01*
X111841975Y-81658025D01*
X111661536Y-81509942D01*
X111642936Y-81500000D01*
X111661536Y-81490058D01*
X111789549Y-81385000D01*
X112956533Y-81385000D01*
X113000002Y-81389281D01*
X113043471Y-81385000D01*
X113043479Y-81385000D01*
X113173492Y-81372195D01*
X113340315Y-81321589D01*
X113494061Y-81239411D01*
X113628819Y-81128817D01*
X113656536Y-81095044D01*
X113738520Y-81013060D01*
X113848818Y-81035000D01*
X114151186Y-81035000D01*
X114447745Y-80976011D01*
X114727097Y-80860299D01*
X114978507Y-80692312D01*
X115192314Y-80478505D01*
X115254792Y-80385000D01*
X121093269Y-80385000D01*
X121023989Y-80552257D01*
X120965000Y-80848816D01*
X120965000Y-81151184D01*
X121023989Y-81447743D01*
X121093269Y-81615000D01*
X120667462Y-81615000D01*
X120447743Y-81523989D01*
X120151184Y-81465000D01*
X119848816Y-81465000D01*
X119552257Y-81523989D01*
X119272905Y-81639701D01*
X119021495Y-81807688D01*
X118807688Y-82021495D01*
X118639701Y-82272905D01*
X118523989Y-82552257D01*
X118465000Y-82848816D01*
X118465000Y-83151184D01*
X118523989Y-83447743D01*
X118639701Y-83727095D01*
X118807688Y-83978505D01*
X119021495Y-84192312D01*
X119107834Y-84250002D01*
X119021501Y-84307688D01*
X118807694Y-84521495D01*
X118639707Y-84772905D01*
X118523995Y-85052257D01*
X118465006Y-85348816D01*
X118465006Y-85651184D01*
X118523995Y-85947743D01*
X118639707Y-86227095D01*
X118807694Y-86478505D01*
X119021501Y-86692312D01*
X119272911Y-86860299D01*
X119552263Y-86976011D01*
X119848822Y-87035000D01*
X120151190Y-87035000D01*
X120447749Y-86976011D01*
X120727101Y-86860299D01*
X120978511Y-86692312D01*
X121192318Y-86478505D01*
X121360305Y-86227095D01*
X121476017Y-85947743D01*
X121535006Y-85651184D01*
X121535006Y-85385000D01*
X124210451Y-85385000D01*
X124338464Y-85490058D01*
X124357064Y-85500000D01*
X124338464Y-85509942D01*
X124158025Y-85658025D01*
X124009942Y-85838464D01*
X123899906Y-86044326D01*
X123832147Y-86267700D01*
X123809267Y-86500000D01*
X123832147Y-86732300D01*
X123899906Y-86955674D01*
X124009942Y-87161536D01*
X124158025Y-87341975D01*
X124338464Y-87490058D01*
X124357064Y-87500000D01*
X124338464Y-87509942D01*
X124158025Y-87658025D01*
X124009942Y-87838464D01*
X123899906Y-88044326D01*
X123832147Y-88267700D01*
X123809267Y-88500000D01*
X123832147Y-88732300D01*
X123899906Y-88955674D01*
X124009942Y-89161536D01*
X124158025Y-89341975D01*
X124338464Y-89490058D01*
X124359447Y-89501274D01*
X124236052Y-89585266D01*
X124072275Y-89751881D01*
X123944150Y-89947246D01*
X123856601Y-90163853D01*
X123856197Y-90190256D01*
X123981639Y-90373000D01*
X125573000Y-90373000D01*
X125573000Y-90353000D01*
X125827000Y-90353000D01*
X125827000Y-90373000D01*
X127418361Y-90373000D01*
X127543803Y-90190256D01*
X127543399Y-90163853D01*
X127455850Y-89947246D01*
X127327725Y-89751881D01*
X127163948Y-89585266D01*
X127040553Y-89501274D01*
X127061536Y-89490058D01*
X127189549Y-89385000D01*
X127511509Y-89385000D01*
X127523989Y-89447743D01*
X127639701Y-89727095D01*
X127807688Y-89978505D01*
X128021495Y-90192312D01*
X128272905Y-90360299D01*
X128552257Y-90476011D01*
X128848816Y-90535000D01*
X129151184Y-90535000D01*
X129447743Y-90476011D01*
X129727095Y-90360299D01*
X129978505Y-90192312D01*
X130192312Y-89978505D01*
X130360299Y-89727095D01*
X130444509Y-89523794D01*
X135165000Y-89523794D01*
X135165000Y-90476206D01*
X135350807Y-91410317D01*
X135715279Y-92290231D01*
X136244411Y-93082133D01*
X136917867Y-93755589D01*
X137709769Y-94284721D01*
X138589683Y-94649193D01*
X139523794Y-94835000D01*
X140476206Y-94835000D01*
X141410317Y-94649193D01*
X142290231Y-94284721D01*
X143082133Y-93755589D01*
X143755589Y-93082133D01*
X144284721Y-92290231D01*
X144382287Y-92054684D01*
X163156933Y-92054684D01*
X163203015Y-92413198D01*
X163318154Y-92755833D01*
X163437164Y-92978486D01*
X163722020Y-93098374D01*
X164820395Y-92000000D01*
X163722020Y-90901626D01*
X163437164Y-91021514D01*
X163276301Y-91345210D01*
X163181678Y-91694069D01*
X163156933Y-92054684D01*
X144382287Y-92054684D01*
X144649193Y-91410317D01*
X144835000Y-90476206D01*
X144835000Y-89777980D01*
X163901626Y-89777980D01*
X164021514Y-90062836D01*
X164345210Y-90223699D01*
X164444836Y-90250721D01*
X164244167Y-90318154D01*
X164021514Y-90437164D01*
X163901626Y-90722020D01*
X165000000Y-91820395D01*
X166098374Y-90722020D01*
X165978486Y-90437164D01*
X165654790Y-90276301D01*
X165555164Y-90249279D01*
X165755833Y-90181846D01*
X165978486Y-90062836D01*
X166098374Y-89777980D01*
X165000000Y-88679605D01*
X163901626Y-89777980D01*
X144835000Y-89777980D01*
X144835000Y-89523794D01*
X144649193Y-88589683D01*
X144634696Y-88554684D01*
X163156933Y-88554684D01*
X163203015Y-88913198D01*
X163318154Y-89255833D01*
X163437164Y-89478486D01*
X163722020Y-89598374D01*
X164820395Y-88500000D01*
X163722020Y-87401626D01*
X163437164Y-87521514D01*
X163276301Y-87845210D01*
X163181678Y-88194069D01*
X163156933Y-88554684D01*
X144634696Y-88554684D01*
X144284721Y-87709769D01*
X143755589Y-86917867D01*
X143082133Y-86244411D01*
X142290231Y-85715279D01*
X141410317Y-85350807D01*
X140476206Y-85165000D01*
X139523794Y-85165000D01*
X138589683Y-85350807D01*
X137709769Y-85715279D01*
X136917867Y-86244411D01*
X136244411Y-86917867D01*
X135715279Y-87709769D01*
X135350807Y-88589683D01*
X135165000Y-89523794D01*
X130444509Y-89523794D01*
X130476011Y-89447743D01*
X130535000Y-89151184D01*
X130535000Y-88848816D01*
X130476011Y-88552257D01*
X130360299Y-88272905D01*
X130192312Y-88021495D01*
X129978505Y-87807688D01*
X129727095Y-87639701D01*
X129588519Y-87582300D01*
X129692314Y-87478505D01*
X129860301Y-87227095D01*
X129976013Y-86947743D01*
X130035002Y-86651184D01*
X130035002Y-86348816D01*
X129976013Y-86052257D01*
X129860301Y-85772905D01*
X129692314Y-85521495D01*
X129478507Y-85307688D01*
X129227097Y-85139701D01*
X128947745Y-85023989D01*
X128651186Y-84965000D01*
X128348818Y-84965000D01*
X128052259Y-85023989D01*
X127772907Y-85139701D01*
X127521497Y-85307688D01*
X127307690Y-85521495D01*
X127245212Y-85615000D01*
X127189549Y-85615000D01*
X127061536Y-85509942D01*
X127042936Y-85500000D01*
X127061536Y-85490058D01*
X127223718Y-85356958D01*
X127340313Y-85321589D01*
X127494059Y-85239411D01*
X127628817Y-85128817D01*
X127656534Y-85095044D01*
X128595050Y-84156529D01*
X128628817Y-84128817D01*
X128739411Y-83994059D01*
X128787038Y-83904954D01*
X128821589Y-83840314D01*
X128872195Y-83673490D01*
X128876605Y-83628714D01*
X128885000Y-83543477D01*
X128885000Y-83543469D01*
X128889281Y-83500000D01*
X128885000Y-83456531D01*
X128885000Y-81866578D01*
X130366579Y-80385000D01*
X139536531Y-80385000D01*
X139580000Y-80389281D01*
X139623469Y-80385000D01*
X139623477Y-80385000D01*
X139753490Y-80372195D01*
X139920313Y-80321589D01*
X140074059Y-80239411D01*
X140208817Y-80128817D01*
X140236534Y-80095044D01*
X145343507Y-74988072D01*
X146430000Y-74988072D01*
X146554482Y-74975812D01*
X146674180Y-74939502D01*
X146784494Y-74880537D01*
X146881185Y-74801185D01*
X146960537Y-74704494D01*
X147019502Y-74594180D01*
X147055812Y-74474482D01*
X147068072Y-74350000D01*
X147068072Y-73779872D01*
X163765000Y-73779872D01*
X163765000Y-74220128D01*
X163850890Y-74651925D01*
X164019369Y-75058669D01*
X164263962Y-75424729D01*
X164575271Y-75736038D01*
X164941331Y-75980631D01*
X165348075Y-76149110D01*
X165779872Y-76235000D01*
X166220128Y-76235000D01*
X166651925Y-76149110D01*
X167058669Y-75980631D01*
X167424729Y-75736038D01*
X167736038Y-75424729D01*
X167980631Y-75058669D01*
X168149110Y-74651925D01*
X168235000Y-74220128D01*
X168235000Y-73779872D01*
X168149110Y-73348075D01*
X167980631Y-72941331D01*
X167736038Y-72575271D01*
X167424729Y-72263962D01*
X167058669Y-72019369D01*
X166651925Y-71850890D01*
X166220128Y-71765000D01*
X165779872Y-71765000D01*
X165348075Y-71850890D01*
X164941331Y-72019369D01*
X164575271Y-72263962D01*
X164263962Y-72575271D01*
X164019369Y-72941331D01*
X163850890Y-73348075D01*
X163765000Y-73779872D01*
X147068072Y-73779872D01*
X147068072Y-72650000D01*
X147055812Y-72525518D01*
X147019502Y-72405820D01*
X146960537Y-72295506D01*
X146881185Y-72198815D01*
X146784494Y-72119463D01*
X146674180Y-72060498D01*
X146554482Y-72024188D01*
X146430000Y-72011928D01*
X144730000Y-72011928D01*
X144605518Y-72024188D01*
X144485820Y-72060498D01*
X144375506Y-72119463D01*
X144278815Y-72198815D01*
X144199463Y-72295506D01*
X144140498Y-72405820D01*
X144118487Y-72478380D01*
X143986632Y-72346525D01*
X143743411Y-72184010D01*
X143473158Y-72072068D01*
X143186260Y-72015000D01*
X142893740Y-72015000D01*
X142606842Y-72072068D01*
X142336589Y-72184010D01*
X142093368Y-72346525D01*
X141886525Y-72553368D01*
X141770000Y-72727760D01*
X141653475Y-72553368D01*
X141446632Y-72346525D01*
X141203411Y-72184010D01*
X140933158Y-72072068D01*
X140646260Y-72015000D01*
X140353740Y-72015000D01*
X140066842Y-72072068D01*
X139796589Y-72184010D01*
X139553368Y-72346525D01*
X139346525Y-72553368D01*
X139230000Y-72727760D01*
X139113475Y-72553368D01*
X138906632Y-72346525D01*
X138663411Y-72184010D01*
X138393158Y-72072068D01*
X138106260Y-72015000D01*
X137813740Y-72015000D01*
X137526842Y-72072068D01*
X137256589Y-72184010D01*
X137013368Y-72346525D01*
X136806525Y-72553368D01*
X136684805Y-72735534D01*
X136615178Y-72618645D01*
X136420269Y-72402412D01*
X136186920Y-72228359D01*
X135924099Y-72103175D01*
X135776890Y-72058524D01*
X135547000Y-72179845D01*
X135547000Y-73373000D01*
X135567000Y-73373000D01*
X135567000Y-73627000D01*
X135547000Y-73627000D01*
X135547000Y-73647000D01*
X135293000Y-73647000D01*
X135293000Y-73627000D01*
X134099186Y-73627000D01*
X133978519Y-73856891D01*
X134075843Y-74131252D01*
X134224822Y-74381355D01*
X134419731Y-74597588D01*
X134653080Y-74771641D01*
X134915901Y-74896825D01*
X135063110Y-74941476D01*
X135292998Y-74820156D01*
X135292998Y-74915424D01*
X134593422Y-75615000D01*
X132443708Y-75615000D01*
X132535884Y-75442550D01*
X132545412Y-75419549D01*
X132602317Y-75231956D01*
X132607173Y-75207538D01*
X132626388Y-75012448D01*
X132627000Y-75000000D01*
X132627000Y-73143109D01*
X133978519Y-73143109D01*
X134099186Y-73373000D01*
X135293000Y-73373000D01*
X135293000Y-72179845D01*
X135063110Y-72058524D01*
X134915901Y-72103175D01*
X134653080Y-72228359D01*
X134419731Y-72402412D01*
X134224822Y-72618645D01*
X134075843Y-72868748D01*
X133978519Y-73143109D01*
X132627000Y-73143109D01*
X132627000Y-72006234D01*
X132644376Y-71829811D01*
X132694022Y-71666150D01*
X132774638Y-71515328D01*
X132883130Y-71383130D01*
X133015328Y-71274638D01*
X133166150Y-71194022D01*
X133329811Y-71144376D01*
X133506234Y-71127000D01*
X167993766Y-71127000D01*
X168170189Y-71144376D01*
X168333850Y-71194022D01*
X168484672Y-71274638D01*
X168616870Y-71383130D01*
X168725362Y-71515328D01*
X168805978Y-71666150D01*
X168855624Y-71829811D01*
X168873000Y-72006234D01*
X168873000Y-81560761D01*
X167712925Y-80400686D01*
X167661714Y-80338286D01*
X167412752Y-80133969D01*
X167128715Y-79982148D01*
X166820516Y-79888657D01*
X166580322Y-79865000D01*
X166580319Y-79865000D01*
X166500000Y-79857089D01*
X166419681Y-79865000D01*
X165847848Y-79865000D01*
X165535250Y-79735518D01*
X165180732Y-79665000D01*
X164819268Y-79665000D01*
X164464750Y-79735518D01*
X164130801Y-79873844D01*
X163830256Y-80074662D01*
X163574662Y-80330256D01*
X163384402Y-80615000D01*
X161254790Y-80615000D01*
X161192312Y-80521495D01*
X160978505Y-80307688D01*
X160727095Y-80139701D01*
X160447743Y-80023989D01*
X160151184Y-79965000D01*
X159848816Y-79965000D01*
X159552257Y-80023989D01*
X159272905Y-80139701D01*
X159021495Y-80307688D01*
X158807688Y-80521495D01*
X158639701Y-80772905D01*
X158523989Y-81052257D01*
X158465000Y-81348816D01*
X158465000Y-81651184D01*
X158523989Y-81947743D01*
X158639701Y-82227095D01*
X158807688Y-82478505D01*
X159021495Y-82692312D01*
X159272905Y-82860299D01*
X159552257Y-82976011D01*
X159848816Y-83035000D01*
X160151184Y-83035000D01*
X160447743Y-82976011D01*
X160727095Y-82860299D01*
X160978505Y-82692312D01*
X161192312Y-82478505D01*
X161254790Y-82385000D01*
X163384402Y-82385000D01*
X163574662Y-82669744D01*
X163830256Y-82925338D01*
X164130801Y-83126156D01*
X164429787Y-83250000D01*
X164130801Y-83373844D01*
X163830256Y-83574662D01*
X163574662Y-83830256D01*
X163384402Y-84115000D01*
X161254790Y-84115000D01*
X161192312Y-84021495D01*
X160978505Y-83807688D01*
X160727095Y-83639701D01*
X160447743Y-83523989D01*
X160151184Y-83465000D01*
X159848816Y-83465000D01*
X159552257Y-83523989D01*
X159272905Y-83639701D01*
X159021495Y-83807688D01*
X158807688Y-84021495D01*
X158639701Y-84272905D01*
X158523989Y-84552257D01*
X158465000Y-84848816D01*
X158465000Y-85151184D01*
X158523989Y-85447743D01*
X158639701Y-85727095D01*
X158807688Y-85978505D01*
X159021495Y-86192312D01*
X159272905Y-86360299D01*
X159552257Y-86476011D01*
X159848816Y-86535000D01*
X160151184Y-86535000D01*
X160447743Y-86476011D01*
X160727095Y-86360299D01*
X160978505Y-86192312D01*
X161192312Y-85978505D01*
X161254790Y-85885000D01*
X163384402Y-85885000D01*
X163574662Y-86169744D01*
X163830256Y-86425338D01*
X164130801Y-86626156D01*
X164437489Y-86753190D01*
X164244167Y-86818154D01*
X164021514Y-86937164D01*
X163901626Y-87222020D01*
X165000000Y-88320395D01*
X166098374Y-87222020D01*
X165978486Y-86937164D01*
X165654790Y-86776301D01*
X165565310Y-86752031D01*
X165869199Y-86626156D01*
X166169744Y-86425338D01*
X166365001Y-86230081D01*
X166365001Y-87438251D01*
X166277980Y-87401626D01*
X165179605Y-88500000D01*
X166277980Y-89598374D01*
X166365001Y-89561749D01*
X166365000Y-90938250D01*
X166277980Y-90901626D01*
X165179605Y-92000000D01*
X166277980Y-93098374D01*
X166365000Y-93061750D01*
X166365000Y-94269918D01*
X166169744Y-94074662D01*
X165869199Y-93873844D01*
X165562511Y-93746810D01*
X165755833Y-93681846D01*
X165978486Y-93562836D01*
X166098374Y-93277980D01*
X165000000Y-92179605D01*
X163901626Y-93277980D01*
X164021514Y-93562836D01*
X164345210Y-93723699D01*
X164434690Y-93747969D01*
X164130801Y-93873844D01*
X163830256Y-94074662D01*
X163574662Y-94330256D01*
X163384402Y-94615000D01*
X161254790Y-94615000D01*
X161192312Y-94521495D01*
X160978505Y-94307688D01*
X160727095Y-94139701D01*
X160447743Y-94023989D01*
X160151184Y-93965000D01*
X159848816Y-93965000D01*
X159552257Y-94023989D01*
X159272905Y-94139701D01*
X159021495Y-94307688D01*
X158807688Y-94521495D01*
X158639701Y-94772905D01*
X158523989Y-95052257D01*
X158465000Y-95348816D01*
X158465000Y-95651184D01*
X158523989Y-95947743D01*
X158639701Y-96227095D01*
X158807688Y-96478505D01*
X159021495Y-96692312D01*
X159272905Y-96860299D01*
X159552257Y-96976011D01*
X159848816Y-97035000D01*
X160151184Y-97035000D01*
X160447743Y-96976011D01*
X160727095Y-96860299D01*
X160978505Y-96692312D01*
X161192312Y-96478505D01*
X161254790Y-96385000D01*
X163384402Y-96385000D01*
X163574662Y-96669744D01*
X163830256Y-96925338D01*
X164130801Y-97126156D01*
X164217162Y-97161928D01*
X163800000Y-97161928D01*
X163675518Y-97174188D01*
X163555820Y-97210498D01*
X163445506Y-97269463D01*
X163348815Y-97348815D01*
X163335532Y-97365000D01*
X162580319Y-97365000D01*
X162499999Y-97357089D01*
X162419680Y-97365000D01*
X162419678Y-97365000D01*
X162179484Y-97388657D01*
X161871285Y-97482148D01*
X161587248Y-97633969D01*
X161338286Y-97838286D01*
X161287080Y-97900682D01*
X159400687Y-99787075D01*
X159338286Y-99838286D01*
X159133969Y-100087249D01*
X158982148Y-100371286D01*
X158888657Y-100679485D01*
X158865000Y-100919678D01*
X158857089Y-101000000D01*
X158865000Y-101080320D01*
X158865001Y-102822761D01*
X158400698Y-103287064D01*
X158338298Y-103338274D01*
X158133981Y-103587237D01*
X157982160Y-103871274D01*
X157888669Y-104179473D01*
X157869376Y-104375358D01*
X157857101Y-104499988D01*
X157865012Y-104580307D01*
X157865012Y-104580322D01*
X157888669Y-104820516D01*
X157982160Y-105128715D01*
X158133981Y-105412752D01*
X158338298Y-105661714D01*
X158587261Y-105866031D01*
X158871298Y-106017852D01*
X159179497Y-106111343D01*
X159500012Y-106142911D01*
X159820528Y-106111343D01*
X160128727Y-106017852D01*
X160412764Y-105866031D01*
X160517749Y-105779872D01*
X163765000Y-105779872D01*
X163765000Y-106220128D01*
X163850890Y-106651925D01*
X164019369Y-107058669D01*
X164263962Y-107424729D01*
X164575271Y-107736038D01*
X164941331Y-107980631D01*
X165348075Y-108149110D01*
X165779872Y-108235000D01*
X166220128Y-108235000D01*
X166651925Y-108149110D01*
X167058669Y-107980631D01*
X167424729Y-107736038D01*
X167736038Y-107424729D01*
X167980631Y-107058669D01*
X168149110Y-106651925D01*
X168235000Y-106220128D01*
X168235000Y-105779872D01*
X168149110Y-105348075D01*
X167980631Y-104941331D01*
X167736038Y-104575271D01*
X167424729Y-104263962D01*
X167058669Y-104019369D01*
X166651925Y-103850890D01*
X166220128Y-103765000D01*
X165779872Y-103765000D01*
X165348075Y-103850890D01*
X164941331Y-104019369D01*
X164575271Y-104263962D01*
X164263962Y-104575271D01*
X164019369Y-104941331D01*
X163850890Y-105348075D01*
X163765000Y-105779872D01*
X160517749Y-105779872D01*
X160661726Y-105661714D01*
X160712990Y-105599248D01*
X161599318Y-104712921D01*
X161661714Y-104661714D01*
X161866031Y-104412752D01*
X162017852Y-104128715D01*
X162052632Y-104014060D01*
X162111343Y-103820517D01*
X162142911Y-103500000D01*
X162135000Y-103419678D01*
X162135000Y-101677238D01*
X163177239Y-100635000D01*
X163335532Y-100635000D01*
X163348815Y-100651185D01*
X163445506Y-100730537D01*
X163555820Y-100789502D01*
X163675518Y-100825812D01*
X163800000Y-100838072D01*
X166200000Y-100838072D01*
X166324482Y-100825812D01*
X166444180Y-100789502D01*
X166554494Y-100730537D01*
X166651185Y-100651185D01*
X166671867Y-100625984D01*
X166820516Y-100611343D01*
X167128715Y-100517852D01*
X167412752Y-100366031D01*
X167661714Y-100161714D01*
X167712925Y-100099314D01*
X168873000Y-98939239D01*
X168873000Y-107993766D01*
X168855624Y-108170189D01*
X168805978Y-108333850D01*
X168725362Y-108484672D01*
X168616870Y-108616870D01*
X168484672Y-108725362D01*
X168333850Y-108805978D01*
X168170189Y-108855624D01*
X167993766Y-108873000D01*
X72006234Y-108873000D01*
X71829811Y-108855624D01*
X71666150Y-108805978D01*
X71515328Y-108725362D01*
X71383130Y-108616870D01*
X71274638Y-108484672D01*
X71194022Y-108333850D01*
X71144376Y-108170189D01*
X71127000Y-107993766D01*
X71127000Y-105779872D01*
X71765000Y-105779872D01*
X71765000Y-106220128D01*
X71850890Y-106651925D01*
X72019369Y-107058669D01*
X72263962Y-107424729D01*
X72575271Y-107736038D01*
X72941331Y-107980631D01*
X73348075Y-108149110D01*
X73779872Y-108235000D01*
X74220128Y-108235000D01*
X74651925Y-108149110D01*
X75058669Y-107980631D01*
X75424729Y-107736038D01*
X75736038Y-107424729D01*
X75980631Y-107058669D01*
X76149110Y-106651925D01*
X76235000Y-106220128D01*
X76235000Y-105779872D01*
X76219113Y-105700000D01*
X82661928Y-105700000D01*
X82674188Y-105824482D01*
X82710498Y-105944180D01*
X82769463Y-106054494D01*
X82848815Y-106151185D01*
X82945506Y-106230537D01*
X83055820Y-106289502D01*
X83175518Y-106325812D01*
X83300000Y-106338072D01*
X83714250Y-106335000D01*
X83873000Y-106176250D01*
X83873000Y-105127000D01*
X82823750Y-105127000D01*
X82665000Y-105285750D01*
X82661928Y-105700000D01*
X76219113Y-105700000D01*
X76149110Y-105348075D01*
X75980631Y-104941331D01*
X75736038Y-104575271D01*
X75460767Y-104300000D01*
X82661928Y-104300000D01*
X82665000Y-104714250D01*
X82823750Y-104873000D01*
X83873000Y-104873000D01*
X83873000Y-103823750D01*
X84127000Y-103823750D01*
X84127000Y-104873000D01*
X84147000Y-104873000D01*
X84147000Y-105127000D01*
X84127000Y-105127000D01*
X84127000Y-106176250D01*
X84285750Y-106335000D01*
X84700000Y-106338072D01*
X84824482Y-106325812D01*
X84944180Y-106289502D01*
X85054494Y-106230537D01*
X85151185Y-106151185D01*
X85230537Y-106054494D01*
X85289502Y-105944180D01*
X85325812Y-105824482D01*
X85338072Y-105700000D01*
X85337217Y-105584747D01*
X85356939Y-105632359D01*
X85503038Y-105851013D01*
X85688987Y-106036962D01*
X85907641Y-106183061D01*
X86150595Y-106283696D01*
X86408514Y-106335000D01*
X86671486Y-106335000D01*
X86929405Y-106283696D01*
X87172359Y-106183061D01*
X87391013Y-106036962D01*
X87540736Y-105887239D01*
X87563469Y-105885000D01*
X87563477Y-105885000D01*
X87693490Y-105872195D01*
X87860313Y-105821589D01*
X88014059Y-105739411D01*
X88148817Y-105628817D01*
X88176534Y-105595044D01*
X88903064Y-104868514D01*
X90285000Y-104868514D01*
X90285000Y-105131486D01*
X90336304Y-105389405D01*
X90436939Y-105632359D01*
X90583038Y-105851013D01*
X90768987Y-106036962D01*
X90987641Y-106183061D01*
X91230595Y-106283696D01*
X91488514Y-106335000D01*
X91751486Y-106335000D01*
X92009405Y-106283696D01*
X92252359Y-106183061D01*
X92471013Y-106036962D01*
X92656962Y-105851013D01*
X92803061Y-105632359D01*
X92903696Y-105389405D01*
X92955000Y-105131486D01*
X92955000Y-105025000D01*
X93497301Y-105025000D01*
X93529407Y-105130838D01*
X93611325Y-105284097D01*
X93721570Y-105418430D01*
X93855903Y-105528675D01*
X94009162Y-105610593D01*
X94125074Y-105645755D01*
X94127805Y-105673490D01*
X94178412Y-105840313D01*
X94260590Y-105994059D01*
X94343468Y-106095046D01*
X94343471Y-106095049D01*
X94371184Y-106128817D01*
X94404951Y-106156529D01*
X95343470Y-107095049D01*
X95371183Y-107128817D01*
X95404951Y-107156530D01*
X95404953Y-107156532D01*
X95505941Y-107239411D01*
X95659686Y-107321589D01*
X95826510Y-107372195D01*
X95956523Y-107385000D01*
X95956531Y-107385000D01*
X96000000Y-107389281D01*
X96043469Y-107385000D01*
X101456529Y-107385000D01*
X101499998Y-107389281D01*
X101543467Y-107385000D01*
X101543475Y-107385000D01*
X101673488Y-107372195D01*
X101840311Y-107321589D01*
X101994057Y-107239411D01*
X102128815Y-107128817D01*
X102156532Y-107095044D01*
X103238518Y-106013058D01*
X103348816Y-106034998D01*
X103651184Y-106034998D01*
X103947743Y-105976009D01*
X104227095Y-105860297D01*
X104478505Y-105692310D01*
X104692312Y-105478503D01*
X104860299Y-105227093D01*
X104976011Y-104947741D01*
X105035000Y-104651182D01*
X105035000Y-104348814D01*
X104976011Y-104052255D01*
X104860299Y-103772903D01*
X104692312Y-103521493D01*
X104478505Y-103307686D01*
X104227095Y-103139699D01*
X104216748Y-103135413D01*
X109544192Y-103135413D01*
X109639956Y-103399814D01*
X109929571Y-103540704D01*
X110241108Y-103622384D01*
X110562595Y-103641718D01*
X110881675Y-103597961D01*
X111186088Y-103492795D01*
X111360044Y-103399814D01*
X111455808Y-103135413D01*
X116044192Y-103135413D01*
X116139956Y-103399814D01*
X116429571Y-103540704D01*
X116741108Y-103622384D01*
X117062595Y-103641718D01*
X117381675Y-103597961D01*
X117686088Y-103492795D01*
X117860044Y-103399814D01*
X117955808Y-103135413D01*
X121044192Y-103135413D01*
X121139956Y-103399814D01*
X121429571Y-103540704D01*
X121741108Y-103622384D01*
X122062595Y-103641718D01*
X122381675Y-103597961D01*
X122686088Y-103492795D01*
X122860044Y-103399814D01*
X122955808Y-103135413D01*
X127544192Y-103135413D01*
X127639956Y-103399814D01*
X127929571Y-103540704D01*
X128241108Y-103622384D01*
X128562595Y-103641718D01*
X128881675Y-103597961D01*
X129186088Y-103492795D01*
X129360044Y-103399814D01*
X129455808Y-103135413D01*
X128500000Y-102179605D01*
X127544192Y-103135413D01*
X122955808Y-103135413D01*
X122000000Y-102179605D01*
X121044192Y-103135413D01*
X117955808Y-103135413D01*
X117000000Y-102179605D01*
X116044192Y-103135413D01*
X111455808Y-103135413D01*
X110500000Y-102179605D01*
X109544192Y-103135413D01*
X104216748Y-103135413D01*
X103947743Y-103023987D01*
X103651184Y-102964998D01*
X103348816Y-102964998D01*
X103052257Y-103023987D01*
X102772905Y-103139699D01*
X102521495Y-103307686D01*
X102307688Y-103521493D01*
X102139701Y-103772903D01*
X102023989Y-104052255D01*
X101965000Y-104348814D01*
X101965000Y-104651182D01*
X101986940Y-104761480D01*
X101133420Y-105615000D01*
X100530184Y-105615000D01*
X100807095Y-105500299D01*
X101058505Y-105332312D01*
X101272312Y-105118505D01*
X101440299Y-104867095D01*
X101556011Y-104587743D01*
X101615000Y-104291184D01*
X101615000Y-103988816D01*
X101593060Y-103878518D01*
X102470200Y-103001379D01*
X102597733Y-102976011D01*
X102877085Y-102860299D01*
X103128495Y-102692312D01*
X103342302Y-102478505D01*
X103510289Y-102227095D01*
X103578427Y-102062595D01*
X108858282Y-102062595D01*
X108902039Y-102381675D01*
X109007205Y-102686088D01*
X109100186Y-102860044D01*
X109364587Y-102955808D01*
X110320395Y-102000000D01*
X110679605Y-102000000D01*
X111635413Y-102955808D01*
X111899814Y-102860044D01*
X112040704Y-102570429D01*
X112122384Y-102258892D01*
X112134189Y-102062595D01*
X115358282Y-102062595D01*
X115402039Y-102381675D01*
X115507205Y-102686088D01*
X115600186Y-102860044D01*
X115864587Y-102955808D01*
X116820395Y-102000000D01*
X117179605Y-102000000D01*
X118135413Y-102955808D01*
X118399814Y-102860044D01*
X118540704Y-102570429D01*
X118622384Y-102258892D01*
X118634189Y-102062595D01*
X120358282Y-102062595D01*
X120402039Y-102381675D01*
X120507205Y-102686088D01*
X120600186Y-102860044D01*
X120864587Y-102955808D01*
X121820395Y-102000000D01*
X122179605Y-102000000D01*
X123135413Y-102955808D01*
X123399814Y-102860044D01*
X123540704Y-102570429D01*
X123622384Y-102258892D01*
X123634189Y-102062595D01*
X126858282Y-102062595D01*
X126902039Y-102381675D01*
X127007205Y-102686088D01*
X127100186Y-102860044D01*
X127364587Y-102955808D01*
X128320395Y-102000000D01*
X128679605Y-102000000D01*
X129635413Y-102955808D01*
X129899814Y-102860044D01*
X130040704Y-102570429D01*
X130122384Y-102258892D01*
X130141718Y-101937405D01*
X130097961Y-101618325D01*
X129992795Y-101313912D01*
X129899814Y-101139956D01*
X129635413Y-101044192D01*
X128679605Y-102000000D01*
X128320395Y-102000000D01*
X127364587Y-101044192D01*
X127100186Y-101139956D01*
X126959296Y-101429571D01*
X126877616Y-101741108D01*
X126858282Y-102062595D01*
X123634189Y-102062595D01*
X123641718Y-101937405D01*
X123597961Y-101618325D01*
X123492795Y-101313912D01*
X123399814Y-101139956D01*
X123135413Y-101044192D01*
X122179605Y-102000000D01*
X121820395Y-102000000D01*
X120864587Y-101044192D01*
X120600186Y-101139956D01*
X120459296Y-101429571D01*
X120377616Y-101741108D01*
X120358282Y-102062595D01*
X118634189Y-102062595D01*
X118641718Y-101937405D01*
X118597961Y-101618325D01*
X118492795Y-101313912D01*
X118399814Y-101139956D01*
X118135413Y-101044192D01*
X117179605Y-102000000D01*
X116820395Y-102000000D01*
X115864587Y-101044192D01*
X115600186Y-101139956D01*
X115459296Y-101429571D01*
X115377616Y-101741108D01*
X115358282Y-102062595D01*
X112134189Y-102062595D01*
X112141718Y-101937405D01*
X112097961Y-101618325D01*
X111992795Y-101313912D01*
X111899814Y-101139956D01*
X111635413Y-101044192D01*
X110679605Y-102000000D01*
X110320395Y-102000000D01*
X109364587Y-101044192D01*
X109100186Y-101139956D01*
X108959296Y-101429571D01*
X108877616Y-101741108D01*
X108858282Y-102062595D01*
X103578427Y-102062595D01*
X103626001Y-101947743D01*
X103684990Y-101651184D01*
X103684990Y-101348816D01*
X103626001Y-101052257D01*
X103548266Y-100864587D01*
X109544192Y-100864587D01*
X110500000Y-101820395D01*
X111455808Y-100864587D01*
X116044192Y-100864587D01*
X117000000Y-101820395D01*
X117955808Y-100864587D01*
X121044192Y-100864587D01*
X122000000Y-101820395D01*
X122955808Y-100864587D01*
X127544192Y-100864587D01*
X128500000Y-101820395D01*
X129455808Y-100864587D01*
X129360044Y-100600186D01*
X129070429Y-100459296D01*
X128758892Y-100377616D01*
X128437405Y-100358282D01*
X128118325Y-100402039D01*
X127813912Y-100507205D01*
X127639956Y-100600186D01*
X127544192Y-100864587D01*
X122955808Y-100864587D01*
X122860044Y-100600186D01*
X122570429Y-100459296D01*
X122258892Y-100377616D01*
X121937405Y-100358282D01*
X121618325Y-100402039D01*
X121313912Y-100507205D01*
X121139956Y-100600186D01*
X121044192Y-100864587D01*
X117955808Y-100864587D01*
X117860044Y-100600186D01*
X117570429Y-100459296D01*
X117258892Y-100377616D01*
X116937405Y-100358282D01*
X116618325Y-100402039D01*
X116313912Y-100507205D01*
X116139956Y-100600186D01*
X116044192Y-100864587D01*
X111455808Y-100864587D01*
X111360044Y-100600186D01*
X111070429Y-100459296D01*
X110758892Y-100377616D01*
X110437405Y-100358282D01*
X110118325Y-100402039D01*
X109813912Y-100507205D01*
X109639956Y-100600186D01*
X109544192Y-100864587D01*
X103548266Y-100864587D01*
X103510289Y-100772905D01*
X103342302Y-100521495D01*
X103128495Y-100307688D01*
X102877085Y-100139701D01*
X102597733Y-100023989D01*
X102301174Y-99965000D01*
X101998806Y-99965000D01*
X101702247Y-100023989D01*
X101422895Y-100139701D01*
X101171485Y-100307688D01*
X100957678Y-100521495D01*
X100789691Y-100772905D01*
X100673979Y-101052257D01*
X100614990Y-101348816D01*
X100614990Y-101651184D01*
X100673979Y-101947743D01*
X100775525Y-102192896D01*
X100341482Y-102626940D01*
X100231184Y-102605000D01*
X99928816Y-102605000D01*
X99632257Y-102663989D01*
X99352905Y-102779701D01*
X99101495Y-102947688D01*
X98887688Y-103161495D01*
X98785049Y-103315105D01*
X98604080Y-103255525D01*
X97719605Y-104140000D01*
X98604080Y-105024475D01*
X98785049Y-104964895D01*
X98887688Y-105118505D01*
X99101495Y-105332312D01*
X99352905Y-105500299D01*
X99629816Y-105615000D01*
X97972540Y-105615000D01*
X98191199Y-105538222D01*
X98340792Y-105458261D01*
X98424475Y-105204080D01*
X97540000Y-104319605D01*
X96655525Y-105204080D01*
X96739208Y-105458261D01*
X97011775Y-105589158D01*
X97112408Y-105615000D01*
X96366579Y-105615000D01*
X96218880Y-105467302D01*
X96278430Y-105418430D01*
X96388675Y-105284097D01*
X96470593Y-105130838D01*
X96514588Y-104985807D01*
X97360395Y-104140000D01*
X96514588Y-103294193D01*
X96470593Y-103149162D01*
X96431445Y-103075920D01*
X96655525Y-103075920D01*
X97540000Y-103960395D01*
X98424475Y-103075920D01*
X98340792Y-102821739D01*
X98068225Y-102690842D01*
X97775358Y-102615635D01*
X97473447Y-102599009D01*
X97174093Y-102641603D01*
X96888801Y-102741778D01*
X96739208Y-102821739D01*
X96655525Y-103075920D01*
X96431445Y-103075920D01*
X96388675Y-102995903D01*
X96278430Y-102861570D01*
X96144097Y-102751325D01*
X95990838Y-102669407D01*
X95824542Y-102618961D01*
X95651600Y-102601928D01*
X94348400Y-102601928D01*
X94175458Y-102618961D01*
X94009162Y-102669407D01*
X93855903Y-102751325D01*
X93721570Y-102861570D01*
X93611325Y-102995903D01*
X93529407Y-103149162D01*
X93497301Y-103255000D01*
X92523469Y-103255000D01*
X92480000Y-103250719D01*
X92436531Y-103255000D01*
X92436523Y-103255000D01*
X92306510Y-103267805D01*
X92139686Y-103318411D01*
X91985941Y-103400589D01*
X91884953Y-103483468D01*
X91884951Y-103483470D01*
X91851183Y-103511183D01*
X91823470Y-103544951D01*
X91703421Y-103665000D01*
X91488514Y-103665000D01*
X91230595Y-103716304D01*
X90987641Y-103816939D01*
X90768987Y-103963038D01*
X90583038Y-104148987D01*
X90436939Y-104367641D01*
X90336304Y-104610595D01*
X90285000Y-104868514D01*
X88903064Y-104868514D01*
X89595049Y-104176530D01*
X89628817Y-104148817D01*
X89656571Y-104115000D01*
X89739410Y-104014060D01*
X89743751Y-104005939D01*
X89821589Y-103860313D01*
X89872195Y-103693490D01*
X89885000Y-103563477D01*
X89885000Y-103563467D01*
X89889281Y-103520001D01*
X89885000Y-103476534D01*
X89885000Y-103254790D01*
X89978505Y-103192312D01*
X90192312Y-102978505D01*
X90360299Y-102727095D01*
X90476011Y-102447743D01*
X90535000Y-102151184D01*
X90535000Y-101848816D01*
X90476011Y-101552257D01*
X90360299Y-101272905D01*
X90192312Y-101021495D01*
X89978505Y-100807688D01*
X89727095Y-100639701D01*
X89447743Y-100523989D01*
X89151184Y-100465000D01*
X88848816Y-100465000D01*
X88552257Y-100523989D01*
X88272905Y-100639701D01*
X88021495Y-100807688D01*
X87807688Y-101021495D01*
X87639701Y-101272905D01*
X87523989Y-101552257D01*
X87465000Y-101848816D01*
X87465000Y-102151184D01*
X87523989Y-102447743D01*
X87639701Y-102727095D01*
X87807688Y-102978505D01*
X88021495Y-103192312D01*
X88054234Y-103214187D01*
X87339682Y-103928740D01*
X87172359Y-103816939D01*
X86929405Y-103716304D01*
X86671486Y-103665000D01*
X86408514Y-103665000D01*
X86150595Y-103716304D01*
X85907641Y-103816939D01*
X85688987Y-103963038D01*
X85503038Y-104148987D01*
X85356939Y-104367641D01*
X85337217Y-104415253D01*
X85338072Y-104300000D01*
X85325812Y-104175518D01*
X85289502Y-104055820D01*
X85230537Y-103945506D01*
X85151185Y-103848815D01*
X85054494Y-103769463D01*
X84944180Y-103710498D01*
X84824482Y-103674188D01*
X84700000Y-103661928D01*
X84285750Y-103665000D01*
X84127000Y-103823750D01*
X83873000Y-103823750D01*
X83714250Y-103665000D01*
X83300000Y-103661928D01*
X83175518Y-103674188D01*
X83055820Y-103710498D01*
X82945506Y-103769463D01*
X82848815Y-103848815D01*
X82769463Y-103945506D01*
X82710498Y-104055820D01*
X82674188Y-104175518D01*
X82661928Y-104300000D01*
X75460767Y-104300000D01*
X75424729Y-104263962D01*
X75058669Y-104019369D01*
X74651925Y-103850890D01*
X74220128Y-103765000D01*
X73779872Y-103765000D01*
X73348075Y-103850890D01*
X72941331Y-104019369D01*
X72575271Y-104263962D01*
X72263962Y-104575271D01*
X72019369Y-104941331D01*
X71850890Y-105348075D01*
X71765000Y-105779872D01*
X71127000Y-105779872D01*
X71127000Y-95139268D01*
X73285000Y-95139268D01*
X73285000Y-95500732D01*
X73355518Y-95855250D01*
X73493844Y-96189199D01*
X73694662Y-96489744D01*
X73950256Y-96745338D01*
X74250801Y-96946156D01*
X74584750Y-97084482D01*
X74939268Y-97155000D01*
X75300732Y-97155000D01*
X75655250Y-97084482D01*
X75967848Y-96955000D01*
X78982762Y-96955000D01*
X79929138Y-97901376D01*
X79962463Y-97981831D01*
X80152337Y-98265998D01*
X80394002Y-98507663D01*
X80678169Y-98697537D01*
X80993919Y-98828325D01*
X81329117Y-98895000D01*
X81670883Y-98895000D01*
X82006081Y-98828325D01*
X82321831Y-98697537D01*
X82605998Y-98507663D01*
X82847663Y-98265998D01*
X83037537Y-97981831D01*
X83168325Y-97666081D01*
X83233391Y-97338967D01*
X108865000Y-97338967D01*
X108865000Y-97661033D01*
X108927832Y-97976912D01*
X109051082Y-98274463D01*
X109230013Y-98542252D01*
X109457748Y-98769987D01*
X109725537Y-98948918D01*
X110023088Y-99072168D01*
X110338967Y-99135000D01*
X110661033Y-99135000D01*
X110976912Y-99072168D01*
X111274463Y-98948918D01*
X111542252Y-98769987D01*
X111769987Y-98542252D01*
X111875059Y-98385000D01*
X115624941Y-98385000D01*
X115730013Y-98542252D01*
X115957748Y-98769987D01*
X116225537Y-98948918D01*
X116523088Y-99072168D01*
X116838967Y-99135000D01*
X117161033Y-99135000D01*
X117476912Y-99072168D01*
X117774463Y-98948918D01*
X118042252Y-98769987D01*
X118269987Y-98542252D01*
X118448918Y-98274463D01*
X118572168Y-97976912D01*
X118635000Y-97661033D01*
X118635000Y-97338967D01*
X120365000Y-97338967D01*
X120365000Y-97661033D01*
X120427832Y-97976912D01*
X120551082Y-98274463D01*
X120730013Y-98542252D01*
X120957748Y-98769987D01*
X121225537Y-98948918D01*
X121523088Y-99072168D01*
X121838967Y-99135000D01*
X122161033Y-99135000D01*
X122476912Y-99072168D01*
X122774463Y-98948918D01*
X123042252Y-98769987D01*
X123269987Y-98542252D01*
X123375059Y-98385000D01*
X127124941Y-98385000D01*
X127230013Y-98542252D01*
X127457748Y-98769987D01*
X127725537Y-98948918D01*
X128023088Y-99072168D01*
X128338967Y-99135000D01*
X128661033Y-99135000D01*
X128976912Y-99072168D01*
X129274463Y-98948918D01*
X129542252Y-98769987D01*
X129769987Y-98542252D01*
X129948918Y-98274463D01*
X130072168Y-97976912D01*
X130135000Y-97661033D01*
X130135000Y-97338967D01*
X130072168Y-97023088D01*
X129948918Y-96725537D01*
X129769987Y-96457748D01*
X129542252Y-96230013D01*
X129274463Y-96051082D01*
X128976912Y-95927832D01*
X128661033Y-95865000D01*
X128338967Y-95865000D01*
X128023088Y-95927832D01*
X127725537Y-96051082D01*
X127457748Y-96230013D01*
X127230013Y-96457748D01*
X127124941Y-96615000D01*
X123375059Y-96615000D01*
X123269987Y-96457748D01*
X123042252Y-96230013D01*
X122885000Y-96124941D01*
X122885000Y-95754790D01*
X122978505Y-95692312D01*
X123192312Y-95478505D01*
X123360299Y-95227095D01*
X123476011Y-94947743D01*
X123535000Y-94651184D01*
X123535000Y-94348816D01*
X123476011Y-94052257D01*
X123360299Y-93772905D01*
X123192312Y-93521495D01*
X122978505Y-93307688D01*
X122727095Y-93139701D01*
X122447743Y-93023989D01*
X122151184Y-92965000D01*
X121848816Y-92965000D01*
X121552257Y-93023989D01*
X121272905Y-93139701D01*
X121021495Y-93307688D01*
X120807688Y-93521495D01*
X120639701Y-93772905D01*
X120523989Y-94052257D01*
X120465000Y-94348816D01*
X120465000Y-94651184D01*
X120523989Y-94947743D01*
X120639701Y-95227095D01*
X120807688Y-95478505D01*
X121021495Y-95692312D01*
X121115000Y-95754790D01*
X121115001Y-96124940D01*
X120957748Y-96230013D01*
X120730013Y-96457748D01*
X120551082Y-96725537D01*
X120427832Y-97023088D01*
X120365000Y-97338967D01*
X118635000Y-97338967D01*
X118572168Y-97023088D01*
X118448918Y-96725537D01*
X118269987Y-96457748D01*
X118042252Y-96230013D01*
X117774463Y-96051082D01*
X117476912Y-95927832D01*
X117161033Y-95865000D01*
X116838967Y-95865000D01*
X116523088Y-95927832D01*
X116225537Y-96051082D01*
X115957748Y-96230013D01*
X115730013Y-96457748D01*
X115624941Y-96615000D01*
X111875059Y-96615000D01*
X111769987Y-96457748D01*
X111542252Y-96230013D01*
X111385000Y-96124941D01*
X111385000Y-95254790D01*
X111478505Y-95192312D01*
X111692312Y-94978505D01*
X111860299Y-94727095D01*
X111976011Y-94447743D01*
X112035000Y-94151184D01*
X112035000Y-93848816D01*
X111976011Y-93552257D01*
X111860299Y-93272905D01*
X111692312Y-93021495D01*
X111478505Y-92807688D01*
X111227095Y-92639701D01*
X110947743Y-92523989D01*
X110651184Y-92465000D01*
X110348816Y-92465000D01*
X110052257Y-92523989D01*
X109772905Y-92639701D01*
X109521495Y-92807688D01*
X109307688Y-93021495D01*
X109139701Y-93272905D01*
X109023989Y-93552257D01*
X108965000Y-93848816D01*
X108965000Y-94151184D01*
X109023989Y-94447743D01*
X109139701Y-94727095D01*
X109307688Y-94978505D01*
X109521495Y-95192312D01*
X109615000Y-95254790D01*
X109615001Y-96124940D01*
X109457748Y-96230013D01*
X109230013Y-96457748D01*
X109051082Y-96725537D01*
X108927832Y-97023088D01*
X108865000Y-97338967D01*
X83233391Y-97338967D01*
X83235000Y-97330883D01*
X83235000Y-96989117D01*
X83168325Y-96653919D01*
X83037537Y-96338169D01*
X82847663Y-96054002D01*
X82605998Y-95812337D01*
X82321831Y-95622463D01*
X82241376Y-95589138D01*
X80872925Y-94220686D01*
X80821714Y-94158286D01*
X80572752Y-93953969D01*
X80288715Y-93802148D01*
X79980516Y-93708657D01*
X79740322Y-93685000D01*
X79740319Y-93685000D01*
X79660000Y-93677089D01*
X79579681Y-93685000D01*
X75967848Y-93685000D01*
X75682511Y-93566810D01*
X75875833Y-93501846D01*
X76098486Y-93382836D01*
X76218374Y-93097980D01*
X75120000Y-91999605D01*
X74021626Y-93097980D01*
X74141514Y-93382836D01*
X74465210Y-93543699D01*
X74554690Y-93567969D01*
X74250801Y-93693844D01*
X73950256Y-93894662D01*
X73694662Y-94150256D01*
X73493844Y-94450801D01*
X73355518Y-94784750D01*
X73285000Y-95139268D01*
X71127000Y-95139268D01*
X71127000Y-91874684D01*
X73276933Y-91874684D01*
X73323015Y-92233198D01*
X73438154Y-92575833D01*
X73557164Y-92798486D01*
X73842020Y-92918374D01*
X74940395Y-91820000D01*
X75299605Y-91820000D01*
X76397980Y-92918374D01*
X76682836Y-92798486D01*
X76843699Y-92474790D01*
X76938322Y-92125931D01*
X76963067Y-91765316D01*
X76916985Y-91406802D01*
X76801846Y-91064167D01*
X76682836Y-90841514D01*
X76397980Y-90721626D01*
X75299605Y-91820000D01*
X74940395Y-91820000D01*
X73842020Y-90721626D01*
X73557164Y-90841514D01*
X73396301Y-91165210D01*
X73301678Y-91514069D01*
X73276933Y-91874684D01*
X71127000Y-91874684D01*
X71127000Y-89597980D01*
X74021626Y-89597980D01*
X74141514Y-89882836D01*
X74465210Y-90043699D01*
X74564836Y-90070721D01*
X74364167Y-90138154D01*
X74141514Y-90257164D01*
X74021626Y-90542020D01*
X75120000Y-91640395D01*
X76218374Y-90542020D01*
X76098486Y-90257164D01*
X75774790Y-90096301D01*
X75675164Y-90069279D01*
X75875833Y-90001846D01*
X76098486Y-89882836D01*
X76218374Y-89597980D01*
X75120000Y-88499605D01*
X74021626Y-89597980D01*
X71127000Y-89597980D01*
X71127000Y-88374684D01*
X73276933Y-88374684D01*
X73323015Y-88733198D01*
X73438154Y-89075833D01*
X73557164Y-89298486D01*
X73842020Y-89418374D01*
X74940395Y-88320000D01*
X75299605Y-88320000D01*
X76397980Y-89418374D01*
X76682836Y-89298486D01*
X76843699Y-88974790D01*
X76938322Y-88625931D01*
X76963067Y-88265316D01*
X76916985Y-87906802D01*
X76801846Y-87564167D01*
X76682836Y-87341514D01*
X76397980Y-87221626D01*
X75299605Y-88320000D01*
X74940395Y-88320000D01*
X73842020Y-87221626D01*
X73557164Y-87341514D01*
X73396301Y-87665210D01*
X73301678Y-88014069D01*
X73276933Y-88374684D01*
X71127000Y-88374684D01*
X71127000Y-83620000D01*
X73281928Y-83620000D01*
X73281928Y-86020000D01*
X73294188Y-86144482D01*
X73330498Y-86264180D01*
X73389463Y-86374494D01*
X73468815Y-86471185D01*
X73565506Y-86550537D01*
X73675820Y-86609502D01*
X73795518Y-86645812D01*
X73920000Y-86658072D01*
X74326903Y-86658072D01*
X74141514Y-86757164D01*
X74021626Y-87042020D01*
X75120000Y-88140395D01*
X76218374Y-87042020D01*
X76098486Y-86757164D01*
X75899088Y-86658072D01*
X76320000Y-86658072D01*
X76444482Y-86645812D01*
X76564180Y-86609502D01*
X76674494Y-86550537D01*
X76771185Y-86471185D01*
X76850537Y-86374494D01*
X76909502Y-86264180D01*
X76945812Y-86144482D01*
X76958072Y-86020000D01*
X76958072Y-85900000D01*
X79761928Y-85900000D01*
X79761928Y-88100000D01*
X79774188Y-88224482D01*
X79810498Y-88344180D01*
X79869463Y-88454494D01*
X79948815Y-88551185D01*
X80045506Y-88630537D01*
X80155820Y-88689502D01*
X80275518Y-88725812D01*
X80400000Y-88738072D01*
X82600000Y-88738072D01*
X82724482Y-88725812D01*
X82844180Y-88689502D01*
X82954494Y-88630537D01*
X83051185Y-88551185D01*
X83130537Y-88454494D01*
X83189502Y-88344180D01*
X83225812Y-88224482D01*
X83234625Y-88135000D01*
X85365001Y-88135000D01*
X85365000Y-89822761D01*
X84287085Y-90900677D01*
X84133970Y-91087248D01*
X83982148Y-91371286D01*
X83888658Y-91679484D01*
X83857089Y-92000000D01*
X83888658Y-92320516D01*
X83982148Y-92628714D01*
X84133970Y-92912752D01*
X84338287Y-93161713D01*
X84587248Y-93366030D01*
X84871286Y-93517852D01*
X85179484Y-93611342D01*
X85500000Y-93642911D01*
X85820516Y-93611342D01*
X86128714Y-93517852D01*
X86412752Y-93366030D01*
X86599323Y-93212915D01*
X88099320Y-91712919D01*
X88161714Y-91661714D01*
X88366031Y-91412752D01*
X88517852Y-91128715D01*
X88611343Y-90820516D01*
X88635000Y-90580322D01*
X88635000Y-90580320D01*
X88642911Y-90500001D01*
X88635000Y-90419681D01*
X88635000Y-87492702D01*
X89686903Y-87492702D01*
X89758486Y-87736671D01*
X90013996Y-87857571D01*
X90288184Y-87926300D01*
X90570512Y-87940217D01*
X90850130Y-87898787D01*
X91116292Y-87803603D01*
X91241514Y-87736671D01*
X91313097Y-87492702D01*
X97686903Y-87492702D01*
X97758486Y-87736671D01*
X98013996Y-87857571D01*
X98288184Y-87926300D01*
X98570512Y-87940217D01*
X98850130Y-87898787D01*
X99116292Y-87803603D01*
X99241514Y-87736671D01*
X99313097Y-87492702D01*
X98500000Y-86679605D01*
X97686903Y-87492702D01*
X91313097Y-87492702D01*
X90500000Y-86679605D01*
X89686903Y-87492702D01*
X88635000Y-87492702D01*
X88635000Y-86580322D01*
X88635966Y-86570512D01*
X89059783Y-86570512D01*
X89101213Y-86850130D01*
X89196397Y-87116292D01*
X89263329Y-87241514D01*
X89507298Y-87313097D01*
X90320395Y-86500000D01*
X90679605Y-86500000D01*
X91492702Y-87313097D01*
X91736671Y-87241514D01*
X91857571Y-86986004D01*
X91926300Y-86711816D01*
X91933265Y-86570512D01*
X97059783Y-86570512D01*
X97101213Y-86850130D01*
X97196397Y-87116292D01*
X97263329Y-87241514D01*
X97507298Y-87313097D01*
X98320395Y-86500000D01*
X98679605Y-86500000D01*
X99492702Y-87313097D01*
X99736671Y-87241514D01*
X99857571Y-86986004D01*
X99926300Y-86711816D01*
X99940217Y-86429488D01*
X99898787Y-86149870D01*
X99803603Y-85883708D01*
X99736671Y-85758486D01*
X99492702Y-85686903D01*
X98679605Y-86500000D01*
X98320395Y-86500000D01*
X97507298Y-85686903D01*
X97263329Y-85758486D01*
X97142429Y-86013996D01*
X97073700Y-86288184D01*
X97059783Y-86570512D01*
X91933265Y-86570512D01*
X91940217Y-86429488D01*
X91898787Y-86149870D01*
X91803603Y-85883708D01*
X91736671Y-85758486D01*
X91492702Y-85686903D01*
X90679605Y-86500000D01*
X90320395Y-86500000D01*
X89507298Y-85686903D01*
X89263329Y-85758486D01*
X89142429Y-86013996D01*
X89073700Y-86288184D01*
X89059783Y-86570512D01*
X88635966Y-86570512D01*
X88642911Y-86500000D01*
X88620032Y-86267700D01*
X88611343Y-86179484D01*
X88517852Y-85871285D01*
X88438072Y-85722027D01*
X88438072Y-85700000D01*
X88425812Y-85575518D01*
X88405118Y-85507298D01*
X89686903Y-85507298D01*
X90500000Y-86320395D01*
X91313097Y-85507298D01*
X97686903Y-85507298D01*
X98500000Y-86320395D01*
X99313097Y-85507298D01*
X99241514Y-85263329D01*
X98986004Y-85142429D01*
X98711816Y-85073700D01*
X98429488Y-85059783D01*
X98149870Y-85101213D01*
X97883708Y-85196397D01*
X97758486Y-85263329D01*
X97686903Y-85507298D01*
X91313097Y-85507298D01*
X91241514Y-85263329D01*
X90986004Y-85142429D01*
X90711816Y-85073700D01*
X90429488Y-85059783D01*
X90149870Y-85101213D01*
X89883708Y-85196397D01*
X89758486Y-85263329D01*
X89686903Y-85507298D01*
X88405118Y-85507298D01*
X88389502Y-85455820D01*
X88330537Y-85345506D01*
X88251185Y-85248815D01*
X88154494Y-85169463D01*
X88044180Y-85110498D01*
X87924482Y-85074188D01*
X87800000Y-85061928D01*
X87777973Y-85061928D01*
X87628715Y-84982148D01*
X87320516Y-84888657D01*
X87000000Y-84857089D01*
X86919678Y-84865000D01*
X81919678Y-84865000D01*
X81679484Y-84888657D01*
X81371285Y-84982148D01*
X81087248Y-85133969D01*
X80931329Y-85261928D01*
X80400000Y-85261928D01*
X80275518Y-85274188D01*
X80155820Y-85310498D01*
X80045506Y-85369463D01*
X79948815Y-85448815D01*
X79869463Y-85545506D01*
X79810498Y-85655820D01*
X79774188Y-85775518D01*
X79761928Y-85900000D01*
X76958072Y-85900000D01*
X76958072Y-84385000D01*
X79245210Y-84385000D01*
X79307688Y-84478505D01*
X79521495Y-84692312D01*
X79772905Y-84860299D01*
X80052257Y-84976011D01*
X80348816Y-85035000D01*
X80651184Y-85035000D01*
X80947743Y-84976011D01*
X81227095Y-84860299D01*
X81478505Y-84692312D01*
X81692312Y-84478505D01*
X81860299Y-84227095D01*
X81976011Y-83947743D01*
X82035000Y-83651184D01*
X82035000Y-83348816D01*
X81976011Y-83052257D01*
X81860299Y-82772905D01*
X81692312Y-82521495D01*
X81478505Y-82307688D01*
X81227095Y-82139701D01*
X80947743Y-82023989D01*
X80651184Y-81965000D01*
X80348816Y-81965000D01*
X80052257Y-82023989D01*
X79772905Y-82139701D01*
X79521495Y-82307688D01*
X79307688Y-82521495D01*
X79245210Y-82615000D01*
X76483469Y-82615000D01*
X76440000Y-82610719D01*
X76396531Y-82615000D01*
X76396523Y-82615000D01*
X76266510Y-82627805D01*
X76099687Y-82678411D01*
X76097680Y-82679484D01*
X75945941Y-82760589D01*
X75844953Y-82843468D01*
X75844951Y-82843470D01*
X75811183Y-82871183D01*
X75783470Y-82904951D01*
X75706493Y-82981928D01*
X73920000Y-82981928D01*
X73795518Y-82994188D01*
X73675820Y-83030498D01*
X73565506Y-83089463D01*
X73468815Y-83168815D01*
X73389463Y-83265506D01*
X73330498Y-83375820D01*
X73294188Y-83495518D01*
X73281928Y-83620000D01*
X71127000Y-83620000D01*
X71127000Y-73779872D01*
X71765000Y-73779872D01*
X71765000Y-74220128D01*
X71850890Y-74651925D01*
X72019369Y-75058669D01*
X72263962Y-75424729D01*
X72575271Y-75736038D01*
X72941331Y-75980631D01*
X73348075Y-76149110D01*
X73779872Y-76235000D01*
X74220128Y-76235000D01*
X74651925Y-76149110D01*
X75058669Y-75980631D01*
X75424729Y-75736038D01*
X75736038Y-75424729D01*
X75980631Y-75058669D01*
X76149110Y-74651925D01*
X76235000Y-74220128D01*
X76235000Y-73779872D01*
X76149110Y-73348075D01*
X75980631Y-72941331D01*
X75736038Y-72575271D01*
X75424729Y-72263962D01*
X75058669Y-72019369D01*
X74651925Y-71850890D01*
X74220128Y-71765000D01*
X73779872Y-71765000D01*
X73348075Y-71850890D01*
X72941331Y-72019369D01*
X72575271Y-72263962D01*
X72263962Y-72575271D01*
X72019369Y-72941331D01*
X71850890Y-73348075D01*
X71765000Y-73779872D01*
X71127000Y-73779872D01*
X71127000Y-72006234D01*
X71144376Y-71829811D01*
X71194022Y-71666150D01*
X71274638Y-71515328D01*
X71383130Y-71383130D01*
X71515328Y-71274638D01*
X71666150Y-71194022D01*
X71829811Y-71144376D01*
X72006234Y-71127000D01*
X102493766Y-71127000D01*
X102670189Y-71144376D01*
G37*
G04 #@! TD.AperFunction*
G04 #@! TD*
D29*
X101500000Y-76000000D03*
X93000000Y-79499994D03*
X86500000Y-99500000D03*
X93500000Y-101500000D03*
X158045398Y-77045398D03*
X118000000Y-93000000D03*
X94499990Y-87630000D03*
X150000002Y-90000000D03*
X132000000Y-93000000D03*
X148189992Y-79810000D03*
X85500000Y-92000000D03*
X159500012Y-104500000D03*
X160000000Y-81500000D03*
X102000000Y-92000000D03*
X89000000Y-102000000D03*
X102149990Y-101500000D03*
X114000000Y-88500000D03*
X122500000Y-81000000D03*
X160000000Y-95500000D03*
X160000000Y-85000000D03*
X120000006Y-85500000D03*
X114000002Y-79500000D03*
X114000016Y-76500000D03*
X110500000Y-94000000D03*
X129000000Y-89000000D03*
X120000000Y-83000000D03*
X122000000Y-94500000D03*
X128500002Y-86500000D03*
X103500000Y-104499998D03*
X105500000Y-88500014D03*
X80500000Y-83500000D03*
X107500000Y-86500000D03*
X122000000Y-102000000D03*
X122000000Y-97500000D03*
X128500000Y-102000000D03*
X128500000Y-97500000D03*
X125000000Y-76500000D03*
X125000000Y-78500000D03*
X125000000Y-80500000D03*
X125000000Y-82500000D03*
X125000000Y-84500000D03*
X125000000Y-86500000D03*
X125000000Y-88500000D03*
X125000000Y-90500000D03*
X111000000Y-90500000D03*
X111000000Y-88500000D03*
X111000000Y-86500000D03*
X111000000Y-84500000D03*
X111000000Y-82500000D03*
X111000000Y-80500000D03*
X111000000Y-78500000D03*
X111000000Y-76500000D03*
X140000000Y-90000000D03*
X166000000Y-106000000D03*
X166000000Y-74000000D03*
X74000000Y-106000000D03*
X74000000Y-74000000D03*
X90500000Y-86500000D03*
X87000000Y-86500000D03*
X102000000Y-86500000D03*
X98500000Y-86500000D03*
X81500000Y-87000000D03*
X81500000Y-97160000D03*
X75120000Y-84820000D03*
X75120000Y-88320000D03*
X75120000Y-91820000D03*
X75120000Y-95320000D03*
X165000000Y-99000000D03*
X165000000Y-95500000D03*
X165000000Y-92000000D03*
X165000000Y-88500000D03*
X165000000Y-85000000D03*
X165000000Y-81500000D03*
X95000000Y-104140000D03*
X97540000Y-104140000D03*
X100080000Y-104140000D03*
X84000000Y-105000000D03*
X86540000Y-105000000D03*
X91620000Y-105000000D03*
X145580000Y-73500000D03*
X143040000Y-73500000D03*
X140500000Y-73500000D03*
X137960000Y-73500000D03*
X135420000Y-73500000D03*
X110500000Y-102000000D03*
X110500000Y-97500000D03*
X117000000Y-102000000D03*
X117000000Y-97500000D03*
M02*
